<svg width="153" height="408" viewBox="0 0 153 408" fill="none" xmlns="http://www.w3.org/2000/svg">
<path d="M76.2974 250.286C65.3235 250.286 38.1933 248.762 26 248C33.2398 292.582 48.1766 385.861 50.0056 402.322C78.3551 411.467 98.3978 405.37 104.876 401.179L126.595 248C114.402 248.762 87.2714 250.286 76.2974 250.286Z" stroke="black" stroke-width="1.5"/>
<path d="M1 188.831L1 169.208C5.61728 179.02 54.7281 181.328 76.4296 181.328C115.314 181.328 149.907 176.134 151.639 169.208V188.831C140.208 194.547 115.278 197.489 76.4296 198.76C42.1538 198.76 15.8606 194.547 1 188.831Z" stroke="black" stroke-width="1.5"/>
<path d="M1.00146 241L1.00146 221C10.1465 225.572 39.2782 232.096 75.2866 233.054C111.295 234.012 147.537 225.193 151 221.73V241.5C143 247 114.171 252.487 75.2866 252.487C41.0108 252.487 15.8621 246.716 1.00146 241Z" fill="white"/>
<path d="M1.00146 221L1.33688 220.329C1.10438 220.213 0.828279 220.225 0.607166 220.362C0.386054 220.499 0.251465 220.74 0.251465 221H1.00146ZM1.00146 241H0.251465L0.251465 241.515L0.732231 241.7L1.00146 241ZM151 241.5L151.425 242.118L151.75 241.895V241.5H151ZM151 221.73H151.75C151.75 221.427 151.567 221.154 151.287 221.037C151.007 220.921 150.684 220.986 150.47 221.2L151 221.73ZM75.2866 233.054L75.2667 233.804L75.2866 233.054ZM0.251465 221L0.251465 241H1.75146L1.75146 221H0.251465ZM0.732231 241.7C15.6895 247.453 40.931 253.237 75.2866 253.237V251.737C41.0905 251.737 16.0346 245.978 1.2707 240.3L0.732231 241.7ZM75.2866 253.237C94.7616 253.237 111.73 251.863 124.842 249.797C131.397 248.764 136.998 247.556 141.472 246.257C145.929 244.963 149.324 243.562 151.425 242.118L150.575 240.882C148.676 242.188 145.467 243.535 141.054 244.817C136.657 246.094 131.12 247.289 124.608 248.315C111.585 250.368 94.6957 251.737 75.2866 251.737V253.237ZM151.75 241.5V221.73H150.25V241.5H151.75ZM150.47 221.2C150.156 221.514 149.344 221.983 147.945 222.556C146.585 223.114 144.772 223.73 142.562 224.375C138.146 225.665 132.193 227.057 125.215 228.312C111.259 230.823 93.2485 232.782 75.3066 232.305L75.2667 233.804C93.3332 234.285 111.448 232.313 125.481 229.788C132.497 228.526 138.504 227.123 142.983 225.815C145.221 225.162 147.088 224.529 148.514 223.944C149.9 223.376 150.979 222.812 151.53 222.261L150.47 221.2ZM75.3066 232.305C57.3407 231.827 41.0933 229.96 28.2029 227.644C15.2875 225.324 5.80785 222.565 1.33688 220.329L0.666055 221.671C5.34007 224.008 14.9988 226.796 27.9377 229.121C40.9015 231.45 57.2242 233.324 75.2667 233.804L75.3066 232.305Z" fill="black"/>
<path d="M14.7188 212.066L14.7188 193.044C23.8637 195.33 46.9052 198.464 77.5754 198.76C108.246 199.055 132.46 194.187 140.462 193.044V212.066C129.944 216.269 110.477 220.479 77.5754 220.479C58.9185 220.03 27.8179 217.137 14.7188 212.066Z" stroke="black" stroke-width="1.5"/>
<path d="M14.7184 212.479L14.9003 211.751L14.5923 211.674L14.3227 211.841L14.7184 212.479ZM1 221L0.604256 220.363C0.377554 220.504 0.242762 220.754 0.250299 221.021C0.257837 221.288 0.406569 221.531 0.640861 221.658L1 221ZM151 222L151.475 222.58C151.639 222.446 151.739 222.249 151.749 222.037C151.76 221.826 151.68 221.62 151.53 221.47L151 222ZM140.462 212.479L140.941 211.901L140.62 211.635L140.225 211.767L140.462 212.479ZM76.4471 220.48L76.4519 219.73L76.4471 220.48ZM14.3227 211.841L0.604256 220.363L1.39574 221.637L15.1141 213.116L14.3227 211.841ZM0.640861 221.658C3.8802 223.425 9.10999 225.054 15.3696 226.508C21.6489 227.966 29.0306 229.262 36.6174 230.342C51.7853 232.501 67.8267 233.805 77.5902 233.805V232.305C67.9206 232.305 51.9541 231.01 36.8288 228.857C29.2689 227.781 21.9326 226.492 15.7089 225.047C9.46542 223.597 4.40698 222.004 1.35914 220.342L0.640861 221.658ZM77.5902 233.805C94.0862 233.805 111.104 232.162 124.691 229.955C131.484 228.852 137.431 227.606 142.034 226.349C144.334 225.721 146.309 225.088 147.891 224.465C149.456 223.848 150.694 223.219 151.475 222.58L150.525 221.42C149.931 221.906 148.871 222.466 147.341 223.069C145.827 223.666 143.908 224.283 141.639 224.902C137.102 226.141 131.21 227.377 124.451 228.475C110.933 230.67 93.9961 232.305 77.5902 232.305V233.805ZM151.53 221.47C149.227 219.167 146.579 216.774 144.511 214.961C143.476 214.053 142.584 213.289 141.951 212.751C141.634 212.483 141.382 212.271 141.209 212.125C141.123 212.053 141.056 211.997 141.01 211.959C140.988 211.94 140.971 211.926 140.959 211.916C140.953 211.911 140.949 211.908 140.946 211.905C140.944 211.904 140.943 211.903 140.942 211.902C140.942 211.902 140.941 211.902 140.941 211.902C140.941 211.902 140.941 211.901 140.941 211.901C140.941 211.901 140.941 211.901 140.462 212.479C139.983 213.056 139.983 213.056 139.983 213.056C139.983 213.056 139.983 213.056 139.983 213.056C139.983 213.056 139.984 213.056 139.984 213.056C139.985 213.057 139.986 213.058 139.987 213.059C139.99 213.061 139.994 213.065 140 213.069C140.011 213.079 140.028 213.093 140.05 213.111C140.094 213.148 140.16 213.203 140.245 213.275C140.416 213.418 140.666 213.628 140.98 213.895C141.608 214.428 142.494 215.187 143.522 216.088C145.58 217.893 148.2 220.261 150.47 222.53L151.53 221.47ZM140.225 211.767C133.443 214.028 110.662 219.95 76.4519 219.73L76.4423 221.23C110.82 221.451 133.764 215.502 140.699 213.19L140.225 211.767ZM76.4519 219.73C45.8712 219.534 24.026 214.032 14.9003 211.751L14.5365 213.206C23.7008 215.497 45.6826 221.033 76.4423 221.23L76.4519 219.73Z" fill="black"/>
<path d="M58.1579 1V0.25L57.4626 0.25L57.4101 0.943344L58.1579 1ZM91.3085 1L92.0564 0.943344L92.0038 0.25L91.3085 0.25V1ZM97.0241 76.4462L96.2763 76.5028L96.3059 76.8938L96.6439 77.0926L97.0241 76.4462ZM116.457 87.8774L116.625 88.6084C116.924 88.5398 117.152 88.2954 117.198 87.9918C117.245 87.6882 117.102 87.3867 116.838 87.2309L116.457 87.8774ZM34.1523 87.8774L33.7548 87.2414C33.4974 87.4023 33.3624 87.7024 33.4127 88.0018C33.4631 88.3011 33.6889 88.5406 33.9847 88.6084L34.1523 87.8774ZM52.4423 76.4462L52.8398 77.0822L53.1615 76.8811L53.1902 76.5028L52.4423 76.4462ZM58.1579 1.75L91.3085 1.75V0.25L58.1579 0.25V1.75ZM90.5607 1.05666L96.2763 76.5028L97.772 76.3895L92.0564 0.943344L90.5607 1.05666ZM96.6439 77.0926L116.077 88.5238L116.838 87.2309L97.4044 75.7997L96.6439 77.0926ZM34.5498 88.5134L52.8398 77.0822L52.0448 75.8102L33.7548 87.2414L34.5498 88.5134ZM53.1902 76.5028L58.9058 1.05666L57.4101 0.943344L51.6945 76.3895L53.1902 76.5028ZM116.457 87.8774C116.29 87.1464 116.29 87.1464 116.289 87.1464C116.289 87.1464 116.289 87.1465 116.289 87.1466C116.288 87.1467 116.287 87.147 116.285 87.1473C116.283 87.148 116.278 87.149 116.272 87.1503C116.261 87.153 116.243 87.157 116.219 87.1624C116.172 87.1731 116.102 87.189 116.009 87.2098C115.824 87.2514 115.549 87.3125 115.194 87.3904C114.483 87.5461 113.449 87.7687 112.157 88.036C109.573 88.5706 105.958 89.2834 101.838 89.9962C93.5853 91.4238 83.3498 92.843 75.3048 92.843V94.343C83.485 94.343 93.8258 92.9044 102.093 91.4742C106.233 90.7581 109.864 90.042 112.461 89.5049C113.759 89.2363 114.799 89.0125 115.515 88.8556C115.873 88.7772 116.15 88.7155 116.338 88.6734C116.431 88.6523 116.503 88.6361 116.551 88.6252C116.575 88.6197 116.594 88.6156 116.606 88.6128C116.612 88.6114 116.617 88.6103 116.62 88.6096C116.621 88.6092 116.623 88.6089 116.624 88.6087C116.624 88.6086 116.624 88.6086 116.624 88.6085C116.625 88.6085 116.625 88.6084 116.457 87.8774ZM75.3048 92.843C67.2597 92.843 57.0243 91.4238 48.7719 89.9962C44.6518 89.2834 41.0371 88.5706 38.4527 88.036C37.1606 87.7687 36.1264 87.5461 35.4156 87.3904C35.0603 87.3125 34.7858 87.2514 34.6005 87.2098C34.5078 87.189 34.4374 87.1731 34.3903 87.1624C34.3668 87.157 34.349 87.153 34.3373 87.1503C34.3314 87.149 34.327 87.148 34.3241 87.1473C34.3227 87.147 34.3216 87.1467 34.3209 87.1466C34.3206 87.1465 34.3203 87.1464 34.3201 87.1464C34.32 87.1464 34.32 87.1464 34.1523 87.8774C33.9847 88.6084 33.9849 88.6085 33.9851 88.6085C33.9853 88.6086 33.9857 88.6086 33.9861 88.6087C33.9869 88.6089 33.9881 88.6092 33.9897 88.6096C33.9928 88.6103 33.9975 88.6114 34.0037 88.6128C34.016 88.6156 34.0343 88.6197 34.0584 88.6252C34.1066 88.6361 34.1782 88.6523 34.272 88.6734C34.4597 88.7155 34.7367 88.7772 35.0946 88.8556C35.8105 89.0125 36.8504 89.2363 38.1488 89.5049C40.7453 90.042 44.3765 90.7581 48.5162 91.4742C56.7838 92.9044 67.1245 94.343 75.3048 94.343V92.843Z" fill="black"/>
<path d="M151.144 169.039C151.144 169.58 150.816 170.236 149.887 170.992C148.968 171.741 147.567 172.496 145.69 173.236C141.944 174.712 136.479 176.056 129.673 177.191C116.072 179.458 97.2533 180.864 76.4476 180.864C55.6419 180.864 36.8236 179.458 23.2224 177.191C16.4158 176.056 10.9512 174.712 7.20535 173.236C5.32869 172.496 3.92718 171.741 3.0079 170.992C2.07929 170.236 1.75146 169.58 1.75146 169.039C1.75146 168.499 2.07929 167.843 3.0079 167.087C3.92718 166.338 5.32869 165.582 7.20535 164.842C10.9512 163.366 16.4158 162.022 23.2224 160.888C36.8236 158.621 55.6419 157.215 76.4476 157.215C97.2533 157.215 116.072 158.621 129.673 160.888C136.479 162.022 141.944 163.366 145.69 164.842C147.567 165.582 148.968 166.338 149.887 167.087C150.816 167.843 151.144 168.499 151.144 169.039Z" fill="#BCF352" stroke="black" stroke-width="1.5"/>
<path d="M35.2954 170.182L35.2954 87.877C35.2954 87.877 47.8698 92.4494 75.3047 93.5926C91.3085 93.5926 115.314 87.877 115.314 87.877L115.314 170.182C115.314 170.182 90.9866 173.611 75.3047 173.611C59.6228 173.611 35.2954 170.182 35.2954 170.182Z" fill="white" stroke="black" stroke-width="1.5"/>
</svg>
