<svg width="153" height="416" viewBox="0 0 153 416" fill="none" xmlns="http://www.w3.org/2000/svg">
<path d="M75.5 278.983C65.7909 278.983 41.7879 277.661 31 277C37.4053 315.673 50.6205 396.589 52.2386 410.868C77.3205 418.801 95.053 413.512 100.784 409.876L120 277C109.212 277.661 85.2091 278.983 75.5 278.983Z" stroke="black" stroke-width="1.5"/>
<path d="M1 222.367L1 202.743C5.61728 212.555 54.7281 214.864 76.4296 214.864C115.314 214.864 149.907 209.669 151.639 202.743V222.367C140.208 228.082 115.278 231.024 76.4296 232.295C42.1538 232.295 15.8606 228.082 1 222.367Z" stroke="black" stroke-width="1.5"/>
<path d="M1.00195 274.591L2.14508 255.158C11.2901 259.731 39.2787 265.631 75.2871 266.589C111.296 267.547 145.29 258.728 148.753 255.265V274.889C137.322 280.605 114.171 286.023 75.2871 286.023C41.0113 286.023 15.8626 280.307 1.00195 274.591Z" fill="white"/>
<path d="M2.14508 255.158L2.48049 254.487C2.255 254.375 1.98794 254.383 1.76969 254.509C1.55143 254.635 1.41118 254.862 1.39637 255.114L2.14508 255.158ZM1.00195 274.591L0.253247 274.547L0.221056 275.095L0.732719 275.291L1.00195 274.591ZM148.753 274.889L149.089 275.56L149.503 275.352V274.889H148.753ZM148.753 255.265H149.503C149.503 254.962 149.321 254.689 149.04 254.573C148.76 254.457 148.438 254.521 148.223 254.735L148.753 255.265ZM75.2871 266.589L75.3071 265.84L75.2871 266.589ZM1.39637 255.114L0.253247 274.547L1.75066 274.635L2.89378 255.202L1.39637 255.114ZM0.732719 275.291C15.691 281.044 40.9327 286.773 75.2871 286.773V285.273C41.0898 285.273 16.0341 279.569 1.27119 273.891L0.732719 275.291ZM75.2871 286.773C114.215 286.773 137.504 281.352 149.089 275.56L148.418 274.218C137.14 279.857 114.127 285.273 75.2871 285.273V286.773ZM149.503 274.889V255.265H148.003V274.889H149.503ZM148.223 254.735C147.903 255.056 147.116 255.525 145.784 256.096C144.486 256.653 142.76 257.269 140.657 257.913C136.453 259.202 130.782 260.593 124.087 261.848C110.695 264.358 93.2485 266.317 75.3071 265.84L75.2672 267.339C93.3342 267.82 110.889 265.848 124.363 263.323C131.1 262.06 136.828 260.656 141.097 259.348C143.23 258.694 145.01 258.06 146.375 257.475C147.705 256.905 148.738 256.341 149.284 255.796L148.223 254.735ZM75.3071 265.84C57.3372 265.362 41.3736 263.65 28.769 261.49C16.139 259.325 6.94827 256.721 2.48049 254.487L1.80967 255.829C6.48688 258.168 15.8629 260.8 28.5156 262.968C41.1937 265.141 57.2287 266.859 75.2672 267.339L75.3071 265.84Z" fill="black"/>
<path d="M14.7188 245.601L14.7188 226.579C23.8637 228.865 46.9052 231.999 77.5754 232.295C108.246 232.591 132.46 227.722 140.462 226.579V245.601C129.944 249.804 110.477 254.014 77.5754 254.014C58.9185 253.565 27.8179 250.672 14.7188 245.601Z" stroke="black" stroke-width="1.5"/>
<path d="M14.7184 246.014L14.9003 245.286L14.5605 245.201L14.2773 245.407L14.7184 246.014ZM2.14404 255.159L1.70291 254.552C1.49496 254.703 1.37898 254.951 1.39561 255.207C1.41224 255.464 1.55917 255.694 1.7849 255.817L2.14404 255.159ZM148.464 255.159L148.944 255.735L149.575 255.209L148.994 254.628L148.464 255.159ZM140.462 246.014L141.062 245.564L140.738 245.131L140.225 245.302L140.462 246.014ZM76.4471 254.016L76.4519 253.266L76.4471 254.016ZM14.2773 245.407L1.70291 254.552L2.58517 255.765L15.1595 246.62L14.2773 245.407ZM1.7849 255.817C5.02554 257.585 10.1849 259.174 16.3387 260.57C22.5117 261.969 29.7511 263.188 37.195 264.19C52.0787 266.193 67.8314 267.34 77.5902 267.34V265.84C67.9159 265.84 52.2327 264.7 37.3952 262.703C29.9784 261.705 22.7859 260.494 16.6704 259.107C10.5356 257.716 5.54973 256.162 2.50318 254.5L1.7849 255.817ZM77.5902 267.34C94.081 267.34 110.126 265.908 122.918 263.757C129.312 262.682 134.906 261.425 139.342 260.073C143.747 258.731 147.105 257.267 148.944 255.735L147.984 254.582C146.393 255.908 143.29 257.302 138.905 258.639C134.549 259.966 129.022 261.21 122.669 262.278C109.963 264.414 94.0013 265.84 77.5902 265.84V267.34ZM148.994 254.628C146.729 252.363 144.744 250.095 143.324 248.391C142.615 247.54 142.048 246.831 141.659 246.336C141.464 246.089 141.314 245.894 141.213 245.763C141.163 245.697 141.125 245.647 141.099 245.613C141.087 245.596 141.077 245.584 141.071 245.575C141.068 245.571 141.065 245.568 141.064 245.566C141.063 245.565 141.063 245.565 141.062 245.564C141.062 245.564 141.062 245.564 141.062 245.564C141.062 245.564 141.062 245.564 141.062 245.564C141.062 245.564 141.062 245.564 140.462 246.014C139.862 246.464 139.862 246.464 139.862 246.464C139.862 246.464 139.862 246.464 139.862 246.464C139.862 246.464 139.863 246.465 139.863 246.465C139.863 246.466 139.864 246.467 139.865 246.468C139.867 246.47 139.87 246.474 139.873 246.478C139.88 246.488 139.89 246.501 139.904 246.519C139.931 246.555 139.971 246.607 140.023 246.675C140.127 246.812 140.281 247.01 140.48 247.263C140.876 247.768 141.452 248.488 142.172 249.352C143.61 251.078 145.627 253.382 147.934 255.689L148.994 254.628ZM140.225 245.302C133.443 247.563 110.662 253.486 76.4519 253.266L76.4423 254.766C110.82 254.987 133.764 249.037 140.699 246.725L140.225 245.302ZM76.4519 253.266C45.8712 253.069 24.026 247.567 14.9003 245.286L14.5365 246.741C23.7008 249.032 45.6826 254.568 76.4423 254.766L76.4519 253.266Z" fill="black"/>
<path d="M68.5 1V0.25L67.8005 0.25L67.7518 0.947809L68.5 1ZM84 1L84.7487 0.955371L84.7066 0.25L84 0.25V1ZM91.8333 132.407L91.0847 132.452L91.1073 132.833L91.4282 133.039L91.8333 132.407ZM106 141.5L106.259 142.204C106.526 142.105 106.715 141.864 106.746 141.581C106.776 141.299 106.645 141.023 106.405 140.869L106 141.5ZM46 141.5L45.5774 140.88C45.3454 141.039 45.2213 141.313 45.2556 141.592C45.29 141.871 45.4772 142.107 45.7407 142.204L46 141.5ZM59.3333 132.407L59.7559 133.027L60.0562 132.822L60.0815 132.46L59.3333 132.407ZM68.5 1.75L84 1.75V0.25L68.5 0.25V1.75ZM83.2513 1.04463L91.0847 132.452L92.582 132.363L84.7487 0.955371L83.2513 1.04463ZM91.4282 133.039L105.595 142.131L106.405 140.869L92.2384 131.776L91.4282 133.039ZM46.4226 142.12L59.7559 133.027L58.9108 131.788L45.5774 140.88L46.4226 142.12ZM60.0815 132.46L69.2482 1.05219L67.7518 0.947809L58.5852 132.355L60.0815 132.46ZM106 141.5C105.741 140.796 105.741 140.796 105.741 140.796C105.741 140.796 105.741 140.796 105.741 140.796C105.741 140.796 105.741 140.796 105.741 140.796C105.74 140.796 105.739 140.797 105.738 140.797C105.734 140.799 105.729 140.801 105.721 140.803C105.705 140.809 105.679 140.818 105.645 140.83C105.575 140.854 105.468 140.89 105.324 140.936C105.034 141.028 104.594 141.162 103.999 141.323C102.81 141.645 101.003 142.078 98.5566 142.512C93.6633 143.379 86.2071 144.25 76 144.25V145.75C86.2929 145.75 93.8367 144.871 98.8184 143.988C101.309 143.547 103.159 143.105 104.391 142.771C105.008 142.604 105.469 142.464 105.78 142.365C105.935 142.315 106.052 142.276 106.132 142.249C106.172 142.235 106.202 142.224 106.224 142.217C106.234 142.213 106.243 142.21 106.248 142.208C106.251 142.207 106.254 142.206 106.256 142.205C106.257 142.205 106.257 142.204 106.258 142.204C106.258 142.204 106.259 142.204 106.259 142.204C106.259 142.204 106.259 142.204 106 141.5ZM76 144.25C65.7929 144.25 58.3367 143.379 53.4434 142.512C50.9966 142.078 49.1903 141.645 48.0008 141.323C47.4061 141.162 46.9656 141.028 46.6763 140.936C46.5317 140.89 46.4249 140.854 46.3555 140.83C46.3208 140.818 46.2954 140.809 46.2794 140.803C46.2714 140.801 46.2657 140.799 46.2624 140.797C46.2607 140.797 46.2596 140.796 46.2591 140.796C46.2588 140.796 46.2587 140.796 46.2588 140.796C46.2588 140.796 46.2589 140.796 46.2589 140.796C46.2591 140.796 46.2593 140.796 46 141.5C45.7407 142.204 45.741 142.204 45.7413 142.204C45.7415 142.204 45.7418 142.204 45.7421 142.204C45.7427 142.204 45.7435 142.205 45.7444 142.205C45.7462 142.206 45.7486 142.207 45.7515 142.208C45.7575 142.21 45.7657 142.213 45.7763 142.217C45.7975 142.224 45.828 142.235 45.8679 142.249C45.9477 142.276 46.065 142.315 46.2202 142.365C46.5305 142.464 46.9923 142.604 47.6085 142.771C48.841 143.105 50.6909 143.547 53.1816 143.988C58.1633 144.871 65.7071 145.75 76 145.75V144.25Z" fill="black"/>
<path d="M151.144 202.574C151.144 203.115 150.816 203.771 149.888 204.527C148.969 205.276 147.567 206.032 145.69 206.771C141.945 208.247 136.48 209.592 129.673 210.726C116.072 212.993 97.2538 214.399 76.4481 214.399C55.6424 214.399 36.8241 212.993 23.2229 210.726C16.4163 209.592 10.9517 208.247 7.20584 206.771C5.32918 206.032 3.92767 205.276 3.00839 204.527C2.07977 203.771 1.75195 203.115 1.75195 202.574C1.75195 202.034 2.07977 201.378 3.00839 200.622C3.92767 199.873 5.32918 199.117 7.20584 198.378C10.9517 196.902 16.4163 195.557 23.2229 194.423C36.8241 192.156 55.6424 190.75 76.4481 190.75C97.2538 190.75 116.072 192.156 129.673 194.423C136.48 195.557 141.945 196.902 145.69 198.378C147.567 199.117 148.969 199.873 149.888 200.622C150.816 201.378 151.144 202.034 151.144 202.574Z" fill="#BCF352" stroke="black" stroke-width="1.5"/>
<path d="M46 203.44L46 142C46 142 58.5 144.5 76 144.5C93.5 144.5 106 142 106 142V203.44C106 203.44 97 206 76 206C55 206 46 203.44 46 203.44Z" fill="white" stroke="black" stroke-width="1.5"/>
</svg>
