<svg width="131" height="433" viewBox="0 0 131 433" fill="none" xmlns="http://www.w3.org/2000/svg">
<path d="M65 298.949C55.8364 298.949 33.1818 297.65 23 297C29.0455 335.01 38.3593 413.563 39.8866 427.598C63.5593 435.395 88.6012 431.171 94.0103 427.598L107 297C96.8182 297.65 74.1636 298.949 65 298.949Z" stroke="black" stroke-width="1.5"/>
<path d="M1 297.774V285C11.0098 287.323 35.8512 292.355 61.9049 292.355C87.9587 292.355 117.734 288.097 130 285.774V297.774C126.193 303.581 93.0341 309 61.9049 309C30.7757 309 5.22951 302.419 1 297.774Z" fill="white" stroke="black" stroke-width="1.5"/>
<path d="M12 278.867L12 265C20 266.667 40.1566 268.951 66.9868 269.167C93.817 269.382 115 265.833 122 265V278.867C112.798 281.931 95.7692 285 66.9868 285C50.6658 284.673 23.4591 282.564 12 278.867Z" stroke="black" stroke-width="1.5"/>
<path d="M1 284.676L12.3824 279C20.3922 280.514 39.4801 284.167 66.3431 284.297C96.3799 284.443 115.983 280.514 121.99 279L130 285.054C123.993 288.838 95.1609 293 66.3431 293C49.3223 293 12.0135 289.216 1 284.676Z" fill="white"/>
<path d="M12.3824 279L12.5216 278.263L12.2736 278.216L12.0477 278.329L12.3824 279ZM1 284.676L0.665321 284.004C0.402162 284.136 0.239966 284.409 0.250479 284.702C0.260992 284.996 0.442274 285.257 0.714137 285.369L1 284.676ZM130 285.054L130.4 285.689C130.608 285.557 130.739 285.332 130.749 285.086C130.76 284.84 130.649 284.604 130.452 284.456L130 285.054ZM121.99 279L122.442 278.402L122.156 278.185L121.807 278.273L121.99 279ZM66.3431 284.297L66.3395 285.047L66.3431 284.297ZM12.0477 278.329L0.665321 284.004L1.33468 285.347L12.717 279.671L12.0477 278.329ZM0.714137 285.369C3.54403 286.536 8.00606 287.635 13.3248 288.629C18.6587 289.626 24.9044 290.527 31.331 291.285C44.1792 292.801 57.7931 293.75 66.3431 293.75V292.25C57.8724 292.25 44.3214 291.307 31.5067 289.796C25.1018 289.04 18.8914 288.144 13.6005 287.155C8.29434 286.163 3.96271 285.086 1.28586 283.982L0.714137 285.369ZM66.3431 293.75C80.785 293.75 95.2299 292.707 106.823 291.19C112.619 290.431 117.712 289.552 121.74 288.623C125.736 287.701 128.779 286.71 130.4 285.689L129.6 284.419C128.218 285.29 125.404 286.238 121.403 287.161C117.436 288.076 112.393 288.948 106.628 289.702C95.0989 291.212 80.719 292.25 66.3431 292.25V293.75ZM130.452 284.456L122.442 278.402L121.538 279.598L129.548 285.652L130.452 284.456ZM121.807 278.273C115.86 279.771 96.3195 283.693 66.3468 283.547L66.3395 285.047C96.4403 285.194 116.106 281.256 122.173 279.727L121.807 278.273ZM66.3468 283.547C39.5517 283.417 20.5161 279.774 12.5216 278.263L12.2431 279.737C20.2682 281.253 39.4085 284.916 66.3395 285.047L66.3468 283.547Z" fill="black"/>
<path d="M1 266.737V254C11.0098 256.316 35.8512 263.263 61.9049 263.263C87.9587 263.263 117.734 257.088 130 254.772V266.737C126.193 272.526 94.8951 276 63.7659 276C32.6367 276 5.22951 271.368 1 266.737Z" fill="white" stroke="black" stroke-width="1.5"/>
<path d="M64.4426 264C25.8695 264 1 259.368 1 253.965C1 249.977 13.6885 242 64.4426 242C115.197 242 129.295 249.977 130 253.965C128.731 259.754 103.016 264 64.4426 264Z" fill="#BCF352" stroke="black" stroke-width="1.5"/>
<path d="M94.7914 1H35.7986L24 220.461V252.246C38.1583 259.918 88.3022 259.918 106 252.246V220.461L94.7914 1Z" fill="white" stroke="black" stroke-width="1.5"/>
</svg>
