<svg width="123" height="270" viewBox="0 0 123 270" fill="none" xmlns="http://www.w3.org/2000/svg">
<path d="M13 162.56L13 148C20.2727 149.75 38.5969 152.149 62.988 152.375C87.3791 152.601 106.636 148.875 113 148V162.56C104.635 165.778 89.1538 169 62.988 169C48.1507 168.657 23.4173 166.442 13 162.56Z" stroke="black" stroke-width="1.5"/>
<path d="M60.9998 186.318C50.0908 186.318 23.1212 184.773 11 184C11 232.193 11.0002 241.133 11 257.765C26.9998 272 98.5 272.5 111 257.765L111 184C98.8785 184.773 71.9089 186.318 60.9998 186.318Z" fill="white" stroke="black" stroke-width="1.5"/>
<path d="M2 149.354L2 131C5 135 42 139.5 61.5885 139.5C92.822 139.5 117 134.776 121.5 131.276V149.205C112.318 154.427 92.7931 156.839 61.5885 158C34.0566 158 13.9367 154.576 2 149.354Z" fill="white"/>
<path d="M2 131L2.6 130.55C2.40631 130.292 2.06909 130.186 1.76283 130.288C1.45657 130.391 1.25 130.677 1.25 131H2ZM2 149.354H1.25V149.845L1.6994 150.041L2 149.354ZM61.5885 158V158.75H61.6025L61.6164 158.749L61.5885 158ZM121.5 149.205L121.871 149.857L122.25 149.641V149.205H121.5ZM121.5 131.276H122.25C122.25 130.99 122.087 130.728 121.83 130.602C121.572 130.477 121.266 130.508 121.04 130.684L121.5 131.276ZM1.25 131L1.25 149.354H2.75L2.75 131H1.25ZM1.6994 150.041C13.7762 155.325 34.0179 158.75 61.5885 158.75V157.25C34.0953 157.25 14.0972 153.828 2.3006 148.667L1.6994 150.041ZM61.6164 158.749C77.2275 158.169 89.9399 157.274 99.9075 155.868C109.855 154.465 117.151 152.542 121.871 149.857L121.129 148.553C116.667 151.091 109.609 152.985 99.6979 154.383C89.8064 155.778 77.1541 156.67 61.5607 157.251L61.6164 158.749ZM122.25 149.205V131.276H120.75V149.205H122.25ZM121.04 130.684C120.045 131.458 117.824 132.379 114.433 133.315C111.082 134.24 106.692 135.153 101.455 135.959C90.9843 137.572 77.1697 138.75 61.5885 138.75V140.25C77.2409 140.25 91.132 139.066 101.683 137.442C106.958 136.63 111.409 135.706 114.832 134.761C118.217 133.826 120.705 132.844 121.96 131.868L121.04 130.684ZM61.5885 138.75C51.8372 138.75 37.7249 137.629 25.6736 136.007C19.6484 135.196 14.1565 134.262 9.99297 133.285C7.90923 132.797 6.17702 132.301 4.88373 131.812C4.23682 131.567 3.71565 131.33 3.32152 131.104C2.91613 130.872 2.69788 130.681 2.6 130.55L1.4 131.45C1.67712 131.819 2.0995 132.132 2.57525 132.405C3.06227 132.685 3.66277 132.954 4.35295 133.215C5.73383 133.738 7.53747 134.25 9.65042 134.746C13.8803 135.738 19.4251 136.679 25.4735 137.493C37.5693 139.121 51.7514 140.25 61.5885 140.25V138.75Z" fill="black"/>
<path d="M1 185.111L1.91294 170C9.21648 173.556 31.5693 178.144 60.327 178.889C89.0847 179.634 116.234 172.776 119 170.083V185.343C109.871 189.787 91.3813 194 60.327 194C32.953 194 12.8683 189.556 1 185.111Z" fill="white"/>
<path d="M1.91294 170L2.24123 169.326C2.01601 169.216 1.75092 169.226 1.53463 169.352C1.31835 169.479 1.17941 169.705 1.16431 169.955L1.91294 170ZM1 185.111L0.251365 185.066L0.217942 185.619L0.736977 185.813L1 185.111ZM119 185.343L119.328 186.017L119.75 185.812V185.343H119ZM119 170.083H119.75C119.75 169.782 119.569 169.51 119.292 169.392C119.014 169.275 118.693 169.336 118.477 169.546L119 170.083ZM60.327 178.889L60.3464 178.139L60.327 178.889ZM1.16431 169.955L0.251365 185.066L1.74863 185.156L2.66158 170.045L1.16431 169.955ZM0.736977 185.813C12.7011 190.294 32.8766 194.75 60.327 194.75V193.25C33.0293 193.25 13.0354 188.817 1.26302 184.409L0.736977 185.813ZM60.327 194.75C91.4239 194.75 110.048 190.535 119.328 186.017L118.672 184.668C109.694 189.039 91.3387 193.25 60.327 193.25V194.75ZM119.75 185.343V170.083H118.25V185.343H119.75ZM118.477 169.546C118.244 169.773 117.64 170.129 116.575 170.573C115.545 171.004 114.172 171.481 112.495 171.981C109.143 172.982 104.619 174.062 99.2759 175.038C88.5885 176.988 74.6641 178.51 60.3464 178.139L60.3076 179.639C74.7476 180.013 88.7768 178.478 99.5452 176.513C104.93 175.53 109.509 174.438 112.924 173.419C114.631 172.909 116.057 172.415 117.153 171.958C118.215 171.514 119.064 171.067 119.523 170.621L118.477 169.546ZM60.3464 178.139C46.0009 177.768 33.2581 176.437 23.1981 174.759C13.113 173.076 5.78982 171.053 2.24123 169.326L1.58466 170.674C5.33961 172.502 12.8446 174.552 22.9512 176.238C33.0829 177.929 45.8954 179.265 60.3076 179.639L60.3464 178.139Z" fill="black"/>
<path d="M12.0547 163L12.2319 162.271L11.9002 162.191L11.6216 162.388L12.0547 163ZM2 170.111L1.56693 169.499C1.35429 169.649 1.23489 169.899 1.25153 170.159C1.26817 170.419 1.41847 170.652 1.64856 170.774L2 170.111ZM119 170.111L119.472 170.694L120.128 170.162L119.523 169.573L119 170.111ZM112.602 163L113.195 162.542L112.873 162.124L112.37 162.287L112.602 163ZM61.4141 169.222L61.4188 168.472L61.4141 169.222ZM11.6216 162.388L1.56693 169.499L2.43307 170.723L12.4878 163.612L11.6216 162.388ZM1.64856 170.774C4.25801 172.158 8.39934 173.397 13.3214 174.482C18.2626 175.572 24.0554 176.52 30.0101 177.299C41.9154 178.858 54.5175 179.75 62.3281 179.75V178.25C54.5997 178.25 42.0651 177.365 30.2048 175.812C24.2766 175.036 18.5294 174.095 13.6444 173.018C8.74031 171.936 4.76934 170.731 2.35144 169.449L1.64856 170.774ZM62.3281 179.75C75.5214 179.75 88.3588 178.636 98.5943 176.962C103.711 176.126 108.19 175.147 111.744 174.094C115.267 173.05 117.977 171.906 119.472 170.694L118.528 169.528C117.281 170.539 114.824 171.617 111.318 172.656C107.842 173.686 103.429 174.652 98.3523 175.482C88.2002 177.142 75.4438 178.25 62.3281 178.25V179.75ZM119.523 169.573C117.716 167.816 116.132 166.056 114.999 164.734C114.433 164.074 113.981 163.524 113.671 163.14C113.515 162.948 113.396 162.797 113.316 162.695C113.275 162.644 113.245 162.606 113.225 162.58C113.215 162.567 113.207 162.557 113.202 162.551C113.2 162.548 113.198 162.545 113.197 162.544C113.196 162.543 113.196 162.543 113.196 162.542C113.196 162.542 113.195 162.542 113.195 162.542C113.195 162.542 113.195 162.542 113.195 162.542C113.195 162.542 113.195 162.542 112.602 163C112.008 163.458 112.008 163.458 112.008 163.458C112.008 163.458 112.008 163.458 112.008 163.458C112.008 163.459 112.008 163.459 112.008 163.459C112.009 163.46 112.009 163.46 112.01 163.461C112.012 163.463 112.014 163.466 112.017 163.47C112.023 163.477 112.031 163.488 112.042 163.502C112.064 163.53 112.096 163.571 112.138 163.624C112.221 163.73 112.345 163.886 112.504 164.082C112.822 164.476 113.284 165.037 113.86 165.71C115.012 167.055 116.628 168.851 118.477 170.649L119.523 169.573ZM112.37 162.287C106.961 164.04 88.7594 168.643 61.4188 168.472L61.4094 169.972C88.9125 170.144 107.273 165.516 112.833 163.713L112.37 162.287ZM61.4188 168.472C36.9813 168.319 19.5254 164.044 12.2319 162.271L11.8775 163.729C19.209 165.511 36.7979 169.818 61.4094 169.972L61.4188 168.472Z" fill="black"/>
<path d="M41.5 1.00211L41.5 0.252105L40.8001 0.25214L40.7518 0.950317L41.5 1.00211ZM84 1L84.7482 0.948211L84.6999 0.249965L84 0.25L84 1ZM90.2481 91.2685L89.4999 91.3203L89.5237 91.6642L89.8001 91.87L90.2481 91.2685ZM106 103L106.199 103.723C106.476 103.647 106.684 103.42 106.737 103.138C106.79 102.857 106.678 102.57 106.448 102.398L106 103ZM19 102.71L18.5683 102.097C18.3313 102.263 18.2117 102.552 18.2609 102.837C18.3101 103.123 18.5195 103.355 18.7986 103.432L19 102.71ZM35.2519 91.2706L35.6836 91.8839L35.9754 91.6785L36.0001 91.3224L35.2519 91.2706ZM41.5 1.75211L84 1.75L84 0.25L41.5 0.252105L41.5 1.75211ZM83.2518 1.05179L89.4999 91.3203L90.9963 91.2168L84.7482 0.948211L83.2518 1.05179ZM89.8001 91.87L105.552 103.602L106.448 102.398L90.6961 90.667L89.8001 91.87ZM19.4317 103.323L35.6836 91.8839L34.8202 90.6573L18.5683 102.097L19.4317 103.323ZM36.0001 91.3224L42.2482 1.05389L40.7518 0.950317L34.5037 91.2189L36.0001 91.3224ZM106 103C105.801 102.277 105.8 102.277 105.8 102.277C105.8 102.277 105.8 102.277 105.8 102.277C105.799 102.277 105.798 102.278 105.796 102.278C105.793 102.279 105.789 102.28 105.783 102.282C105.771 102.285 105.753 102.29 105.729 102.297C105.681 102.31 105.61 102.329 105.516 102.354C105.327 102.405 105.047 102.48 104.685 102.575C103.959 102.766 102.903 103.038 101.579 103.366C98.9309 104.02 95.2155 104.893 90.9478 105.765C82.3999 107.513 71.6836 109.25 62.8934 109.25V110.75C71.8401 110.75 82.6771 108.987 91.2483 107.235C95.5401 106.357 99.2757 105.48 101.939 104.822C103.27 104.493 104.334 104.218 105.066 104.026C105.432 103.93 105.714 103.854 105.906 103.803C106.002 103.777 106.075 103.757 106.124 103.744C106.149 103.737 106.167 103.732 106.18 103.728C106.186 103.727 106.191 103.725 106.194 103.724C106.196 103.724 106.197 103.724 106.198 103.723C106.199 103.723 106.199 103.723 106.199 103.723C106.199 103.723 106.199 103.723 106 103ZM62.8934 109.25C54.1052 109.25 43.194 107.441 34.4481 105.621C30.082 104.712 26.2682 103.803 23.5463 103.121C22.1854 102.781 21.0979 102.497 20.3512 102.298C19.9779 102.199 19.6898 102.121 19.4953 102.068C19.3981 102.042 19.3243 102.021 19.2749 102.008C19.2502 102.001 19.2317 101.996 19.2194 101.992C19.2132 101.991 19.2086 101.989 19.2056 101.989C19.2041 101.988 19.203 101.988 19.2023 101.988C19.2019 101.988 19.2017 101.988 19.2015 101.988C19.2014 101.987 19.2014 101.987 19 102.71C18.7986 103.432 18.7988 103.432 18.7991 103.433C18.7993 103.433 18.7996 103.433 18.8001 103.433C18.801 103.433 18.8022 103.433 18.8039 103.434C18.8073 103.435 18.8122 103.436 18.8187 103.438C18.8316 103.442 18.8509 103.447 18.8762 103.454C18.927 103.468 19.0022 103.489 19.1009 103.515C19.2982 103.569 19.5894 103.648 19.9659 103.748C20.7189 103.948 21.8134 104.234 23.1819 104.577C25.9186 105.262 29.7524 106.175 34.1425 107.089C42.9091 108.914 53.9445 110.75 62.8934 110.75V109.25Z" fill="black"/>
<path d="M121.25 130.5C121.25 130.809 121.05 131.255 120.314 131.82C119.594 132.372 118.485 132.938 116.985 133.495C113.992 134.606 109.619 135.62 104.164 136.477C93.2644 138.188 78.1801 139.25 61.5 139.25C44.8199 139.25 29.7356 138.188 18.8364 136.477C13.3809 135.62 9.00786 134.606 6.01542 133.495C4.51496 132.938 3.4059 132.372 2.68573 131.82C1.95041 131.255 1.75 130.809 1.75 130.5C1.75 130.191 1.95041 129.745 2.68573 129.18C3.4059 128.628 4.51496 128.062 6.01542 127.505C9.00786 126.394 13.3809 125.38 18.8364 124.523C29.7356 122.812 44.8199 121.75 61.5 121.75C78.1801 121.75 93.2644 122.812 104.164 124.523C109.619 125.38 113.992 126.394 116.985 127.505C118.485 128.062 119.594 128.628 120.314 129.18C121.05 129.745 121.25 130.191 121.25 130.5Z" fill="#BCF352" stroke="black" stroke-width="1.5"/>
<path d="M19 130.072L19 103C19 103 36.784 108.063 62.5 108.063C92.7772 108.063 106 103 106 103V130.072C106 130.072 86.9688 134.997 62.5 134.997C38.0312 134.997 19 130.072 19 130.072Z" fill="white"/>
<path d="M19 103L19.2053 102.279C18.9791 102.214 18.7358 102.26 18.5481 102.401C18.3603 102.543 18.25 102.765 18.25 103H19ZM19 130.072H18.25V130.652L18.8121 130.798L19 130.072ZM106 130.072L106.188 130.798L106.75 130.652V130.072H106ZM106 103H106.75C106.75 102.753 106.628 102.522 106.425 102.382C106.222 102.242 105.962 102.211 105.732 102.3L106 103ZM18.25 103L18.25 130.072H19.75L19.75 103H18.25ZM106.75 130.072V103H105.25V130.072H106.75ZM106 103C105.732 102.3 105.732 102.3 105.732 102.299C105.732 102.299 105.732 102.299 105.732 102.299C105.732 102.299 105.732 102.3 105.731 102.3C105.731 102.3 105.729 102.301 105.726 102.302C105.721 102.304 105.713 102.307 105.701 102.311C105.678 102.319 105.642 102.333 105.593 102.35C105.494 102.385 105.343 102.438 105.138 102.505C104.729 102.64 104.106 102.834 103.261 103.068C101.571 103.537 98.9946 104.164 95.4722 104.793C88.4275 106.051 77.5967 107.313 62.5 107.313V108.813C77.6806 108.813 88.5998 107.543 95.7357 106.27C99.3037 105.633 101.926 104.995 103.661 104.514C104.529 104.273 105.175 104.072 105.607 103.93C105.823 103.859 105.986 103.803 106.095 103.763C106.15 103.744 106.192 103.729 106.221 103.718C106.235 103.713 106.246 103.709 106.254 103.706C106.258 103.704 106.261 103.703 106.264 103.702C106.265 103.702 106.266 103.701 106.267 103.701C106.267 103.701 106.267 103.701 106.268 103.701C106.268 103.701 106.268 103.7 106 103ZM62.5 107.313C49.6903 107.313 38.8569 106.052 31.2288 104.791C27.4151 104.161 24.4036 103.532 22.3483 103.06C21.3206 102.824 20.532 102.628 20.0018 102.491C19.7366 102.423 19.5361 102.369 19.4026 102.333C19.3358 102.315 19.2858 102.301 19.2528 102.292C19.2363 102.287 19.2241 102.284 19.2162 102.282C19.2122 102.281 19.2093 102.28 19.2075 102.279C19.2066 102.279 19.206 102.279 19.2056 102.279C19.2054 102.279 19.2054 102.279 19.2053 102.279C19.2053 102.279 19.2053 102.279 19 103C18.7947 103.721 18.7949 103.721 18.7951 103.721C18.7953 103.722 18.7956 103.722 18.796 103.722C18.7967 103.722 18.7977 103.722 18.799 103.723C18.8015 103.723 18.8051 103.724 18.8098 103.726C18.8192 103.728 18.8328 103.732 18.8508 103.737C18.8867 103.747 18.9397 103.762 19.0094 103.781C19.149 103.819 19.3556 103.874 19.627 103.944C20.1698 104.084 20.9715 104.283 22.0129 104.522C24.0956 105 27.1374 105.636 30.9842 106.271C38.6772 107.542 49.5937 108.813 62.5 108.813V107.313ZM19 130.072C18.8121 130.798 18.8123 130.798 18.8125 130.798C18.8127 130.798 18.813 130.798 18.8134 130.798C18.8141 130.798 18.8151 130.799 18.8165 130.799C18.8191 130.8 18.8228 130.801 18.8278 130.802C18.8376 130.804 18.852 130.808 18.871 130.813C18.909 130.822 18.9651 130.837 19.0391 130.855C19.1869 130.892 19.4058 130.945 19.6926 131.013C20.266 131.149 21.1105 131.343 22.1996 131.575C24.3777 132.039 27.5346 132.657 31.4575 133.275C39.302 134.511 50.2171 135.747 62.5 135.747V134.247C50.3141 134.247 39.4793 133.02 31.6909 131.794C27.7975 131.18 24.6672 130.567 22.5123 130.108C21.4349 129.878 20.6015 129.687 20.0385 129.554C19.7571 129.487 19.5432 129.435 19.4004 129.399C19.3289 129.381 19.2752 129.368 19.2397 129.359C19.2219 129.354 19.2087 129.351 19.2 129.349C19.1957 129.348 19.1925 129.347 19.1905 129.346C19.1895 129.346 19.1888 129.346 19.1883 129.346C19.1881 129.346 19.188 129.346 19.1879 129.346C19.1879 129.346 19.1879 129.346 19 130.072ZM62.5 135.747C74.7829 135.747 85.698 134.511 93.5425 133.275C97.4654 132.657 100.622 132.039 102.8 131.575C103.889 131.343 104.734 131.149 105.307 131.013C105.594 130.945 105.813 130.892 105.961 130.855C106.035 130.837 106.091 130.822 106.129 130.813C106.148 130.808 106.162 130.804 106.172 130.802C106.177 130.801 106.181 130.8 106.184 130.799C106.185 130.799 106.186 130.798 106.187 130.798C106.187 130.798 106.187 130.798 106.187 130.798C106.188 130.798 106.188 130.798 106 130.072C105.812 129.346 105.812 129.346 105.812 129.346C105.812 129.346 105.812 129.346 105.812 129.346C105.811 129.346 105.811 129.346 105.809 129.346C105.807 129.347 105.804 129.348 105.8 129.349C105.791 129.351 105.778 129.354 105.76 129.359C105.725 129.368 105.671 129.381 105.6 129.399C105.457 129.435 105.243 129.487 104.961 129.554C104.399 129.687 103.565 129.878 102.488 130.108C100.333 130.567 97.2025 131.18 93.3091 131.794C85.5207 133.02 74.6859 134.247 62.5 134.247V135.747Z" fill="black"/>
</svg>
