<svg width="118" height="266" viewBox="0 0 118 266" fill="none" xmlns="http://www.w3.org/2000/svg">
<path d="M10.7969 156L10.9784 155.272L10.6392 155.188L10.3563 155.393L10.7969 156ZM1 163.111L0.559434 162.504C0.351152 162.655 0.234935 162.903 0.251568 163.16C0.2682 163.416 0.415359 163.647 0.641401 163.77L1 163.111ZM115 163.111L115.48 163.688L116.112 163.162L115.53 162.58L115 163.111ZM108.766 156L109.365 155.549L109.041 155.118L108.529 155.288L108.766 156ZM58.8906 162.222L58.8954 161.472L58.8906 162.222ZM10.3563 155.393L0.559434 162.504L1.44057 163.718L11.2374 156.607L10.3563 155.393ZM0.641401 163.77C3.18758 165.156 7.22633 166.396 12.0229 167.482C16.8387 168.571 22.4842 169.519 28.2869 170.299C39.888 171.858 52.1687 172.75 59.7812 172.75V171.25C52.2531 171.25 40.0417 170.365 28.4866 168.812C22.7111 168.036 17.1124 167.095 12.354 166.018C7.5764 164.937 3.71086 163.733 1.3586 162.452L0.641401 163.77ZM59.7812 172.75C72.6382 172.75 85.1486 171.636 95.1237 169.962C100.111 169.125 104.476 168.146 107.941 167.093C111.375 166.048 114.019 164.902 115.48 163.688L114.52 162.534C113.309 163.542 110.919 164.619 107.504 165.657C104.12 166.687 99.821 167.653 94.8755 168.483C84.9858 170.142 72.5586 171.25 59.7812 171.25V172.75ZM115.53 162.58C113.769 160.823 112.226 159.063 111.123 157.742C110.571 157.081 110.13 156.531 109.828 156.147C109.677 155.955 109.56 155.805 109.482 155.703C109.443 155.652 109.413 155.613 109.394 155.587C109.384 155.574 109.377 155.565 109.372 155.558C109.369 155.555 109.368 155.553 109.367 155.551C109.366 155.551 109.366 155.55 109.365 155.55C109.365 155.55 109.365 155.549 109.365 155.549C109.365 155.549 109.365 155.549 109.365 155.549C109.365 155.549 109.365 155.549 108.766 156C108.166 156.451 108.166 156.451 108.166 156.451C108.166 156.451 108.166 156.451 108.166 156.451C108.166 156.451 108.167 156.451 108.167 156.452C108.167 156.452 108.168 156.453 108.169 156.454C108.17 156.456 108.172 156.459 108.175 156.462C108.181 156.47 108.189 156.48 108.199 156.494C108.22 156.522 108.252 156.563 108.293 156.617C108.374 156.723 108.494 156.878 108.649 157.075C108.959 157.469 109.409 158.03 109.971 158.703C111.094 160.048 112.668 161.843 114.47 163.642L115.53 162.58ZM108.529 155.288C103.262 157.041 85.5307 161.643 58.8954 161.472L58.8858 162.972C85.688 163.144 103.582 158.515 109.002 156.712L108.529 155.288ZM58.8954 161.472C35.0891 161.319 18.0842 157.045 10.9784 155.272L10.6153 156.728C17.7596 158.51 34.9009 162.818 58.8858 162.972L58.8954 161.472Z" fill="black"/>
<path d="M12 156.56L12 142C19.0545 143.75 36.829 146.149 60.4883 146.375C84.1477 146.601 102.827 142.875 109 142V156.56C100.886 159.778 85.8692 163 60.4883 163C46.0962 162.657 22.1048 160.442 12 156.56Z" fill="white" stroke="black" stroke-width="1.5"/>
<path d="M58.4998 182.328C48.7908 182.328 24.7878 180.776 14 180C14 228.404 14.0002 237.383 14 254.088C28.2398 268.385 91.875 268.887 103 254.088L103 180C92.2118 180.776 68.2089 182.328 58.4998 182.328Z" fill="white" stroke="black" stroke-width="1.5"/>
<path d="M1 141.556L1 130C3.91213 132.519 39.8285 135.352 58.8433 135.352C89.162 135.352 112.632 132.378 117 130.174V141.462C108.087 144.75 89.1339 147.269 58.8433 148C32.1177 148 12.5871 144.844 1 141.556Z" fill="white"/>
<path d="M1 130L1.4906 129.433C1.26861 129.241 0.955029 129.196 0.688113 129.318C0.421197 129.44 0.25 129.707 0.25 130H1ZM1 141.556H0.25L0.25 142.123L0.795262 142.278L1 141.556ZM58.8433 148V148.75H58.8523L58.8614 148.75L58.8433 148ZM117 141.462L117.26 142.166L117.75 141.985V141.462H117ZM117 130.174H117.75C117.75 129.913 117.615 129.672 117.393 129.535C117.171 129.399 116.895 129.387 116.662 129.504L117 130.174ZM0.25 130L0.25 141.556H1.75L1.75 130H0.25ZM0.795262 142.278C12.4626 145.589 32.0642 148.75 58.8433 148.75V147.25C32.1712 147.25 12.7116 144.1 1.20474 140.835L0.795262 142.278ZM58.8614 148.75C89.146 148.019 108.215 145.502 117.26 142.166L116.74 140.759C107.958 143.998 89.1218 146.519 58.8252 147.25L58.8614 148.75ZM117.75 141.462V130.174H116.25V141.462H117.75ZM116.662 129.504C115.681 129.999 113.5 130.584 110.202 131.174C106.938 131.759 102.668 132.335 97.5785 132.843C87.4018 133.859 73.9796 134.602 58.8433 134.602V136.102C74.0256 136.102 87.4977 135.357 97.7276 134.336C102.842 133.825 107.153 133.244 110.466 132.651C113.744 132.064 116.134 131.451 117.338 130.843L116.662 129.504ZM58.8433 134.602C49.3637 134.602 35.6536 133.895 23.9484 132.873C18.0959 132.362 12.7568 131.774 8.70542 131.157C6.67809 130.849 4.98694 130.535 3.72039 130.225C3.08648 130.069 2.57254 129.917 2.18211 129.772C1.77254 129.62 1.56688 129.499 1.4906 129.433L0.509396 130.567C0.79714 130.816 1.21334 131.012 1.65911 131.178C2.12402 131.351 2.69889 131.518 3.36291 131.681C4.69221 132.008 6.43334 132.329 8.4798 132.64C12.5759 133.263 17.9504 133.855 23.8179 134.368C35.5525 135.392 49.308 136.102 58.8433 136.102V134.602Z" fill="black"/>
<path d="M1.0003 209.786L1 163C8.11098 166.577 29.8745 171.194 57.874 171.944C85.8734 172.693 112.307 165.793 115 163.084L115 209.786C106.111 214.258 88.1081 219 57.8725 219C31.2203 219 12.5556 214.258 1.0003 209.786Z" fill="white"/>
<path d="M1 163L1.33706 162.33C1.10456 162.213 0.828048 162.225 0.606487 162.362C0.384925 162.498 0.249998 162.74 0.25 163L1 163ZM1.0003 209.786L0.250305 209.786L0.250308 210.3L0.729624 210.486L1.0003 209.786ZM115 209.786L115.337 210.456L115.75 210.248V209.786H115ZM115 163.084H115.75C115.75 162.78 115.567 162.506 115.286 162.391C115.005 162.275 114.682 162.34 114.468 162.555L115 163.084ZM57.874 171.944L57.894 171.194L57.874 171.944ZM0.25 163L0.250305 209.786L1.7503 209.786L1.75 163L0.25 163ZM0.729624 210.486C12.3731 214.992 31.1297 219.75 57.8725 219.75V218.25C31.3109 218.25 12.7382 213.524 1.27099 209.087L0.729624 210.486ZM57.8725 219.75C88.1691 219.75 106.303 215.001 115.337 210.456L114.663 209.116C105.919 213.515 88.0471 218.25 57.8725 218.25V219.75ZM115.75 209.786L115.75 163.084H114.25L114.25 209.786H115.75ZM114.468 162.555C114.244 162.781 113.659 163.138 112.624 163.585C111.622 164.017 110.286 164.497 108.654 165C105.393 166.006 100.989 167.093 95.788 168.074C85.3847 170.036 71.8306 171.567 57.894 171.194L57.8539 172.693C71.9168 173.07 85.5793 171.526 96.066 169.548C101.31 168.559 105.77 167.46 109.097 166.433C110.759 165.921 112.149 165.423 113.218 164.962C114.253 164.516 115.083 164.064 115.532 163.613L114.468 162.555ZM57.894 171.194C43.9288 170.82 31.524 169.482 21.7312 167.793C11.913 166.1 4.78749 164.066 1.33706 162.33L0.662936 163.67C4.32349 165.512 11.6352 167.574 21.4763 169.271C31.343 170.973 43.8197 172.318 57.8539 172.693L57.894 171.194Z" fill="black"/>
<path d="M35.3793 1.00018V0.25018L34.699 0.25018L34.6329 0.927247L35.3793 1.00018ZM84.1379 1.00018L84.8838 0.92187L84.8133 0.25018L84.1379 0.25018V1.00018ZM92.9551 84.9838L92.2092 85.0621L92.2444 85.3965L92.5173 85.5928L92.9551 84.9838ZM102 91.4865L102.193 92.2113C102.473 92.1368 102.685 91.9073 102.738 91.622C102.79 91.3368 102.673 91.0469 102.438 90.8776L102 91.4865ZM18 91.2166L17.579 90.5959C17.3362 90.7606 17.2117 91.0518 17.2604 91.3411C17.3091 91.6305 17.5221 91.8648 17.8054 91.9409L18 91.2166ZM27.1724 84.9946L27.5934 85.6152L27.8846 85.4177L27.9189 85.0675L27.1724 84.9946ZM35.3793 1.75018L84.1379 1.75018V0.25018L35.3793 0.25018V1.75018ZM83.392 1.07849L92.2092 85.0621L93.701 84.9055L84.8838 0.92187L83.392 1.07849ZM92.5173 85.5928L101.562 92.0955L102.438 90.8776L93.393 84.3749L92.5173 85.5928ZM18.421 91.8373L27.5934 85.6152L26.7514 84.3739L17.579 90.5959L18.421 91.8373ZM27.9189 85.0675L36.1258 1.07311L34.6329 0.927247L26.426 84.9216L27.9189 85.0675ZM102 91.4865C101.807 90.7617 101.807 90.7617 101.807 90.7617C101.807 90.7618 101.807 90.7618 101.806 90.7619C101.806 90.7621 101.805 90.7624 101.803 90.7628C101.8 90.7635 101.796 90.7646 101.79 90.7662C101.779 90.7692 101.762 90.7738 101.738 90.7799C101.692 90.792 101.623 90.8101 101.532 90.8338C101.35 90.8811 101.08 90.9507 100.73 91.0393C100.03 91.2167 99.0095 91.4702 97.7313 91.7747C95.1747 92.3836 91.5874 93.1955 87.4669 94.0074C79.2138 95.6335 68.8671 97.25 60.3798 97.25V98.75C69.0179 98.75 79.4812 97.1097 87.7569 95.4791C91.9007 94.6626 95.5076 93.8462 98.0789 93.2338C99.3646 92.9276 100.392 92.6723 101.098 92.4934C101.451 92.404 101.724 92.3336 101.909 92.2856C102.002 92.2615 102.072 92.243 102.12 92.2305C102.144 92.2243 102.162 92.2195 102.174 92.2163C102.18 92.2147 102.185 92.2135 102.188 92.2126C102.189 92.2122 102.191 92.2119 102.191 92.2117C102.192 92.2116 102.192 92.2115 102.192 92.2114C102.193 92.2114 102.193 92.2113 102 91.4865ZM60.3798 97.25C51.8946 97.25 41.3595 95.5668 32.9154 93.8729C28.6998 93.0273 25.0176 92.1817 22.3895 91.5474C21.0757 91.2304 20.0257 90.9662 19.3047 90.7815C18.9443 90.6892 18.6661 90.6167 18.4783 90.5674C18.3845 90.5427 18.3132 90.5239 18.2656 90.5112C18.2417 90.5049 18.2238 90.5001 18.212 90.4969C18.206 90.4953 18.2016 90.4942 18.1987 90.4934C18.1972 90.493 18.1962 90.4927 18.1955 90.4925C18.1951 90.4924 18.1949 90.4924 18.1947 90.4923C18.1946 90.4923 18.1946 90.4923 18 91.2166C17.8054 91.9409 17.8056 91.941 17.8059 91.941C17.8061 91.9411 17.8064 91.9412 17.8068 91.9413C17.8077 91.9415 17.8089 91.9419 17.8105 91.9423C17.8138 91.9432 17.8185 91.9444 17.8248 91.9461C17.8373 91.9495 17.8559 91.9544 17.8804 91.9609C17.9294 91.9739 18.002 91.9932 18.0973 92.0182C18.2878 92.0682 18.5689 92.1415 18.9325 92.2346C19.6595 92.4209 20.7163 92.6867 22.0376 93.0056C24.68 93.6432 28.3817 94.4934 32.6204 95.3437C41.0848 97.0415 51.7397 98.75 60.3798 98.75V97.25Z" fill="black"/>
<path d="M117.25 129.5C117.25 129.817 117.05 130.264 116.338 130.825C115.637 131.376 114.558 131.94 113.097 132.497C110.181 133.607 105.919 134.621 100.6 135.477C89.9734 137.188 75.2652 138.25 59 138.25C42.7348 138.25 28.0266 137.188 17.3999 135.477C12.0807 134.621 7.81866 133.607 4.90335 132.497C3.44166 131.94 2.3626 131.376 1.66246 130.825C0.94978 130.264 0.75 129.817 0.75 129.5C0.75 129.183 0.94978 128.736 1.66246 128.175C2.3626 127.624 3.44166 127.06 4.90335 126.503C7.81866 125.393 12.0807 124.379 17.3999 123.523C28.0266 121.812 42.7348 120.75 59 120.75C75.2652 120.75 89.9734 121.812 100.6 123.523C105.919 124.379 110.181 125.393 113.097 126.503C114.558 127.06 115.637 127.624 116.338 128.175C117.05 128.736 117.25 129.183 117.25 129.5Z" fill="#BCF352" stroke="black" stroke-width="1.5"/>
<path d="M18 129.024L18 90.9998C18 90.9998 35.1708 96.1146 60 96.1146C89.2332 96.1146 102 90.9998 102 90.9998V129.024C102 129.024 83.625 134 60 134C36.375 134 18 129.024 18 129.024Z" fill="white"/>
<path d="M18 90.9998L18.2141 90.281C17.9871 90.2134 17.7416 90.257 17.5517 90.3985C17.3619 90.5401 17.25 90.763 17.25 90.9998H18ZM18 129.024H17.25V129.598L17.804 129.748L18 129.024ZM102 129.024L102.196 129.748L102.75 129.598V129.024H102ZM102 90.9998H102.75C102.75 90.7509 102.626 90.5182 102.42 90.3786C102.214 90.2391 101.952 90.211 101.721 90.3036L102 90.9998ZM17.25 90.9998L17.25 129.024H18.75L18.75 90.9998H17.25ZM102.75 129.024V90.9998H101.25V129.024H102.75ZM102 90.9998C101.721 90.3036 101.721 90.3035 101.721 90.3035C101.721 90.3035 101.722 90.3034 101.722 90.3034C101.722 90.3034 101.721 90.3035 101.721 90.3037C101.72 90.304 101.718 90.3047 101.716 90.3056C101.711 90.3075 101.703 90.3106 101.692 90.3149C101.67 90.3235 101.635 90.3367 101.588 90.3544C101.493 90.3897 101.347 90.4425 101.15 90.5104C100.756 90.6463 100.155 90.8423 99.3395 91.0787C97.7096 91.5513 95.2239 92.185 91.8247 92.82C85.0265 94.0898 74.5727 95.3646 60 95.3646V96.8646C74.6605 96.8646 85.2067 95.582 92.1001 94.2945C95.5468 93.6507 98.0799 93.0057 99.7573 92.5193C100.596 92.2761 101.221 92.0726 101.638 91.9287C101.847 91.8568 102.005 91.7998 102.111 91.7601C102.164 91.7403 102.205 91.7249 102.233 91.7141C102.247 91.7087 102.258 91.7045 102.265 91.7014C102.269 91.6999 102.272 91.6987 102.274 91.6978C102.276 91.6974 102.277 91.697 102.277 91.6967C102.278 91.6965 102.278 91.6964 102.278 91.6963C102.279 91.6961 102.279 91.696 102 90.9998ZM60 95.3646C47.636 95.3646 37.1794 94.091 29.8168 92.8182C26.1359 92.1818 23.2295 91.5458 21.2459 91.0697C20.2542 90.8317 19.4933 90.6336 18.9818 90.4955C18.726 90.4265 18.5326 90.3724 18.4039 90.3358C18.3396 90.3175 18.2914 90.3036 18.2596 90.2944C18.2438 90.2898 18.232 90.2863 18.2244 90.2841C18.2206 90.283 18.2179 90.2821 18.2161 90.2816C18.2153 90.2814 18.2147 90.2812 18.2143 90.2811C18.2142 90.281 18.2141 90.281 18.214 90.281C18.214 90.281 18.2141 90.281 18 90.9998C17.7859 91.7186 17.7861 91.7187 17.7864 91.7187C17.7865 91.7188 17.7869 91.7189 17.7872 91.719C17.7879 91.7192 17.7889 91.7195 17.7901 91.7199C17.7926 91.7206 17.7961 91.7216 17.8007 91.723C17.8098 91.7256 17.823 91.7295 17.8404 91.7346C17.8752 91.7447 17.9264 91.7595 17.9939 91.7787C18.1288 91.817 18.3286 91.8729 18.5908 91.9437C19.1153 92.0853 19.8898 92.2868 20.8958 92.5283C22.9078 93.0112 25.8458 93.6539 29.5613 94.2962C36.9914 95.5808 47.5348 96.8646 60 96.8646V95.3646ZM18 129.024C17.804 129.748 17.8041 129.748 17.8044 129.748C17.8046 129.748 17.8049 129.748 17.8053 129.748C17.806 129.748 17.807 129.749 17.8082 129.749C17.8108 129.75 17.8144 129.751 17.8192 129.752C17.8288 129.755 17.8427 129.758 17.8611 129.763C17.8979 129.773 17.9522 129.787 18.0236 129.806C18.1666 129.843 18.3781 129.897 18.6551 129.966C19.2092 130.103 20.025 130.299 21.077 130.533C23.1809 131.003 26.2298 131.627 30.0186 132.252C37.5948 133.501 48.1368 134.75 60 134.75V133.25C48.2382 133.25 37.7802 132.011 30.2626 130.772C26.5045 130.152 23.4832 129.533 21.4035 129.069C20.3637 128.838 19.5594 128.645 19.0162 128.51C18.7447 128.442 18.5384 128.39 18.4006 128.354C18.3317 128.336 18.28 128.322 18.2458 128.313C18.2286 128.309 18.2159 128.305 18.2076 128.303C18.2035 128.302 18.2004 128.301 18.1985 128.301C18.1975 128.3 18.1968 128.3 18.1964 128.3C18.1962 128.3 18.1961 128.3 18.196 128.3C18.196 128.3 18.196 128.3 18 129.024ZM60 134.75C71.8632 134.75 82.4053 133.501 89.9814 132.252C93.7702 131.627 96.8191 131.003 98.923 130.533C99.975 130.299 100.791 130.103 101.345 129.966C101.622 129.897 101.833 129.843 101.976 129.806C102.048 129.787 102.102 129.773 102.139 129.763C102.157 129.758 102.171 129.755 102.181 129.752C102.186 129.751 102.189 129.75 102.192 129.749C102.193 129.749 102.194 129.748 102.195 129.748C102.195 129.748 102.195 129.748 102.196 129.748C102.196 129.748 102.196 129.748 102 129.024C101.804 128.3 101.804 128.3 101.804 128.3C101.804 128.3 101.804 128.3 101.804 128.3C101.803 128.3 101.802 128.3 101.802 128.301C101.8 128.301 101.797 128.302 101.792 128.303C101.784 128.305 101.771 128.309 101.754 128.313C101.72 128.322 101.668 128.336 101.599 128.354C101.462 128.39 101.255 128.442 100.984 128.51C100.441 128.645 99.6363 128.838 98.5965 129.069C96.5168 129.533 93.4955 130.152 89.7374 130.772C82.2197 132.011 71.7618 133.25 60 133.25V134.75Z" fill="black"/>
</svg>
