<svg width="139" height="255" viewBox="0 0 139 255" fill="none" xmlns="http://www.w3.org/2000/svg">
<path d="M14 135L14.1557 134.266L13.8839 134.209L13.6401 134.342L14 135ZM1 142.111L0.640073 141.453C0.391671 141.589 0.240961 141.853 0.250418 142.136C0.259876 142.419 0.427888 142.673 0.684809 142.792L1 142.111ZM138 142L138.433 142.612C138.634 142.47 138.752 142.238 138.75 141.992C138.747 141.746 138.624 141.517 138.421 141.379L138 142ZM127.672 135L128.093 134.379L127.804 134.183L127.468 134.278L127.672 135ZM69.0469 141.222L69.0428 141.972L69.0469 141.222ZM13.6401 134.342L0.640073 141.453L1.35993 142.769L14.3599 135.658L13.6401 134.342ZM0.684809 142.792C3.65278 144.166 8.37589 145.402 14.0096 146.486C19.6614 147.575 26.29 148.522 33.1062 149.301C46.7354 150.859 61.1594 151.75 70.0938 151.75V150.25C61.2312 150.25 46.8662 149.364 33.2766 147.81C26.4835 147.034 19.8952 146.092 14.2932 145.014C8.67294 143.931 4.10504 142.723 1.31519 141.431L0.684809 142.792ZM70.0938 151.75C85.1937 151.75 100.634 150.609 113.092 148.91C119.321 148.06 124.815 147.07 129.155 146.01C133.456 144.959 136.733 143.815 138.433 142.612L137.567 141.388C136.126 142.407 133.111 143.499 128.799 144.553C124.526 145.597 119.086 146.579 112.889 147.424C100.498 149.113 85.1254 150.25 70.0938 150.25V151.75ZM138.421 141.379L128.093 134.379L127.251 135.621L137.579 142.621L138.421 141.379ZM127.468 134.278C121.254 136.037 100.387 140.643 69.051 140.472L69.0428 141.972C100.52 142.144 121.527 137.519 127.876 135.722L127.468 134.278ZM69.051 140.472C41.0429 140.319 22.5205 136.042 14.1557 134.266L13.8443 135.734C22.2295 137.514 40.8751 141.818 69.0428 141.972L69.051 140.472Z" fill="black"/>
<path d="M14 135.56L14 121C22.2909 122.75 43.1805 125.149 70.9863 125.375C98.7921 125.601 120.745 121.875 128 121V135.56C118.464 138.778 100.815 142 70.9863 142C54.0718 141.657 25.8758 139.442 14 135.56Z" fill="white" stroke="black" stroke-width="1.5"/>
<path d="M69.9998 172.328C58.218 172.328 29.0909 170.776 16 170L19.5 244.088C36.7798 258.385 110.5 256 121.5 244.088L124 170C110.909 170.776 81.7816 172.328 69.9998 172.328Z" fill="white" stroke="black" stroke-width="1.5"/>
<path d="M1 120.556L1 109C4.43933 111.519 46.8577 114.352 69.3149 114.352C105.122 114.352 132.841 111.378 138 109.174V120.462C127.473 123.75 105.089 126.269 69.3149 127C37.7511 127 14.6848 123.844 1 120.556Z" fill="white"/>
<path d="M1 109L1.4431 108.395C1.21515 108.228 0.912735 108.203 0.660757 108.331C0.408778 108.459 0.25 108.717 0.25 109H1ZM1 120.556H0.25L0.25 121.148L0.824788 121.286L1 120.556ZM69.3149 127V127.75H69.3226L69.3302 127.75L69.3149 127ZM138 120.462L138.224 121.178L138.75 121.014V120.462H138ZM138 109.174H138.75C138.75 108.922 138.623 108.687 138.413 108.548C138.203 108.409 137.937 108.385 137.705 108.484L138 109.174ZM0.25 109L0.25 120.556H1.75L1.75 109H0.25ZM0.824788 121.286C14.5792 124.59 37.7061 127.75 69.3149 127.75V126.25C37.796 126.25 14.7904 123.098 1.17521 119.827L0.824788 121.286ZM69.3302 127.75C105.098 127.019 127.582 124.502 138.224 121.178L137.776 119.747C127.364 122.999 105.08 125.519 69.2996 126.25L69.3302 127.75ZM138.75 120.462V109.174H137.25V120.462H138.75ZM137.705 108.484C136.516 108.992 133.908 109.581 130.015 110.171C126.152 110.757 121.102 111.333 115.087 111.842C103.06 112.859 87.1991 113.602 69.3149 113.602V115.102C87.2381 115.102 103.141 114.358 115.214 113.337C121.25 112.826 126.335 112.246 130.239 111.654C134.113 111.067 136.904 110.457 138.295 109.864L137.705 108.484ZM69.3149 113.602C58.1099 113.602 41.9102 112.895 28.0811 111.872C21.1666 111.361 14.8551 110.772 10.063 110.155C7.66543 109.846 5.66011 109.532 4.15435 109.219C3.40082 109.062 2.78462 108.908 2.3126 108.76C1.82017 108.605 1.55309 108.475 1.4431 108.395L0.556896 109.605C0.876829 109.839 1.34419 110.027 1.86194 110.19C2.4001 110.36 3.06984 110.525 3.8492 110.687C5.40923 111.012 7.45756 111.332 9.87131 111.643C14.7017 112.265 21.0433 112.856 27.9705 113.368C41.8246 114.392 58.0628 115.102 69.3149 115.102V113.602Z" fill="black"/>
<path d="M1.00036 188.786L1 142C9.48327 145.577 35.4467 150.194 68.8496 150.944C102.253 151.693 134.788 144.793 138 142.084V188.786C127.396 193.258 104.918 198 68.8479 198C37.0522 198 14.7857 193.258 1.00036 188.786Z" fill="white"/>
<path d="M1 142L1.29143 141.309C1.05984 141.211 0.794732 141.236 0.58531 141.375C0.375889 141.514 0.249998 141.749 0.25 142L1 142ZM1.00036 188.786L0.250364 188.786L0.250368 189.331L0.768944 189.5L1.00036 188.786ZM138 188.786L138.291 189.477L138.75 189.284V188.786H138ZM138 142.084H138.75C138.75 141.792 138.581 141.527 138.316 141.404C138.051 141.281 137.74 141.322 137.516 141.511L138 142.084ZM68.8496 150.944L68.8665 150.194L68.8496 150.944ZM0.25 142L0.250364 188.786L1.75036 188.786L1.75 142L0.25 142ZM0.768944 189.5C14.6321 193.997 36.9769 198.75 68.8479 198.75V197.25C37.1276 197.25 14.9393 192.519 1.23178 188.073L0.768944 189.5ZM68.8479 198.75C104.963 198.75 127.555 194.005 138.291 189.477L137.709 188.095C127.237 192.511 104.874 197.25 68.8479 197.25V198.75ZM138.75 188.786V142.084H137.25V188.786H138.75ZM137.516 141.511C137.233 141.75 136.497 142.117 135.226 142.566C133.994 143.002 132.353 143.485 130.354 143.99C126.358 144.999 120.969 146.087 114.631 147.07C101.955 149.034 85.5152 150.567 68.8665 150.194L68.8328 151.693C85.5869 152.069 102.116 150.527 114.861 148.552C121.234 147.564 126.669 146.467 130.721 145.444C132.746 144.933 134.435 144.437 135.727 143.98C136.98 143.537 137.964 143.095 138.484 142.657L137.516 141.511ZM68.8665 150.194C52.1939 149.82 37.3826 148.48 25.6873 146.79C13.9688 145.096 5.43859 143.058 1.29143 141.309L0.708574 142.691C5.04468 144.52 13.7379 146.578 25.4727 148.275C37.2306 149.974 52.1025 151.318 68.8328 151.693L68.8665 150.194Z" fill="black"/>
<path d="M52.5862 1.00003L52.5864 0.250031L51.9059 0.249822L51.8398 0.927097L52.5862 1.00003ZM87.5 1.01071L88.2459 0.932402L88.1754 0.260918L87.5002 0.260712L87.5 1.01071ZM96.3172 84.9945L95.5713 85.0728L95.6166 85.5045L96.0135 85.6803L96.3172 84.9945ZM111 91.4972L111.193 92.222C111.5 92.1403 111.723 91.8733 111.748 91.556C111.773 91.2388 111.595 90.9403 111.304 90.8115L111 91.4972ZM27 91.2273L26.7468 90.5213C26.4382 90.632 26.2372 90.9304 26.2506 91.258C26.2641 91.5857 26.4888 91.8666 26.8054 91.9516L27 91.2273ZM44.3793 84.9946L44.6325 85.7005L45.0796 85.5402L45.1258 85.0675L44.3793 84.9946ZM52.586 1.75003L87.4998 1.76071L87.5002 0.260712L52.5864 0.250031L52.586 1.75003ZM86.7541 1.08902L95.5713 85.0728L97.0631 84.9162L88.2459 0.932402L86.7541 1.08902ZM96.0135 85.6803L110.696 92.183L111.304 90.8115L96.6209 84.3088L96.0135 85.6803ZM27.2532 91.9333L44.6325 85.7005L44.1261 84.2886L26.7468 90.5213L27.2532 91.9333ZM45.1258 85.0675L53.3327 1.07296L51.8398 0.927097L43.6329 84.9216L45.1258 85.0675ZM111 91.4972C110.807 90.7724 110.807 90.7724 110.807 90.7725C110.807 90.7725 110.807 90.7726 110.806 90.7726C110.806 90.7728 110.805 90.7731 110.803 90.7735C110.8 90.7742 110.796 90.7753 110.79 90.7769C110.779 90.7799 110.762 90.7845 110.738 90.7906C110.692 90.8027 110.623 90.8208 110.532 90.8445C110.35 90.8918 110.08 90.9614 109.73 91.0501C109.03 91.2274 108.01 91.4809 106.731 91.7854C104.175 92.3943 100.587 93.2062 96.4669 94.0181C88.2138 95.6443 77.8671 97.2607 69.3798 97.2607V98.7607C78.0179 98.7607 88.4812 97.1204 96.7569 95.4898C100.901 94.6733 104.508 93.8569 107.079 93.2446C108.365 92.9383 109.392 92.683 110.098 92.5041C110.451 92.4147 110.724 92.3443 110.909 92.2963C111.002 92.2722 111.072 92.2538 111.12 92.2412C111.144 92.235 111.162 92.2302 111.174 92.227C111.18 92.2254 111.185 92.2242 111.188 92.2234C111.189 92.2229 111.191 92.2226 111.191 92.2224C111.192 92.2223 111.192 92.2222 111.192 92.2221C111.193 92.2221 111.193 92.222 111 91.4972ZM69.3798 97.2607C60.8946 97.2607 50.3595 95.5775 41.9154 93.8837C37.6998 93.0381 34.0176 92.1924 31.3895 91.5581C30.0757 91.2411 29.0257 90.977 28.3047 90.7923C27.9443 90.6999 27.6661 90.6274 27.4783 90.5781C27.3845 90.5534 27.3132 90.5346 27.2656 90.5219C27.2417 90.5156 27.2238 90.5108 27.212 90.5076C27.206 90.5061 27.2016 90.5049 27.1987 90.5041C27.1972 90.5037 27.1962 90.5034 27.1955 90.5032C27.1951 90.5031 27.1949 90.5031 27.1947 90.503C27.1946 90.503 27.1946 90.503 27 91.2273C26.8054 91.9516 26.8056 91.9517 26.8059 91.9517C26.8061 91.9518 26.8064 91.9519 26.8068 91.952C26.8077 91.9522 26.8089 91.9526 26.8105 91.953C26.8138 91.9539 26.8185 91.9551 26.8248 91.9568C26.8373 91.9602 26.8559 91.9651 26.8804 91.9716C26.9294 91.9846 27.002 92.0039 27.0973 92.0289C27.2878 92.0789 27.5689 92.1522 27.9325 92.2453C28.6595 92.4316 29.7163 92.6974 31.0376 93.0163C33.68 93.654 37.3817 94.5041 41.6204 95.3544C50.0848 97.0522 60.7397 98.7607 69.3798 98.7607V97.2607Z" fill="black"/>
<path d="M138.25 108.5C138.25 108.761 138.047 109.206 137.171 109.791C136.33 110.353 135.04 110.924 133.308 111.484C129.853 112.601 124.815 113.617 118.542 114.474C106.008 116.188 88.6689 117.25 69.5 117.25C50.3311 117.25 32.9917 116.188 20.4577 114.474C14.1851 113.617 9.14689 112.601 5.69229 111.484C3.95981 110.924 2.67013 110.353 1.82859 109.791C0.952735 109.206 0.75 108.761 0.75 108.5C0.75 108.239 0.952735 107.794 1.82859 107.209C2.67013 106.647 3.95981 106.076 5.69229 105.516C9.14689 104.399 14.1851 103.383 20.4577 102.526C32.9917 100.812 50.3311 99.75 69.5 99.75C88.6689 99.75 106.008 100.812 118.542 102.526C124.815 103.383 129.853 104.399 133.308 105.516C135.04 106.076 136.33 106.647 137.171 107.209C138.047 107.794 138.25 108.239 138.25 108.5Z" fill="#BCF352" stroke="black" stroke-width="1.5"/>
<path d="M27 109.57L27 90.9999C27 90.9999 44.1708 93.4978 69 93.4978C98.2332 93.4978 111 90.9999 111 90.9999V109.57C111 109.57 92.625 112 69 112C45.375 112 27 109.57 27 109.57Z" fill="white"/>
<path d="M27 90.9999L27.108 90.2577C26.8925 90.2264 26.674 90.2902 26.5093 90.4327C26.3446 90.5752 26.25 90.7822 26.25 90.9999H27ZM27 109.57H26.25V110.227L26.9017 110.313L27 109.57ZM111 109.57L111.098 110.313L111.75 110.227V109.57H111ZM111 90.9999H111.75C111.75 90.7758 111.65 90.5634 111.477 90.4209C111.304 90.2784 111.076 90.2208 110.856 90.2639L111 90.9999ZM26.25 90.9999L26.25 109.57H27.75L27.75 90.9999H26.25ZM111.75 109.57V90.9999H110.25V109.57H111.75ZM111 90.9999C110.856 90.2639 110.856 90.2638 110.856 90.2638C110.856 90.2638 110.856 90.2638 110.856 90.2639C110.856 90.2639 110.855 90.264 110.855 90.2641C110.854 90.2643 110.852 90.2647 110.849 90.2652C110.844 90.2662 110.835 90.2679 110.823 90.2701C110.8 90.2745 110.764 90.2812 110.715 90.2901C110.618 90.3078 110.47 90.334 110.27 90.3676C109.87 90.4348 109.264 90.5314 108.443 90.6476C106.802 90.88 104.305 91.1908 100.894 91.502C94.0725 92.1243 83.5953 92.7478 69 92.7478V94.2478C83.6379 94.2478 94.1607 93.6224 101.031 92.9958C104.466 92.6824 106.987 92.3688 108.654 92.1328C109.487 92.0148 110.106 91.9162 110.519 91.8469C110.725 91.8122 110.88 91.7848 110.984 91.7659C111.036 91.7564 111.075 91.7491 111.102 91.7441C111.115 91.7416 111.125 91.7396 111.132 91.7382C111.136 91.7376 111.138 91.737 111.14 91.7366C111.141 91.7365 111.142 91.7363 111.143 91.7362C111.143 91.7361 111.143 91.7361 111.144 91.736C111.144 91.736 111.144 91.736 111 90.9999ZM69 92.7478C56.61 92.7478 46.1314 92.1246 38.7521 91.5015C35.0627 91.19 32.1485 90.8786 30.1582 90.6453C29.1631 90.5287 28.3989 90.4315 27.8843 90.3637C27.6271 90.3298 27.4322 90.3031 27.302 90.2851C27.2369 90.276 27.188 90.2692 27.1556 90.2645C27.1394 90.2622 27.1273 90.2605 27.1193 90.2594C27.1153 90.2588 27.1124 90.2584 27.1105 90.2581C27.1096 90.258 27.1089 90.2579 27.1085 90.2578C27.1082 90.2578 27.1081 90.2577 27.108 90.2577C27.108 90.2577 27.108 90.2577 27 90.9999C26.892 91.7421 26.8922 91.7421 26.8924 91.7421C26.8925 91.7422 26.8928 91.7422 26.8931 91.7423C26.8937 91.7423 26.8946 91.7425 26.8958 91.7426C26.8981 91.743 26.9014 91.7435 26.9058 91.7441C26.9145 91.7453 26.9274 91.7472 26.9445 91.7496C26.9785 91.7545 27.0291 91.7616 27.0958 91.7708C27.2293 91.7894 27.4275 91.8164 27.6883 91.8508C28.2097 91.9196 28.981 92.0176 29.9836 92.1351C31.9887 92.3702 34.919 92.6832 38.6259 92.9962C46.0394 93.6221 56.5607 94.2478 69 94.2478V92.7478ZM27 109.57C26.9017 110.313 26.9018 110.313 26.902 110.313C26.9022 110.313 26.9024 110.313 26.9027 110.313C26.9034 110.314 26.9043 110.314 26.9055 110.314C26.9079 110.314 26.9114 110.315 26.9161 110.315C26.9253 110.316 26.939 110.318 26.9571 110.321C26.9932 110.325 27.0469 110.332 27.1178 110.341C27.2595 110.359 27.4698 110.385 27.7455 110.419C28.2969 110.486 29.11 110.581 30.159 110.695C32.2571 110.924 35.2993 111.228 39.0804 111.532C46.6421 112.141 57.1628 112.75 69 112.75V111.25C57.2122 111.25 46.7329 110.644 39.2008 110.037C35.4351 109.734 32.407 109.431 30.3214 109.204C29.2787 109.09 28.4716 108.996 27.9259 108.93C27.653 108.897 27.4455 108.871 27.3065 108.853C27.237 108.844 27.1846 108.838 27.1498 108.833C27.1324 108.831 27.1194 108.829 27.1108 108.828C27.1065 108.827 27.1033 108.827 27.1012 108.827C27.1002 108.827 27.0994 108.826 27.0989 108.826C27.0987 108.826 27.0985 108.826 27.0984 108.826C27.0983 108.826 27.0983 108.826 27 109.57ZM69 112.75C80.8372 112.75 91.3579 112.141 98.9196 111.532C102.701 111.228 105.743 110.924 107.841 110.695C108.89 110.581 109.703 110.486 110.254 110.419C110.53 110.385 110.741 110.359 110.882 110.341C110.953 110.332 111.007 110.325 111.043 110.321C111.061 110.318 111.075 110.316 111.084 110.315C111.089 110.315 111.092 110.314 111.094 110.314C111.096 110.314 111.097 110.314 111.097 110.313C111.098 110.313 111.098 110.313 111.098 110.313C111.098 110.313 111.098 110.313 111 109.57C110.902 108.826 110.902 108.826 110.902 108.826C110.901 108.826 110.901 108.826 110.901 108.826C110.901 108.826 110.9 108.827 110.899 108.827C110.897 108.827 110.894 108.827 110.889 108.828C110.881 108.829 110.868 108.831 110.85 108.833C110.815 108.838 110.763 108.844 110.694 108.853C110.555 108.871 110.347 108.897 110.074 108.93C109.528 108.996 108.721 109.09 107.679 109.204C105.593 109.431 102.565 109.734 98.7992 110.037C91.2671 110.644 80.7878 111.25 69 111.25V112.75Z" fill="black"/>
</svg>
