<svg width="123" height="406" viewBox="0 0 123 406" fill="none" xmlns="http://www.w3.org/2000/svg">
<path d="M61.5 330.064C51.1364 330.064 25.5152 329.355 14.0001 329L14.0001 400.262C24.3261 405.057 79.7089 405.792 84.1835 404.322V395.504C88.7729 395.749 97.6413 394.402 102.116 392.932V402.118C102.116 402.118 105.902 402.118 109 400.262L109 329C97.4849 329.355 71.8637 330.064 61.5 330.064Z" stroke="black" stroke-width="1.5"/>
<path d="M14 307.56L14 293C21.2727 294.75 39.5969 297.149 63.988 297.375C88.3791 297.601 107.636 293.875 114 293V307.56C105.635 310.778 90.1538 314 63.988 314C49.1507 313.657 24.4173 311.442 14 307.56Z" stroke="black" stroke-width="1.5"/>
<path d="M2 294.354L2 276C5 280 42 284.5 61.5885 284.5C92.822 284.5 117 279.776 121.5 276.276V294.205C112.318 299.427 92.7931 301.839 61.5885 303C34.0566 303 13.9367 299.576 2 294.354Z" fill="white"/>
<path d="M2 276L2.6 275.55C2.40631 275.292 2.06909 275.186 1.76283 275.288C1.45657 275.391 1.25 275.677 1.25 276H2ZM2 294.354H1.25V294.845L1.6994 295.041L2 294.354ZM61.5885 303V303.75H61.6025L61.6164 303.749L61.5885 303ZM121.5 294.205L121.871 294.857L122.25 294.641V294.205H121.5ZM121.5 276.276H122.25C122.25 275.99 122.087 275.728 121.83 275.602C121.572 275.477 121.266 275.508 121.04 275.684L121.5 276.276ZM1.25 276L1.25 294.354H2.75L2.75 276H1.25ZM1.6994 295.041C13.7762 300.325 34.0179 303.75 61.5885 303.75V302.25C34.0953 302.25 14.0972 298.828 2.3006 293.667L1.6994 295.041ZM61.6164 303.749C77.2275 303.169 89.9399 302.274 99.9075 300.868C109.855 299.465 117.151 297.542 121.871 294.857L121.129 293.553C116.667 296.091 109.609 297.985 99.6979 299.383C89.8064 300.778 77.1541 301.67 61.5607 302.251L61.6164 303.749ZM122.25 294.205V276.276H120.75V294.205H122.25ZM121.04 275.684C120.045 276.458 117.824 277.379 114.433 278.315C111.082 279.24 106.692 280.153 101.455 280.959C90.9843 282.572 77.1697 283.75 61.5885 283.75V285.25C77.2409 285.25 91.132 284.066 101.683 282.442C106.958 281.63 111.409 280.706 114.832 279.761C118.217 278.826 120.705 277.844 121.96 276.868L121.04 275.684ZM61.5885 283.75C51.8372 283.75 37.7249 282.629 25.6736 281.007C19.6484 280.196 14.1565 279.262 9.99297 278.285C7.90923 277.797 6.17702 277.301 4.88373 276.812C4.23682 276.567 3.71565 276.33 3.32152 276.104C2.91613 275.872 2.69788 275.681 2.6 275.55L1.4 276.45C1.67712 276.819 2.0995 277.132 2.57525 277.405C3.06227 277.685 3.66277 277.954 4.35295 278.215C5.73383 278.738 7.53747 279.25 9.65042 279.746C13.8803 280.738 19.4251 281.679 25.4735 282.493C37.5693 284.121 51.7514 285.25 61.5885 285.25V283.75Z" fill="black"/>
<path d="M1.5001 330.351L1.5 315.009C8.80354 318.564 32.5695 323.152 61.3272 323.897C90.0849 324.642 118.734 317.693 121.5 315V330.259C112.371 334.704 92.3815 339.008 61.3272 339.008C33.9532 339.008 13.3684 334.795 1.5001 330.351Z" fill="white"/>
<path d="M1.5 315.009L1.82828 314.334C1.59584 314.221 1.32151 314.236 1.10233 314.373C0.883138 314.51 0.749998 314.75 0.75 315.009L1.5 315.009ZM1.5001 330.351L0.750101 330.351L0.750104 330.871L1.23708 331.053L1.5001 330.351ZM121.5 330.259L121.828 330.933L122.25 330.728V330.259H121.5ZM121.5 315H122.25C122.25 314.698 122.069 314.426 121.792 314.309C121.514 314.192 121.193 314.252 120.977 314.463L121.5 315ZM0.75 315.009L0.750101 330.351L2.2501 330.351L2.25 315.008L0.75 315.009ZM1.23708 331.053C13.2078 335.536 33.8853 339.758 61.3272 339.758V338.258C34.0211 338.258 13.5289 334.055 1.76312 329.649L1.23708 331.053ZM61.3272 339.758C92.4191 339.758 112.545 335.453 121.828 330.933L121.172 329.585C112.196 333.954 92.3439 338.258 61.3272 338.258V339.758ZM122.25 330.259V315H120.75V330.259H122.25ZM120.977 314.463C120.749 314.684 120.129 315.042 119.019 315.491C117.947 315.924 116.515 316.405 114.767 316.91C111.274 317.92 106.561 319.013 101.029 320C89.9641 321.974 75.664 323.519 61.3466 323.148L61.3078 324.647C75.7481 325.021 90.1516 323.464 101.292 321.476C106.863 320.482 111.629 319.379 115.184 318.352C116.96 317.838 118.445 317.341 119.581 316.881C120.679 316.437 121.56 315.989 122.023 315.537L120.977 314.463ZM61.3466 323.148C47.0006 322.776 33.9031 321.446 23.4877 319.766C13.0425 318.082 5.37198 316.059 1.82828 314.334L1.17172 315.683C4.93156 317.513 12.7958 319.562 23.2489 321.247C33.7318 322.937 46.8961 324.274 61.3078 324.647L61.3466 323.148Z" fill="black"/>
<path d="M1.5 315L14 308C21.3125 309.778 38.8037 313.347 63.3281 313.5C94.9141 313.5 108.117 309.778 113.602 308L121.5 315C115.5 318.5 89.6371 324 63.3281 324C47.7891 324 14 320.5 1.5 315Z" fill="white"/>
<path d="M14 308L14.1772 307.271L13.8907 307.202L13.6335 307.346L14 308ZM1.5 315L1.13355 314.346C0.885416 314.485 0.737221 314.752 0.750863 315.036C0.764506 315.32 0.93764 315.572 1.19795 315.686L1.5 315ZM121.5 315L121.878 315.648C122.086 315.527 122.223 315.313 122.246 315.074C122.27 314.834 122.177 314.598 121.997 314.439L121.5 315ZM113.602 308L114.099 307.439L113.778 307.154L113.37 307.287L113.602 308ZM63.3281 313.5L63.3234 314.25H63.3281V313.5ZM13.6335 307.346L1.13355 314.346L1.86645 315.654L14.3665 308.654L13.6335 307.346ZM1.19795 315.686C7.55818 318.485 19.2303 320.744 31.1772 322.306C43.1515 323.872 55.5173 324.75 63.3281 324.75V323.25C55.5999 323.25 43.3017 322.378 31.3716 320.819C19.4143 319.256 7.94182 317.015 1.80205 314.314L1.19795 315.686ZM63.3281 324.75C76.5312 324.75 89.6172 323.37 100.157 321.552C105.428 320.642 110.07 319.622 113.777 318.606C117.464 317.596 120.287 316.576 121.878 315.648L121.122 314.352C119.713 315.174 117.053 316.154 113.381 317.159C109.73 318.16 105.136 319.17 99.9024 320.073C89.434 321.88 76.434 323.25 63.3281 323.25V324.75ZM121.997 314.439L114.099 307.439L113.104 308.561L121.003 315.561L121.997 314.439ZM113.37 307.287C107.972 309.036 94.8486 312.75 63.3281 312.75V314.25C94.9795 314.25 108.262 310.519 113.833 308.713L113.37 307.287ZM63.3328 312.75C38.8784 312.597 21.4461 309.038 14.1772 307.271L13.8228 308.729C21.1789 310.517 38.7289 314.096 63.3234 314.25L63.3328 312.75Z" fill="black"/>
<path d="M54.5 1L54.5001 0.25L53.7905 0.249913L53.7512 0.95843L54.5 1ZM73.5 1.00232L74.2492 0.967417L74.2159 0.252405L73.5001 0.252318L73.5 1.00232ZM82.1366 186.397L81.3875 186.432L81.3993 186.686L81.5627 186.88L82.1366 186.397ZM93 199.313L93.3023 199.999C93.5184 199.904 93.6771 199.712 93.7305 199.482C93.784 199.252 93.726 199.011 93.574 198.83L93 199.313ZM33 198.993L32.4397 198.495C32.2806 198.673 32.2164 198.917 32.2669 199.151C32.3173 199.385 32.4764 199.581 32.6951 199.679L33 198.993ZM44.2082 186.4L44.7684 186.898L44.9425 186.703L44.957 186.441L44.2082 186.4ZM54.4999 1.75L73.4999 1.75232L73.5001 0.252318L54.5001 0.25L54.4999 1.75ZM72.7508 1.03722L81.3875 186.432L82.8858 186.362L74.2492 0.967417L72.7508 1.03722ZM81.5627 186.88L92.426 199.795L93.574 198.83L82.7106 185.914L81.5627 186.88ZM33.5603 199.492L44.7684 186.898L43.6479 185.901L32.4397 198.495L33.5603 199.492ZM44.957 186.441L55.2488 1.04157L53.7512 0.95843L43.4593 186.358L44.957 186.441ZM93 199.313C92.6977 198.626 92.6977 198.626 92.6977 198.626C92.6976 198.626 92.6974 198.626 92.6972 198.626C92.6968 198.627 92.6961 198.627 92.6952 198.627C92.6933 198.628 92.6903 198.629 92.6864 198.631C92.6784 198.635 92.6662 198.64 92.6499 198.647C92.6174 198.661 92.5686 198.682 92.504 198.71C92.3749 198.766 92.1831 198.848 91.9342 198.952C91.4363 199.161 90.7101 199.46 89.7998 199.819C87.9789 200.537 85.4241 201.495 82.4901 202.453C76.6013 204.375 69.2631 206.269 63.2713 206.269V207.769C69.5119 207.769 77.038 205.81 82.9555 203.879C85.9246 202.91 88.5084 201.941 90.3503 201.214C91.2715 200.851 92.0077 200.548 92.5145 200.335C92.7678 200.229 92.9639 200.145 93.097 200.088C93.1636 200.059 93.2145 200.037 93.2489 200.022C93.2661 200.015 93.2793 200.009 93.2882 200.005C93.2927 200.003 93.2961 200.002 93.2984 200.001C93.2996 200 93.3005 200 93.3012 199.999C93.3015 199.999 93.3018 199.999 93.3019 199.999C93.3022 199.999 93.3023 199.999 93 199.313ZM63.2713 206.269C57.2828 206.269 49.8115 204.297 43.785 202.294C40.7829 201.297 38.1601 200.299 36.2881 199.551C35.3523 199.177 34.6048 198.865 34.092 198.648C33.8356 198.539 33.6379 198.454 33.5048 198.396C33.4382 198.367 33.3878 198.345 33.3542 198.33C33.3375 198.322 33.3249 198.317 33.3166 198.313C33.3125 198.311 33.3094 198.31 33.3075 198.309C33.3065 198.309 33.3058 198.308 33.3054 198.308C33.3051 198.308 33.305 198.308 33.3049 198.308C33.3049 198.308 33.3049 198.308 33 198.993C32.6951 199.679 32.6953 199.679 32.6955 199.679C32.6957 199.679 32.696 199.679 32.6963 199.679C32.697 199.679 32.6979 199.68 32.6991 199.68C32.7015 199.681 32.705 199.683 32.7096 199.685C32.7188 199.689 32.7323 199.695 32.75 199.703C32.7855 199.718 32.8378 199.741 32.9064 199.771C33.0434 199.831 33.2453 199.918 33.506 200.029C34.0275 200.25 34.7848 200.565 35.7313 200.944C37.6239 201.7 40.2753 202.709 43.312 203.718C49.363 205.728 57.0274 207.769 63.2713 207.769V206.269Z" fill="black"/>
<path d="M121.25 275.5C121.25 275.809 121.05 276.255 120.314 276.82C119.594 277.372 118.485 277.938 116.985 278.495C113.992 279.606 109.619 280.62 104.164 281.477C93.2644 283.188 78.1801 284.25 61.5 284.25C44.8199 284.25 29.7356 283.188 18.8364 281.477C13.3809 280.62 9.00786 279.606 6.01542 278.495C4.51496 277.938 3.4059 277.372 2.68573 276.82C1.95041 276.255 1.75 275.809 1.75 275.5C1.75 275.191 1.95041 274.745 2.68573 274.18C3.4059 273.628 4.51496 273.062 6.01542 272.505C9.00786 271.394 13.3809 270.38 18.8364 269.523C29.7356 267.812 44.8199 266.75 61.5 266.75C78.1801 266.75 93.2644 267.812 104.164 269.523C109.619 270.38 113.992 271.394 116.985 272.505C118.485 273.062 119.594 273.628 120.314 274.18C121.05 274.745 121.25 275.191 121.25 275.5Z" fill="#BCF352" stroke="black" stroke-width="1.5"/>
<path d="M33 275.072L33 198C33 198 45.2648 203.065 63 203.065C83.8808 203.065 93 198 93 198L93 275.072C93 275.072 79.875 280 63 280C46.125 280 33 275.072 33 275.072Z" fill="white"/>
<path d="M33 198L33.2863 197.307C33.0549 197.211 32.7911 197.237 32.583 197.377C32.3749 197.516 32.25 197.75 32.25 198H33ZM33 275.072H32.25V275.592L32.7364 275.775L33 275.072ZM93 275.072L93.2636 275.775L93.75 275.592V275.072H93ZM93 198H93.75C93.75 197.734 93.6094 197.488 93.3804 197.354C93.1514 197.219 92.8681 197.215 92.6358 197.344L93 198ZM32.25 198L32.25 275.072H33.75L33.75 198H32.25ZM93.75 275.072L93.75 198H92.25L92.25 275.072H93.75ZM93 198C92.6358 197.344 92.6361 197.344 92.6364 197.344C92.6364 197.344 92.6366 197.344 92.6367 197.344C92.6368 197.344 92.6368 197.344 92.6367 197.344C92.6364 197.344 92.6355 197.345 92.6341 197.345C92.6314 197.347 92.6263 197.35 92.6191 197.353C92.6046 197.361 92.5811 197.374 92.5486 197.39C92.4835 197.424 92.3823 197.475 92.2443 197.541C91.9683 197.673 91.5449 197.864 90.9691 198.096C89.8176 198.558 88.0558 199.181 85.6423 199.806C80.8158 201.056 73.3791 202.315 63 202.315V203.815C73.5017 203.815 81.065 202.541 86.0183 201.259C88.4947 200.617 90.3178 199.974 91.5286 199.487C92.134 199.244 92.5862 199.04 92.8905 198.894C93.0426 198.822 93.1577 198.764 93.2364 198.723C93.2758 198.703 93.3061 198.687 93.3273 198.676C93.338 198.67 93.3463 198.665 93.3525 198.662C93.3555 198.66 93.3581 198.659 93.36 198.658C93.361 198.657 93.3618 198.657 93.3625 198.657C93.3628 198.656 93.3633 198.656 93.3634 198.656C93.3638 198.656 93.3642 198.656 93 198ZM63 202.315C54.2027 202.315 46.7623 201.059 41.5241 199.803C38.9056 199.176 36.839 198.549 35.4303 198.08C34.726 197.845 34.1864 197.651 33.8246 197.515C33.6437 197.448 33.5073 197.395 33.417 197.359C33.3719 197.341 33.3383 197.328 33.3164 197.319C33.3055 197.315 33.2975 197.311 33.2924 197.309C33.2899 197.308 33.2882 197.308 33.2871 197.307C33.2866 197.307 33.2863 197.307 33.2861 197.307C33.2861 197.307 33.2861 197.307 33.2861 197.307C33.2861 197.307 33.2863 197.307 33 198C32.7137 198.693 32.7139 198.693 32.7142 198.693C32.7144 198.693 32.7147 198.694 32.715 198.694C32.7156 198.694 32.7164 198.694 32.7174 198.695C32.7193 198.696 32.722 198.697 32.7255 198.698C32.7324 198.701 32.7422 198.705 32.7551 198.71C32.7807 198.72 32.8181 198.735 32.8672 198.755C32.9652 198.793 33.1096 198.849 33.2987 198.92C33.6769 199.062 34.234 199.263 34.9567 199.503C36.4019 199.984 38.51 200.623 41.1745 201.262C46.5026 202.539 54.0621 203.815 63 203.815V202.315ZM33 275.072C32.7364 275.775 32.7366 275.775 32.7368 275.775C32.737 275.775 32.7373 275.775 32.7376 275.775C32.7382 275.775 32.739 275.776 32.74 275.776C32.7419 275.777 32.7447 275.778 32.7483 275.779C32.7555 275.782 32.7658 275.785 32.7793 275.79C32.8062 275.8 32.8457 275.815 32.8975 275.833C33.001 275.871 33.1536 275.925 33.353 275.993C33.7519 276.131 34.3379 276.325 35.0929 276.559C36.6027 277.026 38.789 277.647 41.5048 278.267C46.9343 279.508 54.492 280.75 63 280.75V279.25C54.633 279.25 47.1907 278.028 41.839 276.805C39.1642 276.194 37.0145 275.583 35.536 275.126C34.7968 274.897 34.2257 274.707 33.8408 274.575C33.6484 274.509 33.5025 274.457 33.4056 274.422C33.3571 274.405 33.3208 274.391 33.2971 274.383C33.2852 274.378 33.2764 274.375 33.2709 274.373C33.2681 274.372 33.2661 274.371 33.2648 274.371C33.2642 274.37 33.2638 274.37 33.2636 274.37C33.2635 274.37 33.2635 274.37 33.2635 274.37C33.2635 274.37 33.2636 274.37 33 275.072ZM63 280.75C71.508 280.75 79.0657 279.508 84.4952 278.267C87.211 277.647 89.3973 277.026 90.9071 276.559C91.6621 276.325 92.2481 276.131 92.647 275.993C92.8464 275.925 92.999 275.871 93.1025 275.833C93.1543 275.815 93.1938 275.8 93.2207 275.79C93.2342 275.785 93.2445 275.782 93.2517 275.779C93.2553 275.778 93.2581 275.777 93.26 275.776C93.261 275.776 93.2618 275.775 93.2624 275.775C93.2627 275.775 93.263 275.775 93.2632 275.775C93.2634 275.775 93.2636 275.775 93 275.072C92.7364 274.37 92.7365 274.37 92.7365 274.37C92.7365 274.37 92.7365 274.37 92.7364 274.37C92.7362 274.37 92.7358 274.37 92.7352 274.371C92.7339 274.371 92.7319 274.372 92.7291 274.373C92.7236 274.375 92.7148 274.378 92.7029 274.383C92.6792 274.391 92.6429 274.405 92.5944 274.422C92.4975 274.457 92.3516 274.509 92.1592 274.575C91.7743 274.707 91.2032 274.897 90.464 275.126C88.9855 275.583 86.8358 276.194 84.161 276.805C78.8093 278.028 71.367 279.25 63 279.25V280.75Z" fill="black"/>
</svg>
