<svg width="123" height="317" viewBox="0 0 123 317" fill="none" xmlns="http://www.w3.org/2000/svg">
<path d="M61.9998 248.89C52.3999 248.89 28.6666 247.63 18 247C18 286.293 18.0002 293.581 18 307.142C32.0798 318.748 95 319.156 106 307.142L106 247C95.3331 247.63 71.5998 248.89 61.9998 248.89Z" fill="white" stroke="black" stroke-width="1.5"/>
<path d="M14 221.56L14 207C21.2727 208.75 39.5969 211.149 63.988 211.375C88.3791 211.601 107.636 207.875 114 207V221.56C105.635 224.778 90.1538 228 63.988 228C49.1507 227.657 24.4173 225.442 14 221.56Z" stroke="black" stroke-width="1.5"/>
<path d="M2 208.354L2 190C5 194 42 198.5 61.5885 198.5C92.822 198.5 117 193.776 121.5 190.276V208.205C112.318 213.427 92.7931 215.839 61.5885 217C34.0566 217 13.9367 213.576 2 208.354Z" fill="white"/>
<path d="M2 190L2.6 189.55C2.40631 189.292 2.06909 189.186 1.76283 189.288C1.45657 189.391 1.25 189.677 1.25 190H2ZM2 208.354H1.25V208.845L1.6994 209.041L2 208.354ZM61.5885 217V217.75H61.6025L61.6164 217.749L61.5885 217ZM121.5 208.205L121.871 208.857L122.25 208.641V208.205H121.5ZM121.5 190.276H122.25C122.25 189.99 122.087 189.728 121.83 189.602C121.572 189.477 121.266 189.508 121.04 189.684L121.5 190.276ZM1.25 190L1.25 208.354H2.75L2.75 190H1.25ZM1.6994 209.041C13.7762 214.325 34.0179 217.75 61.5885 217.75V216.25C34.0953 216.25 14.0972 212.828 2.3006 207.667L1.6994 209.041ZM61.6164 217.749C77.2275 217.169 89.9399 216.274 99.9075 214.868C109.855 213.465 117.151 211.542 121.871 208.857L121.129 207.553C116.667 210.091 109.609 211.985 99.6979 213.383C89.8064 214.778 77.1541 215.67 61.5607 216.251L61.6164 217.749ZM122.25 208.205V190.276H120.75V208.205H122.25ZM121.04 189.684C120.045 190.458 117.824 191.379 114.433 192.315C111.082 193.24 106.692 194.153 101.455 194.959C90.9843 196.572 77.1697 197.75 61.5885 197.75V199.25C77.2409 199.25 91.132 198.066 101.683 196.442C106.958 195.63 111.409 194.706 114.832 193.761C118.217 192.826 120.705 191.844 121.96 190.868L121.04 189.684ZM61.5885 197.75C51.8372 197.75 37.7249 196.629 25.6736 195.007C19.6484 194.196 14.1565 193.262 9.99297 192.285C7.90923 191.797 6.17702 191.301 4.88373 190.812C4.23682 190.567 3.71565 190.33 3.32152 190.104C2.91613 189.872 2.69788 189.681 2.6 189.55L1.4 190.45C1.67712 190.819 2.0995 191.132 2.57525 191.405C3.06227 191.685 3.66277 191.954 4.35295 192.215C5.73383 192.738 7.53747 193.25 9.65042 193.746C13.8803 194.738 19.4251 195.679 25.4735 196.493C37.5693 198.121 51.7514 199.25 61.5885 199.25V197.75Z" fill="black"/>
<path d="M1.5001 244.351L1.5 229.009C8.80354 232.564 32.5695 237.152 61.3272 237.897C90.0849 238.642 118.734 231.693 121.5 229V244.259C112.371 248.704 92.3815 253.008 61.3272 253.008C33.9532 253.008 13.3684 248.795 1.5001 244.351Z" fill="white"/>
<path d="M1.5 229.009L1.82828 228.334C1.59584 228.221 1.32151 228.236 1.10233 228.373C0.883138 228.51 0.749998 228.75 0.75 229.009L1.5 229.009ZM1.5001 244.351L0.750101 244.351L0.750104 244.871L1.23708 245.053L1.5001 244.351ZM121.5 244.259L121.828 244.933L122.25 244.728V244.259H121.5ZM121.5 229H122.25C122.25 228.698 122.069 228.426 121.792 228.309C121.514 228.192 121.193 228.252 120.977 228.463L121.5 229ZM0.75 229.009L0.750101 244.351L2.2501 244.351L2.25 229.008L0.75 229.009ZM1.23708 245.053C13.2078 249.536 33.8853 253.758 61.3272 253.758V252.258C34.0211 252.258 13.5289 248.055 1.76312 243.649L1.23708 245.053ZM61.3272 253.758C92.4191 253.758 112.545 249.453 121.828 244.933L121.172 243.585C112.196 247.954 92.3439 252.258 61.3272 252.258V253.758ZM122.25 244.259V229H120.75V244.259H122.25ZM120.977 228.463C120.749 228.684 120.129 229.042 119.019 229.491C117.947 229.924 116.515 230.405 114.767 230.91C111.274 231.92 106.561 233.013 101.029 234C89.9641 235.974 75.664 237.519 61.3466 237.148L61.3078 238.647C75.7481 239.021 90.1516 237.464 101.292 235.476C106.863 234.482 111.629 233.379 115.184 232.352C116.96 231.838 118.445 231.341 119.581 230.881C120.679 230.437 121.56 229.989 122.023 229.537L120.977 228.463ZM61.3466 237.148C47.0006 236.776 33.9031 235.446 23.4877 233.766C13.0425 232.082 5.37198 230.059 1.82828 228.334L1.17172 229.683C4.93156 231.513 12.7958 233.562 23.2489 235.247C33.7318 236.937 46.8961 238.274 61.3078 238.647L61.3466 237.148Z" fill="black"/>
<path d="M1.5 229L14 222C21.3125 223.778 38.8037 227.347 63.3281 227.5C94.9141 227.5 108.117 223.778 113.602 222L121.5 229C115.5 232.5 89.6371 238 63.3281 238C47.7891 238 14 234.5 1.5 229Z" fill="white"/>
<path d="M14 222L14.1772 221.271L13.8907 221.202L13.6335 221.346L14 222ZM1.5 229L1.13355 228.346C0.885416 228.485 0.737221 228.752 0.750863 229.036C0.764506 229.32 0.93764 229.572 1.19795 229.686L1.5 229ZM121.5 229L121.878 229.648C122.086 229.527 122.223 229.313 122.246 229.074C122.27 228.834 122.177 228.598 121.997 228.439L121.5 229ZM113.602 222L114.099 221.439L113.778 221.154L113.37 221.287L113.602 222ZM63.3281 227.5L63.3234 228.25H63.3281V227.5ZM13.6335 221.346L1.13355 228.346L1.86645 229.654L14.3665 222.654L13.6335 221.346ZM1.19795 229.686C7.55818 232.485 19.2303 234.744 31.1772 236.306C43.1515 237.872 55.5173 238.75 63.3281 238.75V237.25C55.5999 237.25 43.3017 236.378 31.3716 234.819C19.4143 233.256 7.94182 231.015 1.80205 228.314L1.19795 229.686ZM63.3281 238.75C76.5312 238.75 89.6172 237.37 100.157 235.552C105.428 234.642 110.07 233.622 113.777 232.606C117.464 231.596 120.287 230.576 121.878 229.648L121.122 228.352C119.713 229.174 117.053 230.154 113.381 231.159C109.73 232.16 105.136 233.17 99.9024 234.073C89.434 235.88 76.434 237.25 63.3281 237.25V238.75ZM121.997 228.439L114.099 221.439L113.104 222.561L121.003 229.561L121.997 228.439ZM113.37 221.287C107.972 223.036 94.8486 226.75 63.3281 226.75V228.25C94.9795 228.25 108.262 224.519 113.833 222.713L113.37 221.287ZM63.3328 226.75C38.8784 226.597 21.4461 223.038 14.1772 221.271L13.8228 222.729C21.1789 224.517 38.7289 228.096 63.3234 228.25L63.3328 226.75Z" fill="black"/>
<path d="M53.5 1L53.5001 0.25L52.8169 0.249917L52.7533 0.930177L53.5 1ZM72.5 1.00232L73.2465 0.929924L73.1808 0.252401L72.5001 0.252318L72.5 1.00232ZM82.1366 100.371L81.3901 100.444L81.4126 100.676L81.5627 100.854L82.1366 100.371ZM93 113.287L93.3023 113.973C93.5184 113.878 93.6771 113.686 93.7305 113.456C93.784 113.226 93.726 112.985 93.574 112.804L93 113.287ZM33 112.967L32.4397 112.469C32.2806 112.647 32.2164 112.891 32.2669 113.125C32.3173 113.359 32.4764 113.555 32.6951 113.653L33 112.967ZM44.2082 100.374L44.7684 100.872L44.932 100.688L44.9549 100.443L44.2082 100.374ZM53.4999 1.75L72.4999 1.75232L72.5001 0.252318L53.5001 0.25L53.4999 1.75ZM71.7535 1.07471L81.3901 100.444L82.8831 100.299L73.2465 0.929924L71.7535 1.07471ZM81.5627 100.854L92.426 113.769L93.574 112.804L82.7106 99.8885L81.5627 100.854ZM33.5603 113.466L44.7684 100.872L43.6479 99.8749L32.4397 112.469L33.5603 113.466ZM44.9549 100.443L54.2467 1.06982L52.7533 0.930177L43.4614 100.304L44.9549 100.443ZM93 113.287C92.6977 112.6 92.6977 112.6 92.6977 112.6C92.6976 112.6 92.6974 112.6 92.6972 112.6C92.6968 112.601 92.6961 112.601 92.6952 112.601C92.6933 112.602 92.6903 112.603 92.6864 112.605C92.6784 112.609 92.6662 112.614 92.6499 112.621C92.6174 112.635 92.5686 112.656 92.504 112.684C92.3749 112.74 92.1831 112.822 91.9342 112.926C91.4363 113.135 90.7101 113.434 89.7998 113.793C87.9789 114.511 85.4241 115.469 82.4901 116.427C76.6013 118.349 69.2631 120.243 63.2713 120.243V121.743C69.5119 121.743 77.038 119.784 82.9555 117.853C85.9246 116.884 88.5084 115.915 90.3503 115.188C91.2715 114.825 92.0077 114.522 92.5145 114.309C92.7678 114.203 92.9639 114.119 93.097 114.062C93.1636 114.033 93.2145 114.011 93.2489 113.996C93.2661 113.989 93.2793 113.983 93.2882 113.979C93.2927 113.977 93.2961 113.976 93.2984 113.975C93.2996 113.974 93.3005 113.974 93.3012 113.973C93.3015 113.973 93.3018 113.973 93.3019 113.973C93.3022 113.973 93.3023 113.973 93 113.287ZM63.2713 120.243C57.2828 120.243 49.8115 118.271 43.785 116.268C40.7829 115.271 38.1601 114.273 36.2881 113.525C35.3523 113.151 34.6048 112.839 34.092 112.622C33.8356 112.513 33.6379 112.428 33.5048 112.37C33.4382 112.341 33.3878 112.319 33.3542 112.304C33.3375 112.296 33.3249 112.291 33.3166 112.287C33.3125 112.285 33.3094 112.284 33.3075 112.283C33.3065 112.283 33.3058 112.282 33.3054 112.282C33.3051 112.282 33.305 112.282 33.3049 112.282C33.3049 112.282 33.3049 112.282 33 112.967C32.6951 113.653 32.6953 113.653 32.6955 113.653C32.6957 113.653 32.696 113.653 32.6963 113.653C32.697 113.653 32.6979 113.654 32.6991 113.654C32.7015 113.655 32.705 113.657 32.7096 113.659C32.7188 113.663 32.7323 113.669 32.75 113.677C32.7855 113.692 32.8378 113.715 32.9064 113.745C33.0434 113.805 33.2453 113.892 33.506 114.003C34.0275 114.224 34.7848 114.539 35.7313 114.918C37.6239 115.674 40.2753 116.683 43.312 117.692C49.363 119.702 57.0274 121.743 63.2713 121.743V120.243Z" fill="black"/>
<path d="M121.25 189.5C121.25 189.809 121.05 190.255 120.314 190.82C119.594 191.372 118.485 191.938 116.985 192.495C113.992 193.606 109.619 194.62 104.164 195.477C93.2644 197.188 78.1801 198.25 61.5 198.25C44.8199 198.25 29.7356 197.188 18.8364 195.477C13.3809 194.62 9.00786 193.606 6.01542 192.495C4.51496 191.938 3.4059 191.372 2.68573 190.82C1.95041 190.255 1.75 189.809 1.75 189.5C1.75 189.191 1.95041 188.745 2.68573 188.18C3.4059 187.628 4.51496 187.062 6.01542 186.505C9.00786 185.394 13.3809 184.38 18.8364 183.523C29.7356 181.812 44.8199 180.75 61.5 180.75C78.1801 180.75 93.2644 181.812 104.164 183.523C109.619 184.38 113.992 185.394 116.985 186.505C118.485 187.062 119.594 187.628 120.314 188.18C121.05 188.745 121.25 189.191 121.25 189.5Z" fill="#BCF352" stroke="black" stroke-width="1.5"/>
<path d="M33 189.072L33 112C33 112 45.2648 117.065 63 117.065C83.8808 117.065 93 112 93 112L93 189.072C93 189.072 79.875 194 63 194C46.125 194 33 189.072 33 189.072Z" fill="white"/>
<path d="M33 112L33.2863 111.307C33.0549 111.211 32.7911 111.237 32.583 111.377C32.3749 111.516 32.25 111.75 32.25 112H33ZM33 189.072H32.25V189.592L32.7364 189.775L33 189.072ZM93 189.072L93.2636 189.775L93.75 189.592V189.072H93ZM93 112H93.75C93.75 111.734 93.6094 111.488 93.3804 111.354C93.1514 111.219 92.8681 111.215 92.6358 111.344L93 112ZM32.25 112L32.25 189.072H33.75L33.75 112H32.25ZM93.75 189.072L93.75 112H92.25L92.25 189.072H93.75ZM93 112C92.6358 111.344 92.6361 111.344 92.6364 111.344C92.6364 111.344 92.6366 111.344 92.6367 111.344C92.6368 111.344 92.6368 111.344 92.6367 111.344C92.6364 111.344 92.6355 111.345 92.6341 111.345C92.6314 111.347 92.6263 111.35 92.6191 111.353C92.6046 111.361 92.5811 111.374 92.5486 111.39C92.4835 111.424 92.3823 111.475 92.2443 111.541C91.9683 111.673 91.5449 111.864 90.9691 112.096C89.8176 112.558 88.0558 113.181 85.6423 113.806C80.8158 115.056 73.3791 116.315 63 116.315V117.815C73.5017 117.815 81.065 116.541 86.0183 115.259C88.4947 114.617 90.3178 113.974 91.5286 113.487C92.134 113.244 92.5862 113.04 92.8905 112.894C93.0426 112.822 93.1577 112.764 93.2364 112.723C93.2758 112.703 93.3061 112.687 93.3273 112.676C93.338 112.67 93.3463 112.665 93.3525 112.662C93.3555 112.66 93.3581 112.659 93.36 112.658C93.361 112.657 93.3618 112.657 93.3625 112.657C93.3628 112.656 93.3633 112.656 93.3634 112.656C93.3638 112.656 93.3642 112.656 93 112ZM63 116.315C54.2027 116.315 46.7623 115.059 41.5241 113.803C38.9056 113.176 36.839 112.549 35.4303 112.08C34.726 111.845 34.1864 111.651 33.8246 111.515C33.6437 111.448 33.5073 111.395 33.417 111.359C33.3719 111.341 33.3383 111.328 33.3164 111.319C33.3055 111.315 33.2975 111.311 33.2924 111.309C33.2899 111.308 33.2882 111.308 33.2871 111.307C33.2866 111.307 33.2863 111.307 33.2861 111.307C33.2861 111.307 33.2861 111.307 33.2861 111.307C33.2861 111.307 33.2863 111.307 33 112C32.7137 112.693 32.7139 112.693 32.7142 112.693C32.7144 112.693 32.7147 112.694 32.715 112.694C32.7156 112.694 32.7164 112.694 32.7174 112.695C32.7193 112.696 32.722 112.697 32.7255 112.698C32.7324 112.701 32.7422 112.705 32.7551 112.71C32.7807 112.72 32.8181 112.735 32.8672 112.755C32.9652 112.793 33.1096 112.849 33.2987 112.92C33.6769 113.062 34.234 113.263 34.9567 113.503C36.4019 113.984 38.51 114.623 41.1745 115.262C46.5026 116.539 54.0621 117.815 63 117.815V116.315ZM33 189.072C32.7364 189.775 32.7366 189.775 32.7368 189.775C32.737 189.775 32.7373 189.775 32.7376 189.775C32.7382 189.775 32.739 189.776 32.74 189.776C32.7419 189.777 32.7447 189.778 32.7483 189.779C32.7555 189.782 32.7658 189.785 32.7793 189.79C32.8062 189.8 32.8457 189.815 32.8975 189.833C33.001 189.871 33.1536 189.925 33.353 189.993C33.7519 190.131 34.3379 190.325 35.0929 190.559C36.6027 191.026 38.789 191.647 41.5048 192.267C46.9343 193.508 54.492 194.75 63 194.75V193.25C54.633 193.25 47.1907 192.028 41.839 190.805C39.1642 190.194 37.0145 189.583 35.536 189.126C34.7968 188.897 34.2257 188.707 33.8408 188.575C33.6484 188.509 33.5025 188.457 33.4056 188.422C33.3571 188.405 33.3208 188.391 33.2971 188.383C33.2852 188.378 33.2764 188.375 33.2709 188.373C33.2681 188.372 33.2661 188.371 33.2648 188.371C33.2642 188.37 33.2638 188.37 33.2636 188.37C33.2635 188.37 33.2635 188.37 33.2635 188.37C33.2635 188.37 33.2636 188.37 33 189.072ZM63 194.75C71.508 194.75 79.0657 193.508 84.4952 192.267C87.211 191.647 89.3973 191.026 90.9071 190.559C91.6621 190.325 92.2481 190.131 92.647 189.993C92.8464 189.925 92.999 189.871 93.1025 189.833C93.1543 189.815 93.1938 189.8 93.2207 189.79C93.2342 189.785 93.2445 189.782 93.2517 189.779C93.2553 189.778 93.2581 189.777 93.26 189.776C93.261 189.776 93.2618 189.775 93.2624 189.775C93.2627 189.775 93.263 189.775 93.2632 189.775C93.2634 189.775 93.2636 189.775 93 189.072C92.7364 188.37 92.7365 188.37 92.7365 188.37C92.7365 188.37 92.7365 188.37 92.7364 188.37C92.7362 188.37 92.7358 188.37 92.7352 188.371C92.7339 188.371 92.7319 188.372 92.7291 188.373C92.7236 188.375 92.7148 188.378 92.7029 188.383C92.6792 188.391 92.6429 188.405 92.5944 188.422C92.4975 188.457 92.3516 188.509 92.1592 188.575C91.7743 188.707 91.2032 188.897 90.464 189.126C88.9855 189.583 86.8358 190.194 84.161 190.805C78.8093 192.028 71.367 193.25 63 193.25V194.75Z" fill="black"/>
</svg>
