<svg width="140" height="354" viewBox="0 0 140 354" fill="none" xmlns="http://www.w3.org/2000/svg">
<path d="M70 278.064C58 278.064 28.3334 277.355 15.0001 277C15 297.838 15 340.232 15.0001 348.262C26.9565 353.057 91.084 353.792 96.2651 352.322V343.504C101.579 343.749 111.848 342.402 117.029 340.932V350.118C117.029 350.118 121.413 350.118 125 348.262L125 277C111.667 277.355 82 278.064 70 278.064Z" stroke="black" stroke-width="1.5"/>
<path d="M15 248.56L15 234C23.4364 235.75 44.6924 238.149 72.9861 238.375C101.28 238.601 123.618 234.875 131 234V248.56C121.296 251.778 103.338 255 72.9861 255C55.7748 254.657 27.0841 252.442 15 248.56Z" stroke="black" stroke-width="1.5"/>
<path d="M1 236L1 224C4.46444 228 47.1925 232.5 69.8135 232.5C105.882 232.5 133.803 227.776 139 224.276V235.851C128.396 241.073 105.849 243.484 69.8135 244.646C38.0193 244.646 14.7847 241.222 1 236Z" fill="white"/>
<path d="M1 224L1.56692 223.509C1.36191 223.272 1.0314 223.188 0.737981 223.297C0.444562 223.407 0.25 223.687 0.25 224H1ZM1 236H0.25L0.25 236.518L0.734302 236.701L1 236ZM69.8135 244.646V245.396H69.8256L69.8377 245.395L69.8135 244.646ZM139 235.851L139.331 236.524L139.75 236.317V235.851H139ZM139 224.276H139.75C139.75 223.999 139.597 223.744 139.352 223.614C139.108 223.484 138.811 223.499 138.581 223.654L139 224.276ZM0.25 224L0.25 236H1.75L1.75 224H0.25ZM0.734302 236.701C14.6454 241.971 37.9872 245.396 69.8135 245.396V243.896C38.0515 243.896 14.924 240.473 1.2657 235.299L0.734302 236.701ZM69.8377 245.395C87.863 244.814 102.535 243.92 114.035 242.516C125.515 241.113 133.91 239.194 139.331 236.524L138.669 235.178C133.487 237.73 125.306 239.627 113.853 241.027C102.419 242.423 87.7995 243.316 69.7894 243.896L69.8377 245.395ZM139.75 235.851V224.276H138.25V235.851H139.75ZM138.581 223.654C137.408 224.444 134.814 225.372 130.895 226.308C127.015 227.236 121.937 228.15 115.885 228.957C103.781 230.571 87.8172 231.75 69.8135 231.75V233.25C87.8787 233.25 103.909 232.067 116.083 230.444C122.169 229.633 127.3 228.71 131.244 227.767C135.149 226.834 137.994 225.858 139.419 224.898L138.581 223.654ZM69.8135 231.75C58.5402 231.75 42.2331 230.628 28.3099 229.005C21.3486 228.194 14.9991 227.259 10.1819 226.281C7.77139 225.791 5.76171 225.294 4.25718 224.801C3.50447 224.554 2.89368 224.314 2.42882 224.083C1.94955 223.845 1.68577 223.646 1.56692 223.509L0.433077 224.491C0.747286 224.854 1.2233 225.159 1.7616 225.426C2.3143 225.701 2.99882 225.967 3.79019 226.226C5.37383 226.745 7.44739 227.256 9.8833 227.751C14.7589 228.741 21.1548 229.681 28.1362 230.495C42.0983 232.122 58.4659 233.25 69.8135 233.25V231.75Z" fill="black"/>
<path d="M1.00012 280.092L1 256.008C9.39907 259.563 36.7299 264.15 69.8013 264.894C102.873 265.639 135.82 258.692 139 256V280C128.501 284.443 105.514 288.746 69.8013 288.746C38.3212 288.746 14.6486 284.535 1.00012 280.092Z" fill="white"/>
<path d="M1 256.008L1.29229 255.318C1.06067 255.22 0.795348 255.244 0.585702 255.383C0.376055 255.522 0.249999 255.757 0.25 256.009L1 256.008ZM1.00012 280.092L0.250116 280.092L0.250119 280.636L0.767965 280.805L1.00012 280.092ZM139 280L139.292 280.691L139.75 280.497V280H139ZM139 256H139.75C139.75 255.708 139.58 255.442 139.316 255.32C139.051 255.197 138.738 255.239 138.515 255.428L139 256ZM69.8013 264.894L69.7844 265.644L69.8013 264.894ZM0.25 256.009L0.250116 280.092L1.75012 280.092L1.75 256.008L0.25 256.009ZM0.767965 280.805C14.5087 285.278 38.2628 289.496 69.8013 289.496V287.996C38.3795 287.996 14.7885 283.792 1.23227 279.379L0.767965 280.805ZM69.8013 289.496C105.545 289.496 128.653 285.193 139.292 280.691L138.708 279.309C128.349 283.693 105.483 287.996 69.8013 287.996V289.496ZM139.75 280V256H138.25V280H139.75ZM138.515 255.428C138.237 255.663 137.501 256.028 136.221 256.478C134.981 256.914 133.328 257.397 131.314 257.903C127.288 258.914 121.862 260.007 115.495 260.995C102.76 262.97 86.3005 264.516 69.8182 264.144L69.7844 265.644C86.3734 266.018 102.923 264.462 115.725 262.477C122.126 261.484 127.599 260.383 131.679 259.357C133.718 258.845 135.419 258.35 136.719 257.893C137.978 257.451 138.968 257.01 139.485 256.572L138.515 255.428ZM69.8182 264.144C53.311 263.773 38.2396 262.442 26.2526 260.762C14.2383 259.078 5.39276 257.053 1.29229 255.318L0.707711 256.699C5.00632 258.518 14.0258 260.563 26.0444 262.248C38.0905 263.936 53.2202 265.271 69.7844 265.644L69.8182 264.144Z" fill="black"/>
<path d="M1 256L15.375 249C23.7844 250.778 43.8992 254.347 72.1023 254.5C108.426 254.5 123.61 250.778 129.917 249L139 256C132.1 259.5 102.358 265 72.1023 265C54.2324 265 15.375 261.5 1 256Z" fill="white"/>
<path d="M15.375 249L15.5301 248.266L15.2782 248.213L15.0466 248.326L15.375 249ZM1 256L0.671644 255.326C0.402982 255.457 0.237617 255.734 0.250722 256.033C0.263826 256.331 0.452899 256.594 0.731991 256.7L1 256ZM139 256L139.339 256.669C139.569 256.552 139.723 256.326 139.747 256.07C139.771 255.814 139.662 255.563 139.458 255.406L139 256ZM129.917 249L130.375 248.406L130.076 248.176L129.713 248.278L129.917 249ZM72.1023 254.5L72.0983 255.25H72.1023V254.5ZM15.0466 248.326L0.671644 255.326L1.32836 256.674L15.7034 249.674L15.0466 248.326ZM0.731991 256.7C8.01954 259.489 21.4167 261.746 35.1559 263.308C48.9202 264.872 63.1315 265.75 72.1023 265.75V264.25C63.2033 264.25 49.0509 263.378 35.3253 261.817C21.5745 260.254 8.35546 258.011 1.26801 255.3L0.731991 256.7ZM72.1023 265.75C87.2722 265.75 102.309 264.371 114.421 262.554C120.477 261.646 125.808 260.626 130.065 259.612C134.301 258.603 137.529 257.587 139.339 256.669L138.661 255.331C137.021 256.163 133.944 257.147 129.717 258.153C125.511 259.155 120.222 260.167 114.198 261.071C102.15 262.879 87.1878 264.25 72.1023 264.25V265.75ZM139.458 255.406L130.375 248.406L129.459 249.594L138.542 256.594L139.458 255.406ZM129.713 248.278C123.483 250.034 108.37 253.75 72.1023 253.75V255.25C108.483 255.25 123.736 251.521 130.12 249.722L129.713 248.278ZM72.1064 253.75C43.9642 253.597 23.9008 250.036 15.5301 248.266L15.2199 249.734C23.668 251.52 43.8343 255.096 72.0983 255.25L72.1064 253.75Z" fill="black"/>
<path d="M59.1765 1L59.1765 0.25L58.4816 0.249934L58.4287 0.942846L59.1765 1ZM83.5598 1.00232L84.308 0.950914L84.2601 0.252384L83.5599 0.252318L83.5598 1.00232ZM95.0587 168.381L94.3105 168.432L94.3308 168.729L94.549 168.931L95.0587 168.381ZM109 181.295L109.243 182.004C109.493 181.918 109.679 181.708 109.734 181.45C109.788 181.192 109.703 180.924 109.51 180.744L109 181.295ZM32 180.975L31.506 180.411C31.3049 180.587 31.2127 180.857 31.2639 181.119C31.3151 181.381 31.5019 181.596 31.7544 181.684L32 180.975ZM46.3838 168.383L46.8779 168.948L47.1083 168.746L47.1317 168.44L46.3838 168.383ZM59.1764 1.75L83.5597 1.75232L83.5599 0.252318L59.1765 0.25L59.1764 1.75ZM82.8116 1.05372L94.3105 168.432L95.8069 168.33L84.308 0.950914L82.8116 1.05372ZM94.549 168.931L108.49 181.845L109.51 180.744L95.5684 167.831L94.549 168.931ZM32.494 181.54L46.8779 168.948L45.8898 167.819L31.506 180.411L32.494 181.54ZM47.1317 168.44L59.9243 1.05715L58.4287 0.942846L45.636 168.326L47.1317 168.44ZM109 181.295C108.757 180.585 108.757 180.585 108.756 180.585C108.756 180.585 108.756 180.585 108.756 180.585C108.755 180.586 108.754 180.586 108.753 180.586C108.751 180.587 108.747 180.589 108.741 180.59C108.731 180.594 108.715 180.599 108.694 180.607C108.652 180.621 108.589 180.642 108.506 180.67C108.339 180.726 108.092 180.808 107.772 180.913C107.131 181.122 106.197 181.422 105.026 181.782C102.685 182.501 99.3994 183.461 95.6261 184.42C88.0636 186.343 78.6001 188.25 70.8481 188.25V189.75C78.7944 189.75 88.4068 187.804 95.9957 185.874C99.7981 184.907 103.107 183.941 105.467 183.215C106.646 182.853 107.589 182.551 108.238 182.339C108.562 182.233 108.812 182.149 108.982 182.092C109.067 182.064 109.132 182.042 109.176 182.027C109.198 182.02 109.215 182.014 109.226 182.01C109.232 182.008 109.236 182.007 109.239 182.006C109.24 182.005 109.241 182.005 109.242 182.004C109.243 182.004 109.243 182.004 109.243 182.004C109.243 182.004 109.243 182.004 109 181.295ZM70.8481 188.25C63.0988 188.25 53.4633 186.265 45.7252 184.262C41.8647 183.262 38.4923 182.263 36.0855 181.513C34.8822 181.138 33.9208 180.826 33.2608 180.608C32.9308 180.499 32.6763 180.413 32.5046 180.355C32.4187 180.326 32.3536 180.304 32.3102 180.289C32.2884 180.281 32.2721 180.276 32.2613 180.272C32.2559 180.27 32.2519 180.269 32.2493 180.268C32.248 180.268 32.247 180.267 32.2464 180.267C32.2461 180.267 32.2459 180.267 32.2458 180.267C32.2457 180.267 32.2456 180.267 32 180.975C31.7544 181.684 31.7545 181.684 31.7548 181.684C31.755 181.684 31.7553 181.684 31.7557 181.684C31.7565 181.685 31.7577 181.685 31.7592 181.686C31.7622 181.687 31.7666 181.688 31.7724 181.69C31.784 181.694 31.8011 181.7 31.8236 181.708C31.8687 181.723 31.9355 181.746 32.023 181.776C32.1981 181.835 32.4563 181.922 32.7899 182.032C33.4573 182.253 34.4271 182.568 35.6394 182.945C38.0638 183.7 41.46 184.707 45.3493 185.714C53.1107 187.723 62.8992 189.75 70.8481 189.75V188.25Z" fill="black"/>
<path d="M139.25 223.5C139.25 223.759 139.047 224.203 138.163 224.79C137.315 225.352 136.015 225.924 134.27 226.484C130.79 227.6 125.715 228.617 119.397 229.474C106.772 231.188 89.3071 232.25 70 232.25C50.6929 232.25 33.2282 231.188 20.6034 229.474C14.2855 228.617 9.21034 227.6 5.73009 226.484C3.98474 225.924 2.68501 225.352 1.83668 224.79C0.952814 224.203 0.75 223.759 0.75 223.5C0.75 223.241 0.952814 222.797 1.83668 222.21C2.68501 221.648 3.98474 221.076 5.73009 220.516C9.21034 219.4 14.2855 218.383 20.6034 217.526C33.2282 215.812 50.6929 214.75 70 214.75C89.3071 214.75 106.772 215.812 119.397 217.526C125.715 218.383 130.79 219.4 134.27 220.516C136.015 221.076 137.315 221.648 138.163 222.21C139.047 222.797 139.25 223.241 139.25 223.5Z" fill="#BCF352" stroke="black" stroke-width="1.5"/>
<path d="M32 224.236L32 181C32 181 47.7399 183.841 70.5 183.841C97.2971 183.841 109 181 109 181V224.236C109 224.236 92.1562 227 70.5 227C48.8438 227 32 224.236 32 224.236Z" fill="white"/>
<path d="M32 181L32.1332 180.262C31.9145 180.222 31.6896 180.282 31.5191 180.424C31.3486 180.567 31.25 180.778 31.25 181H32ZM32 224.236H31.25V224.873L31.8785 224.976L32 224.236ZM109 224.236L109.121 224.976L109.75 224.873V224.236H109ZM109 181H109.75C109.75 180.77 109.644 180.553 109.464 180.41C109.283 180.268 109.047 180.217 108.823 180.271L109 181ZM31.25 181L31.25 224.236H32.75L32.75 181H31.25ZM109.75 224.236V181H108.25V224.236H109.75ZM109 181C108.823 180.271 108.823 180.271 108.823 180.271C108.823 180.271 108.823 180.271 108.823 180.271C108.823 180.271 108.823 180.271 108.822 180.271C108.821 180.272 108.82 180.272 108.817 180.273C108.813 180.274 108.805 180.275 108.795 180.278C108.774 180.283 108.741 180.29 108.697 180.3C108.609 180.32 108.474 180.35 108.292 180.388C107.927 180.464 107.373 180.573 106.623 180.705C105.123 180.969 102.837 181.322 99.7145 181.675C93.4688 182.382 83.872 183.091 70.5 183.091V184.591C83.925 184.591 93.5783 183.88 99.8833 183.166C103.036 182.809 105.351 182.452 106.883 182.183C107.648 182.048 108.218 181.936 108.598 181.856C108.788 181.817 108.931 181.785 109.027 181.764C109.075 181.753 109.112 181.744 109.137 181.738C109.149 181.735 109.159 181.733 109.165 181.732C109.169 181.731 109.171 181.73 109.173 181.73C109.174 181.729 109.175 181.729 109.176 181.729C109.176 181.729 109.176 181.729 109.176 181.729C109.177 181.729 109.177 181.729 109 181ZM70.5 183.091C59.1505 183.091 49.552 182.383 42.7931 181.675C39.4139 181.321 36.7451 180.967 34.9229 180.702C34.0119 180.569 33.3125 180.459 32.8419 180.382C32.6066 180.343 32.4284 180.313 32.3096 180.293C32.2502 180.283 32.2056 180.275 32.1761 180.27C32.1614 180.267 32.1504 180.265 32.1433 180.264C32.1397 180.263 32.1371 180.263 32.1354 180.262C32.1345 180.262 32.1339 180.262 32.1336 180.262C32.1334 180.262 32.1333 180.262 32.1332 180.262C32.1332 180.262 32.1332 180.262 32 181C31.8668 181.738 31.8669 181.738 31.8671 181.738C31.8673 181.738 31.8675 181.738 31.8679 181.738C31.8685 181.738 31.8693 181.739 31.8704 181.739C31.8725 181.739 31.8757 181.74 31.8797 181.74C31.8879 181.742 31.8998 181.744 31.9156 181.747C31.947 181.752 31.9936 181.76 32.055 181.771C32.1779 181.792 32.3602 181.823 32.5997 181.862C33.0787 181.941 33.7868 182.052 34.707 182.186C36.5473 182.454 39.236 182.81 42.6368 183.167C49.4379 183.879 59.0893 184.591 70.5 184.591V183.091ZM32 224.236C31.8785 224.976 31.8787 224.976 31.8789 224.976C31.879 224.976 31.8793 224.976 31.8796 224.976C31.8802 224.976 31.8811 224.976 31.8822 224.976C31.8845 224.977 31.8877 224.977 31.892 224.978C31.9006 224.979 31.9133 224.981 31.9299 224.984C31.9633 224.99 32.0127 224.997 32.0779 225.008C32.2082 225.028 32.4014 225.058 32.6546 225.096C33.1609 225.172 33.9072 225.281 34.8698 225.411C36.7949 225.671 39.5858 226.018 43.0544 226.364C49.9905 227.057 59.6412 227.75 70.5 227.75V226.25C59.7026 226.25 50.1032 225.561 43.2035 224.872C39.754 224.527 36.9805 224.183 35.0707 223.924C34.1158 223.795 33.3769 223.688 32.8775 223.613C32.6278 223.575 32.438 223.546 32.311 223.526C32.2475 223.516 32.1998 223.508 32.168 223.503C32.1522 223.501 32.1403 223.499 32.1326 223.497C32.1287 223.497 32.1258 223.496 32.1239 223.496C32.123 223.496 32.1223 223.496 32.1219 223.496C32.1217 223.496 32.1216 223.496 32.1215 223.496C32.1214 223.496 32.1215 223.496 32 224.236ZM70.5 227.75C81.3588 227.75 91.0095 227.057 97.9456 226.364C101.414 226.018 104.205 225.671 106.13 225.411C107.093 225.281 107.839 225.172 108.345 225.096C108.599 225.058 108.792 225.028 108.922 225.008C108.987 224.997 109.037 224.99 109.07 224.984C109.087 224.981 109.099 224.979 109.108 224.978C109.112 224.977 109.116 224.977 109.118 224.976C109.119 224.976 109.12 224.976 109.12 224.976C109.121 224.976 109.121 224.976 109.121 224.976C109.121 224.976 109.121 224.976 109 224.236C108.879 223.496 108.879 223.496 108.878 223.496C108.878 223.496 108.878 223.496 108.878 223.496C108.878 223.496 108.877 223.496 108.876 223.496C108.874 223.496 108.871 223.497 108.867 223.497C108.86 223.499 108.848 223.501 108.832 223.503C108.8 223.508 108.752 223.516 108.689 223.526C108.562 223.546 108.372 223.575 108.122 223.613C107.623 223.688 106.884 223.795 105.929 223.924C104.02 224.183 101.246 224.527 97.7965 224.872C90.8968 225.561 81.2974 226.25 70.5 226.25V227.75Z" fill="black"/>
</svg>
