<svg width="155" height="414" viewBox="0 0 155 414" fill="none" xmlns="http://www.w3.org/2000/svg">
<path d="M78 236.558C67.0909 236.558 40.1212 234.853 28 234C35.197 283.882 47.6818 386.973 49.5 405.391C61.5 416 99 415.5 110.5 405.391L128 234C115.879 234.853 88.9091 236.558 78 236.558Z" stroke="black" stroke-width="1.5"/>
<path d="M2 234.774V222C13.7945 224.323 43.0649 229.355 73.7639 229.355C104.463 229.355 139.548 225.097 154 222.774V234.774C149.515 240.581 110.443 246 73.7639 246C37.0846 246 6.98361 239.419 2 234.774Z" fill="white" stroke="black" stroke-width="1.5"/>
<path d="M15 216.173L15 203C24.4545 204.583 48.276 206.753 79.9844 206.958C111.693 207.163 136.727 203.792 145 203V216.173C134.125 219.085 114 222 79.9844 222C60.6959 221.689 28.5425 219.686 15 216.173Z" stroke="black" stroke-width="1.5"/>
<path d="M1 221.676L14.5 216C24 217.514 46.6392 221.167 78.5 221.297C114.125 221.443 137.375 217.514 144.5 216L154 222.054C146.875 225.838 112.679 230 78.5 230C58.3125 230 14.0625 226.216 1 221.676Z" fill="white"/>
<path d="M14.5 216L14.618 215.259L14.4066 215.226L14.2093 215.309L14.5 216ZM1 221.676L0.709329 220.984C0.423023 221.105 0.240526 221.389 0.250377 221.699C0.260229 222.01 0.46039 222.282 0.753752 222.384L1 221.676ZM154 222.054L154.352 222.716C154.587 222.591 154.739 222.35 154.749 222.084C154.76 221.817 154.628 221.565 154.403 221.422L154 222.054ZM144.5 216L144.903 215.368L144.644 215.203L144.344 215.266L144.5 216ZM78.5 221.297L78.4969 222.047L78.5 221.297ZM14.2093 215.309L0.709329 220.984L1.29067 222.367L14.7907 216.691L14.2093 215.309ZM0.753752 222.384C7.38344 224.689 21.8026 226.775 37.0039 228.287C52.2369 229.802 68.3728 230.75 78.5 230.75V229.25C68.4397 229.25 52.3569 228.306 37.1523 226.794C21.9162 225.279 7.67906 223.203 1.24625 220.967L0.753752 222.384ZM78.5 230.75C95.6174 230.75 112.739 229.708 126.478 228.191C133.347 227.433 139.379 226.556 144.147 225.628C148.884 224.707 152.46 223.721 154.352 222.716L153.648 221.392C151.978 222.279 148.608 223.232 143.861 224.156C139.145 225.073 133.156 225.945 126.313 226.7C112.628 228.211 95.5618 229.25 78.5 229.25V230.75ZM154.403 221.422L144.903 215.368L144.097 216.632L153.597 222.687L154.403 221.422ZM144.344 215.266C137.271 216.769 114.074 220.693 78.5031 220.547L78.4969 222.047C114.176 222.193 137.479 218.258 144.656 216.734L144.344 215.266ZM78.5031 220.547C46.6996 220.417 24.1048 216.771 14.618 215.259L14.382 216.741C23.8952 218.256 46.5788 221.916 78.4969 222.047L78.5031 220.547Z" fill="black"/>
<path d="M2 203.737V191C13.7945 193.316 43.0649 200.263 73.7639 200.263C104.463 200.263 139.548 194.088 154 191.772V203.737C149.515 209.526 112.636 213 75.9567 213C39.2774 213 6.98361 208.368 2 203.737Z" fill="white" stroke="black" stroke-width="1.5"/>
<path d="M76.7541 202C31.3036 202 2 197.368 2 191.965C2 187.977 16.9508 180 76.7541 180C136.557 180 153.169 187.977 154 191.965C152.505 197.754 122.205 202 76.7541 202Z" fill="#BCF352" stroke="black" stroke-width="1.5"/>
<path d="M102.432 1H52.0719L42 189.679C54.0863 195.44 96.8921 195.44 112 189.679L102.432 1Z" fill="white" stroke="black" stroke-width="1.5"/>
</svg>
