<svg width="155" height="406" viewBox="0 0 155 406" fill="none" xmlns="http://www.w3.org/2000/svg">
<path d="M78 230.558C67.0909 230.558 40.1212 228.853 28 228C35.197 277.882 50.1818 380.973 52 399.391C63 405.5 92.5 406.5 106 399.391L128 228C115.879 228.853 88.9091 230.558 78 230.558Z" stroke="black" stroke-width="1.5"/>
<path d="M2 237.774V225C13.7945 227.323 43.0649 232.355 73.7639 232.355C104.463 232.355 139.548 228.097 154 225.774V237.774C149.515 243.581 110.443 249 73.7639 249C37.0846 249 6.98361 242.419 2 237.774Z" fill="white" stroke="black" stroke-width="1.5"/>
<path d="M15 219.173L15 206C24.4545 207.583 48.276 209.753 79.9844 209.958C111.693 210.163 136.727 206.792 145 206V219.173C134.125 222.085 114 225 79.9844 225C60.6959 224.689 28.5425 222.686 15 219.173Z" stroke="black" stroke-width="1.5"/>
<path d="M1 224.676L14.5 219C24 220.514 46.6392 224.167 78.5 224.297C114.125 224.443 137.375 220.514 144.5 219L154 225.054C146.875 228.838 112.679 233 78.5 233C58.3125 233 14.0625 229.216 1 224.676Z" fill="white"/>
<path d="M14.5 219L14.618 218.259L14.4066 218.226L14.2093 218.309L14.5 219ZM1 224.676L0.709329 223.984C0.423023 224.105 0.240526 224.389 0.250377 224.699C0.260229 225.01 0.46039 225.282 0.753752 225.384L1 224.676ZM154 225.054L154.352 225.716C154.587 225.591 154.739 225.35 154.749 225.084C154.76 224.817 154.628 224.565 154.403 224.422L154 225.054ZM144.5 219L144.903 218.368L144.644 218.203L144.344 218.266L144.5 219ZM78.5 224.297L78.4969 225.047L78.5 224.297ZM14.2093 218.309L0.709329 223.984L1.29067 225.367L14.7907 219.691L14.2093 218.309ZM0.753752 225.384C7.38344 227.689 21.8026 229.775 37.0039 231.287C52.2369 232.802 68.3728 233.75 78.5 233.75V232.25C68.4397 232.25 52.3569 231.306 37.1523 229.794C21.9162 228.279 7.67906 226.203 1.24625 223.967L0.753752 225.384ZM78.5 233.75C95.6174 233.75 112.739 232.708 126.478 231.191C133.347 230.433 139.379 229.556 144.147 228.628C148.884 227.707 152.46 226.721 154.352 225.716L153.648 224.392C151.978 225.279 148.608 226.232 143.861 227.156C139.145 228.073 133.156 228.945 126.313 229.7C112.628 231.211 95.5618 232.25 78.5 232.25V233.75ZM154.403 224.422L144.903 218.368L144.097 219.632L153.597 225.687L154.403 224.422ZM144.344 218.266C137.271 219.769 114.074 223.693 78.5031 223.547L78.4969 225.047C114.176 225.193 137.479 221.258 144.656 219.734L144.344 218.266ZM78.5031 223.547C46.6996 223.417 24.1048 219.771 14.618 218.259L14.382 219.741C23.8952 221.256 46.5788 224.916 78.4969 225.047L78.5031 223.547Z" fill="black"/>
<path d="M2 206.737V194C13.7945 196.316 43.0649 203.263 73.7639 203.263C104.463 203.263 139.548 197.088 154 194.772V206.737C149.515 212.526 112.636 216 75.9567 216C39.2774 216 6.98361 211.368 2 206.737Z" fill="white" stroke="black" stroke-width="1.5"/>
<path d="M76.7541 205C31.3036 205 2 200.368 2 194.965C2 190.977 16.9508 183 76.7541 183C136.557 183 153.169 190.977 154 194.965C152.505 200.754 122.205 205 76.7541 205Z" fill="#BCF352" stroke="black" stroke-width="1.5"/>
<path d="M102.432 1H52.0719L42 189.679C54.0863 195.44 96.8921 195.44 112 189.679L102.432 1Z" fill="white" stroke="black" stroke-width="1.5"/>
</svg>
