<svg width="121" height="262" viewBox="0 0 121 262" fill="none" xmlns="http://www.w3.org/2000/svg">
<path d="M11 154.558L11 139.998C18.2727 141.748 36.5969 144.147 60.988 144.373C85.3791 144.599 104.636 140.873 111 139.998V154.558C102.635 157.776 87.1538 160.998 60.988 160.998C46.1507 160.655 21.4173 158.44 11 154.558Z" stroke="black" stroke-width="1.5"/>
<path d="M60.4998 178.328C50.7908 178.328 26.7878 176.776 16 176C16 224.404 16.0002 233.383 16 250.088C30.2398 264.385 93.875 264.887 105 250.088L105 176C94.2118 176.776 70.2089 178.328 60.4998 178.328Z" fill="white" stroke="black" stroke-width="1.5"/>
<path d="M1 142.556L1 131C3.98745 133.519 40.8326 136.352 60.3392 136.352C91.442 136.352 115.519 133.378 120 131.174V142.462C110.856 145.75 91.4132 148.769 60.3392 149.5C32.9225 149.5 12.8868 145.844 1 142.556Z" fill="white"/>
<path d="M1 131L1.48341 130.427C1.26032 130.239 0.948409 130.197 0.683819 130.32C0.41923 130.443 0.25 130.708 0.25 131H1ZM1 142.556H0.25L0.25 143.127L0.800052 143.279L1 142.556ZM60.3392 149.5V150.25H60.348L60.3569 150.25L60.3392 149.5ZM120 142.462L120.254 143.168L120.75 142.99V142.462H120ZM120 131.174H120.75C120.75 130.915 120.616 130.674 120.396 130.537C120.176 130.4 119.901 130.387 119.669 130.501L120 131.174ZM0.25 131L0.25 142.556H1.75L1.75 131H0.25ZM0.800052 143.279C12.7541 146.586 32.8571 150.25 60.3392 150.25V148.75C32.9878 148.75 13.0195 145.103 1.19995 141.834L0.800052 143.279ZM60.3569 150.25C91.4423 149.518 110.989 146.5 120.254 143.168L119.746 141.757C110.724 145.001 91.3841 148.019 60.3216 148.75L60.3569 150.25ZM120.75 142.462V131.174H119.25V142.462H120.75ZM119.669 130.501C118.658 130.998 116.416 131.583 113.032 132.174C109.683 132.758 105.301 133.334 100.08 133.843C89.6388 134.859 75.8682 135.602 60.3392 135.602V137.102C75.913 137.102 89.7323 136.357 100.225 135.336C105.471 134.825 109.893 134.244 113.29 133.651C116.653 133.064 119.101 132.452 120.331 131.847L119.669 130.501ZM60.3392 135.602C50.613 135.602 36.5472 134.895 24.5385 133.873C18.5343 133.362 13.0563 132.773 8.899 132.157C6.81876 131.848 5.08266 131.535 3.78187 131.224C3.13083 131.068 2.60223 130.916 2.2001 130.77C1.77856 130.617 1.56426 130.495 1.48341 130.427L0.516587 131.573C0.809171 131.82 1.23281 132.015 1.68874 132.18C2.16407 132.353 2.75245 132.52 3.4329 132.682C4.79509 133.008 6.58005 133.329 8.67894 133.641C12.8799 134.264 18.3925 134.855 24.4113 135.368C36.4487 136.392 50.5588 137.102 60.3392 137.102V135.602Z" fill="black"/>
<path d="M0.912598 206.5L0.913086 162C8.21663 165.556 30.5695 170.144 59.3272 170.889C88.0848 171.634 115.234 164.776 118 162.083L118 206.841C108.87 211.285 90.3811 215.498 59.3268 215.498C31.9528 215.498 12.7809 210.944 0.912598 206.5Z" fill="white"/>
<path d="M0.913086 162L1.24137 161.326C1.00893 161.213 0.734604 161.227 0.515417 161.364C0.29623 161.501 0.163089 161.741 0.163086 162L0.913086 162ZM0.912598 206.5L0.162598 206.5L0.162592 207.02L0.649574 207.202L0.912598 206.5ZM118 206.841L118.328 207.515L118.75 207.31L118.75 206.841L118 206.841ZM118 162.083L118.75 162.083C118.75 161.782 118.57 161.51 118.292 161.392C118.014 161.275 117.693 161.336 117.477 161.546L118 162.083ZM0.163086 162L0.162598 206.5L1.6626 206.5L1.66309 162L0.163086 162ZM0.649574 207.202C12.6078 211.68 31.8694 216.248 59.3268 216.248V214.748C32.0362 214.748 12.9539 210.208 1.17562 205.798L0.649574 207.202ZM59.3268 216.248C90.4237 216.248 109.047 212.033 118.328 207.515L117.672 206.166C108.693 210.537 90.3385 214.748 59.3268 214.748V216.248ZM118.75 206.841L118.75 162.083L117.25 162.083L117.25 206.841L118.75 206.841ZM117.477 161.546C117.244 161.773 116.64 162.129 115.576 162.573C114.545 163.004 113.172 163.481 111.495 163.981C108.144 164.982 103.619 166.062 98.276 167.038C87.5887 168.988 73.6643 170.51 59.3466 170.139L59.3077 171.639C73.7477 172.013 87.777 170.478 98.5453 168.513C103.93 167.53 108.509 166.438 111.924 165.419C113.631 164.909 115.058 164.415 116.153 163.958C117.215 163.514 118.065 163.067 118.523 162.621L117.477 161.546ZM59.3466 170.139C45.0011 169.768 32.2583 168.437 22.1983 166.759C12.1132 165.076 4.78996 163.053 1.24137 161.326L0.584801 162.674C4.33975 164.502 11.8447 166.552 21.9514 168.238C32.0831 169.929 44.8955 171.265 59.3077 171.639L59.3466 170.139Z" fill="black"/>
<path d="M11.0547 154.998L11.2319 154.269L10.9002 154.189L10.6216 154.386L11.0547 154.998ZM1 162.109L0.566932 161.497C0.354288 161.647 0.234891 161.897 0.251532 162.157C0.268174 162.417 0.41847 162.65 0.648556 162.772L1 162.109ZM118 162.109L118.472 162.692L119.128 162.16L118.523 161.571L118 162.109ZM111.602 154.998L112.195 154.54L111.873 154.122L111.37 154.285L111.602 154.998ZM60.4141 161.22L60.4188 160.47L60.4141 161.22ZM10.6216 154.386L0.566932 161.497L1.43307 162.721L11.4878 155.61L10.6216 154.386ZM0.648556 162.772C3.25801 164.156 7.39934 165.395 12.3214 166.48C17.2626 167.57 23.0554 168.518 29.0101 169.297C40.9154 170.856 53.5175 171.748 61.3281 171.748V170.248C53.5997 170.248 41.0651 169.363 29.2048 167.81C23.2766 167.034 17.5294 166.093 12.6444 165.016C7.74031 163.934 3.76934 162.729 1.35144 161.447L0.648556 162.772ZM61.3281 171.748C74.5214 171.748 87.3588 170.634 97.5943 168.96C102.711 168.124 107.19 167.145 110.744 166.092C114.267 165.048 116.977 163.904 118.472 162.692L117.528 161.526C116.281 162.537 113.824 163.615 110.318 164.654C106.842 165.684 102.429 166.65 97.3523 167.48C87.2002 169.14 74.4438 170.248 61.3281 170.248V171.748ZM118.523 161.571C116.716 159.814 115.132 158.054 113.999 156.732C113.433 156.072 112.981 155.522 112.671 155.138C112.515 154.946 112.396 154.795 112.316 154.693C112.275 154.642 112.245 154.604 112.225 154.578C112.215 154.565 112.207 154.555 112.202 154.549C112.2 154.546 112.198 154.543 112.197 154.542C112.196 154.541 112.196 154.541 112.196 154.54C112.196 154.54 112.195 154.54 112.195 154.54C112.195 154.54 112.195 154.54 112.195 154.54C112.195 154.54 112.195 154.54 111.602 154.998C111.008 155.456 111.008 155.456 111.008 155.456C111.008 155.456 111.008 155.456 111.008 155.456C111.008 155.457 111.008 155.457 111.008 155.457C111.009 155.458 111.009 155.458 111.01 155.459C111.012 155.461 111.014 155.464 111.017 155.468C111.023 155.475 111.031 155.486 111.042 155.5C111.064 155.528 111.096 155.569 111.138 155.622C111.221 155.728 111.345 155.884 111.504 156.081C111.822 156.474 112.284 157.035 112.86 157.708C114.012 159.053 115.628 160.849 117.477 162.647L118.523 161.571ZM111.37 154.285C105.961 156.038 87.7594 160.641 60.4188 160.47L60.4094 161.97C87.9125 162.142 106.273 157.514 111.833 155.711L111.37 154.285ZM60.4188 160.47C35.9813 160.317 18.5254 156.042 11.2319 154.269L10.8775 155.727C18.209 157.509 35.7979 161.816 60.4094 161.97L60.4188 160.47Z" fill="black"/>
<path d="M37.5 1V0.25L36.8066 0.25L36.7523 0.941238L37.5 1ZM86 1L86.7477 0.941238L86.6934 0.25L86 0.25V1ZM92.2481 80.5026L91.5004 80.5613L91.5257 80.8825L91.776 81.0853L92.2481 80.5026ZM105 90.833L105.177 91.5618C105.454 91.4945 105.669 91.2758 105.732 90.9976C105.794 90.7194 105.694 90.4297 105.472 90.2502L105 90.833ZM18 90.5775L17.5461 89.9805C17.316 90.1554 17.2069 90.447 17.2657 90.73C17.3244 91.0129 17.5405 91.237 17.8212 91.3059L18 90.5775ZM31.2519 80.5026L31.7058 81.0996L31.9732 80.8963L31.9996 80.5613L31.2519 80.5026ZM37.5 1.75L86 1.75V0.25L37.5 0.25V1.75ZM85.2523 1.05876L91.5004 80.5613L92.9958 80.4438L86.7477 0.941238L85.2523 1.05876ZM91.776 81.0853L104.528 91.4158L105.472 90.2502L92.7202 79.9198L91.776 81.0853ZM18.4539 91.1746L31.7058 81.0996L30.798 79.9055L17.5461 89.9805L18.4539 91.1746ZM31.9996 80.5613L38.2477 1.05876L36.7523 0.941238L30.5042 80.4438L31.9996 80.5613ZM105 90.833C104.823 90.1042 104.823 90.1042 104.823 90.1043C104.823 90.1043 104.822 90.1044 104.822 90.1044C104.821 90.1046 104.82 90.1049 104.819 90.1052C104.816 90.1059 104.811 90.107 104.805 90.1085C104.793 90.1114 104.775 90.1157 104.751 90.1215C104.704 90.133 104.632 90.1501 104.537 90.1725C104.349 90.2174 104.069 90.2833 103.706 90.3672C102.981 90.5351 101.924 90.7752 100.599 91.0635C97.9506 91.64 94.2341 92.4087 89.9651 93.1774C81.4162 94.7168 70.6929 96.2481 61.8934 96.2481V97.7481C70.8308 97.7481 81.6608 96.1969 90.231 94.6537C94.5215 93.8811 98.256 93.1086 100.918 92.5292C102.25 92.2394 103.313 91.9978 104.044 91.8286C104.41 91.744 104.693 91.6774 104.884 91.632C104.98 91.6092 105.053 91.5918 105.102 91.5799C105.127 91.574 105.145 91.5695 105.158 91.5665C105.164 91.565 105.169 91.5638 105.172 91.563C105.174 91.5626 105.175 91.5623 105.176 91.5621C105.176 91.562 105.176 91.5619 105.177 91.5619C105.177 91.5618 105.177 91.5618 105 90.833ZM61.8934 96.2481C53.0957 96.2481 42.1773 94.6535 33.4305 93.0501C29.0631 92.2495 25.2483 91.4488 22.5256 90.8484C21.1644 90.5481 20.0765 90.2981 19.3295 90.1232C18.956 90.0357 18.6677 89.9671 18.4731 89.9204C18.3758 89.897 18.302 89.8791 18.2525 89.8671C18.2278 89.8611 18.2093 89.8566 18.1969 89.8536C18.1907 89.8521 18.1861 89.851 18.1831 89.8502C18.1816 89.8498 18.1805 89.8496 18.1798 89.8494C18.1794 89.8493 18.1792 89.8492 18.179 89.8492C18.1788 89.8492 18.1788 89.8492 18 90.5775C17.8212 91.3059 17.8214 91.3059 17.8216 91.306C17.8218 91.3061 17.8222 91.3061 17.8226 91.3063C17.8235 91.3065 17.8248 91.3068 17.8264 91.3072C17.8298 91.308 17.8347 91.3092 17.8411 91.3108C17.8541 91.3139 17.8733 91.3186 17.8986 91.3248C17.9493 91.3371 18.0244 91.3553 18.123 91.3789C18.3202 91.4263 18.6112 91.4956 18.9876 91.5837C19.7403 91.7599 20.8344 92.0114 22.2025 92.3132C24.9385 92.9165 28.7713 93.721 33.1601 94.5255C41.9258 96.1324 52.9541 97.7481 61.8934 97.7481V96.2481Z" fill="black"/>
<path d="M120.25 130.498C120.25 130.807 120.05 131.253 119.314 131.818C118.594 132.37 117.485 132.936 115.985 133.493C112.992 134.604 108.619 135.618 103.164 136.475C92.2644 138.186 77.1801 139.248 60.5 139.248C43.8199 139.248 28.7356 138.186 17.8364 136.475C12.3809 135.618 8.00786 134.604 5.01542 133.493C3.51496 132.936 2.4059 132.37 1.68573 131.818C0.950414 131.253 0.75 130.807 0.75 130.498C0.75 130.189 0.950414 129.743 1.68573 129.178C2.4059 128.626 3.51496 128.06 5.01542 127.503C8.00786 126.392 12.3809 125.378 17.8364 124.521C28.7356 122.81 43.8199 121.748 60.5 121.748C77.1801 121.748 92.2644 122.81 103.164 124.521C108.619 125.378 112.992 126.392 115.985 127.503C117.485 128.06 118.594 128.626 119.314 129.178C120.05 129.743 120.25 130.189 120.25 130.498Z" fill="#BCF352" stroke="black" stroke-width="1.5"/>
<path d="M18 128.225L18 90.998C18 90.998 42.5 96 61.5 96C83 96 105 90.998 105 90.998V128.225C105 128.225 85.9688 134.998 61.5 134.998C37.0313 134.998 18 128.225 18 128.225Z" fill="white"/>
<path d="M18 90.998L18.15 90.2632C17.9294 90.2182 17.7001 90.2747 17.5257 90.4171C17.3512 90.5595 17.25 90.7728 17.25 90.998H18ZM18 128.225H17.25V128.754L17.7485 128.932L18 128.225ZM105 128.225L105.251 128.932L105.75 128.754V128.225H105ZM105 90.998H105.75C105.75 90.7699 105.646 90.5542 105.468 90.4119C105.29 90.2696 105.056 90.2161 104.834 90.2667L105 90.998ZM17.25 90.998L17.25 128.225H18.75L18.75 90.998H17.25ZM105.75 128.225V90.998H104.25V128.225H105.75ZM105 90.998C104.834 90.2667 104.834 90.2667 104.834 90.2667C104.833 90.2668 104.833 90.2668 104.833 90.2669C104.832 90.267 104.832 90.2672 104.83 90.2675C104.828 90.268 104.824 90.2689 104.819 90.2701C104.809 90.2724 104.793 90.2759 104.772 90.2805C104.731 90.2898 104.669 90.3036 104.586 90.3218C104.422 90.358 104.177 90.4114 103.857 90.4794C103.217 90.6153 102.278 90.8099 101.083 91.0435C98.6926 91.5108 95.2811 92.1342 91.1993 92.7576C83.0315 94.0051 72.1976 95.25 61.5 95.25V96.75C72.3024 96.75 83.2185 95.4939 91.4257 94.2404C95.5314 93.6134 98.9636 92.9862 101.37 92.5157C102.574 92.2804 103.521 92.0841 104.169 91.9466C104.492 91.8778 104.741 91.8237 104.909 91.7867C104.993 91.7682 105.057 91.7539 105.1 91.7443C105.122 91.7395 105.138 91.7358 105.149 91.7333C105.155 91.732 105.159 91.7311 105.162 91.7304C105.163 91.7301 105.164 91.7299 105.165 91.7297C105.165 91.7296 105.166 91.7295 105.166 91.7295C105.166 91.7294 105.166 91.7294 105 90.998ZM61.5 95.25C52.0546 95.25 41.2219 94.0057 32.7342 92.757C28.4938 92.1332 24.8458 91.5094 22.2584 91.0416C20.9648 90.8077 19.9366 90.6129 19.2323 90.4766C18.8801 90.4085 18.609 90.355 18.4262 90.3186C18.3348 90.3005 18.2654 90.2865 18.2191 90.2772C18.1959 90.2725 18.1785 90.269 18.167 90.2667C18.1612 90.2655 18.1569 90.2646 18.1541 90.264C18.1526 90.2637 18.1516 90.2635 18.1509 90.2634C18.1506 90.2633 18.1504 90.2633 18.1502 90.2632C18.1501 90.2632 18.15 90.2632 18 90.998C17.85 91.7329 17.8501 91.7329 17.8504 91.733C17.8506 91.733 17.8509 91.7331 17.8513 91.7332C17.8521 91.7333 17.8533 91.7336 17.8549 91.7339C17.858 91.7345 17.8626 91.7355 17.8687 91.7367C17.8808 91.7392 17.8988 91.7428 17.9226 91.7476C17.9702 91.7572 18.0407 91.7714 18.1334 91.7898C18.3187 91.8267 18.5925 91.8807 18.9474 91.9493C19.6572 92.0866 20.6914 92.2826 21.9916 92.5176C24.5917 92.9877 28.2562 93.6144 32.5158 94.241C41.0281 95.4933 51.9454 96.75 61.5 96.75V95.25ZM18 128.225C17.7485 128.932 17.7487 128.932 17.749 128.932C17.7492 128.932 17.7496 128.932 17.75 128.932C17.7507 128.932 17.7518 128.933 17.7531 128.933C17.7558 128.934 17.7597 128.936 17.7647 128.937C17.7747 128.941 17.7893 128.946 17.8084 128.953C17.8467 128.966 17.9032 128.986 17.9775 129.011C18.126 129.062 18.3457 129.135 18.6331 129.229C19.208 129.417 20.0542 129.683 21.145 130.003C23.3266 130.642 26.4876 131.494 30.4154 132.345C38.2691 134.046 49.1989 135.748 61.5 135.748V134.248C49.3324 134.248 38.5122 132.564 30.733 130.879C26.8444 130.036 23.7183 129.194 21.5669 128.564C20.4912 128.248 19.6594 127.986 19.098 127.803C18.8172 127.711 18.6041 127.64 18.4619 127.591C18.3908 127.567 18.3375 127.549 18.3023 127.536C18.2846 127.53 18.2716 127.526 18.2631 127.523C18.2589 127.521 18.2558 127.52 18.2538 127.519C18.2528 127.519 18.2522 127.519 18.2518 127.519C18.2516 127.518 18.2515 127.518 18.2514 127.518C18.2514 127.518 18.2515 127.518 18 128.225ZM61.5 135.748C73.8011 135.748 84.7309 134.046 92.5846 132.345C96.5124 131.494 99.6734 130.642 101.855 130.003C102.946 129.683 103.792 129.417 104.367 129.229C104.654 129.135 104.874 129.062 105.023 129.011C105.097 128.986 105.153 128.966 105.192 128.953C105.211 128.946 105.225 128.941 105.235 128.937C105.24 128.936 105.244 128.934 105.247 128.933C105.248 128.933 105.249 128.932 105.25 128.932C105.25 128.932 105.251 128.932 105.251 128.932C105.251 128.932 105.251 128.932 105 128.225C104.749 127.518 104.749 127.518 104.749 127.518C104.748 127.518 104.748 127.518 104.748 127.519C104.748 127.519 104.747 127.519 104.746 127.519C104.744 127.52 104.741 127.521 104.737 127.523C104.728 127.526 104.715 127.53 104.698 127.536C104.663 127.549 104.609 127.567 104.538 127.591C104.396 127.64 104.183 127.711 103.902 127.803C103.341 127.986 102.509 128.248 101.433 128.564C99.2817 129.194 96.1556 130.036 92.267 130.879C84.4878 132.564 73.6676 134.248 61.5 134.248V135.748Z" fill="black"/>
</svg>
