<svg width="152" height="449" viewBox="0 0 152 449" fill="none" xmlns="http://www.w3.org/2000/svg">
<path d="M76.5 271.572C64.6091 271.572 35.2121 269.857 22 269C29.8447 319.163 46.0295 424.118 48.0114 442.64C78.7295 452.93 100.447 446.07 107.466 441.354L131 269C117.788 269.857 88.3909 271.572 76.5 271.572Z" stroke="black" stroke-width="1.5"/>
<path d="M76.6105 231C42.2525 231 16.8962 227.335 2 222.5L2 214.618L2 206.5C6.62835 214.8 54.857 216.253 76.6105 216.253C115.588 216.253 149.264 211.859 151 206V222.5C139.541 227.335 115.552 229.925 76.6105 231Z" stroke="black" stroke-width="1.5" stroke-linejoin="round"/>
<path d="M1 266.37L1 250C10.1604 253.852 39.3412 258.823 75.4101 259.63C111.479 260.437 146.531 253.008 150 250.09V266.621C138.55 271.436 114.36 276 75.4101 276C41.0766 276 15.8856 271.185 1 266.37Z" fill="white"/>
<path d="M1 250L1.29071 249.309C1.05915 249.211 0.794226 249.236 0.584991 249.375C0.375756 249.514 0.25 249.749 0.25 250H1ZM1 266.37H0.25L0.25 266.916L0.769183 267.084L1 266.37ZM150 266.621L150.291 267.312L150.75 267.119V266.621H150ZM150 250.09H150.75C150.75 249.799 150.581 249.534 150.317 249.41C150.052 249.287 149.74 249.329 149.517 249.516L150 250.09ZM0.25 250L0.25 266.37H1.75L1.75 250H0.25ZM0.769183 267.084C15.7408 271.927 41.0113 276.75 75.4101 276.75V275.25C41.142 275.25 16.0304 270.444 1.23082 265.657L0.769183 267.084ZM75.4101 276.75C114.391 276.75 138.701 272.186 150.291 267.312L149.709 265.93C138.398 270.686 114.328 275.25 75.4101 275.25V276.75ZM150.75 266.621V250.09H149.25V266.621H150.75ZM149.517 249.516C149.201 249.782 148.398 250.18 147.029 250.664C145.697 251.134 143.927 251.654 141.771 252.198C137.461 253.285 131.651 254.458 124.815 255.515C111.144 257.631 93.4088 259.282 75.4269 258.88L75.3934 260.379C93.4804 260.784 111.305 259.124 125.045 256.998C131.915 255.935 137.772 254.753 142.138 253.652C144.319 253.102 146.138 252.569 147.528 252.078C148.881 251.6 149.932 251.128 150.483 250.664L149.517 249.516ZM75.4269 258.88C57.4209 258.477 41.1379 257.035 28.219 255.214C15.2743 253.389 5.77374 251.194 1.29071 249.309L0.709287 250.691C5.38663 252.658 15.0566 254.874 28.0097 256.699C40.9886 258.529 57.3304 259.975 75.3934 260.379L75.4269 258.88Z" fill="black"/>
<path d="M15 242.64L15 226C24.0909 228 46.9961 230.741 77.485 231C107.974 231.259 132.045 227 140 226V242.64C129.544 246.317 110.192 250 77.485 250C58.9384 249.608 28.0217 247.077 15 242.64Z" stroke="black" stroke-width="1.5"/>
<path d="M14.5469 243L14.6989 242.266L14.4387 242.212L14.2026 242.334L14.5469 243ZM1 250L0.655705 249.334C0.400187 249.466 0.24268 249.732 0.250261 250.02C0.257841 250.307 0.429175 250.565 0.691295 250.684L1 250ZM150 250L150.426 250.617C150.628 250.478 150.749 250.248 150.75 250.003C150.751 249.757 150.632 249.527 150.431 249.386L150 250ZM140.016 243L140.446 242.386L140.157 242.183L139.816 242.277L140.016 243ZM76.1406 249.611L76.1446 248.861L76.1406 249.611ZM14.2026 242.334L0.655705 249.334L1.3443 250.666L14.8912 243.666L14.2026 242.334ZM0.691295 250.684C3.91415 252.139 9.11307 253.485 15.343 254.689C21.5911 255.897 28.9354 256.973 36.4857 257.87C51.5817 259.664 67.5467 260.75 77.2812 260.75V259.25C67.6252 259.25 51.723 258.17 36.6627 256.38C29.1349 255.486 21.8288 254.415 15.6277 253.217C9.40842 252.015 4.35929 250.694 1.30871 249.316L0.691295 250.684ZM77.2812 260.75C93.733 260.75 110.238 259.428 123.493 257.513C130.12 256.556 135.945 255.449 140.551 254.282C145.123 253.123 148.593 251.882 150.426 250.617L149.574 249.383C147.986 250.479 144.758 251.668 140.183 252.828C135.643 253.978 129.872 255.076 123.278 256.029C110.092 257.933 93.6595 259.25 77.2812 259.25V260.75ZM150.431 249.386L140.446 242.386L139.585 243.614L149.569 250.614L150.431 249.386ZM139.816 242.277C133.039 244.148 110.295 249.043 76.1446 248.861L76.1366 250.361C110.424 250.544 133.305 245.63 140.215 243.723L139.816 242.277ZM76.1446 248.861C45.6156 248.699 23.807 244.151 14.6989 242.266L14.3948 243.734C23.5367 245.627 45.4593 250.198 76.1366 250.361L76.1446 248.861Z" fill="black"/>
<path d="M68.5 1V0.25L67.8005 0.25L67.7518 0.947809L68.5 1ZM84 1L84.7487 0.955371L84.7066 0.25L84 0.25V1ZM91.8333 132.407L91.0847 132.452L91.1073 132.833L91.4282 133.039L91.8333 132.407ZM106 141.5L106.259 142.204C106.526 142.105 106.715 141.864 106.746 141.581C106.776 141.299 106.645 141.023 106.405 140.869L106 141.5ZM46 141.5L45.5774 140.88C45.3454 141.039 45.2213 141.313 45.2556 141.592C45.29 141.871 45.4772 142.107 45.7407 142.204L46 141.5ZM59.3333 132.407L59.7559 133.027L60.0562 132.822L60.0815 132.46L59.3333 132.407ZM68.5 1.75L84 1.75V0.25L68.5 0.25V1.75ZM83.2513 1.04463L91.0847 132.452L92.582 132.363L84.7487 0.955371L83.2513 1.04463ZM91.4282 133.039L105.595 142.131L106.405 140.869L92.2384 131.776L91.4282 133.039ZM46.4226 142.12L59.7559 133.027L58.9108 131.788L45.5774 140.88L46.4226 142.12ZM60.0815 132.46L69.2482 1.05219L67.7518 0.947809L58.5852 132.355L60.0815 132.46ZM106 141.5C105.741 140.796 105.741 140.796 105.741 140.796C105.741 140.796 105.741 140.796 105.741 140.796C105.741 140.796 105.741 140.796 105.741 140.796C105.74 140.796 105.739 140.797 105.738 140.797C105.734 140.799 105.729 140.801 105.721 140.803C105.705 140.809 105.679 140.818 105.645 140.83C105.575 140.854 105.468 140.89 105.324 140.936C105.034 141.028 104.594 141.162 103.999 141.323C102.81 141.645 101.003 142.078 98.5566 142.512C93.6633 143.379 86.2071 144.25 76 144.25V145.75C86.2929 145.75 93.8367 144.871 98.8184 143.988C101.309 143.547 103.159 143.105 104.391 142.771C105.008 142.604 105.469 142.464 105.78 142.365C105.935 142.315 106.052 142.276 106.132 142.249C106.172 142.235 106.202 142.224 106.224 142.217C106.234 142.213 106.243 142.21 106.248 142.208C106.251 142.207 106.254 142.206 106.256 142.205C106.257 142.205 106.257 142.204 106.258 142.204C106.258 142.204 106.259 142.204 106.259 142.204C106.259 142.204 106.259 142.204 106 141.5ZM76 144.25C65.7929 144.25 58.3367 143.379 53.4434 142.512C50.9966 142.078 49.1903 141.645 48.0008 141.323C47.4061 141.162 46.9656 141.028 46.6763 140.936C46.5317 140.89 46.4249 140.854 46.3555 140.83C46.3208 140.818 46.2954 140.809 46.2794 140.803C46.2714 140.801 46.2657 140.799 46.2624 140.797C46.2607 140.797 46.2596 140.796 46.2591 140.796C46.2588 140.796 46.2587 140.796 46.2588 140.796C46.2588 140.796 46.2589 140.796 46.2589 140.796C46.2591 140.796 46.2593 140.796 46 141.5C45.7407 142.204 45.741 142.204 45.7413 142.204C45.7415 142.204 45.7418 142.204 45.7421 142.204C45.7427 142.204 45.7435 142.205 45.7444 142.205C45.7462 142.206 45.7486 142.207 45.7515 142.208C45.7575 142.21 45.7657 142.213 45.7763 142.217C45.7975 142.224 45.828 142.235 45.8679 142.249C45.9477 142.276 46.065 142.315 46.2202 142.365C46.5305 142.464 46.9923 142.604 47.6085 142.771C48.841 143.105 50.6909 143.547 53.1816 143.988C58.1633 144.871 65.7071 145.75 76 145.75V144.25Z" fill="black"/>
<path d="M151.25 206.5C151.25 206.836 150.997 207.348 150.045 207.996C149.123 208.622 147.716 209.255 145.833 209.875C142.075 211.11 136.598 212.234 129.783 213.182C116.164 215.076 97.3253 216.25 76.5 216.25C55.6747 216.25 36.8358 215.076 23.2167 213.182C16.4016 212.234 10.9248 211.11 7.16743 209.875C5.28365 209.255 3.87664 208.622 2.95547 207.996C2.00283 207.348 1.75 206.836 1.75 206.5C1.75 206.164 2.00283 205.652 2.95547 205.004C3.87664 204.378 5.28365 203.745 7.16743 203.125C10.9248 201.89 16.4016 200.766 23.2167 199.818C36.8358 197.924 55.6747 196.75 76.5 196.75C97.3253 196.75 116.164 197.924 129.783 199.818C136.598 200.766 142.075 201.89 145.833 203.125C147.716 203.745 149.123 204.378 150.045 205.004C150.997 205.652 151.25 206.164 151.25 206.5Z" fill="#BCF352" stroke="black" stroke-width="1.5"/>
<path d="M46 203.44L46 142C46 142 58.5 144.5 76 144.5C93.5 144.5 106 142 106 142V203.44C106 203.44 97 206 76 206C55 206 46 203.44 46 203.44Z" fill="white" stroke="black" stroke-width="1.5"/>
</svg>
