<svg width="93" height="453" viewBox="0 0 93 453" fill="none" xmlns="http://www.w3.org/2000/svg">
<path d="M1 266.5V255.5H91.5V266.5L90 269L43 294L2.5 269L1 266.5Z" fill="#BCF352" stroke="black" stroke-width="1.5"/>
<path d="M69 1L27 1L14 225.668L1 255.522C1 255.522 14 265.5 46 265.5C78 265.5 92 256.058 92 256.058L80.5 225.668L69 1Z" fill="white"/>
<path d="M27 1V0.25L26.2921 0.25L26.2513 0.956675L27 1ZM69 1L69.749 0.96166L69.7126 0.25L69 0.25V1ZM80.5 225.668L79.751 225.706L79.757 225.823L79.7985 225.933L80.5 225.668ZM92 256.058L92.4194 256.68C92.7078 256.485 92.8246 256.118 92.7015 255.792L92 256.058ZM1 255.522L0.312366 255.222C0.174853 255.538 0.27011 255.907 0.543336 256.116L1 255.522ZM14 225.668L14.6876 225.967L14.741 225.844L14.7487 225.711L14 225.668ZM27 1.75L69 1.75V0.25L27 0.25V1.75ZM68.251 1.03834L79.751 225.706L81.249 225.629L69.749 0.96166L68.251 1.03834ZM79.7985 225.933L91.2985 256.323L92.7015 255.792L81.2015 225.402L79.7985 225.933ZM1.68763 255.821L14.6876 225.967L13.3124 225.368L0.312366 255.222L1.68763 255.821ZM14.7487 225.711L27.7487 1.04332L26.2513 0.956675L13.2513 225.624L14.7487 225.711ZM92 256.058C91.5806 255.436 91.5809 255.436 91.5811 255.436C91.5811 255.436 91.5813 255.436 91.5813 255.436C91.5813 255.436 91.5811 255.436 91.5807 255.436C91.5798 255.437 91.5781 255.438 91.5755 255.439C91.5704 255.443 91.5619 255.448 91.5499 255.456C91.526 255.472 91.4883 255.496 91.4367 255.528C91.3335 255.593 91.1749 255.69 90.9598 255.815C90.5295 256.064 89.8733 256.425 88.9834 256.859C87.2036 257.728 84.4883 258.895 80.7748 260.064C73.349 262.401 61.925 264.75 46 264.75V266.25C62.075 266.25 73.651 263.878 81.2252 261.494C85.0117 260.303 87.7964 259.108 89.6416 258.207C90.5642 257.757 91.2517 257.379 91.7121 257.112C91.9423 256.979 92.1157 256.873 92.2332 256.799C92.292 256.763 92.3368 256.734 92.3678 256.714C92.3833 256.704 92.3953 256.696 92.4039 256.69C92.4082 256.687 92.4116 256.685 92.4142 256.683C92.4155 256.682 92.4166 256.682 92.4174 256.681C92.4179 256.681 92.4183 256.68 92.4186 256.68C92.419 256.68 92.4194 256.68 92 256.058ZM46 264.75C30.0794 264.75 18.9121 262.268 11.744 259.802C8.15935 258.568 5.57261 257.338 3.88979 256.422C3.04832 255.964 2.43265 255.584 2.03107 255.322C1.83027 255.191 1.68299 255.089 1.58774 255.022C1.54012 254.988 1.50551 254.963 1.48372 254.947C1.47283 254.939 1.46515 254.933 1.46064 254.93C1.45839 254.928 1.45694 254.927 1.45627 254.926C1.45594 254.926 1.45581 254.926 1.45588 254.926C1.45591 254.926 1.45611 254.926 1.45612 254.926C1.45637 254.926 1.45666 254.927 1 255.522C0.543336 256.116 0.543731 256.117 0.544176 256.117C0.544391 256.117 0.544886 256.118 0.545316 256.118C0.546175 256.119 0.547234 256.119 0.548492 256.12C0.55101 256.122 0.554327 256.125 0.558446 256.128C0.566685 256.134 0.578133 256.143 0.592814 256.154C0.622176 256.175 0.664468 256.206 0.719873 256.245C0.830685 256.324 0.993945 256.437 1.21112 256.578C1.64548 256.862 2.29543 257.262 3.17271 257.739C4.92739 258.694 7.59065 259.959 11.256 261.22C18.5879 263.743 29.9206 266.25 46 266.25V264.75Z" fill="black"/>
<path d="M3 440.943L3 268C3 268 21.284 277 47 277C77.2772 277 90 268 90 268L90 440.943C90 440.943 70.9688 452 46.5 452C22.0313 452 3 440.943 3 440.943Z" fill="white"/>
<path d="M3 268L3.33122 267.327C3.09876 267.213 2.82369 267.226 2.60372 267.363C2.38374 267.5 2.25 267.741 2.25 268H3ZM3 440.943H2.25V441.375L2.62323 441.591L3 440.943ZM90 440.943L90.3768 441.591L90.75 441.375V440.943H90ZM90 268H90.75C90.75 267.72 90.5937 267.463 90.3447 267.334C90.0958 267.205 89.7957 267.226 89.5669 267.388L90 268ZM2.25 268L2.25 440.943H3.75L3.75 268H2.25ZM90.75 440.943L90.75 268H89.25L89.25 440.943H90.75ZM90 268C89.5669 267.388 89.5672 267.388 89.5674 267.387C89.5674 267.387 89.5676 267.387 89.5676 267.387C89.5677 267.387 89.5676 267.387 89.5672 267.387C89.5666 267.388 89.5651 267.389 89.5629 267.39C89.5585 267.394 89.551 267.399 89.5403 267.406C89.519 267.421 89.4851 267.443 89.4386 267.474C89.3455 267.535 89.2018 267.627 89.0061 267.745C88.6149 267.981 88.016 268.324 87.2001 268.737C85.5684 269.564 83.0681 270.674 79.6234 271.786C72.7351 274.011 62.063 276.25 47 276.25V277.75C62.2142 277.75 73.0421 275.489 80.0845 273.214C83.6051 272.076 86.1778 270.936 87.8779 270.075C88.7278 269.645 89.3595 269.284 89.7822 269.029C89.9936 268.901 90.1528 268.799 90.2608 268.728C90.3149 268.693 90.3562 268.665 90.3848 268.646C90.3992 268.636 90.4103 268.628 90.4184 268.623C90.4224 268.62 90.4256 268.618 90.4281 268.616C90.4293 268.615 90.4304 268.614 90.4312 268.614C90.4316 268.613 90.4321 268.613 90.4323 268.613C90.4327 268.613 90.4331 268.612 90 268ZM47 276.25C34.228 276.25 23.2993 274.015 15.5647 271.779C11.6982 270.662 8.63239 269.545 6.53649 268.71C5.48861 268.292 4.68343 267.944 4.1421 267.702C3.87145 267.581 3.66678 267.486 3.53074 267.422C3.46273 267.39 3.41187 267.366 3.37851 267.35C3.36182 267.342 3.34951 267.336 3.34162 267.332C3.33767 267.33 3.33483 267.329 3.33309 267.328C3.33223 267.328 3.33164 267.327 3.33133 267.327C3.33117 267.327 3.33114 267.327 3.33107 267.327C3.33111 267.327 3.33122 267.327 3 268C2.66878 268.673 2.66903 268.673 2.66935 268.673C2.66955 268.673 2.66995 268.673 2.67035 268.674C2.67115 268.674 2.67223 268.675 2.67359 268.675C2.67631 268.677 2.68014 268.678 2.68508 268.681C2.69496 268.686 2.70927 268.693 2.72797 268.702C2.76536 268.72 2.82031 268.746 2.89249 268.78C3.03684 268.848 3.25011 268.946 3.52963 269.071C4.08867 269.321 4.91283 269.677 5.98089 270.103C8.11687 270.955 11.2293 272.088 15.1483 273.221C22.9847 275.485 34.056 277.75 47 277.75V276.25ZM3 440.943C2.62323 441.591 2.62348 441.592 2.6238 441.592C2.624 441.592 2.6244 441.592 2.62481 441.592C2.62562 441.593 2.62673 441.593 2.62813 441.594C2.63092 441.596 2.63487 441.598 2.63997 441.601C2.65017 441.607 2.66498 441.615 2.68434 441.626C2.72305 441.648 2.77997 441.681 2.85469 441.722C3.00412 441.806 3.22474 441.927 3.51322 442.08C4.09016 442.387 4.9387 442.824 6.03225 443.347C8.21908 444.393 11.3873 445.786 15.3242 447.179C23.1943 449.962 34.1562 452.75 46.5 452.75V451.25C34.3751 451.25 23.587 448.51 15.8243 445.764C11.9447 444.392 8.82584 443.021 6.67966 441.994C5.60671 441.481 4.77727 441.054 4.21786 440.756C3.93817 440.607 3.72601 440.491 3.58472 440.412C3.51407 440.373 3.46114 440.343 3.42635 440.323C3.40895 440.313 3.39608 440.306 3.3878 440.301C3.38366 440.298 3.38067 440.297 3.37883 440.296C3.37791 440.295 3.37728 440.295 3.37693 440.295C3.37676 440.294 3.37672 440.294 3.37664 440.294C3.37667 440.294 3.37677 440.294 3 440.943ZM46.5 452.75C58.8438 452.75 69.8057 449.962 77.6758 447.179C81.6127 445.786 84.7809 444.393 86.9677 443.347C88.0613 442.824 88.9098 442.387 89.4868 442.08C89.7753 441.927 89.9959 441.806 90.1453 441.722C90.22 441.681 90.2769 441.648 90.3157 441.626C90.335 441.615 90.3498 441.607 90.36 441.601C90.3651 441.598 90.3691 441.596 90.3719 441.594C90.3733 441.593 90.3744 441.593 90.3752 441.592C90.3756 441.592 90.376 441.592 90.3762 441.592C90.3765 441.592 90.3768 441.591 90 440.943C89.6232 440.294 89.6233 440.294 89.6234 440.294C89.6233 440.294 89.6232 440.294 89.6231 440.295C89.6227 440.295 89.6221 440.295 89.6212 440.296C89.6193 440.297 89.6163 440.298 89.6122 440.301C89.6039 440.306 89.5911 440.313 89.5737 440.323C89.5389 440.343 89.4859 440.373 89.4153 440.412C89.274 440.491 89.0618 440.607 88.7821 440.756C88.2227 441.054 87.3933 441.481 86.3203 441.994C84.1742 443.021 81.0553 444.392 77.1757 445.764C69.413 448.51 58.6249 451.25 46.5 451.25V452.75Z" fill="black"/>
</svg>
