<svg width="139" height="262" viewBox="0 0 139 262" fill="none" xmlns="http://www.w3.org/2000/svg">
<path d="M14 142L14.1557 141.266L13.8839 141.209L13.6401 141.342L14 142ZM1 149.111L0.640073 148.453C0.391671 148.589 0.240961 148.853 0.250419 149.136C0.259876 149.419 0.427888 149.673 0.684809 149.792L1 149.111ZM138 149L138.433 149.612C138.634 149.47 138.752 149.238 138.75 148.992C138.747 148.746 138.624 148.517 138.421 148.379L138 149ZM127.672 142L128.093 141.379L127.804 141.183L127.468 141.278L127.672 142ZM69.0469 148.222L69.0428 148.972L69.0469 148.222ZM13.6401 141.342L0.640073 148.453L1.35993 149.769L14.3599 142.658L13.6401 141.342ZM0.684809 149.792C3.65277 151.166 8.37589 152.402 14.0096 153.486C19.6614 154.575 26.29 155.522 33.1062 156.301C46.7354 157.859 61.1594 158.75 70.0938 158.75V157.25C61.2312 157.25 46.8662 156.364 33.2766 154.81C26.4835 154.034 19.8952 153.092 14.2932 152.014C8.67294 150.931 4.10504 149.723 1.31519 148.431L0.684809 149.792ZM70.0938 158.75C85.1937 158.75 100.634 157.609 113.092 155.91C119.321 155.06 124.815 154.07 129.155 153.01C133.456 151.959 136.733 150.815 138.433 149.612L137.567 148.388C136.126 149.407 133.111 150.499 128.799 151.553C124.526 152.597 119.086 153.579 112.889 154.424C100.498 156.113 85.1254 157.25 70.0938 157.25V158.75ZM138.421 148.379L128.093 141.379L127.251 142.621L137.579 149.621L138.421 148.379ZM127.468 141.278C121.254 143.037 100.387 147.643 69.051 147.472L69.0428 148.972C100.52 149.144 121.527 144.519 127.876 142.722L127.468 141.278ZM69.051 147.472C41.0429 147.319 22.5205 143.042 14.1557 141.266L13.8443 142.734C22.2295 144.514 40.8751 148.818 69.0428 148.972L69.051 147.472Z" fill="black"/>
<path d="M14 142.56L14 128C22.2909 129.75 43.1805 132.149 70.9863 132.375C98.7921 132.601 120.745 128.875 128 128V142.56C118.464 145.778 100.815 149 70.9863 149C54.0718 148.657 25.8758 146.442 14 142.56Z" fill="white" stroke="black" stroke-width="1.5"/>
<path d="M69.9998 179.328C58.218 179.328 29.0909 177.776 16 177L19.5 251.088C36.7798 265.385 110.5 263 121.5 251.088L124 177C110.909 177.776 81.7816 179.328 69.9998 179.328Z" fill="white" stroke="black" stroke-width="1.5"/>
<path d="M1 127.556L1 116C4.43933 118.519 46.8577 121.352 69.3149 121.352C105.122 121.352 132.841 118.378 138 116.174V127.462C127.473 130.75 105.089 133.269 69.3149 134C37.7511 134 14.6848 130.844 1 127.556Z" fill="white"/>
<path d="M1 116L1.4431 115.395C1.21515 115.228 0.912735 115.203 0.660757 115.331C0.408778 115.459 0.25 115.717 0.25 116H1ZM1 127.556H0.25L0.25 128.148L0.824788 128.286L1 127.556ZM69.3149 134V134.75H69.3226L69.3302 134.75L69.3149 134ZM138 127.462L138.224 128.178L138.75 128.014V127.462H138ZM138 116.174H138.75C138.75 115.922 138.623 115.687 138.413 115.548C138.203 115.409 137.937 115.385 137.705 115.484L138 116.174ZM0.25 116L0.25 127.556H1.75L1.75 116H0.25ZM0.824788 128.286C14.5792 131.59 37.7061 134.75 69.3149 134.75V133.25C37.796 133.25 14.7904 130.098 1.17521 126.827L0.824788 128.286ZM69.3302 134.75C105.098 134.019 127.582 131.502 138.224 128.178L137.776 126.747C127.364 129.999 105.08 132.519 69.2996 133.25L69.3302 134.75ZM138.75 127.462V116.174H137.25V127.462H138.75ZM137.705 115.484C136.516 115.992 133.908 116.581 130.015 117.171C126.152 117.757 121.102 118.333 115.087 118.842C103.06 119.859 87.1991 120.602 69.3149 120.602V122.102C87.2381 122.102 103.141 121.358 115.214 120.337C121.25 119.826 126.335 119.246 130.239 118.654C134.113 118.067 136.904 117.457 138.295 116.864L137.705 115.484ZM69.3149 120.602C58.1099 120.602 41.9102 119.895 28.0811 118.872C21.1666 118.361 14.8551 117.772 10.063 117.155C7.66543 116.846 5.66011 116.532 4.15435 116.219C3.40082 116.062 2.78462 115.908 2.3126 115.76C1.82017 115.605 1.55309 115.475 1.4431 115.395L0.556896 116.605C0.876829 116.839 1.34419 117.027 1.86194 117.19C2.4001 117.36 3.06984 117.525 3.8492 117.687C5.40923 118.012 7.45756 118.332 9.87131 118.643C14.7017 119.265 21.0433 119.856 27.9705 120.368C41.8246 121.392 58.0628 122.102 69.3149 122.102V120.602Z" fill="black"/>
<path d="M1.00036 195.786L1 149C9.48327 152.577 35.4467 157.194 68.8496 157.944C102.253 158.693 134.788 151.793 138 149.084V195.786C127.396 200.258 104.918 205 68.8479 205C37.0522 205 14.7857 200.258 1.00036 195.786Z" fill="white"/>
<path d="M1 149L1.29143 148.309C1.05984 148.211 0.794732 148.236 0.58531 148.375C0.375889 148.514 0.249998 148.749 0.25 149L1 149ZM1.00036 195.786L0.250364 195.786L0.250368 196.331L0.768944 196.5L1.00036 195.786ZM138 195.786L138.291 196.477L138.75 196.284V195.786H138ZM138 149.084H138.75C138.75 148.792 138.581 148.527 138.316 148.404C138.051 148.281 137.74 148.322 137.516 148.511L138 149.084ZM68.8496 157.944L68.8665 157.194L68.8496 157.944ZM0.25 149L0.250364 195.786L1.75036 195.786L1.75 149L0.25 149ZM0.768944 196.5C14.6321 200.997 36.9769 205.75 68.8479 205.75V204.25C37.1276 204.25 14.9393 199.519 1.23178 195.073L0.768944 196.5ZM68.8479 205.75C104.963 205.75 127.555 201.005 138.291 196.477L137.709 195.095C127.237 199.511 104.874 204.25 68.8479 204.25V205.75ZM138.75 195.786V149.084H137.25V195.786H138.75ZM137.516 148.511C137.233 148.75 136.497 149.117 135.226 149.566C133.994 150.002 132.353 150.485 130.354 150.99C126.358 151.999 120.969 153.087 114.631 154.07C101.955 156.034 85.5152 157.567 68.8665 157.194L68.8328 158.693C85.5869 159.069 102.116 157.527 114.861 155.552C121.234 154.564 126.669 153.467 130.721 152.444C132.746 151.933 134.435 151.437 135.727 150.98C136.98 150.537 137.964 150.095 138.484 149.657L137.516 148.511ZM68.8665 157.194C52.1939 156.82 37.3826 155.48 25.6873 153.79C13.9688 152.096 5.43859 150.058 1.29143 148.309L0.708574 149.691C5.04468 151.52 13.7379 153.578 25.4727 155.275C37.2306 156.974 52.1025 158.318 68.8328 158.693L68.8665 157.194Z" fill="black"/>
<path d="M52.5862 1L52.5865 0.25L51.9015 0.249775L51.8393 0.931926L52.5862 1ZM87.5 1.01145L88.2464 0.938352L88.1802 0.261674L87.5002 0.261451L87.5 1.01145ZM96.3172 91.046L95.5708 91.1191L95.6122 91.5415L95.9955 91.7236L96.3172 91.046ZM111 98.0172L111.242 98.7271C111.531 98.6286 111.731 98.3649 111.749 98.0602C111.766 97.7555 111.597 97.4706 111.322 97.3397L111 98.0172ZM27 97.7279L26.7309 97.0278C26.4376 97.1406 26.2457 97.4242 26.2501 97.7384C26.2545 98.0526 26.4542 98.3307 26.7506 98.4352L27 97.7279ZM44.3793 91.0461L44.6485 91.7461L45.0839 91.5787L45.1262 91.1141L44.3793 91.0461ZM52.586 1.75L87.4998 1.76145L87.5002 0.261451L52.5865 0.25L52.586 1.75ZM86.7536 1.08455L95.5708 91.1191L97.0636 90.9729L88.2464 0.938352L86.7536 1.08455ZM95.9955 91.7236L110.678 98.6947L111.322 97.3397L96.6389 90.3685L95.9955 91.7236ZM27.2691 98.4279L44.6485 91.7461L44.1102 90.346L26.7309 97.0278L27.2691 98.4279ZM45.1262 91.1141L53.3331 1.06807L51.8393 0.931926L43.6324 90.978L45.1262 91.1141ZM111 98.0172C110.758 97.3074 110.758 97.3074 110.758 97.3074C110.758 97.3075 110.757 97.3076 110.757 97.3077C110.756 97.3079 110.755 97.3082 110.754 97.3087C110.751 97.3097 110.747 97.3112 110.741 97.3131C110.729 97.3171 110.712 97.323 110.688 97.3309C110.642 97.3467 110.572 97.3702 110.479 97.401C110.295 97.4626 110.021 97.5531 109.666 97.6685C108.956 97.8992 107.922 98.2292 106.626 98.6255C104.036 99.4181 100.403 100.475 96.2376 101.532C87.8906 103.649 77.4653 105.75 69 105.75V107.25C77.6601 107.25 88.2347 105.109 96.6064 102.986C100.8 101.922 104.457 100.858 107.065 100.06C108.37 99.6608 109.412 99.3282 110.13 99.095C110.488 98.9784 110.766 98.8867 110.954 98.824C111.048 98.7927 111.119 98.7686 111.168 98.7522C111.192 98.7441 111.21 98.7379 111.223 98.7336C111.229 98.7315 111.234 98.7299 111.237 98.7288C111.239 98.7283 111.24 98.7279 111.241 98.7276C111.241 98.7274 111.241 98.7273 111.242 98.7272C111.242 98.7272 111.242 98.7271 111 98.0172ZM69 105.75C60.538 105.75 50.1151 103.578 41.7683 101.388C37.6033 100.296 33.9711 99.203 31.3805 98.3835C30.0853 97.9737 29.051 97.6325 28.3412 97.3939C27.9863 97.2746 27.7126 97.181 27.528 97.1173C27.4357 97.0855 27.3656 97.0612 27.3189 97.0449C27.2955 97.0367 27.2779 97.0306 27.2663 97.0265C27.2605 97.0245 27.2562 97.023 27.2534 97.022C27.252 97.0215 27.2509 97.0211 27.2503 97.0209C27.2499 97.0208 27.2497 97.0207 27.2496 97.0206C27.2495 97.0206 27.2494 97.0206 27 97.7279C26.7506 98.4352 26.7507 98.4352 26.751 98.4353C26.7512 98.4354 26.7516 98.4355 26.752 98.4357C26.7529 98.436 26.7541 98.4364 26.7557 98.437C26.7589 98.4381 26.7637 98.4398 26.7699 98.442C26.7823 98.4463 26.8007 98.4528 26.8249 98.4612C26.8733 98.4781 26.945 98.503 27.0391 98.5354C27.2272 98.6003 27.5046 98.6951 27.8633 98.8157C28.5807 99.0569 29.6236 99.4009 30.928 99.8136C33.5366 100.639 37.1933 101.739 41.3877 102.839C49.7596 105.036 60.3366 107.25 69 107.25V105.75Z" fill="black"/>
<path d="M138.25 115.5C138.25 115.761 138.047 116.206 137.171 116.791C136.33 117.353 135.04 117.924 133.308 118.484C129.853 119.601 124.815 120.617 118.542 121.474C106.008 123.188 88.6689 124.25 69.5 124.25C50.3311 124.25 32.9917 123.188 20.4577 121.474C14.1851 120.617 9.14689 119.601 5.69229 118.484C3.95981 117.924 2.67013 117.353 1.82859 116.791C0.952735 116.206 0.75 115.761 0.75 115.5C0.75 115.239 0.952735 114.794 1.82859 114.209C2.67013 113.647 3.95981 113.076 5.69229 112.516C9.14689 111.399 14.1851 110.383 20.4577 109.526C32.9917 107.812 50.3311 106.75 69.5 106.75C88.6689 106.75 106.008 107.812 118.542 109.526C124.815 110.383 129.853 111.399 133.308 112.516C135.04 113.076 136.33 113.647 137.171 114.209C138.047 114.794 138.25 115.239 138.25 115.5Z" fill="#BCF352" stroke="black" stroke-width="1.5"/>
<path d="M27 116.57L27 98C27 98 44.1708 102.5 69 102.5C98.2332 102.5 111 98 111 98V116.57C111 116.57 92.625 120.5 69 120.5C45.375 120.5 27 116.57 27 116.57Z" fill="white"/>
<path d="M27 98L27.1901 97.2745C26.9653 97.2156 26.7258 97.2642 26.5418 97.4062C26.3578 97.5482 26.25 97.7676 26.25 98H27ZM27 116.57H26.25V117.176L26.8431 117.303L27 116.57ZM111 116.57L111.157 117.303L111.75 117.176V116.57H111ZM111 98H111.75C111.75 97.7567 111.632 97.5284 111.433 97.3878C111.235 97.2472 110.98 97.2118 110.751 97.2927L111 98ZM26.25 98L26.25 116.57H27.75L27.75 98H26.25ZM111.75 116.57V98H110.25V116.57H111.75ZM111 98C110.751 97.2927 110.751 97.2926 110.751 97.2925C110.751 97.2925 110.751 97.2925 110.751 97.2925C110.751 97.2925 110.751 97.2926 110.75 97.2928C110.749 97.2931 110.748 97.2937 110.745 97.2945C110.74 97.2962 110.732 97.299 110.721 97.3028C110.699 97.3104 110.664 97.3222 110.616 97.3378C110.521 97.369 110.375 97.4157 110.177 97.4756C109.781 97.5954 109.179 97.7682 108.363 97.9764C106.731 98.3928 104.243 98.9509 100.841 99.5099C94.0372 100.628 83.578 101.75 69 101.75V103.25C83.6552 103.25 94.1959 102.122 101.084 100.99C104.528 100.424 107.059 99.8572 108.734 99.4298C109.571 99.2162 110.195 99.0374 110.612 98.9111C110.82 98.848 110.977 98.798 111.083 98.7633C111.136 98.7459 111.176 98.7324 111.204 98.723C111.218 98.7183 111.228 98.7146 111.236 98.712C111.24 98.7107 111.243 98.7096 111.245 98.7089C111.246 98.7085 111.247 98.7082 111.248 98.7079C111.248 98.7078 111.249 98.7076 111.249 98.7076C111.249 98.7075 111.249 98.7073 111 98ZM69 101.75C56.6299 101.75 46.1681 100.629 38.8018 99.5085C35.119 98.9484 32.2108 98.3885 30.2259 97.9693C29.2334 97.7597 28.4718 97.5853 27.9596 97.4637C27.7036 97.4028 27.5098 97.3552 27.3808 97.3229C27.3163 97.3068 27.268 97.2945 27.2361 97.2864C27.2201 97.2823 27.2083 97.2792 27.2007 97.2772C27.1968 97.2762 27.194 97.2755 27.1923 97.2751C27.1914 97.2748 27.1908 97.2747 27.1904 97.2746C27.1902 97.2745 27.1902 97.2745 27.1901 97.2745C27.1901 97.2745 27.1901 97.2745 27 98C26.8099 98.7255 26.8101 98.7255 26.8103 98.7256C26.8105 98.7257 26.8108 98.7257 26.8112 98.7258C26.8118 98.726 26.8128 98.7263 26.814 98.7266C26.8164 98.7272 26.8199 98.7281 26.8244 98.7293C26.8335 98.7316 26.8466 98.735 26.8639 98.7395C26.8986 98.7483 26.9497 98.7613 27.017 98.7781C27.1516 98.8118 27.351 98.8608 27.613 98.9231C28.1368 99.0475 28.9107 99.2247 29.9159 99.4369C31.9264 99.8615 34.8627 100.427 38.5763 100.991C46.0026 102.121 56.5409 103.25 69 103.25V101.75ZM27 116.57C26.8431 117.303 26.8433 117.303 26.8435 117.303C26.8437 117.303 26.844 117.303 26.8444 117.304C26.845 117.304 26.846 117.304 26.8472 117.304C26.8497 117.305 26.8533 117.305 26.8581 117.306C26.8675 117.308 26.8814 117.311 26.8996 117.315C26.9361 117.323 26.9902 117.334 27.0614 117.349C27.2039 117.378 27.415 117.421 27.6915 117.475C28.2445 117.583 29.0593 117.737 30.1101 117.923C32.2117 118.293 35.258 118.786 39.0438 119.279C46.6141 120.264 57.1474 121.25 69 121.25V119.75C57.2276 119.75 46.7609 118.771 39.2375 117.791C35.4763 117.302 32.4523 116.812 30.3703 116.445C29.3294 116.262 28.524 116.109 27.9799 116.003C27.7078 115.949 27.5011 115.908 27.3628 115.879C27.2937 115.865 27.2417 115.854 27.2072 115.847C27.19 115.843 27.1772 115.841 27.1688 115.839C27.1646 115.838 27.1615 115.837 27.1595 115.837C27.1585 115.837 27.1578 115.837 27.1573 115.837C27.1571 115.836 27.157 115.836 27.1569 115.836C27.1568 115.836 27.1569 115.836 27 116.57ZM69 121.25C80.8526 121.25 91.3859 120.264 98.9562 119.279C102.742 118.786 105.788 118.293 107.89 117.923C108.941 117.737 109.755 117.583 110.308 117.475C110.585 117.421 110.796 117.378 110.939 117.349C111.01 117.334 111.064 117.323 111.1 117.315C111.119 117.311 111.133 117.308 111.142 117.306C111.147 117.305 111.15 117.305 111.153 117.304C111.154 117.304 111.155 117.304 111.156 117.304C111.156 117.303 111.156 117.303 111.156 117.303C111.157 117.303 111.157 117.303 111 116.57C110.843 115.836 110.843 115.836 110.843 115.836C110.843 115.836 110.843 115.836 110.843 115.837C110.842 115.837 110.842 115.837 110.841 115.837C110.839 115.837 110.835 115.838 110.831 115.839C110.823 115.841 110.81 115.843 110.793 115.847C110.758 115.854 110.706 115.865 110.637 115.879C110.499 115.908 110.292 115.949 110.02 116.003C109.476 116.109 108.671 116.262 107.63 116.445C105.548 116.812 102.524 117.302 98.7625 117.791C91.2391 118.771 80.7724 119.75 69 119.75V121.25Z" fill="black"/>
</svg>
