<svg width="155" height="444" viewBox="0 0 155 444" fill="none" xmlns="http://www.w3.org/2000/svg">
<path d="M77.5 267.558C66.5909 267.558 39.6212 265.853 27.5 265C34.697 314.882 49.5455 419.252 51.3636 437.67C79.5455 447.902 99.4697 441.081 105.909 436.391L127.5 265C115.379 265.853 88.4091 267.558 77.5 267.558Z" stroke="black" stroke-width="1.5"/>
<path d="M1.5 256.5V240C13.3333 243 42.7 249.5 73.5 249.5C104.3 249.5 139.5 244 154 241V256.5C149.5 264 110.3 271 73.5 271C36.7 271 6.5 262.5 1.5 256.5Z" fill="white" stroke="black" stroke-width="1.5"/>
<path d="M14.5 232.64L14.5 216C23.9545 218 47.776 220.741 79.4844 221C111.193 221.259 136.227 217 144.5 216V232.64C133.625 236.317 113.5 240 79.4844 240C60.1959 239.608 28.0425 237.077 14.5 232.64Z" stroke="black" stroke-width="1.5"/>
<path d="M1 240L14.5 232.5C24 234.5 46.6392 239.327 78.5 239.5C114.125 239.693 137.375 234.5 144.5 232.5L154 240.5C146.875 245.5 112.679 251 78.5 251C58.3125 251 14.0625 246 1 240Z" fill="white"/>
<path d="M14.5 232.5L14.6545 231.766L14.3805 231.708L14.1358 231.844L14.5 232.5ZM1 240L0.635768 239.344C0.388664 239.482 0.239737 239.746 0.250549 240.029C0.26136 240.311 0.430074 240.564 0.686948 240.682L1 240ZM154 240.5L154.431 241.114C154.621 240.98 154.739 240.766 154.749 240.533C154.76 240.3 154.661 240.076 154.483 239.926L154 240.5ZM144.5 232.5L144.983 231.926L144.679 231.671L144.297 231.778L144.5 232.5ZM78.5 239.5L78.4959 240.25L78.5 239.5ZM14.1358 231.844L0.635768 239.344L1.36423 240.656L14.8642 233.156L14.1358 231.844ZM0.686948 240.682C4.0344 242.219 9.31987 243.67 15.6283 244.984C21.9528 246.302 29.359 247.492 36.9804 248.494C52.2177 250.496 68.3621 251.75 78.5 251.75V250.25C68.4504 250.25 52.3761 249.004 37.1758 247.006C29.5785 246.008 22.2113 244.823 15.9342 243.516C9.64107 242.205 4.49685 240.781 1.31305 239.318L0.686948 240.682ZM78.5 251.75C95.6263 251.75 112.756 250.372 126.504 248.367C133.377 247.365 139.415 246.204 144.19 244.976C148.932 243.758 152.526 242.45 154.431 241.114L153.569 239.886C151.911 241.05 148.559 242.305 143.817 243.524C139.109 244.734 133.126 245.885 126.287 246.883C112.61 248.878 95.5528 250.25 78.5 250.25V251.75ZM154.483 239.926L144.983 231.926L144.017 233.074L153.517 241.074L154.483 239.926ZM144.297 231.778C137.238 233.759 114.058 238.943 78.5041 238.75L78.4959 240.25C114.192 240.443 137.512 235.241 144.703 233.222L144.297 231.778ZM78.5041 238.75C46.7189 238.578 24.1379 233.763 14.6545 231.766L14.3455 233.234C23.8621 235.237 46.5594 240.077 78.4959 240.25L78.5041 238.75Z" fill="black"/>
<path d="M1.5 217V200.5C13.3333 203.5 42.7 212.5 73.5 212.5C104.3 212.5 139.5 204.5 154 201.5V217C149.5 224.5 112.5 229 75.7 229C38.9 229 6.5 223 1.5 217Z" fill="white" stroke="black" stroke-width="1.5"/>
<path d="M76.5 214.5C30.9 214.5 1.5 208.5 1.5 201.5C1.5 196.333 16.5 186 76.5 186C136.5 186 153.167 196.333 154 201.5C152.5 209 122.1 214.5 76.5 214.5Z" fill="#BCF352" stroke="black" stroke-width="1.5"/>
<path d="M102.5 1H52.5L42.5 107.5V197.5C54.5 203.5 97 203.5 112 197.5V107.5L102.5 1Z" fill="white" stroke="black" stroke-width="1.5"/>
</svg>
