<svg width="118" height="452" viewBox="0 0 118 452" fill="none" xmlns="http://www.w3.org/2000/svg">
<path d="M59 332.725C51.1455 332.725 31.7273 331.575 23 331C28.1818 364.629 38.8727 434.99 40.1818 447.407C60.4727 454.305 74.8182 449.706 79.4545 446.544L95 331C86.2727 331.575 66.8545 332.725 59 332.725Z" stroke="black" stroke-width="1.5"/>
<path d="M1 332.177V321C10.0011 323.032 32.339 327.435 55.7672 327.435C79.1954 327.435 105.97 323.71 117 321.677V332.177C113.577 337.258 83.7593 342 55.7672 342C27.7751 342 4.80328 336.242 1 332.177Z" fill="white" stroke="black" stroke-width="1.5"/>
<path d="M11 315.787L11 304C18.2 305.417 36.3409 307.358 60.4881 307.542C84.6353 307.725 103.7 304.708 110 304V315.787C101.719 318.391 86.3923 321 60.4881 321C45.7992 320.722 21.3132 318.929 11 315.787Z" stroke="black" stroke-width="1.5"/>
<path d="M1 320.865L11.2353 316C18.4379 317.297 35.6022 320.429 59.7582 320.541C86.768 320.666 104.395 317.297 109.797 316L117 321.189C111.598 324.432 85.6718 328 59.7582 328C44.4526 328 10.9036 324.757 1 320.865Z" fill="white"/>
<path d="M11.2353 316L11.3682 315.262L11.131 315.219L10.9133 315.323L11.2353 316ZM1 320.865L0.67804 320.187C0.408097 320.316 0.240102 320.592 0.25045 320.891C0.260798 321.19 0.447513 321.454 0.725688 321.563L1 320.865ZM117 321.189L117.386 321.832C117.602 321.702 117.739 321.473 117.749 321.221C117.76 320.969 117.643 320.728 117.438 320.581L117 321.189ZM109.797 316L110.236 315.391L109.957 315.19L109.622 315.271L109.797 316ZM59.7582 320.541L59.7616 319.791L59.7582 320.541ZM10.9133 315.323L0.67804 320.187L1.32196 321.542L11.5573 316.677L10.9133 315.323ZM0.725688 321.563C3.27569 322.565 7.29226 323.508 12.0751 324.36C16.8728 325.215 22.49 325.987 28.2696 326.637C39.8239 327.936 52.0676 328.75 59.7582 328.75V327.25C52.1432 327.25 39.9596 326.442 28.4371 325.147C22.6783 324.499 17.0947 323.731 12.3383 322.883C7.56701 322.033 3.67611 321.111 1.27431 320.167L0.725688 321.563ZM59.7582 328.75C72.7464 328.75 85.7374 327.856 96.1638 326.555C101.377 325.905 105.958 325.151 109.582 324.354C113.174 323.564 115.919 322.713 117.386 321.832L116.614 320.546C115.38 321.287 112.859 322.098 109.26 322.889C105.694 323.673 101.161 324.42 95.9781 325.067C85.6125 326.36 72.6836 327.25 59.7582 327.25V328.75ZM117.438 320.581L110.236 315.391L109.359 316.609L116.562 321.798L117.438 320.581ZM109.622 315.271C104.278 316.554 86.7105 319.915 59.7616 319.791L59.7547 321.291C86.8255 321.416 104.513 318.04 109.973 316.729L109.622 315.271ZM59.7616 319.791C35.6705 319.679 18.5562 316.557 11.3682 315.262L11.1023 316.738C18.3196 318.038 35.534 321.178 59.7547 321.291L59.7616 319.791Z" fill="black"/>
<path d="M1 304.579V293C10.0011 295.105 32.339 301.421 55.7672 301.421C79.1954 301.421 105.97 295.807 117 293.702V304.579C113.577 309.842 85.4328 313 57.4407 313C29.4485 313 4.80328 308.789 1 304.579Z" fill="white" stroke="black" stroke-width="1.5"/>
<path d="M58.0492 303C23.3633 303 1 298.789 1 293.877C1 290.251 12.4098 283 58.0492 283C103.689 283 116.366 290.251 117 293.877C115.859 299.14 92.7351 303 58.0492 303Z" fill="#BCF352" stroke="black" stroke-width="1.5"/>
<path d="M67.5 1H52C47.5915 92.6809 21.8713 281.525 19.5243 282.977C15.9307 289.38 11.7129 292.327 9 293.868C9 293.868 12.9604 297.234 60.1644 299C108.01 297.234 109 293.868 109 293.868L99.8943 282.977C90.9417 273.732 72.9258 91.14 67.5 1Z" fill="white"/>
<path d="M52 1V0.25H51.2852L51.2509 0.963978L52 1ZM67.5 1L68.2486 0.954937L68.2062 0.25H67.5V1ZM99.8943 282.977L100.47 282.496L100.452 282.475L100.433 282.455L99.8943 282.977ZM109 293.868L109.72 294.08C109.79 293.839 109.736 293.579 109.575 293.387L109 293.868ZM9 293.868L8.6296 293.216C8.41674 293.337 8.27628 293.554 8.25331 293.798C8.23034 294.042 8.32775 294.281 8.51427 294.44L9 293.868ZM19.5243 282.977L19.1297 282.339L18.965 282.441L18.8702 282.61L19.5243 282.977ZM60.1644 299L60.1364 299.749L60.1642 299.751L60.1921 299.749L60.1644 299ZM52 1.75H67.5V0.25H52V1.75ZM66.7514 1.04506C69.4651 46.1292 75.3267 114.324 81.629 172.405C84.7801 201.445 88.0423 227.965 91.0775 247.807C92.5948 257.726 94.0572 265.989 95.4228 272.068C96.1053 275.106 96.7669 277.613 97.4036 279.515C97.7219 280.466 98.038 281.278 98.3528 281.934C98.6625 282.581 98.9927 283.124 99.3556 283.499L100.433 282.455C100.236 282.252 99.9894 281.879 99.7055 281.286C99.4267 280.704 99.1328 279.955 98.826 279.039C98.2125 277.206 97.5638 274.755 96.8863 271.739C95.5319 265.71 94.0756 257.487 92.5602 247.58C89.5299 227.769 86.2704 201.274 83.1202 172.243C76.82 114.182 70.9607 46.0108 68.2486 0.954937L66.7514 1.04506ZM99.3189 283.458L108.425 294.349L109.575 293.387L100.47 282.496L99.3189 283.458ZM9.3704 294.52C12.1694 292.931 16.5016 289.895 20.1783 283.344L18.8702 282.61C15.3598 288.865 11.2565 291.724 8.6296 293.216L9.3704 294.52ZM19.9188 283.615C20.0883 283.51 20.1827 283.365 20.2206 283.304C20.2701 283.225 20.3099 283.141 20.3418 283.065C20.4064 282.913 20.4693 282.723 20.5313 282.511C20.6567 282.082 20.8003 281.484 20.9607 280.735C21.2824 279.234 21.6832 277.074 22.152 274.33C23.0901 268.84 24.3056 260.979 25.711 251.306C28.5221 231.959 32.0957 205.347 35.7334 175.916C43.0081 117.062 50.5434 46.9068 52.7491 1.03602L51.2509 0.963978C49.0481 46.7741 41.519 116.881 34.2447 175.732C30.608 205.155 27.0359 231.756 24.2266 251.09C22.8218 260.758 21.6084 268.605 20.6735 274.078C20.2057 276.816 19.809 278.951 19.494 280.421C19.336 281.158 19.2014 281.714 19.0915 282.09C19.0359 282.28 18.9919 282.406 18.9607 282.48C18.9447 282.518 18.9393 282.524 18.9464 282.513C18.9504 282.507 18.9634 282.486 18.9866 282.459C19.008 282.435 19.0546 282.385 19.1297 282.339L19.9188 283.615ZM60.1925 298.251C36.6025 297.368 23.8442 296.087 16.995 295.031C13.5699 294.503 11.6391 294.034 10.5781 293.705C10.0484 293.541 9.74465 293.415 9.58489 293.339C9.50549 293.301 9.4645 293.277 9.45072 293.269C9.44395 293.265 9.44442 293.265 9.45062 293.269C9.45373 293.271 9.45834 293.275 9.46424 293.279C9.46719 293.282 9.47047 293.284 9.47406 293.287C9.47586 293.288 9.47773 293.29 9.47968 293.292C9.48065 293.292 9.48216 293.294 9.48265 293.294C9.48419 293.295 9.48573 293.297 9 293.868C8.51427 294.44 8.51584 294.441 8.51744 294.442C8.51799 294.443 8.51959 294.444 8.52069 294.445C8.52288 294.447 8.52513 294.449 8.52742 294.451C8.53202 294.454 8.53683 294.458 8.54186 294.462C8.55193 294.47 8.56294 294.478 8.57499 294.487C8.59905 294.504 8.62752 294.523 8.66128 294.544C8.72856 294.586 8.81876 294.636 8.93985 294.693C9.18106 294.808 9.55553 294.959 10.1346 295.138C11.2914 295.496 13.3009 295.979 16.7664 296.513C23.6984 297.582 36.5223 298.866 60.1364 299.749L60.1925 298.251ZM109 293.868C108.28 293.657 108.282 293.652 108.283 293.648C108.284 293.646 108.285 293.642 108.286 293.639C108.288 293.633 108.29 293.627 108.292 293.621C108.296 293.61 108.3 293.599 108.304 293.589C108.312 293.568 108.321 293.549 108.33 293.532C108.348 293.499 108.365 293.473 108.379 293.455C108.405 293.419 108.419 293.412 108.398 293.428C108.353 293.465 108.197 293.571 107.814 293.727C107.048 294.04 105.492 294.505 102.398 295.033C96.2196 296.087 84.0501 297.368 60.1368 298.251L60.1921 299.749C84.1242 298.866 96.3725 297.582 102.65 296.511C105.785 295.977 107.466 295.49 108.381 295.116C108.839 294.929 109.134 294.759 109.33 294.604C109.429 294.525 109.511 294.444 109.576 294.358C109.608 294.315 109.637 294.27 109.661 294.223C109.674 294.2 109.684 294.176 109.694 294.152C109.699 294.14 109.704 294.128 109.708 294.116C109.71 294.11 109.712 294.104 109.714 294.098C109.715 294.095 109.716 294.09 109.717 294.089C109.718 294.084 109.72 294.08 109 293.868Z" fill="black"/>
</svg>
