<svg width="162" height="419" viewBox="0 0 162 419" fill="none" xmlns="http://www.w3.org/2000/svg">
<path d="M81.5 235.659C69.3909 235.659 39.4545 233.886 26 233C33.9886 284.844 50.4705 393.318 52.4886 412.46C83.7705 423.095 105.886 416.005 113.034 411.131L137 233C123.545 233.886 93.6091 235.659 81.5 235.659Z" stroke="black" stroke-width="1.5"/>
<path d="M1 229.968V214C13.4153 216.903 44.2262 223.194 76.541 223.194C108.856 223.194 145.787 217.871 161 214.968V229.968C156.279 237.226 115.151 244 76.541 244C37.9311 244 6.2459 235.774 1 229.968Z" fill="white" stroke="black" stroke-width="1.5"/>
<path d="M15 206.947L15 191C24.8909 192.917 49.8118 195.544 82.9837 195.792C116.156 196.04 142.345 191.958 151 191V206.947C139.623 210.471 118.569 214 82.9837 214C62.805 213.624 29.1676 211.198 15 206.947Z" stroke="black" stroke-width="1.5"/>
<path d="M1 213.892L15.1176 207C25.0523 208.838 48.7272 213.274 82.0458 213.432C119.301 213.61 143.614 208.838 151.065 207L161 214.351C153.549 218.946 117.789 224 82.0458 224C60.9346 224 14.6601 219.405 1 213.892Z" fill="white"/>
<path d="M15.1176 207L15.2541 206.263L15.0109 206.218L14.7886 206.326L15.1176 207ZM1 213.892L0.67098 213.218C0.404793 213.348 0.240024 213.622 0.250466 213.918C0.260908 214.214 0.444606 214.477 0.719287 214.587L1 213.892ZM161 214.351L161.394 214.99C161.606 214.859 161.739 214.632 161.749 214.383C161.76 214.134 161.646 213.897 161.446 213.748L161 214.351ZM151.065 207L151.511 206.397L151.228 206.187L150.886 206.272L151.065 207ZM82.0458 213.432L82.0422 214.182L82.0458 213.432ZM14.7886 206.326L0.67098 213.218L1.32902 214.566L15.4467 207.674L14.7886 206.326ZM0.719287 214.587C4.20977 215.996 9.72736 217.328 16.3225 218.535C22.9326 219.745 30.6746 220.838 38.6427 221.759C54.5742 223.598 71.4514 224.75 82.0458 224.75V223.25C71.529 223.25 54.7134 222.104 38.8148 220.268C30.8679 219.351 23.1605 218.262 16.5926 217.06C10.0096 215.855 4.62029 214.544 1.28071 213.196L0.719287 214.587ZM82.0458 224.75C99.9495 224.75 117.857 223.484 132.228 221.643C139.412 220.722 145.723 219.656 150.712 218.529C155.667 217.41 159.413 216.211 161.394 214.99L160.606 213.713C158.862 214.789 155.343 215.945 150.381 217.066C145.452 218.179 139.192 219.238 132.037 220.155C117.729 221.989 99.8849 223.25 82.0458 223.25V224.75ZM161.446 213.748L151.511 206.397L150.619 207.603L160.554 214.954L161.446 213.748ZM150.886 206.272C143.494 208.095 119.242 212.859 82.0493 212.682L82.0422 214.182C119.36 214.36 143.735 209.581 151.245 207.728L150.886 206.272ZM82.0493 212.682C48.7974 212.524 25.1737 208.098 15.2541 206.263L14.9812 207.737C24.9309 209.578 48.6571 214.024 82.0422 214.182L82.0493 212.682Z" fill="black"/>
<path d="M1 191.632V176C13.4153 178.842 44.2262 187.368 76.541 187.368C108.856 187.368 145.787 179.789 161 176.947V191.632C156.279 198.737 117.459 203 78.8492 203C40.2393 203 6.2459 197.316 1 191.632Z" fill="white" stroke="black" stroke-width="1.5"/>
<path d="M79.6885 189C31.8459 189 1 183.316 1 176.684C1 171.789 16.7377 162 79.6885 162C142.639 162 160.126 171.789 161 176.684C159.426 183.789 127.531 189 79.6885 189Z" fill="#BCF352" stroke="black" stroke-width="1.5"/>
<path d="M106.432 1H56.0719L46 95.3134V175.015C58.0863 180.328 100.892 180.328 116 175.015V95.3134L106.432 1Z" fill="white" stroke="black" stroke-width="1.5"/>
</svg>
