<svg width="162" height="434" viewBox="0 0 162 434" fill="none" xmlns="http://www.w3.org/2000/svg">
<path d="M81.5 269.4C70.9182 269.4 44.7576 267.8 33 267C39.9811 313.8 50.7364 410.519 52.5 427.799C79.8364 437.399 108.754 432.199 115 427.799L130 267C118.242 267.8 92.0818 269.4 81.5 269.4Z" stroke="black" stroke-width="1.5"/>
<path d="M1 266.435V251C13.4153 253.806 44.2262 259.887 76.541 259.887C108.856 259.887 145.787 254.742 161 251.935V266.435C156.279 273.452 115.151 280 76.541 280C37.9311 280 6.2459 272.048 1 266.435Z" fill="white" stroke="black" stroke-width="1.5"/>
<path d="M15 243.947L15 228C24.8909 229.917 49.8118 232.544 82.9837 232.792C116.156 233.04 142.345 228.958 151 228V243.947C139.623 247.471 118.569 251 82.9837 251C62.805 250.624 29.1676 248.198 15 243.947Z" stroke="black" stroke-width="1.5"/>
<path d="M1 250.486L15.1176 244C25.0523 245.73 48.7272 249.905 82.0458 250.054C119.301 250.221 143.614 245.73 151.065 244L161 250.919C153.549 255.243 117.789 260 82.0458 260C60.9346 260 14.6601 255.676 1 250.486Z" fill="white"/>
<path d="M15.1176 244L15.2463 243.261L15.0165 243.221L14.8045 243.318L15.1176 244ZM1 250.486L0.686875 249.805C0.412264 249.931 0.240208 250.21 0.250429 250.512C0.26065 250.814 0.451149 251.08 0.733661 251.188L1 250.486ZM161 250.919L161.376 251.568C161.598 251.439 161.739 251.206 161.749 250.95C161.76 250.694 161.639 250.45 161.429 250.303L161 250.919ZM151.065 244L151.494 243.385L151.22 243.194L150.896 243.269L151.065 244ZM82.0458 250.054L82.0424 250.804L82.0458 250.054ZM14.8045 243.318L0.686875 249.805L1.31313 251.168L15.4308 244.682L14.8045 243.318ZM0.733661 251.188C7.66905 253.822 22.751 256.207 38.6477 257.935C54.5782 259.666 71.4537 260.75 82.0458 260.75V259.25C71.5267 259.25 54.7093 258.172 38.8098 256.444C22.8765 254.712 7.99108 252.34 1.26634 249.785L0.733661 251.188ZM82.0458 260.75C99.9476 260.75 117.853 259.559 132.222 257.826C139.406 256.959 145.715 255.956 150.702 254.896C155.657 253.843 159.398 252.716 161.376 251.568L160.624 250.27C158.876 251.284 155.353 252.374 150.39 253.429C145.46 254.477 139.198 255.473 132.043 256.336C117.733 258.063 99.8868 259.25 82.0458 259.25V260.75ZM161.429 250.303L151.494 243.385L150.637 244.615L160.571 251.534L161.429 250.303ZM150.896 243.269C143.501 244.986 119.245 249.471 82.0491 249.304L82.0424 250.804C119.356 250.971 143.728 246.473 151.235 244.731L150.896 243.269ZM82.0491 249.304C48.7932 249.155 25.1667 244.988 15.2463 243.261L14.989 244.739C24.9379 246.471 48.6612 250.655 82.0424 250.804L82.0491 249.304Z" fill="black"/>
<path d="M1 229.053V214C13.4153 216.737 44.2262 224.947 76.541 224.947C108.856 224.947 145.787 217.649 161 214.912V229.053C156.279 235.895 117.459 240 78.8492 240C40.2393 240 6.2459 234.526 1 229.053Z" fill="white" stroke="black" stroke-width="1.5"/>
<path d="M79.6885 226C31.8459 226 1 220.526 1 214.14C1 209.427 16.7377 200 79.6885 200C142.639 200 160.126 209.427 161 214.14C159.426 220.982 127.531 226 79.6885 226Z" fill="#BCF352" stroke="black" stroke-width="1.5"/>
<path d="M112.381 1H51.2302L39 188.011V215.097C53.6763 221.634 105.655 221.634 124 215.097V188.011L112.381 1Z" fill="white" stroke="black" stroke-width="1.5"/>
</svg>
