<svg width="192" height="403" viewBox="0 0 192 403" fill="none" xmlns="http://www.w3.org/2000/svg">
<path d="M96 193.047C81.1636 193.047 44.4848 191.016 28 190C37.7879 249.411 57.9818 373.716 60.4545 395.652C98.7818 407.839 125.879 399.714 134.636 394.129L164 190C147.515 191.016 110.836 193.047 96 193.047Z" stroke="black" stroke-width="1.5"/>
<path d="M1 187.629V169C15.7432 172.387 52.3311 179.726 90.7049 179.726C129.079 179.726 172.934 173.516 191 170.129V187.629C185.393 196.097 136.554 204 90.7049 204C44.8557 204 7.22951 194.403 1 187.629Z" fill="white" stroke="black" stroke-width="1.5"/>
<path d="M18 160.413L18 141C29.7091 143.333 59.211 146.531 98.4807 146.833C137.75 147.135 168.755 142.167 179 141V160.413C165.532 164.704 140.608 169 98.4807 169C74.5927 168.542 34.7719 165.589 18 160.413Z" stroke="black" stroke-width="1.5"/>
<path d="M1 168.514L17.7647 160C29.5621 162.27 57.6761 167.75 97.2418 167.946C141.482 168.165 170.355 162.27 179.203 160L191 169.081C182.152 174.757 139.687 181 97.2418 181C72.1724 181 17.2214 175.324 1 168.514Z" fill="white"/>
<path d="M17.7647 160L17.9064 159.264L17.6542 159.215L17.4251 159.331L17.7647 160ZM1 168.514L0.660411 167.845C0.399891 167.977 0.23992 168.249 0.250491 168.541C0.261062 168.833 0.44025 169.092 0.709655 169.205L1 168.514ZM191 169.081L191.405 169.712C191.61 169.581 191.739 169.357 191.749 169.113C191.76 168.869 191.651 168.636 191.457 168.487L191 169.081ZM179.203 160L179.66 159.406L179.37 159.183L179.016 159.274L179.203 160ZM97.2418 167.946L97.2381 168.696L97.2418 167.946ZM17.4251 159.331L0.660411 167.845L1.33959 169.182L18.1043 160.669L17.4251 159.331ZM0.709655 169.205C4.84244 170.94 11.3845 172.583 19.2155 174.075C27.0619 175.569 36.2529 176.919 45.7134 178.055C64.6296 180.328 84.6667 181.75 97.2418 181.75V180.25C84.7475 180.25 64.7744 178.834 45.8924 176.566C36.4538 175.432 27.2987 174.087 19.4961 172.601C11.6781 171.112 5.26826 169.492 1.29035 167.822L0.709655 169.205ZM97.2418 181.75C118.498 181.75 139.758 180.187 156.819 177.912C165.348 176.775 172.838 175.459 178.758 174.068C184.644 172.685 189.073 171.208 191.405 169.712L190.595 168.45C188.503 169.792 184.306 171.224 178.415 172.608C172.557 173.984 165.119 175.292 156.621 176.425C139.625 178.691 118.431 180.25 97.2418 180.25V181.75ZM191.457 168.487L179.66 159.406L178.745 160.594L190.543 169.675L191.457 168.487ZM179.016 159.274C170.229 161.528 141.42 167.415 97.2455 167.196L97.2381 168.696C141.544 168.915 170.48 163.012 179.389 160.726L179.016 159.274ZM97.2455 167.196C57.749 167 29.6883 161.531 17.9064 159.264L17.623 160.736C29.4359 163.01 57.6032 168.5 97.2381 168.696L97.2455 167.196Z" fill="black"/>
<path d="M1 142.526V124C15.7432 127.368 52.3311 137.474 90.7049 137.474C129.079 137.474 172.934 128.491 191 125.123V142.526C185.393 150.947 139.295 156 93.4459 156C47.5967 156 7.22951 149.263 1 142.526Z" fill="white" stroke="black" stroke-width="1.5"/>
<path d="M94.4426 139C37.6295 139 1 132.263 1 124.404C1 118.602 19.6885 107 94.4426 107C169.197 107 189.962 118.602 191 124.404C189.131 132.825 151.256 139 94.4426 139Z" fill="#BCF352" stroke="black" stroke-width="1.5"/>
<path d="M112.849 1H80.4748L74 68.8209V126.134C81.7698 129.955 109.288 129.955 119 126.134V68.8209L112.849 1Z" fill="white" stroke="black" stroke-width="1.5"/>
</svg>
