<svg width="183" height="398" viewBox="0 0 183 398" fill="none" xmlns="http://www.w3.org/2000/svg">
<path d="M92.0001 294.447C76.9455 294.447 39.7274 293.482 23.0001 293C22.9999 321.356 23 379.047 23.0001 389.975C38 396.5 118.451 397.5 124.951 395.5V383.5C131.617 383.833 144.5 382 151 380L151 392.5C151 392.5 156.5 392.5 161 389.975L161 293C144.273 293.482 107.055 294.447 92.0001 294.447Z" stroke="black" stroke-width="1.5"/>
<path d="M1 284.97V233.834C18.1536 238.567 50.6863 241.266 87.3595 242.844C123.796 242.844 167.212 238.525 182 233V284.97C177.268 291.675 130.894 299 87.3595 299C43.8248 299 5.73203 289.722 1 284.97Z" fill="white"/>
<path d="M1 233.834L1.19948 233.111C0.973769 233.048 0.731925 233.095 0.545638 233.237C0.359351 233.379 0.25 233.6 0.25 233.834H1ZM1 284.97H0.25V285.28L0.468573 285.5L1 284.97ZM182 284.97L182.613 285.403L182.75 285.208V284.97H182ZM182 233H182.75C182.75 232.754 182.63 232.524 182.428 232.384C182.226 232.244 181.968 232.211 181.738 232.297L182 233ZM87.3595 242.844L87.3272 243.593L87.3433 243.594H87.3595V242.844ZM0.25 233.834V284.97H1.75V233.834H0.25ZM0.468573 285.5C1.16329 286.197 2.38471 286.908 3.97683 287.622C5.59239 288.346 7.66867 289.109 10.144 289.883C15.0965 291.432 21.6922 293.044 29.4907 294.504C45.0889 297.426 65.5421 299.75 87.3595 299.75V298.25C65.6422 298.25 45.2816 295.936 29.7668 293.03C22.0088 291.577 15.4731 289.978 10.5918 288.451C8.15033 287.688 6.13414 286.945 4.5907 286.253C3.02382 285.55 2.01972 284.931 1.53143 284.441L0.468573 285.5ZM87.3595 299.75C109.164 299.75 131.679 297.916 149.343 295.241C158.173 293.904 165.809 292.354 171.545 290.712C174.411 289.892 176.822 289.043 178.677 288.178C180.502 287.327 181.901 286.412 182.613 285.403L181.387 284.538C180.916 285.205 179.831 285.985 178.043 286.819C176.287 287.637 173.959 288.461 171.132 289.27C165.481 290.887 157.915 292.426 149.118 293.758C131.529 296.422 109.089 298.25 87.3595 298.25V299.75ZM182.75 284.97V233H181.25V284.97H182.75ZM181.738 232.297C174.445 235.022 159.983 237.477 142.722 239.248C125.489 241.016 105.551 242.094 87.3595 242.094V243.594C105.604 243.594 125.593 242.513 142.875 240.74C160.127 238.97 174.768 236.503 182.262 233.703L181.738 232.297ZM87.3917 242.095C50.702 240.516 18.2567 237.817 1.19948 233.111L0.80052 234.557C18.0505 239.316 50.6705 242.016 87.3272 243.593L87.3917 242.095Z" fill="black"/>
<path d="M1 234.109L16.3791 229.639C27.6176 230.916 70.7974 234.428 92.683 234.428C127.582 234.428 161.297 229.958 170.17 229C170.17 229 176.676 231.333 182 233.2C178.451 236 147.693 243 92.683 243C46.5457 243 16.453 237.94 1 234.109Z" fill="white"/>
<path d="M16.3791 229.639L16.4638 228.893L16.3143 228.876L16.1697 228.918L16.3791 229.639ZM1 234.109L0.790664 233.389C0.465011 233.483 0.243396 233.785 0.250149 234.124C0.256901 234.463 0.49034 234.755 0.819503 234.837L1 234.109ZM182 233.2L182.465 233.789C182.679 233.619 182.785 233.346 182.74 233.077C182.695 232.807 182.506 232.583 182.248 232.492L182 233.2ZM170.17 229L170.423 228.294L170.261 228.236L170.089 228.254L170.17 229ZM16.1697 228.918L0.790664 233.389L1.20934 234.829L16.5884 230.359L16.1697 228.918ZM0.819503 234.837C16.3386 238.685 46.4927 243.75 92.683 243.75V242.25C46.5988 242.25 16.5674 237.196 1.1805 233.381L0.819503 234.837ZM92.683 243.75C120.219 243.75 141.696 241.998 156.743 239.893C164.266 238.84 170.189 237.698 174.463 236.641C176.599 236.112 178.332 235.602 179.651 235.131C180.944 234.67 181.916 234.221 182.465 233.789L181.535 232.611C181.197 232.879 180.431 233.261 179.148 233.719C177.89 234.167 176.209 234.663 174.103 235.184C169.892 236.227 164.022 237.36 156.535 238.407C141.564 240.502 120.157 242.25 92.683 242.25V243.75ZM182.248 232.492C179.588 231.56 176.632 230.51 174.34 229.694C173.195 229.285 172.215 228.935 171.522 228.688C171.176 228.564 170.901 228.465 170.713 228.398C170.619 228.364 170.546 228.338 170.497 228.321C170.473 228.312 170.454 228.305 170.442 228.301C170.436 228.299 170.431 228.297 170.428 228.296C170.426 228.295 170.425 228.295 170.424 228.294C170.424 228.294 170.424 228.294 170.423 228.294C170.423 228.294 170.423 228.294 170.423 228.294C170.423 228.294 170.423 228.294 170.17 229C169.917 229.706 169.917 229.706 169.917 229.706C169.917 229.706 169.917 229.706 169.917 229.706C169.917 229.706 169.918 229.706 169.918 229.706C169.919 229.707 169.92 229.707 169.922 229.708C169.925 229.709 169.929 229.711 169.936 229.713C169.948 229.717 169.967 229.724 169.991 229.733C170.04 229.75 170.113 229.776 170.207 229.81C170.395 229.877 170.67 229.976 171.017 230.1C171.711 230.348 172.691 230.698 173.837 231.106C176.129 231.923 179.088 232.974 181.752 233.908L182.248 232.492ZM170.089 228.254C161.197 229.214 127.531 233.678 92.683 233.678V235.178C127.632 235.178 161.397 230.701 170.25 229.746L170.089 228.254ZM92.683 233.678C70.837 233.678 27.6884 230.169 16.4638 228.893L16.2944 230.384C27.5469 231.663 70.7577 235.178 92.683 235.178V233.678Z" fill="black"/>
<path d="M16 229.462V223C27.1273 224 55.1633 225.371 92.4816 225.5C129.8 225.629 159.264 223.5 169 223V228.538C156.201 230.377 143.108 235 92.4816 235C48.3654 235 31.9385 231.68 16 229.462Z" fill="white" stroke="black" stroke-width="1.5"/>
<path d="M2 220V210C16.013 212.105 50.1988 218.421 86.6721 218.421C123.145 218.421 164.829 212.807 182 210.702V219.048C176.671 224.311 132.856 230 89.2773 230C45.6988 230 7.92099 224.211 2 220Z" fill="white" stroke="black" stroke-width="1.5"/>
<path d="M90.5246 223C36.7016 223 2 217.316 2 210.684C2 205.789 19.7049 196 90.5246 196C161.344 196 181.016 205.789 182 210.684C180.23 217.789 144.348 223 90.5246 223Z" fill="#BCF352" stroke="black" stroke-width="1.5"/>
<path d="M111.345 1H71.0576L63 86.5V210.209C72.6691 216.597 106.914 216.597 119 210.209V86.5L111.345 1Z" fill="white" stroke="black" stroke-width="1.5"/>
</svg>
