<svg width="166" height="386" viewBox="0 0 166 386" fill="none" xmlns="http://www.w3.org/2000/svg">
<path d="M83.5 281.475C70.0819 281.475 36.9092 280.492 22.0001 280C22 308.907 22 367.718 22.0001 378.858C30.0217 386.017 131.63 388.017 145 378.858L145 280C130.091 280.492 96.9182 281.475 83.5 281.475Z" stroke="black" stroke-width="1.5"/>
<path d="M1 289.872V235.993C16.5425 241.096 46.0196 242.747 79.2484 244.448C112.263 244.448 151.601 240.957 165 235V289.872C160.712 297.102 118.694 305 79.2484 305C39.8026 305 5.28758 294.996 1 289.872Z" fill="white"/>
<path d="M1 235.993L1.23397 235.28C1.00549 235.205 0.754881 235.244 0.560103 235.385C0.365324 235.527 0.25 235.752 0.25 235.993H1ZM1 289.872H0.25V290.144L0.424822 290.353L1 289.872ZM165 289.872L165.645 290.255L165.75 290.078V289.872H165ZM165 235H165.75C165.75 234.746 165.622 234.509 165.409 234.371C165.196 234.233 164.927 234.212 164.695 234.315L165 235ZM79.2484 244.448L79.21 245.197L79.2292 245.198H79.2484V244.448ZM0.25 235.993V289.872H1.75V235.993H0.25ZM0.424822 290.353C1.05708 291.109 2.17211 291.881 3.62218 292.655C5.09239 293.44 6.97955 294.264 9.22642 295.1C13.7218 296.774 19.7053 298.513 26.7767 300.089C40.9208 303.242 59.4658 305.75 79.2484 305.75V304.25C59.5852 304.25 41.1498 301.756 27.103 298.625C20.079 297.06 14.1645 295.338 9.74972 293.694C7.54153 292.872 5.7206 292.075 4.32851 291.331C2.91629 290.578 2.01482 289.916 1.57518 289.391L0.424822 290.353ZM79.2484 305.75C99.0158 305.75 119.426 303.771 135.442 300.885C143.447 299.443 150.374 297.77 155.581 295.996C158.184 295.109 160.376 294.191 162.066 293.254C163.733 292.329 165.004 291.335 165.645 290.255L164.355 289.489C163.924 290.217 162.944 291.051 161.338 291.942C159.755 292.82 157.654 293.705 155.098 294.576C149.988 296.316 143.141 297.974 135.175 299.409C119.248 302.279 98.9267 304.25 79.2484 304.25V305.75ZM165.75 289.872V235H164.25V289.872H165.75ZM164.695 234.315C158.119 237.239 145.049 239.594 129.403 241.212C113.795 242.826 95.7322 243.698 79.2484 243.698V245.198C95.7789 245.198 113.893 244.324 129.557 242.704C145.184 241.088 158.482 238.719 165.305 235.685L164.695 234.315ZM79.2867 243.699C62.6695 242.848 47.009 242.011 33.5619 240.749C20.1014 239.487 8.91911 237.804 1.23397 235.28L0.766026 236.705C8.62338 239.285 19.9509 240.979 33.4218 242.243C46.906 243.508 62.5985 244.346 79.21 245.197L79.2867 243.699Z" fill="black"/>
<path d="M1 235.474L14.9346 230.684C25.1176 232.053 64.2418 235.816 84.0719 235.816C115.693 235.816 146.242 231.026 154.281 230C154.281 230 160.176 232.5 165 234.5C161.784 237.5 133.915 245 84.0719 245C42.268 245 15.0016 239.579 1 235.474Z" fill="white"/>
<path d="M14.9346 230.684L15.0345 229.941L14.8587 229.917L14.6909 229.975L14.9346 230.684ZM1 235.474L0.756216 234.764C0.447364 234.871 0.24271 235.164 0.250197 235.491C0.257684 235.817 0.475591 236.102 0.788984 236.193L1 235.474ZM165 234.5L165.512 235.048C165.698 234.874 165.783 234.618 165.738 234.367C165.693 234.116 165.523 233.905 165.287 233.807L165 234.5ZM154.281 230L154.574 229.31L154.387 229.23L154.186 229.256L154.281 230ZM14.6909 229.975L0.756216 234.764L1.24378 236.183L15.1784 231.393L14.6909 229.975ZM0.788984 236.193C14.8667 240.321 42.2048 245.75 84.0719 245.75V244.25C42.3311 244.25 15.1366 238.837 1.21102 234.754L0.788984 236.193ZM84.0719 245.75C109.03 245.75 128.499 243.872 142.144 241.615C148.965 240.486 154.338 239.262 158.218 238.126C160.157 237.558 161.733 237.01 162.935 236.504C164.112 236.007 165.006 235.52 165.512 235.048L164.488 233.952C164.19 234.23 163.51 234.633 162.352 235.121C161.22 235.599 159.701 236.129 157.797 236.686C153.989 237.801 148.677 239.014 141.899 240.135C128.344 242.378 108.957 244.25 84.0719 244.25V245.75ZM165.287 233.807C162.877 232.808 160.199 231.684 158.123 230.809C157.085 230.371 156.198 229.997 155.57 229.731C155.256 229.598 155.007 229.493 154.836 229.421C154.751 229.385 154.685 229.357 154.641 229.338C154.619 229.329 154.602 229.322 154.591 229.317C154.585 229.314 154.581 229.313 154.578 229.311C154.577 229.311 154.576 229.31 154.575 229.31C154.575 229.31 154.574 229.31 154.574 229.31C154.574 229.31 154.574 229.31 154.574 229.31C154.574 229.31 154.574 229.31 154.281 230C153.988 230.69 153.988 230.69 153.988 230.691C153.988 230.691 153.988 230.691 153.989 230.691C153.989 230.691 153.989 230.691 153.989 230.691C153.99 230.691 153.991 230.692 153.993 230.692C153.995 230.694 154 230.695 154.005 230.698C154.017 230.703 154.034 230.71 154.056 230.719C154.1 230.738 154.166 230.766 154.251 230.802C154.422 230.874 154.671 230.98 154.985 231.113C155.614 231.378 156.502 231.754 157.541 232.191C159.618 233.066 162.299 234.192 164.713 235.193L165.287 233.807ZM154.186 229.256C146.124 230.285 115.633 235.066 84.0719 235.066V236.566C115.753 236.566 146.36 231.767 154.376 230.744L154.186 229.256ZM84.0719 235.066C64.2887 235.066 25.2012 231.307 15.0345 229.941L14.8348 231.428C25.0341 232.798 64.1949 236.566 84.0719 236.566V235.066Z" fill="black"/>
<path d="M15 231L15 224C25.1091 225.083 50.5797 226.568 84.4833 226.708C118.387 226.849 145.155 224.542 154 224V230C142.373 231.992 130.477 237 84.4833 237C44.4038 237 29.4801 233.403 15 231Z" fill="white" stroke="black" stroke-width="1.5"/>
<path d="M2 220.5V210C14.6896 212.211 45.6467 218.842 78.6753 218.842C111.704 218.842 149.451 212.947 165 210.737V219.5C160.174 225.026 120.497 231 81.0344 231C41.5717 231 7.36178 224.921 2 220.5Z" fill="white" stroke="black" stroke-width="1.5"/>
<path d="M82.1639 224C33.4243 224 2 217.895 2 210.772C2 205.515 18.0328 195 82.1639 195C146.295 195 164.109 205.515 165 210.772C163.397 218.404 130.904 224 82.1639 224Z" fill="#BCF352" stroke="black" stroke-width="1.5"/>
<path d="M121.647 1H46.1079L31 115.448V212.164C49.1295 218.612 113.338 218.612 136 212.164V115.448L121.647 1Z" fill="white" stroke="black" stroke-width="1.5"/>
</svg>
