<svg width="131" height="391" viewBox="0 0 131 391" fill="none" xmlns="http://www.w3.org/2000/svg">
<path d="M67 300.279C56.5273 300.279 30.6364 299.426 19.0001 299C19 324.053 19 375.022 19.0001 384.677C25.2609 390.881 104.565 392.615 115 384.677L115 299C103.364 299.426 77.4728 300.279 67 300.279Z" stroke="black" stroke-width="1.5"/>
<path d="M1 319.033V271.771C13.2255 276.145 36.4118 278.64 62.549 280.098C88.5176 280.098 119.461 276.106 130 271V319.033C126.627 325.23 93.5765 332 62.549 332C31.5216 332 4.37255 323.425 1 319.033Z" fill="white"/>
<path d="M1 271.771L1.25267 271.064C1.02295 270.982 0.767615 271.017 0.568144 271.157C0.368673 271.298 0.25 271.527 0.25 271.771H1ZM1 319.033H0.25V319.288L0.40516 319.49L1 319.033ZM130 319.033L130.659 319.392L130.75 319.224V319.033H130ZM130 271H130.75C130.75 270.742 130.617 270.502 130.398 270.364C130.179 270.227 129.905 270.212 129.673 270.325L130 271ZM62.549 280.098L62.5072 280.847L62.5281 280.848H62.549V280.098ZM0.25 271.771V319.033H1.75V271.771H0.25ZM0.40516 319.49C0.918259 320.158 1.81553 320.832 2.96328 321.5C4.1292 322.178 5.62199 322.888 7.39467 323.607C10.9415 325.046 15.6577 326.54 21.2269 327.893C32.3665 330.598 46.9702 332.75 62.549 332.75V331.25C47.1004 331.25 32.6158 329.115 21.5809 326.435C16.0629 325.095 11.4202 323.622 7.95852 322.217C6.22691 321.515 4.80297 320.835 3.71745 320.203C2.61376 319.561 1.92488 319.006 1.59484 318.577L0.40516 319.49ZM62.549 332.75C78.1113 332.75 94.1794 331.053 106.79 328.577C113.093 327.339 118.553 325.902 122.662 324.377C124.716 323.615 126.452 322.823 127.794 322.012C129.117 321.212 130.141 320.343 130.659 319.392L129.341 318.675C129.016 319.273 128.269 319.971 127.018 320.728C125.786 321.473 124.144 322.227 122.14 322.971C118.134 324.458 112.76 325.876 106.501 327.105C93.9854 329.563 78.0141 331.25 62.549 331.25V332.75ZM130.75 319.033V271H129.25V319.033H130.75ZM129.673 270.325C124.524 272.82 114.264 275.084 101.962 276.721C89.6938 278.353 75.4989 279.348 62.549 279.348V280.848C75.5678 280.848 89.8288 279.848 102.159 278.207C114.456 276.572 124.937 274.287 130.327 271.675L129.673 270.325ZM62.5908 279.349C36.434 277.89 13.3585 275.396 1.25267 271.064L0.747333 272.477C13.0924 276.894 36.3896 279.39 62.5072 280.847L62.5908 279.349Z" fill="black"/>
<path d="M1 271.744L11.9608 267.593C19.9706 268.779 50.7451 272.04 66.3431 272.04C91.2157 272.04 115.245 267.889 121.569 267C121.569 267 126.206 269.167 130 270.9C127.471 273.5 105.549 280 66.3431 280C33.4608 280 12.0135 275.302 1 271.744Z" fill="white"/>
<path d="M11.9608 267.593L12.0706 266.851L11.8776 266.822L11.6952 266.892L11.9608 267.593ZM1 271.744L0.734382 271.042C0.436476 271.155 0.242339 271.444 0.25023 271.762C0.258121 272.081 0.466318 272.36 0.769445 272.458L1 271.744ZM130 270.9L130.538 271.423C130.708 271.248 130.782 271.002 130.737 270.762C130.692 270.522 130.534 270.319 130.312 270.218L130 270.9ZM121.569 267L121.886 266.321L121.685 266.226L121.464 266.257L121.569 267ZM11.6952 266.892L0.734382 271.042L1.26562 272.445L12.2264 268.294L11.6952 266.892ZM0.769445 272.458C11.865 276.042 33.3909 280.75 66.3431 280.75V279.25C33.5307 279.25 12.162 274.562 1.23055 271.03L0.769445 272.458ZM66.3431 280.75C85.9861 280.75 101.313 279.122 112.06 277.163C117.432 276.184 121.668 275.12 124.73 274.133C126.26 273.639 127.508 273.161 128.463 272.718C129.393 272.285 130.12 271.852 130.538 271.423L129.462 270.377C129.248 270.598 128.736 270.937 127.831 271.357C126.949 271.767 125.763 272.223 124.27 272.705C121.285 273.667 117.116 274.716 111.791 275.687C101.143 277.628 85.9061 279.25 66.3431 279.25V280.75ZM130.312 270.218C128.417 269.352 126.31 268.378 124.677 267.62C123.861 267.241 123.163 266.916 122.669 266.686C122.422 266.571 122.227 266.479 122.092 266.417C122.025 266.386 121.974 266.361 121.939 266.345C121.922 266.337 121.908 266.331 121.899 266.327C121.895 266.325 121.892 266.323 121.889 266.322C121.888 266.322 121.887 266.321 121.887 266.321C121.887 266.321 121.886 266.321 121.886 266.321C121.886 266.321 121.886 266.321 121.886 266.321C121.886 266.321 121.886 266.321 121.569 267C121.251 267.679 121.251 267.679 121.251 267.68C121.251 267.68 121.251 267.68 121.251 267.68C121.252 267.68 121.252 267.68 121.252 267.68C121.253 267.68 121.253 267.681 121.255 267.681C121.257 267.682 121.26 267.684 121.265 267.686C121.274 267.69 121.287 267.696 121.304 267.704C121.339 267.721 121.391 267.745 121.458 267.776C121.592 267.839 121.789 267.93 122.036 268.045C122.53 268.276 123.229 268.601 124.046 268.98C125.68 269.739 127.789 270.715 129.688 271.582L130.312 270.218ZM121.464 266.257C115.115 267.15 91.1499 271.29 66.3431 271.29V272.79C91.2814 272.79 115.375 268.629 121.673 267.743L121.464 266.257ZM66.3431 271.29C50.7968 271.29 20.0626 268.034 12.0706 266.851L11.8509 268.335C19.8786 269.523 50.6934 272.79 66.3431 272.79V271.29Z" fill="black"/>
<path d="M12 267.923L12 262C19.9273 262.917 39.9006 264.173 66.4869 264.292C93.0732 264.41 114.064 262.458 121 262V267.077C111.882 268.762 102.554 273 66.4869 273C35.0577 273 23.3549 269.957 12 267.923Z" fill="white" stroke="black" stroke-width="1.5"/>
<path d="M2 259V250C11.9648 251.895 36.2747 257.579 62.2113 257.579C88.1478 257.579 117.79 252.526 130 250.632V258.143C126.211 262.88 95.053 268 64.0639 268C33.0747 268 6.21048 262.789 2 259Z" fill="white" stroke="black" stroke-width="1.5"/>
<path d="M64.9508 262C26.6767 262 2 256.737 2 250.596C2 246.064 14.5902 237 64.9508 237C115.311 237 129.301 246.064 130 250.596C128.741 257.175 103.225 262 64.9508 262Z" fill="#BCF352" stroke="black" stroke-width="1.5"/>
<path d="M93.0216 1H40.5036L30 135.582V249.313C42.6043 256.896 87.2446 256.896 103 249.313V135.582L93.0216 1Z" fill="white" stroke="black" stroke-width="1.5"/>
</svg>
