<svg width="183" height="373" viewBox="0 0 183 373" fill="none" xmlns="http://www.w3.org/2000/svg">
<path d="M92 282.279C80.4364 282.279 51.8485 281.426 39.0001 281C39 306.053 39 357.022 39.0001 366.677C45.913 372.881 133.478 374.615 145 366.677L145 281C132.152 281.426 103.564 282.279 92 282.279Z" stroke="black" stroke-width="1.5"/>
<path d="M1 285.97V234.834C18.1536 239.567 50.6863 242.266 87.3595 243.844C123.796 243.844 167.212 239.525 182 234V285.97C177.268 292.675 130.894 300 87.3595 300C43.8248 300 5.73203 290.722 1 285.97Z" fill="white"/>
<path d="M1 234.834L1.19948 234.111C0.973769 234.048 0.731925 234.095 0.545638 234.237C0.359351 234.379 0.25 234.6 0.25 234.834H1ZM1 285.97H0.25V286.28L0.468573 286.5L1 285.97ZM182 285.97L182.613 286.403L182.75 286.208V285.97H182ZM182 234H182.75C182.75 233.754 182.63 233.524 182.428 233.384C182.226 233.244 181.968 233.211 181.738 233.297L182 234ZM87.3595 243.844L87.3272 244.593L87.3433 244.594H87.3595V243.844ZM0.25 234.834V285.97H1.75V234.834H0.25ZM0.468573 286.5C1.16329 287.197 2.38471 287.908 3.97683 288.622C5.59239 289.346 7.66867 290.109 10.144 290.883C15.0965 292.432 21.6922 294.044 29.4907 295.504C45.0889 298.426 65.5421 300.75 87.3595 300.75V299.25C65.6422 299.25 45.2816 296.936 29.7668 294.03C22.0088 292.577 15.4731 290.978 10.5918 289.451C8.15033 288.688 6.13414 287.945 4.5907 287.253C3.02382 286.55 2.01972 285.931 1.53143 285.441L0.468573 286.5ZM87.3595 300.75C109.164 300.75 131.679 298.916 149.343 296.241C158.173 294.904 165.809 293.354 171.545 291.712C174.411 290.892 176.822 290.043 178.677 289.178C180.502 288.327 181.901 287.412 182.613 286.403L181.387 285.538C180.916 286.205 179.831 286.985 178.043 287.819C176.287 288.637 173.959 289.461 171.132 290.27C165.481 291.887 157.915 293.426 149.118 294.758C131.529 297.422 109.089 299.25 87.3595 299.25V300.75ZM182.75 285.97V234H181.25V285.97H182.75ZM181.738 233.297C174.445 236.022 159.983 238.477 142.722 240.248C125.489 242.016 105.551 243.094 87.3595 243.094V244.594C105.604 244.594 125.593 243.513 142.875 241.74C160.127 239.97 174.768 237.503 182.262 234.703L181.738 233.297ZM87.3917 243.095C50.702 241.516 18.2567 238.817 1.19948 234.111L0.80052 235.557C18.0505 240.316 50.6705 243.016 87.3272 244.593L87.3917 243.095Z" fill="black"/>
<path d="M1 235.109L16.3791 230.639C27.6176 231.916 70.7974 235.428 92.683 235.428C127.582 235.428 161.297 230.958 170.17 230C170.17 230 176.676 232.333 182 234.2C178.451 237 147.693 244 92.683 244C46.5457 244 16.453 238.94 1 235.109Z" fill="white"/>
<path d="M16.3791 230.639L16.4638 229.893L16.3143 229.876L16.1697 229.918L16.3791 230.639ZM1 235.109L0.790664 234.389C0.465011 234.483 0.243396 234.785 0.250149 235.124C0.256901 235.463 0.49034 235.755 0.819503 235.837L1 235.109ZM182 234.2L182.465 234.789C182.679 234.619 182.785 234.346 182.74 234.077C182.695 233.807 182.506 233.583 182.248 233.492L182 234.2ZM170.17 230L170.423 229.294L170.261 229.236L170.089 229.254L170.17 230ZM16.1697 229.918L0.790664 234.389L1.20934 235.829L16.5884 231.359L16.1697 229.918ZM0.819503 235.837C16.3386 239.685 46.4927 244.75 92.683 244.75V243.25C46.5988 243.25 16.5674 238.196 1.1805 234.381L0.819503 235.837ZM92.683 244.75C120.219 244.75 141.696 242.998 156.743 240.893C164.266 239.84 170.189 238.698 174.463 237.641C176.599 237.112 178.332 236.602 179.651 236.131C180.944 235.67 181.916 235.221 182.465 234.789L181.535 233.611C181.197 233.879 180.431 234.261 179.148 234.719C177.89 235.167 176.209 235.663 174.103 236.184C169.892 237.227 164.022 238.36 156.535 239.407C141.564 241.502 120.157 243.25 92.683 243.25V244.75ZM182.248 233.492C179.588 232.56 176.632 231.51 174.34 230.694C173.195 230.285 172.215 229.935 171.522 229.688C171.176 229.564 170.901 229.465 170.713 229.398C170.619 229.364 170.546 229.338 170.497 229.321C170.473 229.312 170.454 229.305 170.442 229.301C170.436 229.299 170.431 229.297 170.428 229.296C170.426 229.295 170.425 229.295 170.424 229.294C170.424 229.294 170.424 229.294 170.423 229.294C170.423 229.294 170.423 229.294 170.423 229.294C170.423 229.294 170.423 229.294 170.17 230C169.917 230.706 169.917 230.706 169.917 230.706C169.917 230.706 169.917 230.706 169.917 230.706C169.917 230.706 169.918 230.706 169.918 230.706C169.919 230.707 169.92 230.707 169.922 230.708C169.925 230.709 169.929 230.711 169.936 230.713C169.948 230.717 169.967 230.724 169.991 230.733C170.04 230.75 170.113 230.776 170.207 230.81C170.395 230.877 170.67 230.976 171.017 231.1C171.711 231.348 172.691 231.698 173.837 232.106C176.129 232.923 179.088 233.974 181.752 234.908L182.248 233.492ZM170.089 229.254C161.197 230.214 127.531 234.678 92.683 234.678V236.178C127.632 236.178 161.397 231.701 170.25 230.746L170.089 229.254ZM92.683 234.678C70.837 234.678 27.6884 231.169 16.4638 229.893L16.2944 231.384C27.5469 232.663 70.7577 236.178 92.683 236.178V234.678Z" fill="black"/>
<path d="M16 230.462V224C27.1273 225 55.1633 226.371 92.4816 226.5C129.8 226.629 159.264 224.5 169 224V229.538C156.201 231.377 143.108 236 92.4816 236C48.3654 236 31.9385 232.68 16 230.462Z" fill="white" stroke="black" stroke-width="1.5"/>
<path d="M2 221V211C16.013 213.105 50.1988 219.421 86.6721 219.421C123.145 219.421 164.829 213.807 182 211.702V220.048C176.671 225.311 132.856 231 89.2773 231C45.6988 231 7.92099 225.211 2 221Z" fill="white" stroke="black" stroke-width="1.5"/>
<path d="M90.5246 224C36.7016 224 2 218.316 2 211.684C2 206.789 19.7049 197 90.5246 197C161.344 197 181.016 206.789 182 211.684C180.23 218.789 144.348 224 90.5246 224Z" fill="#BCF352" stroke="black" stroke-width="1.5"/>
<path d="M123.835 1H59.8058L47 132.5V210.209C62.3669 216.597 116.791 216.597 136 210.209V132.5L123.835 1Z" fill="white" stroke="black" stroke-width="1.5"/>
</svg>
