<svg width="140" height="416" viewBox="0 0 140 416" fill="none" xmlns="http://www.w3.org/2000/svg">
<path d="M70.4998 338.318C58.8271 338.318 29.9697 336.773 17 336C17 384.193 17.0004 393.133 17.0002 409.765C47.1546 419.037 117.11 414.015 124 409.765L124 336C111.03 336.773 82.1725 338.318 70.4998 338.318Z" fill="white" stroke="black" stroke-width="1.5"/>
<path d="M1 332.97V281.834C14.0784 286.567 38.8824 289.266 66.8431 290.844C94.6235 290.844 127.725 286.525 139 281V332.97C135.392 339.675 100.035 347 66.8431 347C33.651 347 4.60784 337.722 1 332.97Z" fill="white"/>
<path d="M1 281.834L1.25522 281.128C1.02535 281.045 0.769368 281.079 0.569252 281.22C0.369136 281.36 0.25 281.589 0.25 281.834H1ZM1 332.97H0.25V333.223L0.402671 333.424L1 332.97ZM139 332.97L139.66 333.326L139.75 333.159V332.97H139ZM139 281H139.75C139.75 280.741 139.617 280.501 139.397 280.364C139.177 280.227 138.902 280.213 138.67 280.327L139 281ZM66.8431 290.844L66.8009 291.593L66.822 291.594H66.8431V290.844ZM0.25 281.834V332.97H1.75V281.834H0.25ZM0.402671 333.424C0.944494 334.138 1.89668 334.862 3.12336 335.584C4.36795 336.316 5.96265 337.084 7.85773 337.861C11.6494 339.417 16.6923 341.032 22.6485 342.495C34.5622 345.422 50.1812 347.75 66.8431 347.75V346.25C50.3129 346.25 34.8143 343.939 23.0064 341.039C17.1018 339.588 12.133 337.994 8.42708 336.473C6.57338 335.713 5.04786 334.976 3.88393 334.291C2.70209 333.596 1.95747 332.991 1.59733 332.517L0.402671 333.424ZM66.8431 347.75C83.4884 347.75 100.675 345.914 114.162 343.235C120.904 341.896 126.742 340.342 131.135 338.693C133.33 337.869 135.184 337.014 136.616 336.138C138.03 335.274 139.114 334.341 139.66 333.326L138.34 332.615C137.984 333.276 137.174 334.039 135.834 334.858C134.512 335.667 132.753 336.484 130.607 337.289C126.319 338.899 120.567 340.434 113.87 341.764C100.478 344.424 83.3901 346.25 66.8431 346.25V347.75ZM139.75 332.97V281H138.25V332.97H139.75ZM138.67 280.327C133.154 283.03 122.171 285.48 109.011 287.251C95.8857 289.017 80.6985 290.094 66.8431 290.094V291.594C80.7682 291.594 96.0222 290.512 109.211 288.737C122.366 286.967 133.572 284.495 139.33 281.673L138.67 280.327ZM66.8854 290.095C38.9049 288.516 14.213 285.818 1.25522 281.128L0.744784 282.539C13.9439 287.315 38.8598 290.016 66.8009 291.593L66.8854 290.095Z" fill="black"/>
<path d="M1 282.109L12.7255 277.639C21.2941 278.916 54.2157 282.428 70.902 282.428C97.5098 282.428 123.216 277.958 129.98 277C129.98 277 134.941 279.333 139 281.2C136.294 284 112.843 291 70.902 291C35.7255 291 12.7819 285.94 1 282.109Z" fill="white"/>
<path d="M12.7255 277.639L12.8361 276.897L12.6418 276.868L12.4583 276.938L12.7255 277.639ZM1 282.109L0.73283 281.408C0.435711 281.521 0.242315 281.81 0.250233 282.127C0.25815 282.445 0.46566 282.724 0.76805 282.822L1 282.109ZM139 281.2L139.539 281.721C139.708 281.546 139.782 281.3 139.737 281.062C139.692 280.823 139.534 280.62 139.313 280.519L139 281.2ZM129.98 277L130.3 276.321L130.097 276.226L129.875 276.257L129.98 277ZM12.4583 276.938L0.73283 281.408L1.26717 282.81L12.9927 278.339L12.4583 276.938ZM0.76805 282.822C12.6324 286.68 35.6551 291.75 70.902 291.75V290.25C35.7959 290.25 12.9313 285.2 1.23195 281.396L0.76805 282.822ZM70.902 291.75C91.9129 291.75 108.307 289.997 119.8 287.888C125.545 286.833 130.074 285.689 133.348 284.626C134.984 284.095 136.316 283.581 137.335 283.104C138.33 282.639 139.1 282.176 139.539 281.721L138.461 280.679C138.224 280.924 137.669 281.292 136.7 281.746C135.754 282.188 134.483 282.68 132.885 283.199C129.689 284.236 125.227 285.367 119.529 286.412C108.135 288.503 91.8323 290.25 70.902 290.25V291.75ZM139.313 280.519C137.286 279.586 135.033 278.537 133.286 277.721C132.412 277.312 131.666 276.963 131.137 276.715C130.873 276.591 130.664 276.492 130.52 276.425C130.449 276.391 130.393 276.365 130.356 276.348C130.338 276.339 130.323 276.332 130.314 276.328C130.309 276.326 130.306 276.324 130.303 276.323C130.302 276.322 130.301 276.322 130.3 276.322C130.3 276.322 130.3 276.321 130.3 276.321C130.3 276.321 130.3 276.321 130.3 276.321C130.3 276.321 130.3 276.321 129.98 277C129.661 277.679 129.661 277.679 129.661 277.679C129.661 277.679 129.661 277.679 129.661 277.679C129.662 277.679 129.662 277.679 129.662 277.679C129.663 277.679 129.664 277.68 129.665 277.68C129.667 277.682 129.671 277.683 129.676 277.685C129.685 277.69 129.699 277.697 129.718 277.705C129.755 277.723 129.811 277.749 129.883 277.783C130.026 277.85 130.236 277.949 130.5 278.073C131.029 278.321 131.776 278.671 132.651 279.079C134.399 279.896 136.655 280.947 138.687 281.881L139.313 280.519ZM129.875 276.257C123.085 277.219 97.4436 281.678 70.902 281.678V283.178C97.576 283.178 123.346 278.697 130.086 277.743L129.875 276.257ZM70.902 281.678C54.2677 281.678 21.3867 278.171 12.8361 276.897L12.6149 278.38C21.2015 279.66 54.1637 283.178 70.902 283.178V281.678Z" fill="black"/>
<path d="M12 277.462L12 271C20.5091 272 41.9484 273.371 70.4859 273.5C99.0235 273.629 121.555 271.5 129 271V276.538C119.213 278.377 109.2 283 70.4859 283C36.75 283 24.1883 279.68 12 277.462Z" fill="white" stroke="black" stroke-width="1.5"/>
<path d="M2 268V258C12.6655 260.105 38.6846 266.421 66.4449 266.421C94.2051 266.421 125.931 260.807 139 258.702V267.048C134.944 272.311 101.596 278 68.4277 278C35.2597 278 6.50653 272.211 2 268Z" fill="white" stroke="black" stroke-width="1.5"/>
<path d="M69.3771 271C28.4118 271 2 265.316 2 258.684C2 253.789 15.4754 244 69.3771 244C123.279 244 138.251 253.789 139 258.684C137.652 265.789 110.342 271 69.3771 271Z" fill="#BCF352" stroke="black" stroke-width="1.5"/>
<path d="M128.25 107C128.25 107.158 128.124 107.501 127.395 107.989C126.7 108.453 125.626 108.93 124.172 109.4C121.274 110.337 117.041 111.192 111.764 111.914C101.221 113.356 86.6313 114.25 70.5 114.25C54.3687 114.25 39.7793 113.356 29.2359 111.914C23.9586 111.192 19.7259 110.337 16.8279 109.4C15.3738 108.93 14.3002 108.453 13.6052 107.989C12.876 107.501 12.75 107.158 12.75 107C12.75 106.842 12.876 106.499 13.6052 106.011C14.3002 105.547 15.3738 105.07 16.8279 104.6C19.7259 103.663 23.9586 102.808 29.2359 102.086C39.7793 100.644 54.3687 99.75 70.5 99.75C86.6313 99.75 101.221 100.644 111.764 102.086C117.041 102.808 121.274 103.663 124.172 104.6C125.626 105.07 126.7 105.547 127.395 106.011C128.124 106.499 128.25 106.842 128.25 107Z" stroke="black" stroke-width="1.5"/>
<path d="M112.964 1H30.4426L23 104.982C23 104.982 46.4348 109 72 109C97.5652 109 121 104.982 121 104.982L112.964 1Z" fill="white" stroke="black" stroke-width="1.5"/>
<path d="M12.1988 107L12 258.037C12 258.037 47.5917 262 70.5 262C93.4083 262 129 258.037 129 258.037L129 107.5C129 107.5 115.07 113.005 71.2952 113.005C19.5603 111.003 12.1988 107 12.1988 107Z" fill="white"/>
<path d="M12 258.037L11.25 258.036L11.2491 258.708L11.917 258.782L12 258.037ZM12.1988 107L12.5571 106.341C12.3248 106.215 12.0433 106.22 11.8159 106.355C11.5886 106.49 11.4491 106.735 11.4488 106.999L12.1988 107ZM129 107.5L129.75 107.5C129.75 107.252 129.627 107.019 129.422 106.88C129.216 106.74 128.955 106.711 128.724 106.802L129 107.5ZM129 258.037L129.083 258.782L129.75 258.708L129.75 258.037L129 258.037ZM71.2952 113.005L71.2662 113.754L71.2807 113.755H71.2952V113.005ZM12.75 258.038L12.9488 107.001L11.4488 106.999L11.25 258.036L12.75 258.038ZM128.25 107.5L128.25 258.037L129.75 258.037L129.75 107.5L128.25 107.5ZM129 258.037C128.917 257.292 128.917 257.292 128.917 257.292C128.916 257.292 128.916 257.292 128.915 257.292C128.914 257.292 128.913 257.292 128.911 257.292C128.906 257.293 128.9 257.294 128.892 257.294C128.874 257.296 128.849 257.299 128.815 257.303C128.747 257.31 128.646 257.322 128.513 257.336C128.248 257.365 127.855 257.407 127.347 257.462C126.33 257.57 124.852 257.724 123.006 257.91C119.314 258.281 114.153 258.776 108.278 259.271C96.5201 260.262 81.9211 261.25 70.5 261.25V262.75C81.9872 262.75 96.6382 261.757 108.404 260.766C114.289 260.27 119.458 259.774 123.156 259.403C125.005 259.217 126.486 259.062 127.505 258.953C128.015 258.899 128.409 258.856 128.676 258.827C128.809 258.813 128.911 258.801 128.979 258.794C129.014 258.79 129.039 258.787 129.057 258.785C129.065 258.784 129.072 258.784 129.076 258.783C129.078 258.783 129.08 258.783 129.081 258.783C129.082 258.783 129.082 258.783 129.083 258.783C129.083 258.782 129.083 258.782 129 258.037ZM70.5 261.25C59.0789 261.25 44.4799 260.262 32.7224 259.271C26.8465 258.776 21.6858 258.281 17.9942 257.91C16.1484 257.724 14.6701 257.57 13.6535 257.462C13.1451 257.407 12.7523 257.365 12.4866 257.336C12.3537 257.322 12.2527 257.31 12.185 257.303C12.1511 257.299 12.1255 257.296 12.1085 257.294C12.0999 257.294 12.0935 257.293 12.0893 257.292C12.0872 257.292 12.0856 257.292 12.0845 257.292C12.084 257.292 12.0836 257.292 12.0834 257.292C12.0831 257.292 12.083 257.292 12 258.037C11.917 258.782 11.9172 258.782 11.9175 258.783C11.9177 258.783 11.9182 258.783 11.9187 258.783C11.9199 258.783 11.9215 258.783 11.9237 258.783C11.9281 258.784 11.9346 258.784 11.9433 258.785C11.9606 258.787 11.9865 258.79 12.0206 258.794C12.089 258.801 12.1906 258.813 12.324 258.827C12.5909 258.856 12.9851 258.899 13.4947 258.953C14.5139 259.062 15.9952 259.217 17.8441 259.403C21.5418 259.774 26.7108 260.27 32.5964 260.766C44.3618 261.757 59.0128 262.75 70.5 262.75V261.25ZM12.1988 107C11.8405 107.659 11.8414 107.659 11.8423 107.66C11.8427 107.66 11.8436 107.661 11.8443 107.661C11.8457 107.662 11.8472 107.663 11.8488 107.663C11.852 107.665 11.8557 107.667 11.8598 107.669C11.868 107.673 11.8781 107.678 11.8902 107.684C11.9143 107.696 11.9464 107.711 11.9875 107.73C12.0697 107.767 12.1886 107.817 12.3528 107.878C12.681 108.001 13.1934 108.172 13.961 108.381C15.4951 108.797 18.0618 109.365 22.2347 109.993C30.5798 111.25 45.3841 112.753 71.2662 113.754L71.3242 112.256C45.4713 111.255 30.7275 109.755 22.4581 108.51C18.3238 107.888 15.8166 107.33 14.3538 106.933C13.6228 106.735 13.156 106.577 12.8795 106.474C12.7414 106.422 12.6516 106.384 12.6007 106.361C12.5753 106.35 12.5597 106.342 12.5528 106.339C12.5493 106.337 12.5481 106.336 12.5488 106.337C12.5492 106.337 12.5501 106.337 12.5515 106.338C12.5522 106.338 12.553 106.339 12.5539 106.339C12.5544 106.34 12.5552 106.34 12.5554 106.34C12.5562 106.341 12.5571 106.341 12.1988 107ZM71.2952 113.755C93.2134 113.755 107.678 112.377 116.677 110.994C121.177 110.302 124.311 109.609 126.328 109.086C127.336 108.825 128.065 108.606 128.546 108.45C128.787 108.373 128.965 108.311 129.086 108.268C129.146 108.246 129.191 108.23 129.223 108.218C129.239 108.212 129.251 108.207 129.26 108.204C129.264 108.202 129.268 108.201 129.27 108.2C129.272 108.199 129.273 108.199 129.274 108.198C129.274 108.198 129.275 108.198 129.275 108.198C129.275 108.198 129.276 108.198 129 107.5C128.724 106.802 128.725 106.802 128.725 106.802C128.725 106.802 128.725 106.802 128.725 106.802C128.725 106.802 128.725 106.802 128.725 106.802C128.724 106.803 128.722 106.803 128.72 106.804C128.715 106.806 128.707 106.809 128.695 106.814C128.671 106.823 128.633 106.837 128.58 106.856C128.475 106.893 128.312 106.95 128.086 107.023C127.634 107.169 126.933 107.38 125.951 107.634C123.988 108.143 120.904 108.827 116.449 109.511C107.54 110.881 93.1522 112.255 71.2952 112.255V113.755Z" fill="black"/>
</svg>
