<svg width="129" height="441" viewBox="0 0 129 441" fill="none" xmlns="http://www.w3.org/2000/svg">
<path d="M64.5 365.064C54.1364 365.064 28.5152 364.355 17.0001 364L17.0001 435.262C27.3261 440.057 82.7089 440.792 87.1835 439.322V430.504C91.7729 430.749 100.641 429.402 105.116 427.932V437.118C105.116 437.118 108.902 437.118 112 435.262L112 364C100.485 364.355 74.8637 365.064 64.5 365.064Z" stroke="black" stroke-width="1.5"/>
<path d="M1 375.222V339.581C13.0359 342.88 35.8627 344.761 61.5948 345.861C87.1608 345.861 117.624 342.851 128 339V375.222C124.68 379.895 92.1412 385 61.5948 385C31.0484 385 4.32026 378.534 1 375.222Z" fill="white"/>
<path d="M1 339.581L1.19824 338.858C0.972642 338.796 0.731112 338.843 0.545127 338.985C0.359141 339.127 0.25 339.347 0.25 339.581H1ZM1 375.222H0.25V375.533L0.47035 375.753L1 375.222ZM128 375.222L128.611 375.656L128.75 375.461V375.222H128ZM128 339H128.75C128.75 338.754 128.63 338.524 128.428 338.384C128.227 338.244 127.969 338.211 127.739 338.297L128 339ZM61.5948 345.861L61.5627 346.61L61.5788 346.611H61.5948V345.861ZM0.25 339.581V375.222H1.75V339.581H0.25ZM0.47035 375.753C0.988778 376.27 1.8782 376.779 2.99886 377.278C4.14305 377.788 5.60872 378.322 7.35054 378.863C10.8359 379.946 15.4727 381.071 20.9504 382.09C31.9072 384.128 46.2719 385.75 61.5948 385.75V384.25C46.3713 384.25 32.0987 382.638 21.2247 380.615C15.7871 379.604 11.2102 378.492 7.79562 377.431C6.08748 376.9 4.68164 376.385 3.6093 375.908C2.51343 375.419 1.84129 375.002 1.52965 374.691L0.47035 375.753ZM61.5948 385.75C76.9051 385.75 92.7136 384.471 105.119 382.605C111.32 381.672 116.687 380.59 120.724 379.443C122.741 378.869 124.445 378.274 125.761 377.664C127.046 377.069 128.075 376.411 128.611 375.656L127.389 374.787C127.095 375.201 126.38 375.725 125.131 376.303C123.913 376.867 122.292 377.437 120.314 378C116.362 379.123 111.063 380.194 104.896 381.122C92.5648 382.976 76.8309 384.25 61.5948 384.25V385.75ZM128.75 375.222V339H127.25V375.222H128.75ZM127.739 338.297C122.652 340.185 112.531 341.894 100.418 343.128C88.3334 344.36 74.3514 345.111 61.5948 345.111V346.611C74.4041 346.611 88.4369 345.857 100.57 344.621C112.674 343.387 122.972 341.666 128.261 339.703L127.739 338.297ZM61.6268 345.112C35.8783 344.011 13.1383 342.13 1.19824 338.858L0.801759 340.304C12.9336 343.629 35.8471 345.511 61.5627 346.61L61.6268 345.112Z" fill="black"/>
<path d="M1 339.649L11.7908 336.456C19.6765 337.368 49.9739 339.877 65.3301 339.877C89.817 339.877 113.474 336.684 119.699 336C119.699 336 124.265 337.667 128 339C125.51 341 103.928 346 65.3301 346C32.9575 346 11.8427 342.386 1 339.649Z" fill="white"/>
<path d="M11.7908 336.456L11.877 335.711L11.7249 335.694L11.578 335.737L11.7908 336.456ZM1 339.649L0.787198 338.93C0.463209 339.026 0.243322 339.326 0.250153 339.664C0.256985 340.002 0.488848 340.294 0.816447 340.376L1 339.649ZM128 339L128.47 339.585C128.681 339.415 128.785 339.143 128.74 338.875C128.694 338.608 128.508 338.385 128.252 338.294L128 339ZM119.699 336L119.957 335.295L119.792 335.235L119.617 335.254L119.699 336ZM11.578 335.737L0.787198 338.93L1.2128 340.368L12.0037 337.175L11.578 335.737ZM0.816447 340.376C11.7263 343.13 32.9034 346.75 65.3301 346.75V345.25C33.0116 345.25 11.9591 341.642 1.18355 338.922L0.816447 340.376ZM65.3301 346.75C84.6603 346.75 99.7408 345.498 110.311 343.993C115.595 343.24 119.76 342.423 122.768 341.665C124.272 341.286 125.496 340.92 126.431 340.58C127.34 340.25 128.054 339.919 128.47 339.585L127.53 338.415C127.324 338.581 126.818 338.844 125.919 339.17C125.047 339.487 123.875 339.839 122.402 340.21C119.457 340.952 115.347 341.76 110.1 342.507C99.6072 344.002 84.5979 345.25 65.3301 345.25V346.75ZM128.252 338.294C126.386 337.628 124.312 336.878 122.705 336.295C121.901 336.003 121.214 335.754 120.728 335.577C120.485 335.488 120.292 335.418 120.16 335.37C120.094 335.346 120.043 335.327 120.009 335.314C119.991 335.308 119.978 335.303 119.97 335.3C119.965 335.299 119.962 335.297 119.96 335.297C119.959 335.296 119.958 335.296 119.957 335.296C119.957 335.296 119.957 335.296 119.957 335.296C119.957 335.296 119.957 335.296 119.957 335.295C119.957 335.295 119.957 335.295 119.699 336C119.442 336.705 119.442 336.705 119.442 336.705C119.442 336.705 119.442 336.705 119.442 336.705C119.443 336.705 119.443 336.705 119.443 336.705C119.444 336.705 119.444 336.705 119.446 336.706C119.448 336.707 119.451 336.708 119.455 336.709C119.464 336.713 119.477 336.717 119.494 336.724C119.529 336.736 119.58 336.755 119.646 336.779C119.778 336.827 119.971 336.897 120.214 336.986C120.701 337.163 121.389 337.413 122.193 337.705C123.802 338.289 125.878 339.039 127.748 339.706L128.252 338.294ZM119.617 335.254C113.372 335.941 89.7655 339.127 65.3301 339.127V340.627C89.8684 340.627 113.576 337.428 119.781 336.746L119.617 335.254ZM65.3301 339.127C50.0142 339.127 19.7485 336.622 11.877 335.711L11.7047 337.201C19.6045 338.115 49.9335 340.627 65.3301 340.627V339.127Z" fill="black"/>
<path d="M12 336.308L12 332C19.7818 332.667 39.3887 333.58 65.4871 333.667C91.5856 333.753 112.191 332.333 119 332V335.692C110.049 336.918 100.892 340 65.4871 340C34.6346 340 23.1465 337.787 12 336.308Z" fill="white" stroke="black" stroke-width="1.5"/>
<path d="M2 330V323C11.8091 324.474 35.7392 328.895 61.2705 328.895C86.8018 328.895 115.98 324.965 128 323.491V329.333C124.27 333.018 93.5991 337 63.0941 337C32.5892 337 6.14469 332.947 2 330Z" fill="white" stroke="black" stroke-width="1.5"/>
<path d="M63.9672 332C26.2911 332 2 328 2 323.333C2 319.889 14.3934 313 63.9672 313C113.541 313 127.311 319.889 128 323.333C126.761 328.333 101.643 332 63.9672 332Z" fill="#BCF352" stroke="black" stroke-width="1.5"/>
<path d="M74.5 1H56C51.5915 101.603 24.347 308.825 22 310.417C18.4064 317.444 16.7129 320.678 14 322.369C14 322.369 17.9604 326.063 65.1644 328C113.01 326.063 114 322.369 114 322.369L108.5 310.417C99.5474 300.273 79.9258 99.912 74.5 1Z" fill="white"/>
<path d="M56 1V0.25H55.2821L55.2507 0.967166L56 1ZM74.5 1L75.2489 0.95892L75.21 0.25H74.5V1ZM108.5 310.417L109.181 310.104L109.135 310.004L109.062 309.921L108.5 310.417ZM114 322.369L114.724 322.563C114.77 322.394 114.754 322.214 114.681 322.055L114 322.369ZM14 322.369L13.6033 321.732C13.4053 321.856 13.276 322.064 13.2535 322.296C13.231 322.529 13.3178 322.758 13.4884 322.917L14 322.369ZM22 310.417L21.5788 309.797L21.4198 309.905L21.3323 310.076L22 310.417ZM65.1644 328L65.1337 328.749L65.1642 328.751L65.1948 328.749L65.1644 328ZM56 1.75H74.5V0.25H56V1.75ZM73.7511 1.04108C76.4649 50.5128 82.728 125.344 89.4316 189.075C92.7834 220.94 96.2461 250.039 99.4315 271.809C101.024 282.693 102.549 291.756 103.957 298.422C104.662 301.753 105.34 304.499 105.986 306.58C106.31 307.62 106.629 308.506 106.944 309.221C107.254 309.924 107.582 310.51 107.938 310.914L109.062 309.921C108.859 309.691 108.606 309.271 108.316 308.615C108.032 307.971 107.732 307.144 107.419 306.135C106.792 304.118 106.125 301.423 105.425 298.111C104.026 291.491 102.507 282.464 100.916 271.592C97.7346 249.851 94.2742 220.775 90.9233 188.918C84.2216 125.204 77.9609 50.3992 75.2489 0.95892L73.7511 1.04108ZM107.819 310.731L113.319 322.682L114.681 322.055L109.181 310.104L107.819 310.731ZM14.3967 323.005C15.886 322.077 17.06 320.743 18.3019 318.797C19.5372 316.862 20.8768 314.261 22.6677 310.759L21.3323 310.076C19.5296 313.6 18.2257 316.129 17.0376 317.99C15.8561 319.841 14.8269 320.97 13.6033 321.732L14.3967 323.005ZM22.4212 311.038C22.5874 310.925 22.6769 310.774 22.7109 310.715C22.7572 310.633 22.7952 310.547 22.8263 310.467C22.8893 310.306 22.9521 310.104 23.0151 309.873C23.1422 309.406 23.2895 308.754 23.4553 307.934C23.7877 306.29 24.2047 303.922 24.6942 300.912C25.6738 294.888 26.9487 286.263 28.4255 275.65C31.3795 254.421 35.1435 225.22 38.9717 192.926C46.6275 128.344 54.5437 51.3644 56.7493 1.03283L55.2507 0.967166C53.0478 51.2385 45.1376 128.171 37.4822 192.749C33.6549 225.035 29.8921 254.226 26.9399 275.443C25.4636 286.052 24.1905 294.664 23.2137 300.671C22.7251 303.675 22.3117 306.021 21.9851 307.637C21.8213 308.446 21.6818 309.06 21.5679 309.478C21.5104 309.689 21.4641 309.832 21.4298 309.92C21.4123 309.964 21.4046 309.977 21.4082 309.971C21.4104 309.967 21.4211 309.948 21.4417 309.923C21.4599 309.9 21.5042 309.848 21.5788 309.797L22.4212 311.038ZM65.1952 327.251C41.6064 326.283 28.8512 324.876 22.0058 323.718C18.5827 323.139 16.655 322.625 15.5976 322.266C15.0696 322.087 14.7678 321.949 14.6098 321.867C14.5312 321.826 14.4908 321.799 14.4774 321.79C14.4708 321.786 14.4713 321.786 14.4773 321.791C14.4804 321.793 14.4849 321.797 14.4907 321.802C14.4935 321.804 14.4967 321.807 14.5002 321.81C14.502 321.812 14.5038 321.813 14.5057 321.815C14.5066 321.816 14.5081 321.817 14.5086 321.818C14.5101 321.819 14.5116 321.82 14 322.369C13.4884 322.917 13.49 322.919 13.4915 322.92C13.4921 322.921 13.4936 322.922 13.4947 322.923C13.4968 322.925 13.499 322.927 13.5013 322.929C13.5058 322.933 13.5105 322.937 13.5154 322.941C13.5254 322.95 13.5363 322.959 13.5483 322.968C13.5722 322.987 13.6007 323.008 13.6346 323.031C13.7022 323.077 13.793 323.132 13.915 323.196C14.1579 323.323 14.5343 323.489 15.1152 323.686C16.2754 324.08 18.2881 324.611 21.7556 325.197C28.6914 326.371 41.5184 327.78 65.1337 328.749L65.1952 327.251ZM114 322.369C113.276 322.175 113.277 322.17 113.278 322.166C113.278 322.165 113.279 322.161 113.28 322.158C113.282 322.153 113.283 322.147 113.285 322.142C113.288 322.131 113.292 322.121 113.296 322.112C113.303 322.092 113.31 322.075 113.318 322.059C113.333 322.027 113.348 322.003 113.359 321.986C113.382 321.952 113.393 321.947 113.372 321.965C113.326 322.006 113.171 322.122 112.791 322.292C112.03 322.633 110.477 323.142 107.386 323.721C101.212 324.876 89.0465 326.282 65.1341 327.251L65.1948 328.749C89.1279 327.78 101.38 326.371 107.662 325.195C110.799 324.608 112.485 324.073 113.404 323.661C113.865 323.454 114.161 323.267 114.356 323.097C114.455 323.011 114.534 322.924 114.595 322.836C114.626 322.791 114.652 322.746 114.674 322.7C114.685 322.677 114.694 322.654 114.703 322.631C114.707 322.62 114.711 322.608 114.714 322.597C114.716 322.591 114.718 322.586 114.72 322.58C114.72 322.577 114.722 322.573 114.722 322.571C114.723 322.567 114.724 322.563 114 322.369Z" fill="black"/>
</svg>
