<svg width="183" height="363" viewBox="0 0 183 363" fill="none" xmlns="http://www.w3.org/2000/svg">
<path d="M92.0001 259.447C76.9455 259.447 39.7274 258.482 23.0001 258C22.9999 286.356 23 344.047 23.0001 354.975C38 361.5 118.451 362.5 124.951 360.5V348.5C131.617 348.833 144.5 347 151 345L151 357.5C151 357.5 156.5 357.5 161 354.975L161 258C144.273 258.482 107.055 259.447 92.0001 259.447Z" stroke="black" stroke-width="1.5"/>
<path d="M1 249.97V198.834C18.1536 203.567 50.6863 206.266 87.3595 207.844C123.796 207.844 167.212 203.525 182 198V249.97C177.268 256.675 130.894 264 87.3595 264C43.8248 264 5.73203 254.722 1 249.97Z" fill="white"/>
<path d="M1 198.834L1.19948 198.111C0.973769 198.048 0.731925 198.095 0.545638 198.237C0.359351 198.379 0.25 198.6 0.25 198.834H1ZM1 249.97H0.25V250.28L0.468573 250.5L1 249.97ZM182 249.97L182.613 250.403L182.75 250.208V249.97H182ZM182 198H182.75C182.75 197.754 182.63 197.524 182.428 197.384C182.226 197.244 181.968 197.211 181.738 197.297L182 198ZM87.3595 207.844L87.3272 208.593L87.3433 208.594H87.3595V207.844ZM0.25 198.834V249.97H1.75V198.834H0.25ZM0.468573 250.5C1.16329 251.197 2.38471 251.908 3.97683 252.622C5.59239 253.346 7.66867 254.109 10.144 254.883C15.0965 256.432 21.6922 258.044 29.4907 259.504C45.0889 262.426 65.5421 264.75 87.3595 264.75V263.25C65.6422 263.25 45.2816 260.936 29.7668 258.03C22.0088 256.577 15.4731 254.978 10.5918 253.451C8.15033 252.688 6.13414 251.945 4.5907 251.253C3.02382 250.55 2.01972 249.931 1.53143 249.441L0.468573 250.5ZM87.3595 264.75C109.164 264.75 131.679 262.916 149.343 260.241C158.173 258.904 165.809 257.354 171.545 255.712C174.411 254.892 176.822 254.043 178.677 253.178C180.502 252.327 181.901 251.412 182.613 250.403L181.387 249.538C180.916 250.205 179.831 250.985 178.043 251.819C176.287 252.637 173.959 253.461 171.132 254.27C165.481 255.887 157.915 257.426 149.118 258.758C131.529 261.422 109.089 263.25 87.3595 263.25V264.75ZM182.75 249.97V198H181.25V249.97H182.75ZM181.738 197.297C174.445 200.022 159.983 202.477 142.722 204.248C125.489 206.016 105.551 207.094 87.3595 207.094V208.594C105.604 208.594 125.593 207.513 142.875 205.74C160.127 203.97 174.768 201.503 182.262 198.703L181.738 197.297ZM87.3917 207.095C50.702 205.516 18.2567 202.817 1.19948 198.111L0.80052 199.557C18.0505 204.316 50.6705 207.016 87.3272 208.593L87.3917 207.095Z" fill="black"/>
<path d="M1 199.109L16.3791 194.639C27.6176 195.916 70.7974 199.428 92.683 199.428C127.582 199.428 161.297 194.958 170.17 194C170.17 194 176.676 196.333 182 198.2C178.451 201 147.693 208 92.683 208C46.5457 208 16.453 202.94 1 199.109Z" fill="white"/>
<path d="M16.3791 194.639L16.4638 193.893L16.3143 193.876L16.1697 193.918L16.3791 194.639ZM1 199.109L0.790664 198.389C0.465011 198.483 0.243396 198.785 0.250149 199.124C0.256901 199.463 0.49034 199.755 0.819503 199.837L1 199.109ZM182 198.2L182.465 198.789C182.679 198.619 182.785 198.346 182.74 198.077C182.695 197.807 182.506 197.583 182.248 197.492L182 198.2ZM170.17 194L170.423 193.294L170.261 193.236L170.089 193.254L170.17 194ZM16.1697 193.918L0.790664 198.389L1.20934 199.829L16.5884 195.359L16.1697 193.918ZM0.819503 199.837C16.3386 203.685 46.4927 208.75 92.683 208.75V207.25C46.5988 207.25 16.5674 202.196 1.1805 198.381L0.819503 199.837ZM92.683 208.75C120.219 208.75 141.696 206.998 156.743 204.893C164.266 203.84 170.189 202.698 174.463 201.641C176.599 201.112 178.332 200.602 179.651 200.131C180.944 199.67 181.916 199.221 182.465 198.789L181.535 197.611C181.197 197.879 180.431 198.261 179.148 198.719C177.89 199.167 176.209 199.663 174.103 200.184C169.892 201.227 164.022 202.36 156.535 203.407C141.564 205.502 120.157 207.25 92.683 207.25V208.75ZM182.248 197.492C179.588 196.56 176.632 195.51 174.34 194.694C173.195 194.285 172.215 193.935 171.522 193.688C171.176 193.564 170.901 193.465 170.713 193.398C170.619 193.364 170.546 193.338 170.497 193.321C170.473 193.312 170.454 193.305 170.442 193.301C170.436 193.299 170.431 193.297 170.428 193.296C170.426 193.295 170.425 193.295 170.424 193.294C170.424 193.294 170.424 193.294 170.423 193.294C170.423 193.294 170.423 193.294 170.423 193.294C170.423 193.294 170.423 193.294 170.17 194C169.917 194.706 169.917 194.706 169.917 194.706C169.917 194.706 169.917 194.706 169.917 194.706C169.917 194.706 169.918 194.706 169.918 194.706C169.919 194.707 169.92 194.707 169.922 194.708C169.925 194.709 169.929 194.711 169.936 194.713C169.948 194.717 169.967 194.724 169.991 194.733C170.04 194.75 170.113 194.776 170.207 194.81C170.395 194.877 170.67 194.976 171.017 195.1C171.711 195.348 172.691 195.698 173.837 196.106C176.129 196.923 179.088 197.974 181.752 198.908L182.248 197.492ZM170.089 193.254C161.197 194.214 127.531 198.678 92.683 198.678V200.178C127.632 200.178 161.397 195.701 170.25 194.746L170.089 193.254ZM92.683 198.678C70.837 198.678 27.6884 195.169 16.4638 193.893L16.2944 195.384C27.5469 196.663 70.7577 200.178 92.683 200.178V198.678Z" fill="black"/>
<path d="M16 194.462V188C27.1273 189 55.1633 190.371 92.4816 190.5C129.8 190.629 159.264 188.5 169 188V193.538C156.201 195.377 143.108 200 92.4816 200C48.3654 200 31.9385 196.68 16 194.462Z" fill="white" stroke="black" stroke-width="1.5"/>
<path d="M2 185V175C16.013 177.105 50.1988 183.421 86.6721 183.421C123.145 183.421 164.829 177.807 182 175.702V184.048C176.671 189.311 132.856 195 89.2773 195C45.6988 195 7.92099 189.211 2 185Z" fill="white" stroke="black" stroke-width="1.5"/>
<path d="M90.5246 188C36.7016 188 2 182.316 2 175.684C2 170.789 19.7049 161 90.5246 161C161.344 161 181.016 170.789 182 175.684C180.23 182.789 144.348 188 90.5246 188Z" fill="#BCF352" stroke="black" stroke-width="1.5"/>
<path d="M118.022 1H65.5036L55 124.157V174.037C67.6043 179.321 112.245 179.321 128 174.037V124.157L118.022 1Z" fill="white" stroke="black" stroke-width="1.5"/>
</svg>
