<svg width="162" height="408" viewBox="0 0 162 408" fill="none" xmlns="http://www.w3.org/2000/svg">
<path d="M81.5 224.659C69.3909 224.659 39.4545 222.886 26 222C33.9886 273.844 50.4705 382.318 52.4886 401.46C83.7705 412.095 105.886 405.005 113.034 400.131L137 222C123.545 222.886 93.6091 224.659 81.5 224.659Z" stroke="black" stroke-width="1.5"/>
<path d="M1 227.968V212C13.4153 214.903 44.2262 221.194 76.541 221.194C108.856 221.194 145.787 215.871 161 212.968V227.968C156.279 235.226 115.151 242 76.541 242C37.9311 242 6.2459 233.774 1 227.968Z" fill="white" stroke="black" stroke-width="1.5"/>
<path d="M15 204.947L15 189C24.8909 190.917 49.8118 193.544 82.9837 193.792C116.156 194.04 142.345 189.958 151 189V204.947C139.623 208.471 118.569 212 82.9837 212C62.805 211.624 29.1676 209.198 15 204.947Z" stroke="black" stroke-width="1.5"/>
<path d="M1 211.892L15.1176 205C25.0523 206.838 48.7272 211.274 82.0458 211.432C119.301 211.61 143.614 206.838 151.065 205L161 212.351C153.549 216.946 117.789 222 82.0458 222C60.9346 222 14.6601 217.405 1 211.892Z" fill="white"/>
<path d="M15.1176 205L15.2541 204.263L15.0109 204.218L14.7886 204.326L15.1176 205ZM1 211.892L0.67098 211.218C0.404793 211.348 0.240024 211.622 0.250466 211.918C0.260908 212.214 0.444606 212.477 0.719287 212.587L1 211.892ZM161 212.351L161.394 212.99C161.606 212.859 161.739 212.632 161.749 212.383C161.76 212.134 161.646 211.897 161.446 211.748L161 212.351ZM151.065 205L151.511 204.397L151.228 204.187L150.886 204.272L151.065 205ZM82.0458 211.432L82.0422 212.182L82.0458 211.432ZM14.7886 204.326L0.67098 211.218L1.32902 212.566L15.4467 205.674L14.7886 204.326ZM0.719287 212.587C4.20977 213.996 9.72736 215.328 16.3225 216.535C22.9326 217.745 30.6746 218.838 38.6427 219.759C54.5742 221.598 71.4514 222.75 82.0458 222.75V221.25C71.529 221.25 54.7134 220.104 38.8148 218.268C30.8679 217.351 23.1605 216.262 16.5926 215.06C10.0096 213.855 4.62029 212.544 1.28071 211.196L0.719287 212.587ZM82.0458 222.75C99.9495 222.75 117.857 221.484 132.228 219.643C139.412 218.722 145.723 217.656 150.712 216.529C155.667 215.41 159.413 214.211 161.394 212.99L160.606 211.713C158.862 212.789 155.343 213.945 150.381 215.066C145.452 216.179 139.192 217.238 132.037 218.155C117.729 219.989 99.8849 221.25 82.0458 221.25V222.75ZM161.446 211.748L151.511 204.397L150.619 205.603L160.554 212.954L161.446 211.748ZM150.886 204.272C143.494 206.095 119.242 210.859 82.0493 210.682L82.0422 212.182C119.36 212.36 143.735 207.581 151.245 205.728L150.886 204.272ZM82.0493 210.682C48.7974 210.524 25.1737 206.098 15.2541 204.263L14.9812 205.737C24.9309 207.578 48.6571 212.024 82.0422 212.182L82.0493 210.682Z" fill="black"/>
<path d="M1 189.632V174C13.4153 176.842 44.2262 185.368 76.541 185.368C108.856 185.368 145.787 177.789 161 174.947V189.632C156.279 196.737 117.459 201 78.8492 201C40.2393 201 6.2459 195.316 1 189.632Z" fill="white" stroke="black" stroke-width="1.5"/>
<path d="M79.6885 187C31.8459 187 1 181.316 1 174.684C1 169.789 16.7377 160 79.6885 160C142.639 160 160.126 169.789 161 174.684C159.426 181.789 127.531 187 79.6885 187Z" fill="#BCF352" stroke="black" stroke-width="1.5"/>
<path d="M108.022 1H55.5036L45 153V175.015C57.6043 180.328 102.245 180.328 118 175.015V153L108.022 1Z" fill="white" stroke="black" stroke-width="1.5"/>
</svg>
