<svg width="121" height="426" viewBox="0 0 121 426" fill="none" xmlns="http://www.w3.org/2000/svg">
<path d="M59.7048 303.34C51.2513 303.34 30.3524 302.159 20.9596 301.569C26.5366 336.116 38.0427 408.401 39.4516 421.157C61.2898 428.244 76.7292 423.519 81.7191 420.271L98.4499 301.569C89.0572 302.159 68.1583 303.34 59.7048 303.34Z" stroke="#676767" stroke-width="0.5"/>
<path d="M1.5 260.5L1.71947 260.38L1.25 260.5H1.5ZM1.5 273H1.25V273.184L1.42509 273.239L1.5 273ZM120.5 273L120.629 273.214L120.75 273.142V273H120.5ZM120.5 260.5H120.75C120.75 260.387 120.674 260.287 120.564 260.258C120.455 260.229 120.339 260.278 120.283 260.376L120.5 260.5ZM60.8646 268.5L60.8592 268.75L60.8676 268.75L60.8646 268.5ZM1.25 260.5V273H1.75V260.5H1.25ZM1.42509 273.239C13.2529 276.953 33.6476 279.916 60.8646 279.916V279.416C33.6746 279.416 13.3358 276.455 1.57491 272.761L1.42509 273.239ZM60.8646 279.916C76.3043 279.916 89.9735 278.999 100.411 277.706C105.629 277.06 110.043 276.319 113.467 275.551C116.881 274.786 119.341 273.987 120.629 273.214L120.371 272.786C119.159 273.513 116.772 274.298 113.358 275.063C109.954 275.827 105.557 276.565 100.349 277.21C89.9343 278.5 76.2858 279.416 60.8646 279.416V279.916ZM120.75 273C120.75 272.989 120.75 272.978 120.75 272.967C120.75 272.956 120.75 272.945 120.75 272.935C120.75 272.924 120.75 272.913 120.75 272.902C120.75 272.891 120.75 272.88 120.75 272.869C120.75 272.858 120.75 272.847 120.75 272.836C120.75 272.825 120.75 272.814 120.75 272.804C120.75 272.793 120.75 272.782 120.75 272.771C120.75 272.76 120.75 272.749 120.75 272.738C120.75 272.727 120.75 272.716 120.75 272.705C120.75 272.694 120.75 272.684 120.75 272.673C120.75 272.662 120.75 272.651 120.75 272.64C120.75 272.629 120.75 272.618 120.75 272.607C120.75 272.596 120.75 272.585 120.75 272.574C120.75 272.563 120.75 272.553 120.75 272.542C120.75 272.531 120.75 272.52 120.75 272.509C120.75 272.498 120.75 272.487 120.75 272.476C120.75 272.465 120.75 272.454 120.75 272.443C120.75 272.433 120.75 272.422 120.75 272.411C120.75 272.4 120.75 272.389 120.75 272.378C120.75 272.367 120.75 272.356 120.75 272.345C120.75 272.334 120.75 272.323 120.75 272.313C120.75 272.302 120.75 272.291 120.75 272.28C120.75 272.269 120.75 272.258 120.75 272.247C120.75 272.236 120.75 272.225 120.75 272.214C120.75 272.204 120.75 272.193 120.75 272.182C120.75 272.171 120.75 272.16 120.75 272.149C120.75 272.138 120.75 272.127 120.75 272.116C120.75 272.105 120.75 272.095 120.75 272.084C120.75 272.073 120.75 272.062 120.75 272.051C120.75 272.04 120.75 272.029 120.75 272.018C120.75 272.007 120.75 271.997 120.75 271.986C120.75 271.975 120.75 271.964 120.75 271.953C120.75 271.942 120.75 271.931 120.75 271.92C120.75 271.909 120.75 271.899 120.75 271.888C120.75 271.877 120.75 271.866 120.75 271.855C120.75 271.844 120.75 271.833 120.75 271.822C120.75 271.812 120.75 271.801 120.75 271.79C120.75 271.779 120.75 271.768 120.75 271.757C120.75 271.746 120.75 271.735 120.75 271.724C120.75 271.714 120.75 271.703 120.75 271.692C120.75 271.681 120.75 271.67 120.75 271.659C120.75 271.648 120.75 271.638 120.75 271.627C120.75 271.616 120.75 271.605 120.75 271.594C120.75 271.583 120.75 271.572 120.75 271.561C120.75 271.551 120.75 271.54 120.75 271.529C120.75 271.518 120.75 271.507 120.75 271.496C120.75 271.485 120.75 271.475 120.75 271.464C120.75 271.453 120.75 271.442 120.75 271.431C120.75 271.42 120.75 271.41 120.75 271.399C120.75 271.388 120.75 271.377 120.75 271.366C120.75 271.355 120.75 271.344 120.75 271.334C120.75 271.323 120.75 271.312 120.75 271.301C120.75 271.29 120.75 271.279 120.75 271.269C120.75 271.258 120.75 271.247 120.75 271.236C120.75 271.225 120.75 271.214 120.75 271.204C120.75 271.193 120.75 271.182 120.75 271.171C120.75 271.16 120.75 271.149 120.75 271.139C120.75 271.128 120.75 271.117 120.75 271.106C120.75 271.095 120.75 271.085 120.75 271.074C120.75 271.063 120.75 271.052 120.75 271.041C120.75 271.03 120.75 271.02 120.75 271.009C120.75 270.998 120.75 270.987 120.75 270.976C120.75 270.966 120.75 270.955 120.75 270.944C120.75 270.933 120.75 270.922 120.75 270.912C120.75 270.901 120.75 270.89 120.75 270.879C120.75 270.868 120.75 270.858 120.75 270.847C120.75 270.836 120.75 270.825 120.75 270.815C120.75 270.804 120.75 270.793 120.75 270.782C120.75 270.771 120.75 270.761 120.75 270.75C120.75 270.739 120.75 270.728 120.75 270.718C120.75 270.707 120.75 270.696 120.75 270.685C120.75 270.674 120.75 270.664 120.75 270.653C120.75 270.642 120.75 270.631 120.75 270.621C120.75 270.61 120.75 270.599 120.75 270.588C120.75 270.578 120.75 270.567 120.75 270.556C120.75 270.545 120.75 270.535 120.75 270.524C120.75 270.513 120.75 270.502 120.75 270.492C120.75 270.481 120.75 270.47 120.75 270.459C120.75 270.449 120.75 270.438 120.75 270.427C120.75 270.417 120.75 270.406 120.75 270.395C120.75 270.384 120.75 270.374 120.75 270.363C120.75 270.352 120.75 270.341 120.75 270.331C120.75 270.32 120.75 270.309 120.75 270.299C120.75 270.288 120.75 270.277 120.75 270.267C120.75 270.256 120.75 270.245 120.75 270.234C120.75 270.224 120.75 270.213 120.75 270.202C120.75 270.192 120.75 270.181 120.75 270.17C120.75 270.16 120.75 270.149 120.75 270.138C120.75 270.128 120.75 270.117 120.75 270.106C120.75 270.095 120.75 270.085 120.75 270.074C120.75 270.063 120.75 270.053 120.75 270.042C120.75 270.031 120.75 270.021 120.75 270.01C120.75 269.999 120.75 269.989 120.75 269.978C120.75 269.967 120.75 269.957 120.75 269.946C120.75 269.936 120.75 269.925 120.75 269.914C120.75 269.904 120.75 269.893 120.75 269.882C120.75 269.872 120.75 269.861 120.75 269.85C120.75 269.84 120.75 269.829 120.75 269.819C120.75 269.808 120.75 269.797 120.75 269.787C120.75 269.776 120.75 269.765 120.75 269.755C120.75 269.744 120.75 269.734 120.75 269.723C120.75 269.712 120.75 269.702 120.75 269.691C120.75 269.681 120.75 269.67 120.75 269.659C120.75 269.649 120.75 269.638 120.75 269.628C120.75 269.617 120.75 269.606 120.75 269.596C120.75 269.585 120.75 269.575 120.75 269.564C120.75 269.554 120.75 269.543 120.75 269.532C120.75 269.522 120.75 269.511 120.75 269.501C120.75 269.49 120.75 269.48 120.75 269.469C120.75 269.459 120.75 269.448 120.75 269.437C120.75 269.427 120.75 269.416 120.75 269.406C120.75 269.395 120.75 269.385 120.75 269.374C120.75 269.364 120.75 269.353 120.75 269.343C120.75 269.332 120.75 269.322 120.75 269.311C120.75 269.301 120.75 269.29 120.75 269.279C120.75 269.269 120.75 269.258 120.75 269.248C120.75 269.237 120.75 269.227 120.75 269.216C120.75 269.206 120.75 269.195 120.75 269.185C120.75 269.174 120.75 269.164 120.75 269.154C120.75 269.143 120.75 269.133 120.75 269.122C120.75 269.112 120.75 269.101 120.75 269.091C120.75 269.08 120.75 269.07 120.75 269.059C120.75 269.049 120.75 269.038 120.75 269.028C120.75 269.017 120.75 269.007 120.75 268.997C120.75 268.986 120.75 268.976 120.75 268.965C120.75 268.955 120.75 268.944 120.75 268.934C120.75 268.924 120.75 268.913 120.75 268.903C120.75 268.892 120.75 268.882 120.75 268.871C120.75 268.861 120.75 268.851 120.75 268.84C120.75 268.83 120.75 268.819 120.75 268.809C120.75 268.799 120.75 268.788 120.75 268.778C120.75 268.767 120.75 268.757 120.75 268.747C120.75 268.736 120.75 268.726 120.75 268.716C120.75 268.705 120.75 268.695 120.75 268.684C120.75 268.674 120.75 268.664 120.75 268.653C120.75 268.643 120.75 268.633 120.75 268.622C120.75 268.612 120.75 268.602 120.75 268.591C120.75 268.581 120.75 268.571 120.75 268.56C120.75 268.55 120.75 268.54 120.75 268.529C120.75 268.519 120.75 268.509 120.75 268.498C120.75 268.488 120.75 268.478 120.75 268.467C120.75 268.457 120.75 268.447 120.75 268.437C120.75 268.426 120.75 268.416 120.75 268.406C120.75 268.395 120.75 268.385 120.75 268.375C120.75 268.365 120.75 268.354 120.75 268.344C120.75 268.334 120.75 268.324 120.75 268.313C120.75 268.303 120.75 268.293 120.75 268.283C120.75 268.272 120.75 268.262 120.75 268.252C120.75 268.242 120.75 268.231 120.75 268.221C120.75 268.211 120.75 268.201 120.75 268.19C120.75 268.18 120.75 268.17 120.75 268.16C120.75 268.15 120.75 268.139 120.75 268.129C120.75 268.119 120.75 268.109 120.75 268.099C120.75 268.088 120.75 268.078 120.75 268.068C120.75 268.058 120.75 268.048 120.75 268.038C120.75 268.027 120.75 268.017 120.75 268.007C120.75 267.997 120.75 267.987 120.75 267.977C120.75 267.966 120.75 267.956 120.75 267.946C120.75 267.936 120.75 267.926 120.75 267.916C120.75 267.906 120.75 267.895 120.75 267.885C120.75 267.875 120.75 267.865 120.75 267.855C120.75 267.845 120.75 267.835 120.75 267.825C120.75 267.815 120.75 267.804 120.75 267.794C120.75 267.784 120.75 267.774 120.75 267.764C120.75 267.754 120.75 267.744 120.75 267.734C120.75 267.724 120.75 267.714 120.75 267.704C120.75 267.694 120.75 267.684 120.75 267.674C120.75 267.664 120.75 267.653 120.75 267.643C120.75 267.633 120.75 267.623 120.75 267.613C120.75 267.603 120.75 267.593 120.75 267.583C120.75 267.573 120.75 267.563 120.75 267.553C120.75 267.543 120.75 267.533 120.75 267.523C120.75 267.513 120.75 267.503 120.75 267.493C120.75 267.483 120.75 267.473 120.75 267.463C120.75 267.453 120.75 267.443 120.75 267.433C120.75 267.423 120.75 267.414 120.75 267.404C120.75 267.394 120.75 267.384 120.75 267.374C120.75 267.364 120.75 267.354 120.75 267.344C120.75 267.334 120.75 267.324 120.75 267.314C120.75 267.304 120.75 267.294 120.75 267.284C120.75 267.275 120.75 267.265 120.75 267.255C120.75 267.245 120.75 267.235 120.75 267.225C120.75 267.215 120.75 267.205 120.75 267.195C120.75 267.186 120.75 267.176 120.75 267.166C120.75 267.156 120.75 267.146 120.75 267.136C120.75 267.126 120.75 267.117 120.75 267.107C120.75 267.097 120.75 267.087 120.75 267.077C120.75 267.067 120.75 267.058 120.75 267.048C120.75 267.038 120.75 267.028 120.75 267.018C120.75 267.009 120.75 266.999 120.75 266.989C120.75 266.979 120.75 266.97 120.75 266.96C120.75 266.95 120.75 266.94 120.75 266.93C120.75 266.921 120.75 266.911 120.75 266.901C120.75 266.891 120.75 266.882 120.75 266.872C120.75 266.862 120.75 266.852 120.75 266.843C120.75 266.833 120.75 266.823 120.75 266.814C120.75 266.804 120.75 266.794 120.75 266.784C120.75 266.775 120.75 266.765 120.75 266.755C120.75 266.746 120.75 266.736 120.75 266.726C120.75 266.717 120.75 266.707 120.75 266.697C120.75 266.688 120.75 266.678 120.75 266.668C120.75 266.659 120.75 266.649 120.75 266.639C120.75 266.63 120.75 266.62 120.75 266.611C120.75 266.601 120.75 266.591 120.75 266.582C120.75 266.572 120.75 266.562 120.75 266.553C120.75 266.543 120.75 266.534 120.75 266.524C120.75 266.514 120.75 266.505 120.75 266.495C120.75 266.486 120.75 266.476 120.75 266.467C120.75 266.457 120.75 266.448 120.75 266.438C120.75 266.428 120.75 266.419 120.75 266.409C120.75 266.4 120.75 266.39 120.75 266.381C120.75 266.371 120.75 266.362 120.75 266.352C120.75 266.343 120.75 266.333 120.75 266.324C120.75 266.314 120.75 266.305 120.75 266.295C120.75 266.286 120.75 266.276 120.75 266.267C120.75 266.257 120.75 266.248 120.75 266.239C120.75 266.229 120.75 266.22 120.75 266.21C120.75 266.201 120.75 266.191 120.75 266.182C120.75 266.172 120.75 266.163 120.75 266.154C120.75 266.144 120.75 266.135 120.75 266.125C120.75 266.116 120.75 266.107 120.75 266.097C120.75 266.088 120.75 266.079 120.75 266.069C120.75 266.06 120.75 266.05 120.75 266.041C120.75 266.032 120.75 266.022 120.75 266.013C120.75 266.004 120.75 265.994 120.75 265.985C120.75 265.976 120.75 265.966 120.75 265.957C120.75 265.948 120.75 265.939 120.75 265.929C120.75 265.92 120.75 265.911 120.75 265.901C120.75 265.892 120.75 265.883 120.75 265.874C120.75 265.864 120.75 265.855 120.75 265.846C120.75 265.837 120.75 265.827 120.75 265.818C120.75 265.809 120.75 265.8 120.75 265.79C120.75 265.781 120.75 265.772 120.75 265.763C120.75 265.753 120.75 265.744 120.75 265.735C120.75 265.726 120.75 265.717 120.75 265.708C120.75 265.698 120.75 265.689 120.75 265.68C120.75 265.671 120.75 265.662 120.75 265.653C120.75 265.643 120.75 265.634 120.75 265.625C120.75 265.616 120.75 265.607 120.75 265.598C120.75 265.589 120.75 265.58 120.75 265.57C120.75 265.561 120.75 265.552 120.75 265.543C120.75 265.534 120.75 265.525 120.75 265.516C120.75 265.507 120.75 265.498 120.75 265.489C120.75 265.48 120.75 265.471 120.75 265.462C120.75 265.453 120.75 265.444 120.75 265.435C120.75 265.426 120.75 265.416 120.75 265.407C120.75 265.398 120.75 265.389 120.75 265.38C120.75 265.371 120.75 265.363 120.75 265.354C120.75 265.345 120.75 265.336 120.75 265.327C120.75 265.318 120.75 265.309 120.75 265.3C120.75 265.291 120.75 265.282 120.75 265.273C120.75 265.264 120.75 265.255 120.75 265.246C120.75 265.237 120.75 265.228 120.75 265.219C120.75 265.211 120.75 265.202 120.75 265.193C120.75 265.184 120.75 265.175 120.75 265.166C120.75 265.157 120.75 265.148 120.75 265.14C120.75 265.131 120.75 265.122 120.75 265.113C120.75 265.104 120.75 265.095 120.75 265.087C120.75 265.078 120.75 265.069 120.75 265.06C120.75 265.051 120.75 265.043 120.75 265.034C120.75 265.025 120.75 265.016 120.75 265.008C120.75 264.999 120.75 264.99 120.75 264.981C120.75 264.973 120.75 264.964 120.75 264.955C120.75 264.946 120.75 264.938 120.75 264.929C120.75 264.92 120.75 264.911 120.75 264.903C120.75 264.894 120.75 264.885 120.75 264.877C120.75 264.868 120.75 264.859 120.75 264.851C120.75 264.842 120.75 264.833 120.75 264.825C120.75 264.816 120.75 264.807 120.75 264.799C120.75 264.79 120.75 264.782 120.75 264.773C120.75 264.764 120.75 264.756 120.75 264.747C120.75 264.739 120.75 264.73 120.75 264.721C120.75 264.713 120.75 264.704 120.75 264.696C120.75 264.687 120.75 264.679 120.75 264.67C120.75 264.662 120.75 264.653 120.75 264.644C120.75 264.636 120.75 264.627 120.75 264.619C120.75 264.61 120.75 264.602 120.75 264.593C120.75 264.585 120.75 264.576 120.75 264.568C120.75 264.56 120.75 264.551 120.75 264.543C120.75 264.534 120.75 264.526 120.75 264.517C120.75 264.509 120.75 264.5 120.75 264.492C120.75 264.484 120.75 264.475 120.75 264.467C120.75 264.458 120.75 264.45 120.75 264.442C120.75 264.433 120.75 264.425 120.75 264.416C120.75 264.408 120.75 264.4 120.75 264.391C120.75 264.383 120.75 264.375 120.75 264.366C120.75 264.358 120.75 264.35 120.75 264.341C120.75 264.333 120.75 264.325 120.75 264.317C120.75 264.308 120.75 264.3 120.75 264.292C120.75 264.283 120.75 264.275 120.75 264.267C120.75 264.259 120.75 264.25 120.75 264.242C120.75 264.234 120.75 264.226 120.75 264.218C120.75 264.209 120.75 264.201 120.75 264.193C120.75 264.185 120.75 264.177 120.75 264.168C120.75 264.16 120.75 264.152 120.75 264.144C120.75 264.136 120.75 264.128 120.75 264.119C120.75 264.111 120.75 264.103 120.75 264.095C120.75 264.087 120.75 264.079 120.75 264.071C120.75 264.063 120.75 264.054 120.75 264.046C120.75 264.038 120.75 264.03 120.75 264.022C120.75 264.014 120.75 264.006 120.75 263.998C120.75 263.99 120.75 263.982 120.75 263.974C120.75 263.966 120.75 263.958 120.75 263.95C120.75 263.942 120.75 263.934 120.75 263.926C120.75 263.918 120.75 263.91 120.75 263.902C120.75 263.894 120.75 263.886 120.75 263.878C120.75 263.87 120.75 263.862 120.75 263.854C120.75 263.846 120.75 263.838 120.75 263.831C120.75 263.823 120.75 263.815 120.75 263.807C120.75 263.799 120.75 263.791 120.75 263.783C120.75 263.775 120.75 263.767 120.75 263.76C120.75 263.752 120.75 263.744 120.75 263.736C120.75 263.728 120.75 263.72 120.75 263.713C120.75 263.705 120.75 263.697 120.75 263.689C120.75 263.681 120.75 263.674 120.75 263.666C120.75 263.658 120.75 263.65 120.75 263.643C120.75 263.635 120.75 263.627 120.75 263.619C120.75 263.612 120.75 263.604 120.75 263.596C120.75 263.589 120.75 263.581 120.75 263.573C120.75 263.566 120.75 263.558 120.75 263.55C120.75 263.542 120.75 263.535 120.75 263.527C120.75 263.52 120.75 263.512 120.75 263.504C120.75 263.497 120.75 263.489 120.75 263.481C120.75 263.474 120.75 263.466 120.75 263.459C120.75 263.451 120.75 263.444 120.75 263.436C120.75 263.428 120.75 263.421 120.75 263.413C120.75 263.406 120.75 263.398 120.75 263.391C120.75 263.383 120.75 263.376 120.75 263.368C120.75 263.361 120.75 263.353 120.75 263.346C120.75 263.338 120.75 263.331 120.75 263.323C120.75 263.316 120.75 263.308 120.75 263.301C120.75 263.294 120.75 263.286 120.75 263.279C120.75 263.271 120.75 263.264 120.75 263.256C120.75 263.249 120.75 263.242 120.75 263.234C120.75 263.227 120.75 263.22 120.75 263.212C120.75 263.205 120.75 263.198 120.75 263.19C120.75 263.183 120.75 263.176 120.75 263.168C120.75 263.161 120.75 263.154 120.75 263.146C120.75 263.139 120.75 263.132 120.75 263.125C120.75 263.117 120.75 263.11 120.75 263.103C120.75 263.096 120.75 263.088 120.75 263.081C120.75 263.074 120.75 263.067 120.75 263.059C120.75 263.052 120.75 263.045 120.75 263.038C120.75 263.031 120.75 263.024 120.75 263.016C120.75 263.009 120.75 263.002 120.75 262.995C120.75 262.988 120.75 262.981 120.75 262.974C120.75 262.967 120.75 262.959 120.75 262.952C120.75 262.945 120.75 262.938 120.75 262.931C120.75 262.924 120.75 262.917 120.75 262.91C120.75 262.903 120.75 262.896 120.75 262.889C120.75 262.882 120.75 262.875 120.75 262.868C120.75 262.861 120.75 262.854 120.75 262.847C120.75 262.84 120.75 262.833 120.75 262.826C120.75 262.819 120.75 262.812 120.75 262.805C120.75 262.798 120.75 262.791 120.75 262.784C120.75 262.777 120.75 262.771 120.75 262.764C120.75 262.757 120.75 262.75 120.75 262.743C120.75 262.736 120.75 262.729 120.75 262.723C120.75 262.716 120.75 262.709 120.75 262.702C120.75 262.695 120.75 262.688 120.75 262.682C120.75 262.675 120.75 262.668 120.75 262.661C120.75 262.655 120.75 262.648 120.75 262.641C120.75 262.634 120.75 262.628 120.75 262.621C120.75 262.614 120.75 262.607 120.75 262.601C120.75 262.594 120.75 262.587 120.75 262.581C120.75 262.574 120.75 262.567 120.75 262.561C120.75 262.554 120.75 262.547 120.75 262.541C120.75 262.534 120.75 262.527 120.75 262.521C120.75 262.514 120.75 262.508 120.75 262.501C120.75 262.494 120.75 262.488 120.75 262.481C120.75 262.475 120.75 262.468 120.75 262.462C120.75 262.455 120.75 262.449 120.75 262.442C120.75 262.436 120.75 262.429 120.75 262.423C120.75 262.416 120.75 262.41 120.75 262.403C120.75 262.397 120.75 262.39 120.75 262.384C120.75 262.377 120.75 262.371 120.75 262.365C120.75 262.358 120.75 262.352 120.75 262.345C120.75 262.339 120.75 262.333 120.75 262.326C120.75 262.32 120.75 262.314 120.75 262.307C120.75 262.301 120.75 262.295 120.75 262.288C120.75 262.282 120.75 262.276 120.75 262.269C120.75 262.263 120.75 262.257 120.75 262.25C120.75 262.244 120.75 262.238 120.75 262.232C120.75 262.225 120.75 262.219 120.75 262.213C120.75 262.207 120.75 262.201 120.75 262.194C120.75 262.188 120.75 262.182 120.75 262.176C120.75 262.17 120.75 262.164 120.75 262.157C120.75 262.151 120.75 262.145 120.75 262.139C120.75 262.133 120.75 262.127 120.75 262.121C120.75 262.115 120.75 262.109 120.75 262.102C120.75 262.096 120.75 262.09 120.75 262.084C120.75 262.078 120.75 262.072 120.75 262.066C120.75 262.06 120.75 262.054 120.75 262.048C120.75 262.042 120.75 262.036 120.75 262.03C120.75 262.024 120.75 262.018 120.75 262.012C120.75 262.006 120.75 262 120.75 261.995C120.75 261.989 120.75 261.983 120.75 261.977C120.75 261.971 120.75 261.965 120.75 261.959C120.75 261.953 120.75 261.947 120.75 261.942C120.75 261.936 120.75 261.93 120.75 261.924C120.75 261.918 120.75 261.913 120.75 261.907C120.75 261.901 120.75 261.895 120.75 261.889C120.75 261.884 120.75 261.878 120.75 261.872C120.75 261.866 120.75 261.861 120.75 261.855C120.75 261.849 120.75 261.844 120.75 261.838C120.75 261.832 120.75 261.827 120.75 261.821C120.75 261.815 120.75 261.81 120.75 261.804C120.75 261.798 120.75 261.793 120.75 261.787C120.75 261.781 120.75 261.776 120.75 261.77C120.75 261.765 120.75 261.759 120.75 261.754C120.75 261.748 120.75 261.742 120.75 261.737C120.75 261.731 120.75 261.726 120.75 261.72C120.75 261.715 120.75 261.709 120.75 261.704C120.75 261.698 120.75 261.693 120.75 261.688C120.75 261.682 120.75 261.677 120.75 261.671C120.75 261.666 120.75 261.66 120.75 261.655C120.75 261.65 120.75 261.644 120.75 261.639C120.75 261.634 120.75 261.628 120.75 261.623C120.75 261.617 120.75 261.612 120.75 261.607C120.75 261.602 120.75 261.596 120.75 261.591C120.75 261.586 120.75 261.58 120.75 261.575C120.75 261.57 120.75 261.565 120.75 261.559C120.75 261.554 120.75 261.549 120.75 261.544C120.75 261.539 120.75 261.533 120.75 261.528C120.75 261.523 120.75 261.518 120.75 261.513C120.75 261.507 120.75 261.502 120.75 261.497C120.75 261.492 120.75 261.487 120.75 261.482C120.75 261.477 120.75 261.472 120.75 261.467C120.75 261.462 120.75 261.457 120.75 261.451C120.75 261.446 120.75 261.441 120.75 261.436C120.75 261.431 120.75 261.426 120.75 261.421C120.75 261.416 120.75 261.411 120.75 261.406C120.75 261.402 120.75 261.397 120.75 261.392C120.75 261.387 120.75 261.382 120.75 261.377C120.75 261.372 120.75 261.367 120.75 261.362C120.75 261.357 120.75 261.353 120.75 261.348C120.75 261.343 120.75 261.338 120.75 261.333C120.75 261.328 120.75 261.324 120.75 261.319C120.75 261.314 120.75 261.309 120.75 261.304C120.75 261.3 120.75 261.295 120.75 261.29C120.75 261.285 120.75 261.281 120.75 261.276C120.75 261.271 120.75 261.267 120.75 261.262C120.75 261.257 120.75 261.253 120.75 261.248C120.75 261.243 120.75 261.239 120.75 261.234C120.75 261.229 120.75 261.225 120.75 261.22C120.75 261.216 120.75 261.211 120.75 261.206C120.75 261.202 120.75 261.197 120.75 261.193C120.75 261.188 120.75 261.184 120.75 261.179C120.75 261.175 120.75 261.17 120.75 261.166C120.75 261.161 120.75 261.157 120.75 261.152C120.75 261.148 120.75 261.144 120.75 261.139C120.75 261.135 120.75 261.13 120.75 261.126C120.75 261.122 120.75 261.117 120.75 261.113C120.75 261.108 120.75 261.104 120.75 261.1C120.75 261.095 120.75 261.091 120.75 261.087C120.75 261.083 120.75 261.078 120.75 261.074C120.75 261.07 120.75 261.065 120.75 261.061C120.75 261.057 120.75 261.053 120.75 261.048C120.75 261.044 120.75 261.04 120.75 261.036C120.75 261.032 120.75 261.028 120.75 261.023C120.75 261.019 120.75 261.015 120.75 261.011C120.75 261.007 120.75 261.003 120.75 260.999C120.75 260.995 120.75 260.99 120.75 260.986C120.75 260.982 120.75 260.978 120.75 260.974C120.75 260.97 120.75 260.966 120.75 260.962C120.75 260.958 120.75 260.954 120.75 260.95C120.75 260.946 120.75 260.942 120.75 260.938C120.75 260.934 120.75 260.93 120.75 260.927C120.75 260.923 120.75 260.919 120.75 260.915C120.75 260.911 120.75 260.907 120.75 260.903C120.75 260.899 120.75 260.896 120.75 260.892C120.75 260.888 120.75 260.884 120.75 260.88C120.75 260.876 120.75 260.873 120.75 260.869C120.75 260.865 120.75 260.861 120.75 260.858C120.75 260.854 120.75 260.85 120.75 260.847C120.75 260.843 120.75 260.839 120.75 260.835C120.75 260.832 120.75 260.828 120.75 260.825C120.75 260.821 120.75 260.817 120.75 260.814C120.75 260.81 120.75 260.806 120.75 260.803C120.75 260.799 120.75 260.796 120.75 260.792C120.75 260.789 120.75 260.785 120.75 260.782C120.75 260.778 120.75 260.775 120.75 260.771C120.75 260.768 120.75 260.764 120.75 260.761C120.75 260.757 120.75 260.754 120.75 260.75C120.75 260.747 120.75 260.743 120.75 260.74C120.75 260.737 120.75 260.733 120.75 260.73C120.75 260.727 120.75 260.723 120.75 260.72C120.75 260.717 120.75 260.713 120.75 260.71C120.75 260.707 120.75 260.703 120.75 260.7C120.75 260.697 120.75 260.694 120.75 260.69C120.75 260.687 120.75 260.684 120.75 260.681C120.75 260.677 120.75 260.674 120.75 260.671C120.75 260.668 120.75 260.665 120.75 260.662C120.75 260.659 120.75 260.655 120.75 260.652C120.75 260.649 120.75 260.646 120.75 260.643C120.75 260.64 120.75 260.637 120.75 260.634C120.75 260.631 120.75 260.628 120.75 260.625C120.75 260.622 120.75 260.619 120.75 260.616C120.75 260.613 120.75 260.61 120.75 260.607C120.75 260.604 120.75 260.601 120.75 260.598C120.75 260.595 120.75 260.592 120.75 260.589C120.75 260.586 120.75 260.584 120.75 260.581C120.75 260.578 120.75 260.575 120.75 260.572C120.75 260.569 120.75 260.567 120.75 260.564C120.75 260.561 120.75 260.558 120.75 260.555C120.75 260.553 120.75 260.55 120.75 260.547C120.75 260.545 120.75 260.542 120.75 260.539C120.75 260.536 120.75 260.534 120.75 260.531C120.75 260.528 120.75 260.526 120.75 260.523C120.75 260.521 120.75 260.518 120.75 260.515C120.75 260.513 120.75 260.51 120.75 260.508C120.75 260.505 120.75 260.503 120.75 260.5H120.25C120.25 260.503 120.25 260.505 120.25 260.508C120.25 260.51 120.25 260.513 120.25 260.515C120.25 260.518 120.25 260.521 120.25 260.523C120.25 260.526 120.25 260.528 120.25 260.531C120.25 260.534 120.25 260.536 120.25 260.539C120.25 260.542 120.25 260.545 120.25 260.547C120.25 260.55 120.25 260.553 120.25 260.555C120.25 260.558 120.25 260.561 120.25 260.564C120.25 260.567 120.25 260.569 120.25 260.572C120.25 260.575 120.25 260.578 120.25 260.581C120.25 260.584 120.25 260.586 120.25 260.589C120.25 260.592 120.25 260.595 120.25 260.598C120.25 260.601 120.25 260.604 120.25 260.607C120.25 260.61 120.25 260.613 120.25 260.616C120.25 260.619 120.25 260.622 120.25 260.625C120.25 260.628 120.25 260.631 120.25 260.634C120.25 260.637 120.25 260.64 120.25 260.643C120.25 260.646 120.25 260.649 120.25 260.652C120.25 260.655 120.25 260.659 120.25 260.662C120.25 260.665 120.25 260.668 120.25 260.671C120.25 260.674 120.25 260.677 120.25 260.681C120.25 260.684 120.25 260.687 120.25 260.69C120.25 260.694 120.25 260.697 120.25 260.7C120.25 260.703 120.25 260.707 120.25 260.71C120.25 260.713 120.25 260.717 120.25 260.72C120.25 260.723 120.25 260.727 120.25 260.73C120.25 260.733 120.25 260.737 120.25 260.74C120.25 260.743 120.25 260.747 120.25 260.75C120.25 260.754 120.25 260.757 120.25 260.761C120.25 260.764 120.25 260.768 120.25 260.771C120.25 260.775 120.25 260.778 120.25 260.782C120.25 260.785 120.25 260.789 120.25 260.792C120.25 260.796 120.25 260.799 120.25 260.803C120.25 260.806 120.25 260.81 120.25 260.814C120.25 260.817 120.25 260.821 120.25 260.825C120.25 260.828 120.25 260.832 120.25 260.835C120.25 260.839 120.25 260.843 120.25 260.847C120.25 260.85 120.25 260.854 120.25 260.858C120.25 260.861 120.25 260.865 120.25 260.869C120.25 260.873 120.25 260.876 120.25 260.88C120.25 260.884 120.25 260.888 120.25 260.892C120.25 260.896 120.25 260.899 120.25 260.903C120.25 260.907 120.25 260.911 120.25 260.915C120.25 260.919 120.25 260.923 120.25 260.927C120.25 260.93 120.25 260.934 120.25 260.938C120.25 260.942 120.25 260.946 120.25 260.95C120.25 260.954 120.25 260.958 120.25 260.962C120.25 260.966 120.25 260.97 120.25 260.974C120.25 260.978 120.25 260.982 120.25 260.986C120.25 260.99 120.25 260.995 120.25 260.999C120.25 261.003 120.25 261.007 120.25 261.011C120.25 261.015 120.25 261.019 120.25 261.023C120.25 261.028 120.25 261.032 120.25 261.036C120.25 261.04 120.25 261.044 120.25 261.048C120.25 261.053 120.25 261.057 120.25 261.061C120.25 261.065 120.25 261.07 120.25 261.074C120.25 261.078 120.25 261.083 120.25 261.087C120.25 261.091 120.25 261.095 120.25 261.1C120.25 261.104 120.25 261.108 120.25 261.113C120.25 261.117 120.25 261.122 120.25 261.126C120.25 261.13 120.25 261.135 120.25 261.139C120.25 261.144 120.25 261.148 120.25 261.152C120.25 261.157 120.25 261.161 120.25 261.166C120.25 261.17 120.25 261.175 120.25 261.179C120.25 261.184 120.25 261.188 120.25 261.193C120.25 261.197 120.25 261.202 120.25 261.206C120.25 261.211 120.25 261.216 120.25 261.22C120.25 261.225 120.25 261.229 120.25 261.234C120.25 261.239 120.25 261.243 120.25 261.248C120.25 261.253 120.25 261.257 120.25 261.262C120.25 261.267 120.25 261.271 120.25 261.276C120.25 261.281 120.25 261.285 120.25 261.29C120.25 261.295 120.25 261.3 120.25 261.304C120.25 261.309 120.25 261.314 120.25 261.319C120.25 261.324 120.25 261.328 120.25 261.333C120.25 261.338 120.25 261.343 120.25 261.348C120.25 261.353 120.25 261.357 120.25 261.362C120.25 261.367 120.25 261.372 120.25 261.377C120.25 261.382 120.25 261.387 120.25 261.392C120.25 261.397 120.25 261.402 120.25 261.406C120.25 261.411 120.25 261.416 120.25 261.421C120.25 261.426 120.25 261.431 120.25 261.436C120.25 261.441 120.25 261.446 120.25 261.451C120.25 261.457 120.25 261.462 120.25 261.467C120.25 261.472 120.25 261.477 120.25 261.482C120.25 261.487 120.25 261.492 120.25 261.497C120.25 261.502 120.25 261.507 120.25 261.513C120.25 261.518 120.25 261.523 120.25 261.528C120.25 261.533 120.25 261.539 120.25 261.544C120.25 261.549 120.25 261.554 120.25 261.559C120.25 261.565 120.25 261.57 120.25 261.575C120.25 261.58 120.25 261.586 120.25 261.591C120.25 261.596 120.25 261.602 120.25 261.607C120.25 261.612 120.25 261.617 120.25 261.623C120.25 261.628 120.25 261.634 120.25 261.639C120.25 261.644 120.25 261.65 120.25 261.655C120.25 261.66 120.25 261.666 120.25 261.671C120.25 261.677 120.25 261.682 120.25 261.688C120.25 261.693 120.25 261.698 120.25 261.704C120.25 261.709 120.25 261.715 120.25 261.72C120.25 261.726 120.25 261.731 120.25 261.737C120.25 261.742 120.25 261.748 120.25 261.754C120.25 261.759 120.25 261.765 120.25 261.77C120.25 261.776 120.25 261.781 120.25 261.787C120.25 261.793 120.25 261.798 120.25 261.804C120.25 261.81 120.25 261.815 120.25 261.821C120.25 261.827 120.25 261.832 120.25 261.838C120.25 261.844 120.25 261.849 120.25 261.855C120.25 261.861 120.25 261.866 120.25 261.872C120.25 261.878 120.25 261.884 120.25 261.889C120.25 261.895 120.25 261.901 120.25 261.907C120.25 261.913 120.25 261.918 120.25 261.924C120.25 261.93 120.25 261.936 120.25 261.942C120.25 261.947 120.25 261.953 120.25 261.959C120.25 261.965 120.25 261.971 120.25 261.977C120.25 261.983 120.25 261.989 120.25 261.995C120.25 262 120.25 262.006 120.25 262.012C120.25 262.018 120.25 262.024 120.25 262.03C120.25 262.036 120.25 262.042 120.25 262.048C120.25 262.054 120.25 262.06 120.25 262.066C120.25 262.072 120.25 262.078 120.25 262.084C120.25 262.09 120.25 262.096 120.25 262.102C120.25 262.109 120.25 262.115 120.25 262.121C120.25 262.127 120.25 262.133 120.25 262.139C120.25 262.145 120.25 262.151 120.25 262.157C120.25 262.164 120.25 262.17 120.25 262.176C120.25 262.182 120.25 262.188 120.25 262.194C120.25 262.201 120.25 262.207 120.25 262.213C120.25 262.219 120.25 262.225 120.25 262.232C120.25 262.238 120.25 262.244 120.25 262.25C120.25 262.257 120.25 262.263 120.25 262.269C120.25 262.276 120.25 262.282 120.25 262.288C120.25 262.295 120.25 262.301 120.25 262.307C120.25 262.314 120.25 262.32 120.25 262.326C120.25 262.333 120.25 262.339 120.25 262.345C120.25 262.352 120.25 262.358 120.25 262.365C120.25 262.371 120.25 262.377 120.25 262.384C120.25 262.39 120.25 262.397 120.25 262.403C120.25 262.41 120.25 262.416 120.25 262.423C120.25 262.429 120.25 262.436 120.25 262.442C120.25 262.449 120.25 262.455 120.25 262.462C120.25 262.468 120.25 262.475 120.25 262.481C120.25 262.488 120.25 262.494 120.25 262.501C120.25 262.508 120.25 262.514 120.25 262.521C120.25 262.527 120.25 262.534 120.25 262.541C120.25 262.547 120.25 262.554 120.25 262.561C120.25 262.567 120.25 262.574 120.25 262.581C120.25 262.587 120.25 262.594 120.25 262.601C120.25 262.607 120.25 262.614 120.25 262.621C120.25 262.628 120.25 262.634 120.25 262.641C120.25 262.648 120.25 262.655 120.25 262.661C120.25 262.668 120.25 262.675 120.25 262.682C120.25 262.688 120.25 262.695 120.25 262.702C120.25 262.709 120.25 262.716 120.25 262.723C120.25 262.729 120.25 262.736 120.25 262.743C120.25 262.75 120.25 262.757 120.25 262.764C120.25 262.771 120.25 262.777 120.25 262.784C120.25 262.791 120.25 262.798 120.25 262.805C120.25 262.812 120.25 262.819 120.25 262.826C120.25 262.833 120.25 262.84 120.25 262.847C120.25 262.854 120.25 262.861 120.25 262.868C120.25 262.875 120.25 262.882 120.25 262.889C120.25 262.896 120.25 262.903 120.25 262.91C120.25 262.917 120.25 262.924 120.25 262.931C120.25 262.938 120.25 262.945 120.25 262.952C120.25 262.959 120.25 262.967 120.25 262.974C120.25 262.981 120.25 262.988 120.25 262.995C120.25 263.002 120.25 263.009 120.25 263.016C120.25 263.024 120.25 263.031 120.25 263.038C120.25 263.045 120.25 263.052 120.25 263.059C120.25 263.067 120.25 263.074 120.25 263.081C120.25 263.088 120.25 263.096 120.25 263.103C120.25 263.11 120.25 263.117 120.25 263.125C120.25 263.132 120.25 263.139 120.25 263.146C120.25 263.154 120.25 263.161 120.25 263.168C120.25 263.176 120.25 263.183 120.25 263.19C120.25 263.198 120.25 263.205 120.25 263.212C120.25 263.22 120.25 263.227 120.25 263.234C120.25 263.242 120.25 263.249 120.25 263.256C120.25 263.264 120.25 263.271 120.25 263.279C120.25 263.286 120.25 263.294 120.25 263.301C120.25 263.308 120.25 263.316 120.25 263.323C120.25 263.331 120.25 263.338 120.25 263.346C120.25 263.353 120.25 263.361 120.25 263.368C120.25 263.376 120.25 263.383 120.25 263.391C120.25 263.398 120.25 263.406 120.25 263.413C120.25 263.421 120.25 263.428 120.25 263.436C120.25 263.444 120.25 263.451 120.25 263.459C120.25 263.466 120.25 263.474 120.25 263.481C120.25 263.489 120.25 263.497 120.25 263.504C120.25 263.512 120.25 263.52 120.25 263.527C120.25 263.535 120.25 263.542 120.25 263.55C120.25 263.558 120.25 263.566 120.25 263.573C120.25 263.581 120.25 263.589 120.25 263.596C120.25 263.604 120.25 263.612 120.25 263.619C120.25 263.627 120.25 263.635 120.25 263.643C120.25 263.65 120.25 263.658 120.25 263.666C120.25 263.674 120.25 263.681 120.25 263.689C120.25 263.697 120.25 263.705 120.25 263.713C120.25 263.72 120.25 263.728 120.25 263.736C120.25 263.744 120.25 263.752 120.25 263.76C120.25 263.767 120.25 263.775 120.25 263.783C120.25 263.791 120.25 263.799 120.25 263.807C120.25 263.815 120.25 263.823 120.25 263.831C120.25 263.838 120.25 263.846 120.25 263.854C120.25 263.862 120.25 263.87 120.25 263.878C120.25 263.886 120.25 263.894 120.25 263.902C120.25 263.91 120.25 263.918 120.25 263.926C120.25 263.934 120.25 263.942 120.25 263.95C120.25 263.958 120.25 263.966 120.25 263.974C120.25 263.982 120.25 263.99 120.25 263.998C120.25 264.006 120.25 264.014 120.25 264.022C120.25 264.03 120.25 264.038 120.25 264.046C120.25 264.054 120.25 264.063 120.25 264.071C120.25 264.079 120.25 264.087 120.25 264.095C120.25 264.103 120.25 264.111 120.25 264.119C120.25 264.128 120.25 264.136 120.25 264.144C120.25 264.152 120.25 264.16 120.25 264.168C120.25 264.177 120.25 264.185 120.25 264.193C120.25 264.201 120.25 264.209 120.25 264.218C120.25 264.226 120.25 264.234 120.25 264.242C120.25 264.25 120.25 264.259 120.25 264.267C120.25 264.275 120.25 264.283 120.25 264.292C120.25 264.3 120.25 264.308 120.25 264.317C120.25 264.325 120.25 264.333 120.25 264.341C120.25 264.35 120.25 264.358 120.25 264.366C120.25 264.375 120.25 264.383 120.25 264.391C120.25 264.4 120.25 264.408 120.25 264.416C120.25 264.425 120.25 264.433 120.25 264.442C120.25 264.45 120.25 264.458 120.25 264.467C120.25 264.475 120.25 264.484 120.25 264.492C120.25 264.5 120.25 264.509 120.25 264.517C120.25 264.526 120.25 264.534 120.25 264.543C120.25 264.551 120.25 264.56 120.25 264.568C120.25 264.576 120.25 264.585 120.25 264.593C120.25 264.602 120.25 264.61 120.25 264.619C120.25 264.627 120.25 264.636 120.25 264.644C120.25 264.653 120.25 264.662 120.25 264.67C120.25 264.679 120.25 264.687 120.25 264.696C120.25 264.704 120.25 264.713 120.25 264.721C120.25 264.73 120.25 264.739 120.25 264.747C120.25 264.756 120.25 264.764 120.25 264.773C120.25 264.782 120.25 264.79 120.25 264.799C120.25 264.807 120.25 264.816 120.25 264.825C120.25 264.833 120.25 264.842 120.25 264.851C120.25 264.859 120.25 264.868 120.25 264.877C120.25 264.885 120.25 264.894 120.25 264.903C120.25 264.911 120.25 264.92 120.25 264.929C120.25 264.938 120.25 264.946 120.25 264.955C120.25 264.964 120.25 264.973 120.25 264.981C120.25 264.99 120.25 264.999 120.25 265.008C120.25 265.016 120.25 265.025 120.25 265.034C120.25 265.043 120.25 265.051 120.25 265.06C120.25 265.069 120.25 265.078 120.25 265.087C120.25 265.095 120.25 265.104 120.25 265.113C120.25 265.122 120.25 265.131 120.25 265.14C120.25 265.148 120.25 265.157 120.25 265.166C120.25 265.175 120.25 265.184 120.25 265.193C120.25 265.202 120.25 265.211 120.25 265.219C120.25 265.228 120.25 265.237 120.25 265.246C120.25 265.255 120.25 265.264 120.25 265.273C120.25 265.282 120.25 265.291 120.25 265.3C120.25 265.309 120.25 265.318 120.25 265.327C120.25 265.336 120.25 265.345 120.25 265.354C120.25 265.363 120.25 265.371 120.25 265.38C120.25 265.389 120.25 265.398 120.25 265.407C120.25 265.416 120.25 265.426 120.25 265.435C120.25 265.444 120.25 265.453 120.25 265.462C120.25 265.471 120.25 265.48 120.25 265.489C120.25 265.498 120.25 265.507 120.25 265.516C120.25 265.525 120.25 265.534 120.25 265.543C120.25 265.552 120.25 265.561 120.25 265.57C120.25 265.58 120.25 265.589 120.25 265.598C120.25 265.607 120.25 265.616 120.25 265.625C120.25 265.634 120.25 265.643 120.25 265.653C120.25 265.662 120.25 265.671 120.25 265.68C120.25 265.689 120.25 265.698 120.25 265.708C120.25 265.717 120.25 265.726 120.25 265.735C120.25 265.744 120.25 265.753 120.25 265.763C120.25 265.772 120.25 265.781 120.25 265.79C120.25 265.8 120.25 265.809 120.25 265.818C120.25 265.827 120.25 265.837 120.25 265.846C120.25 265.855 120.25 265.864 120.25 265.874C120.25 265.883 120.25 265.892 120.25 265.901C120.25 265.911 120.25 265.92 120.25 265.929C120.25 265.939 120.25 265.948 120.25 265.957C120.25 265.966 120.25 265.976 120.25 265.985C120.25 265.994 120.25 266.004 120.25 266.013C120.25 266.022 120.25 266.032 120.25 266.041C120.25 266.05 120.25 266.06 120.25 266.069C120.25 266.079 120.25 266.088 120.25 266.097C120.25 266.107 120.25 266.116 120.25 266.125C120.25 266.135 120.25 266.144 120.25 266.154C120.25 266.163 120.25 266.172 120.25 266.182C120.25 266.191 120.25 266.201 120.25 266.21C120.25 266.22 120.25 266.229 120.25 266.239C120.25 266.248 120.25 266.257 120.25 266.267C120.25 266.276 120.25 266.286 120.25 266.295C120.25 266.305 120.25 266.314 120.25 266.324C120.25 266.333 120.25 266.343 120.25 266.352C120.25 266.362 120.25 266.371 120.25 266.381C120.25 266.39 120.25 266.4 120.25 266.409C120.25 266.419 120.25 266.428 120.25 266.438C120.25 266.448 120.25 266.457 120.25 266.467C120.25 266.476 120.25 266.486 120.25 266.495C120.25 266.505 120.25 266.514 120.25 266.524C120.25 266.534 120.25 266.543 120.25 266.553C120.25 266.562 120.25 266.572 120.25 266.582C120.25 266.591 120.25 266.601 120.25 266.611C120.25 266.62 120.25 266.63 120.25 266.639C120.25 266.649 120.25 266.659 120.25 266.668C120.25 266.678 120.25 266.688 120.25 266.697C120.25 266.707 120.25 266.717 120.25 266.726C120.25 266.736 120.25 266.746 120.25 266.755C120.25 266.765 120.25 266.775 120.25 266.784C120.25 266.794 120.25 266.804 120.25 266.814C120.25 266.823 120.25 266.833 120.25 266.843C120.25 266.852 120.25 266.862 120.25 266.872C120.25 266.882 120.25 266.891 120.25 266.901C120.25 266.911 120.25 266.921 120.25 266.93C120.25 266.94 120.25 266.95 120.25 266.96C120.25 266.97 120.25 266.979 120.25 266.989C120.25 266.999 120.25 267.009 120.25 267.018C120.25 267.028 120.25 267.038 120.25 267.048C120.25 267.058 120.25 267.067 120.25 267.077C120.25 267.087 120.25 267.097 120.25 267.107C120.25 267.117 120.25 267.126 120.25 267.136C120.25 267.146 120.25 267.156 120.25 267.166C120.25 267.176 120.25 267.186 120.25 267.195C120.25 267.205 120.25 267.215 120.25 267.225C120.25 267.235 120.25 267.245 120.25 267.255C120.25 267.265 120.25 267.275 120.25 267.284C120.25 267.294 120.25 267.304 120.25 267.314C120.25 267.324 120.25 267.334 120.25 267.344C120.25 267.354 120.25 267.364 120.25 267.374C120.25 267.384 120.25 267.394 120.25 267.404C120.25 267.414 120.25 267.423 120.25 267.433C120.25 267.443 120.25 267.453 120.25 267.463C120.25 267.473 120.25 267.483 120.25 267.493C120.25 267.503 120.25 267.513 120.25 267.523C120.25 267.533 120.25 267.543 120.25 267.553C120.25 267.563 120.25 267.573 120.25 267.583C120.25 267.593 120.25 267.603 120.25 267.613C120.25 267.623 120.25 267.633 120.25 267.643C120.25 267.653 120.25 267.664 120.25 267.674C120.25 267.684 120.25 267.694 120.25 267.704C120.25 267.714 120.25 267.724 120.25 267.734C120.25 267.744 120.25 267.754 120.25 267.764C120.25 267.774 120.25 267.784 120.25 267.794C120.25 267.804 120.25 267.815 120.25 267.825C120.25 267.835 120.25 267.845 120.25 267.855C120.25 267.865 120.25 267.875 120.25 267.885C120.25 267.895 120.25 267.906 120.25 267.916C120.25 267.926 120.25 267.936 120.25 267.946C120.25 267.956 120.25 267.966 120.25 267.977C120.25 267.987 120.25 267.997 120.25 268.007C120.25 268.017 120.25 268.027 120.25 268.038C120.25 268.048 120.25 268.058 120.25 268.068C120.25 268.078 120.25 268.088 120.25 268.099C120.25 268.109 120.25 268.119 120.25 268.129C120.25 268.139 120.25 268.15 120.25 268.16C120.25 268.17 120.25 268.18 120.25 268.19C120.25 268.201 120.25 268.211 120.25 268.221C120.25 268.231 120.25 268.242 120.25 268.252C120.25 268.262 120.25 268.272 120.25 268.283C120.25 268.293 120.25 268.303 120.25 268.313C120.25 268.324 120.25 268.334 120.25 268.344C120.25 268.354 120.25 268.365 120.25 268.375C120.25 268.385 120.25 268.395 120.25 268.406C120.25 268.416 120.25 268.426 120.25 268.437C120.25 268.447 120.25 268.457 120.25 268.467C120.25 268.478 120.25 268.488 120.25 268.498C120.25 268.509 120.25 268.519 120.25 268.529C120.25 268.54 120.25 268.55 120.25 268.56C120.25 268.571 120.25 268.581 120.25 268.591C120.25 268.602 120.25 268.612 120.25 268.622C120.25 268.633 120.25 268.643 120.25 268.653C120.25 268.664 120.25 268.674 120.25 268.684C120.25 268.695 120.25 268.705 120.25 268.716C120.25 268.726 120.25 268.736 120.25 268.747C120.25 268.757 120.25 268.767 120.25 268.778C120.25 268.788 120.25 268.799 120.25 268.809C120.25 268.819 120.25 268.83 120.25 268.84C120.25 268.851 120.25 268.861 120.25 268.871C120.25 268.882 120.25 268.892 120.25 268.903C120.25 268.913 120.25 268.924 120.25 268.934C120.25 268.944 120.25 268.955 120.25 268.965C120.25 268.976 120.25 268.986 120.25 268.997C120.25 269.007 120.25 269.017 120.25 269.028C120.25 269.038 120.25 269.049 120.25 269.059C120.25 269.07 120.25 269.08 120.25 269.091C120.25 269.101 120.25 269.112 120.25 269.122C120.25 269.133 120.25 269.143 120.25 269.154C120.25 269.164 120.25 269.174 120.25 269.185C120.25 269.195 120.25 269.206 120.25 269.216C120.25 269.227 120.25 269.237 120.25 269.248C120.25 269.258 120.25 269.269 120.25 269.279C120.25 269.29 120.25 269.301 120.25 269.311C120.25 269.322 120.25 269.332 120.25 269.343C120.25 269.353 120.25 269.364 120.25 269.374C120.25 269.385 120.25 269.395 120.25 269.406C120.25 269.416 120.25 269.427 120.25 269.437C120.25 269.448 120.25 269.459 120.25 269.469C120.25 269.48 120.25 269.49 120.25 269.501C120.25 269.511 120.25 269.522 120.25 269.532C120.25 269.543 120.25 269.554 120.25 269.564C120.25 269.575 120.25 269.585 120.25 269.596C120.25 269.606 120.25 269.617 120.25 269.628C120.25 269.638 120.25 269.649 120.25 269.659C120.25 269.67 120.25 269.681 120.25 269.691C120.25 269.702 120.25 269.712 120.25 269.723C120.25 269.734 120.25 269.744 120.25 269.755C120.25 269.765 120.25 269.776 120.25 269.787C120.25 269.797 120.25 269.808 120.25 269.819C120.25 269.829 120.25 269.84 120.25 269.85C120.25 269.861 120.25 269.872 120.25 269.882C120.25 269.893 120.25 269.904 120.25 269.914C120.25 269.925 120.25 269.936 120.25 269.946C120.25 269.957 120.25 269.967 120.25 269.978C120.25 269.989 120.25 269.999 120.25 270.01C120.25 270.021 120.25 270.031 120.25 270.042C120.25 270.053 120.25 270.063 120.25 270.074C120.25 270.085 120.25 270.095 120.25 270.106C120.25 270.117 120.25 270.128 120.25 270.138C120.25 270.149 120.25 270.16 120.25 270.17C120.25 270.181 120.25 270.192 120.25 270.202C120.25 270.213 120.25 270.224 120.25 270.234C120.25 270.245 120.25 270.256 120.25 270.267C120.25 270.277 120.25 270.288 120.25 270.299C120.25 270.309 120.25 270.32 120.25 270.331C120.25 270.341 120.25 270.352 120.25 270.363C120.25 270.374 120.25 270.384 120.25 270.395C120.25 270.406 120.25 270.417 120.25 270.427C120.25 270.438 120.25 270.449 120.25 270.459C120.25 270.47 120.25 270.481 120.25 270.492C120.25 270.502 120.25 270.513 120.25 270.524C120.25 270.535 120.25 270.545 120.25 270.556C120.25 270.567 120.25 270.578 120.25 270.588C120.25 270.599 120.25 270.61 120.25 270.621C120.25 270.631 120.25 270.642 120.25 270.653C120.25 270.664 120.25 270.674 120.25 270.685C120.25 270.696 120.25 270.707 120.25 270.718C120.25 270.728 120.25 270.739 120.25 270.75C120.25 270.761 120.25 270.771 120.25 270.782C120.25 270.793 120.25 270.804 120.25 270.815C120.25 270.825 120.25 270.836 120.25 270.847C120.25 270.858 120.25 270.868 120.25 270.879C120.25 270.89 120.25 270.901 120.25 270.912C120.25 270.922 120.25 270.933 120.25 270.944C120.25 270.955 120.25 270.966 120.25 270.976C120.25 270.987 120.25 270.998 120.25 271.009C120.25 271.02 120.25 271.03 120.25 271.041C120.25 271.052 120.25 271.063 120.25 271.074C120.25 271.085 120.25 271.095 120.25 271.106C120.25 271.117 120.25 271.128 120.25 271.139C120.25 271.149 120.25 271.16 120.25 271.171C120.25 271.182 120.25 271.193 120.25 271.204C120.25 271.214 120.25 271.225 120.25 271.236C120.25 271.247 120.25 271.258 120.25 271.269C120.25 271.279 120.25 271.29 120.25 271.301C120.25 271.312 120.25 271.323 120.25 271.334C120.25 271.344 120.25 271.355 120.25 271.366C120.25 271.377 120.25 271.388 120.25 271.399C120.25 271.41 120.25 271.42 120.25 271.431C120.25 271.442 120.25 271.453 120.25 271.464C120.25 271.475 120.25 271.485 120.25 271.496C120.25 271.507 120.25 271.518 120.25 271.529C120.25 271.54 120.25 271.551 120.25 271.561C120.25 271.572 120.25 271.583 120.25 271.594C120.25 271.605 120.25 271.616 120.25 271.627C120.25 271.638 120.25 271.648 120.25 271.659C120.25 271.67 120.25 271.681 120.25 271.692C120.25 271.703 120.25 271.714 120.25 271.724C120.25 271.735 120.25 271.746 120.25 271.757C120.25 271.768 120.25 271.779 120.25 271.79C120.25 271.801 120.25 271.812 120.25 271.822C120.25 271.833 120.25 271.844 120.25 271.855C120.25 271.866 120.25 271.877 120.25 271.888C120.25 271.899 120.25 271.909 120.25 271.92C120.25 271.931 120.25 271.942 120.25 271.953C120.25 271.964 120.25 271.975 120.25 271.986C120.25 271.997 120.25 272.007 120.25 272.018C120.25 272.029 120.25 272.04 120.25 272.051C120.25 272.062 120.25 272.073 120.25 272.084C120.25 272.095 120.25 272.105 120.25 272.116C120.25 272.127 120.25 272.138 120.25 272.149C120.25 272.16 120.25 272.171 120.25 272.182C120.25 272.193 120.25 272.204 120.25 272.214C120.25 272.225 120.25 272.236 120.25 272.247C120.25 272.258 120.25 272.269 120.25 272.28C120.25 272.291 120.25 272.302 120.25 272.313C120.25 272.323 120.25 272.334 120.25 272.345C120.25 272.356 120.25 272.367 120.25 272.378C120.25 272.389 120.25 272.4 120.25 272.411C120.25 272.422 120.25 272.433 120.25 272.443C120.25 272.454 120.25 272.465 120.25 272.476C120.25 272.487 120.25 272.498 120.25 272.509C120.25 272.52 120.25 272.531 120.25 272.542C120.25 272.553 120.25 272.563 120.25 272.574C120.25 272.585 120.25 272.596 120.25 272.607C120.25 272.618 120.25 272.629 120.25 272.64C120.25 272.651 120.25 272.662 120.25 272.673C120.25 272.684 120.25 272.694 120.25 272.705C120.25 272.716 120.25 272.727 120.25 272.738C120.25 272.749 120.25 272.76 120.25 272.771C120.25 272.782 120.25 272.793 120.25 272.804C120.25 272.814 120.25 272.825 120.25 272.836C120.25 272.847 120.25 272.858 120.25 272.869C120.25 272.88 120.25 272.891 120.25 272.902C120.25 272.913 120.25 272.924 120.25 272.935C120.25 272.945 120.25 272.956 120.25 272.967C120.25 272.978 120.25 272.989 120.25 273H120.75ZM120.283 260.376C120.061 260.765 119.637 261.184 118.957 261.617C118.28 262.05 117.363 262.488 116.178 262.921C113.806 263.789 110.382 264.629 105.694 265.378C96.3189 266.875 81.9238 268 60.8617 268.25L60.8676 268.75C81.9408 268.5 96.3634 267.375 105.773 265.872C110.476 265.121 113.936 264.274 116.349 263.391C117.556 262.95 118.508 262.497 119.226 262.039C119.941 261.582 120.439 261.11 120.717 260.624L120.283 260.376ZM60.8701 268.25C46.5826 267.94 32.5007 267.315 21.6185 266.081C16.1764 265.464 11.5438 264.696 8.08904 263.742C6.36134 263.265 4.937 262.744 3.8562 262.176C2.77024 261.606 2.05958 261.004 1.71947 260.38L1.28053 260.62C1.69042 261.371 2.50432 262.031 3.62377 262.619C4.74837 263.209 6.21027 263.742 7.95593 264.224C11.4479 265.188 16.1105 265.96 21.5622 266.578C32.4677 267.814 46.5681 268.439 60.8592 268.75L60.8701 268.25Z" fill="#676767"/>
<path d="M1.00006 307.076V295.223C8.4424 297.034 31.379 301.269 59.9575 301.89C88.5361 302.511 111.587 297.755 118.434 295.427V307.28C109.362 310.984 90.8184 314.484 59.9575 314.484C32.754 314.484 12.7944 310.78 1.00006 307.076Z" fill="white"/>
<path d="M1.00006 295.223L1.05917 294.98C0.984633 294.962 0.9059 294.979 0.845588 295.027C0.785276 295.074 0.750061 295.146 0.750061 295.223H1.00006ZM1.00006 307.076H0.750061V307.259L0.925156 307.314L1.00006 307.076ZM118.434 307.28L118.529 307.511L118.684 307.448V307.28H118.434ZM118.434 295.427H118.684C118.684 295.346 118.645 295.271 118.58 295.224C118.514 295.177 118.43 295.164 118.354 295.19L118.434 295.427ZM59.9575 301.89L59.9521 302.14L59.9575 301.89ZM0.750061 295.223V307.076H1.25006V295.223H0.750061ZM0.925156 307.314C12.7475 311.027 32.7329 314.734 59.9575 314.734V314.234C32.7751 314.234 12.8413 310.533 1.07497 306.837L0.925156 307.314ZM59.9575 314.734C90.8292 314.734 109.411 311.233 118.529 307.511L118.34 307.048C109.312 310.734 90.8076 314.234 59.9575 314.234V314.734ZM118.684 307.28V295.427H118.184V307.28H118.684ZM118.354 295.19C111.539 297.507 88.5181 302.261 59.963 301.64L59.9521 302.14C88.5541 302.762 111.635 298.003 118.515 295.664L118.354 295.19ZM59.963 301.64C31.4032 301.02 8.48462 296.787 1.05917 294.98L0.940956 295.466C8.40017 297.281 31.3547 301.519 59.9521 302.14L59.963 301.64Z" fill="#676767"/>
<path d="M11.8869 288.289V275.962C19.1449 277.444 37.4321 279.475 61.774 279.666C86.1158 279.858 105.334 276.703 111.685 275.962V288.289C103.337 291.014 87.887 293.742 61.774 293.742C46.9667 293.451 22.2832 291.576 11.8869 288.289Z" stroke="#676767" stroke-width="0.5"/>
<path d="M1.00006 295.119L11.887 288.556C19.1451 289.543 37.4443 293.011 61.7861 293.139C86.1279 293.267 108.098 290.049 111.914 289.178L117.856 295.119C112.412 298.823 87.8991 301.89 61.7861 301.89C46.3627 301.89 12.8837 298.09 1.00006 295.119Z" fill="#8CD600"/>
<path d="M11.887 288.556L11.9207 288.308L11.8334 288.296L11.7579 288.342L11.887 288.556ZM1.00006 295.119L0.870982 294.905C0.78447 294.957 0.737849 295.056 0.752823 295.156C0.767797 295.256 0.841424 295.337 0.939427 295.362L1.00006 295.119ZM117.856 295.119L117.996 295.326C118.058 295.284 118.097 295.217 118.104 295.143C118.111 295.069 118.085 294.995 118.032 294.943L117.856 295.119ZM111.914 289.178L112.091 289.001L111.993 288.903L111.858 288.934L111.914 289.178ZM61.7861 293.139L61.7848 293.389L61.7848 293.389L61.7861 293.139ZM11.7579 288.342L0.870982 294.905L1.12914 295.333L12.0161 288.77L11.7579 288.342ZM0.939427 295.362C12.8462 298.339 46.3461 302.14 61.7861 302.14V301.64C46.3794 301.64 12.9211 297.842 1.06069 294.877L0.939427 295.362ZM61.7861 302.14C74.8514 302.14 87.5181 301.373 97.6022 300.142C102.644 299.526 107.044 298.794 110.527 297.983C113.999 297.175 116.593 296.281 117.996 295.326L117.715 294.913C116.396 295.81 113.884 296.688 110.414 297.496C106.954 298.302 102.573 299.031 97.5416 299.646C87.4801 300.874 74.8338 301.64 61.7861 301.64V302.14ZM118.032 294.943L112.091 289.001L111.737 289.354L117.679 295.296L118.032 294.943ZM111.858 288.934C108.064 289.8 86.1137 293.016 61.7874 292.889L61.7848 293.389C86.1421 293.517 108.132 290.298 111.969 289.421L111.858 288.934ZM61.7874 292.889C37.4665 292.761 19.1893 289.297 11.9207 288.308L11.8533 288.803C19.1008 289.79 37.4221 293.261 61.7848 293.389L61.7874 292.889Z" fill="#676767"/>
<path d="M120.508 260.405C120.508 260.836 120.184 261.32 119.403 261.839C118.633 262.351 117.482 262.855 115.976 263.339C112.966 264.308 108.599 265.183 103.186 265.92C92.3643 267.392 77.4064 268.304 60.8789 268.304C44.3514 268.304 29.3935 267.392 18.5718 265.92C13.1592 265.183 8.7915 264.308 5.78215 263.339C4.27574 262.855 3.12455 262.351 2.35497 261.839C1.5737 261.32 1.25 260.836 1.25 260.405C1.25 259.975 1.5737 259.491 2.35497 258.971C3.12455 258.459 4.27574 257.956 5.78215 257.472C8.7915 256.503 13.1592 255.628 18.5718 254.891C29.3935 253.418 44.3514 252.507 60.8789 252.507C77.4064 252.507 92.3643 253.418 103.186 254.891C108.599 255.628 112.966 256.503 115.976 257.472C117.482 257.956 118.633 258.459 119.403 258.971C120.184 259.491 120.508 259.975 120.508 260.405Z" stroke="#676767" stroke-width="0.5"/>
<path d="M75.2726 1H48.5345C44.1251 81.9122 23.777 248.575 21.4295 249.856C17.8352 255.507 13.6165 258.109 10.9031 259.468C10.9031 259.468 14.8643 262.439 62.0779 263.997C109.933 262.439 110.923 259.468 110.923 259.468L101.816 249.856C92.8615 241.697 80.6995 80.5523 75.2726 1Z" fill="white"/>
<path d="M48.5345 1V0.75H48.2977L48.2849 0.986396L48.5345 1ZM75.2726 1L75.522 0.982985L75.5061 0.75H75.2726V1ZM101.816 249.856L101.997 249.684L101.991 249.678L101.984 249.672L101.816 249.856ZM110.923 259.468L111.161 259.547C111.19 259.46 111.168 259.363 111.105 259.296L110.923 259.468ZM10.9031 259.468L10.7911 259.245C10.7136 259.284 10.6618 259.36 10.6541 259.446C10.6463 259.532 10.6838 259.616 10.7531 259.668L10.9031 259.468ZM21.4295 249.856L21.3097 249.637L21.2531 249.668L21.2185 249.722L21.4295 249.856ZM62.0779 263.997L62.0697 264.247L62.0779 264.248L62.0861 264.247L62.0779 263.997ZM48.5345 1.25H75.2726V0.75H48.5345V1.25ZM75.0232 1.01702C77.7367 40.7938 82.1341 100.971 86.9726 152.224C89.3917 177.85 91.9215 201.249 94.4065 218.753C95.6489 227.504 96.8809 234.786 98.0832 240.138C98.6842 242.814 99.2791 245.013 99.8661 246.674C100.16 247.505 100.453 248.206 100.746 248.766C101.037 249.324 101.336 249.758 101.648 250.041L101.984 249.672C101.736 249.445 101.469 249.07 101.189 248.534C100.91 248.002 100.626 247.325 100.338 246.508C99.7599 244.873 99.1701 242.696 98.571 240.029C97.373 234.696 96.1433 227.429 94.9016 218.682C92.4182 201.19 89.8893 177.801 87.4703 152.177C82.6325 100.93 78.2355 40.7585 75.522 0.982985L75.0232 1.01702ZM101.634 250.028L110.742 259.64L111.105 259.296L101.997 249.684L101.634 250.028ZM11.0151 259.692C13.7548 258.319 18.0145 255.691 21.6404 249.99L21.2185 249.722C17.6558 255.323 13.4783 257.898 10.7911 259.245L11.0151 259.692ZM21.5493 250.076C21.6194 250.037 21.6659 249.979 21.6943 249.937C21.7259 249.891 21.7543 249.837 21.7802 249.779C21.8322 249.665 21.8855 249.514 21.9406 249.332C22.0511 248.966 22.1768 248.449 22.3168 247.791C22.5972 246.475 22.939 244.574 23.334 242.154C24.1242 237.313 25.1292 230.379 26.2827 221.844C28.5896 204.773 31.4912 181.289 34.4572 155.318C40.3889 103.377 46.579 41.4775 48.7841 1.0136L48.2849 0.986396C46.0806 41.4347 39.892 103.322 33.9604 155.261C30.9947 181.23 28.0935 204.71 25.7872 221.777C24.634 230.311 23.6297 237.239 22.8406 242.074C22.4459 244.492 22.1056 246.382 21.8278 247.687C21.6887 248.34 21.5664 248.842 21.462 249.187C21.4095 249.36 21.3636 249.488 21.325 249.573C21.3055 249.615 21.2907 249.641 21.2813 249.655C21.2686 249.674 21.2763 249.655 21.3097 249.637L21.5493 250.076ZM62.0862 263.748C38.4829 262.969 25.6988 261.837 18.8191 260.901C15.379 260.433 13.4202 260.015 12.3256 259.716C11.7785 259.566 11.4502 259.448 11.2624 259.369C11.1686 259.329 11.1108 259.3 11.0789 259.283C11.063 259.274 11.0537 259.268 11.0498 259.266C11.0478 259.265 11.0472 259.264 11.0478 259.265C11.0481 259.265 11.0487 259.265 11.0496 259.266C11.0501 259.266 11.0506 259.267 11.0511 259.267C11.0514 259.267 11.0519 259.268 11.0521 259.268C11.0526 259.268 11.0531 259.268 10.9031 259.468C10.7531 259.668 10.7536 259.669 10.7542 259.669C10.7544 259.669 10.755 259.67 10.7554 259.67C10.7562 259.671 10.7571 259.671 10.758 259.672C10.7599 259.673 10.762 259.675 10.7644 259.677C10.7692 259.68 10.775 259.684 10.782 259.688C10.7959 259.697 10.8146 259.708 10.8393 259.722C10.8884 259.748 10.9619 259.785 11.0686 259.83C11.2819 259.919 11.6319 260.045 12.1939 260.198C13.3174 260.505 15.2997 260.927 18.7517 261.396C25.6559 262.336 38.4593 263.468 62.0697 264.247L62.0862 263.748ZM110.923 259.468C110.686 259.389 110.687 259.388 110.687 259.386C110.688 259.386 110.688 259.384 110.689 259.383C110.689 259.381 110.69 259.379 110.691 259.377C110.692 259.373 110.694 259.37 110.695 259.366C110.698 259.36 110.701 259.354 110.704 259.35C110.708 259.342 110.712 259.339 110.711 259.34C110.708 259.342 110.691 259.361 110.644 259.394C110.548 259.461 110.345 259.574 109.936 259.722C109.118 260.016 107.518 260.434 104.409 260.901C98.1944 261.837 85.9947 262.969 62.0698 263.748L62.0861 264.247C86.0164 263.468 98.2394 262.336 104.484 261.396C107.604 260.926 109.242 260.503 110.106 260.192C110.537 260.037 110.785 259.906 110.931 259.804C111.004 259.753 111.055 259.706 111.091 259.665C111.109 259.644 111.123 259.623 111.135 259.604C111.14 259.594 111.145 259.584 111.15 259.575C111.152 259.57 111.154 259.566 111.156 259.561C111.157 259.559 111.157 259.556 111.158 259.554C111.159 259.553 111.159 259.551 111.159 259.551C111.16 259.549 111.161 259.547 110.923 259.468Z" fill="#676767"/>
</svg>
