<svg width="132" height="353" viewBox="0 0 132 353" fill="none" xmlns="http://www.w3.org/2000/svg">
<path d="M64.3807 216.886C54.8738 216.886 31.3707 215.565 20.8075 214.905C27.0794 253.527 40.0193 334.335 41.6038 348.595C66.1633 356.518 83.5265 351.236 89.1382 347.605L107.954 214.905C97.3907 215.565 73.8876 216.886 64.3807 216.886Z" stroke="#676767" stroke-width="0.5"/>
<path d="M1 163.721L1 146.721C5 155.221 47.5453 157.221 66.3455 157.221C100.031 157.221 130 152.721 131.5 146.721V163.721C121.597 168.672 100 171.221 66.3455 172.322C36.652 172.322 13.8739 168.672 1 163.721Z" stroke="#676767" stroke-width="0.5"/>
<path d="M1.00128 208.963L1.99158 192.128C9.91399 196.089 34.1609 201.201 65.3553 202.031C96.5498 202.861 126 195.221 129 192.221V209.221C119.097 214.172 99.041 218.866 65.3553 218.866C35.6618 218.866 13.8752 213.915 1.00128 208.963Z" fill="white"/>
<path d="M1.99158 192.128L2.10339 191.904C2.02822 191.867 1.9392 191.869 1.86645 191.912C1.7937 191.954 1.74695 192.029 1.74201 192.113L1.99158 192.128ZM1.00128 208.963L0.751713 208.948L0.740983 209.131L0.911537 209.196L1.00128 208.963ZM129 209.221L129.112 209.445L129.25 209.375V209.221H129ZM129 192.221H129.25C129.25 192.12 129.189 192.029 129.096 191.99C129.002 191.951 128.895 191.973 128.823 192.044L129 192.221ZM65.3553 202.031L65.3487 202.281L65.3553 202.031ZM1.74201 192.113L0.751713 208.948L1.25085 208.978L2.24115 192.143L1.74201 192.113ZM0.911537 209.196C13.818 214.16 35.6356 219.116 65.3553 219.116V218.616C35.688 218.616 13.9324 213.669 1.09103 208.73L0.911537 209.196ZM65.3553 219.116C99.0558 219.116 119.158 214.422 129.112 209.445L128.888 208.997C119.036 213.923 99.0263 218.616 65.3553 218.616V219.116ZM129.25 209.221V192.221H128.75V209.221H129.25ZM128.823 192.044C128.486 192.382 127.738 192.814 126.585 193.308C125.443 193.798 123.933 194.336 122.103 194.897C118.444 196.019 113.516 197.227 107.705 198.316C96.0815 200.495 80.9383 202.196 65.362 201.781L65.3487 202.281C80.9669 202.696 96.146 200.992 107.797 198.808C113.622 197.716 118.569 196.504 122.25 195.375C124.09 194.811 125.618 194.267 126.782 193.768C127.935 193.273 128.764 192.81 129.177 192.398L128.823 192.044ZM65.362 201.781C49.7762 201.366 35.9278 199.882 24.9887 198.007C14.0411 196.131 6.02968 193.868 2.10339 191.904L1.87978 192.352C5.87589 194.35 13.9491 196.623 24.9042 198.5C35.8678 200.379 49.74 201.866 65.3487 202.281L65.362 201.781Z" fill="#676767"/>
<path d="M12.8849 183.849L12.8849 167.37C20.8074 169.351 40.7684 172.066 67.3384 172.322C93.9083 172.578 114.886 168.361 121.818 167.37V183.849C112.706 187.491 95.8417 191.138 67.3384 191.138C51.1757 190.749 24.2329 188.243 12.8849 183.849Z" stroke="#676767" stroke-width="0.5"/>
<path d="M12.8848 184.206L12.9454 183.963L12.8321 183.935L12.7377 184.003L12.8848 184.206ZM1.99146 192.128L1.84441 191.926C1.77509 191.976 1.73643 192.059 1.74198 192.144C1.74752 192.23 1.7965 192.306 1.87174 192.347L1.99146 192.128ZM128.75 192.128L128.91 192.32L129.12 192.145L128.927 191.951L128.75 192.128ZM121.818 184.206L122.018 184.056L121.91 183.911L121.739 183.968L121.818 184.206ZM66.361 191.138L66.3626 190.888L66.361 191.138ZM12.7377 184.003L1.84441 191.926L2.1385 192.33L13.0318 184.408L12.7377 184.003ZM1.87174 192.347C4.62742 193.851 9.05078 195.218 14.3768 196.426C19.7093 197.635 25.9684 198.688 32.4098 199.555C45.2914 201.289 58.9196 202.281 67.3513 202.281V201.781C58.9478 201.781 45.3428 200.792 32.4765 199.06C26.0441 198.194 19.8007 197.143 14.4874 195.938C9.1677 194.732 4.80215 193.376 2.11117 191.909L1.87174 192.347ZM67.3513 202.281C81.6162 202.281 95.4943 201.042 106.553 199.183C112.082 198.253 116.91 197.168 120.731 196.003C124.542 194.842 127.383 193.592 128.91 192.32L128.59 191.936C127.146 193.139 124.39 194.366 120.585 195.525C116.791 196.682 111.985 197.763 106.47 198.69C95.44 200.544 81.5896 201.781 67.3513 201.781V202.281ZM128.927 191.951C126.953 189.978 125.225 188.003 123.99 186.521C123.373 185.781 122.88 185.164 122.54 184.732C122.371 184.516 122.24 184.347 122.152 184.231C122.107 184.174 122.074 184.13 122.051 184.1C122.04 184.085 122.032 184.074 122.026 184.067C122.023 184.063 122.021 184.06 122.02 184.058C122.019 184.057 122.019 184.057 122.018 184.056C122.018 184.056 122.018 184.056 122.018 184.056C122.018 184.056 122.018 184.056 122.018 184.056C122.018 184.056 122.018 184.056 121.818 184.206C121.618 184.356 121.618 184.356 121.618 184.356C121.618 184.356 121.618 184.356 121.618 184.356C121.618 184.356 121.618 184.356 121.618 184.356C121.619 184.357 121.619 184.358 121.62 184.359C121.622 184.361 121.624 184.364 121.627 184.368C121.633 184.375 121.641 184.387 121.653 184.402C121.676 184.432 121.71 184.477 121.755 184.536C121.844 184.652 121.976 184.823 122.147 185.041C122.489 185.476 122.986 186.097 123.606 186.841C124.847 188.331 126.586 190.317 128.573 192.305L128.927 191.951ZM121.739 183.968C115.823 185.94 96.0437 191.079 66.3626 190.888L66.3594 191.388C96.0963 191.579 115.93 186.432 121.897 184.443L121.739 183.968ZM66.3626 190.888C39.8225 190.717 20.8614 185.942 12.9454 183.963L12.8241 184.448C20.753 186.43 39.7596 191.217 66.3594 191.388L66.3626 190.888Z" fill="#676767"/>
<path d="M50.5165 1V0.75H50.2847L50.2672 0.981115L50.5165 1ZM79.2352 1L79.4845 0.981115L79.467 0.75H79.2352V1ZM84.1867 66.3598L83.9375 66.3787L83.9473 66.5091L84.06 66.5753L84.1867 66.3598ZM101.022 76.2628L101.078 76.5065C101.178 76.4836 101.253 76.4022 101.269 76.301C101.285 76.1998 101.237 76.0993 101.149 76.0474L101.022 76.2628ZM29.7202 76.2628L29.5877 76.0508C29.5019 76.1045 29.4569 76.2045 29.4737 76.3043C29.4905 76.4041 29.5657 76.4839 29.6643 76.5065L29.7202 76.2628ZM45.565 66.3598L45.6975 66.5718L45.8048 66.5048L45.8143 66.3787L45.565 66.3598ZM50.5165 1.25L79.2352 1.25V0.75L50.5165 0.75V1.25ZM78.986 1.01889L83.9375 66.3787L84.436 66.341L79.4845 0.981115L78.986 1.01889ZM84.06 66.5753L100.895 76.4783L101.149 76.0474L84.3135 66.1444L84.06 66.5753ZM29.8527 76.4748L45.6975 66.5718L45.4325 66.1478L29.5877 76.0508L29.8527 76.4748ZM45.8143 66.3787L50.7658 1.01889L50.2672 0.981115L45.3157 66.341L45.8143 66.3787ZM101.022 76.2628C100.966 76.0192 100.966 76.0192 100.966 76.0192C100.966 76.0193 100.965 76.0193 100.965 76.0194C100.964 76.0195 100.963 76.0197 100.962 76.02C100.96 76.0206 100.956 76.0215 100.951 76.0227C100.94 76.0251 100.925 76.0286 100.904 76.0332C100.863 76.0426 100.802 76.0564 100.721 76.0745C100.56 76.1107 100.322 76.1638 100.013 76.2314C99.3959 76.3666 98.4984 76.5598 97.3774 76.7917C95.1353 77.2555 91.9995 77.8739 88.4249 78.4923C81.2717 79.7297 72.3766 80.9643 65.371 80.9643V81.4643C72.4216 81.4643 81.3519 80.2233 88.5101 78.9849C92.0912 78.3654 95.2326 77.746 97.4787 77.2813C98.6018 77.049 99.5012 76.8554 100.12 76.7198C100.429 76.652 100.669 76.5987 100.831 76.5624C100.912 76.5442 100.973 76.5303 101.015 76.5209C101.036 76.5161 101.051 76.5126 101.062 76.5102C101.067 76.509 101.071 76.5081 101.074 76.5075C101.075 76.5071 101.076 76.5069 101.077 76.5068C101.077 76.5067 101.077 76.5066 101.077 76.5066C101.078 76.5065 101.078 76.5065 101.022 76.2628ZM65.371 80.9643C58.3655 80.9643 49.4703 79.7297 42.3172 78.4923C38.7426 77.8739 35.6068 77.2555 33.3646 76.7917C32.2436 76.5598 31.3461 76.3666 30.7291 76.2314C30.4205 76.1638 30.1821 76.1107 30.0209 76.0745C29.9403 76.0564 29.879 76.0426 29.8379 76.0332C29.8174 76.0286 29.8019 76.0251 29.7915 76.0227C29.7863 76.0215 29.7825 76.0206 29.7799 76.02C29.7786 76.0197 29.7776 76.0195 29.777 76.0194C29.7767 76.0193 29.7765 76.0193 29.7763 76.0192C29.7762 76.0192 29.7761 76.0192 29.7202 76.2628C29.6643 76.5065 29.6644 76.5065 29.6646 76.5066C29.6648 76.5066 29.6651 76.5067 29.6654 76.5068C29.6661 76.5069 29.6671 76.5071 29.6684 76.5075C29.6711 76.5081 29.6751 76.509 29.6803 76.5102C29.6908 76.5126 29.7065 76.5161 29.7273 76.5209C29.7687 76.5303 29.8304 76.5442 29.9114 76.5624C30.0734 76.5987 30.3127 76.652 30.6221 76.7198C31.2408 76.8554 32.1403 77.049 33.2634 77.2813C35.5095 77.746 38.6508 78.3654 42.232 78.9849C49.3902 80.2233 58.3204 81.4643 65.371 81.4643V80.9643Z" fill="#676767"/>
<path d="M131.471 146.574C131.471 147.217 131.08 147.887 130.235 148.576C129.393 149.262 128.136 149.934 126.493 150.582C123.21 151.876 118.444 153.046 112.536 154.03C100.726 155.999 84.4003 157.217 66.3611 157.217C48.3219 157.217 31.9963 155.999 20.1858 154.03C14.2786 153.046 9.51265 151.876 6.22923 150.582C4.58628 149.934 3.32912 149.262 2.48704 148.576C1.64185 147.887 1.25128 147.217 1.25128 146.574C1.25128 145.931 1.64185 145.261 2.48704 144.573C3.32912 143.887 4.58628 143.214 6.22923 142.567C9.51265 141.273 14.2786 140.103 20.1858 139.118C31.9963 137.15 48.3219 135.931 66.3611 135.931C84.4003 135.931 100.726 137.15 112.536 139.118C118.444 140.103 123.21 141.273 126.493 142.567C128.136 143.214 129.393 143.887 130.235 144.573C131.08 145.261 131.471 145.931 131.471 146.574Z" fill="#8CD600" stroke="#676767" stroke-width="0.5"/>
<path d="M30.7103 147.564L30.7103 76.2628C30.7103 76.2628 41.6036 80.224 65.3708 81.2143C79.2351 81.2143 100.031 76.2628 100.031 76.2628L100.031 147.564C100.031 147.564 78.9563 150.535 65.3708 150.535C51.7854 150.535 30.7103 147.564 30.7103 147.564Z" fill="white" stroke="#676767" stroke-width="0.5"/>
</svg>
