<svg width="144" height="430" viewBox="0 0 144 430" fill="none" xmlns="http://www.w3.org/2000/svg">
<path d="M72.3018 351.96C61.0664 351.96 33.2899 350.404 20.8062 349.626C20.8061 398.151 20.8065 407.152 20.8063 423.899C49.8312 433.235 117.166 428.178 123.798 423.899L123.797 349.626C111.314 350.404 83.5372 351.96 72.3018 351.96Z" fill="white" stroke="#676767" stroke-width="0.5"/>
<path d="M1 364.106V349.992C9.86206 352.149 37.1741 357.192 71.2044 357.931C105.235 358.671 133.29 352.765 141.443 349.992V364.106C130.639 368.517 107.952 372.927 71.2044 372.927C38.8115 372.927 15.0443 368.517 1 364.106Z" fill="white"/>
<path d="M1 349.992L1.0591 349.749C0.984572 349.731 0.905839 349.748 0.845527 349.796C0.785215 349.843 0.75 349.916 0.75 349.992H1ZM1 364.106H0.75V364.29L0.925095 364.345L1 364.106ZM141.443 364.106L141.537 364.338L141.693 364.274V364.106H141.443ZM141.443 349.992H141.693C141.693 349.912 141.654 349.836 141.588 349.789C141.523 349.742 141.438 349.73 141.362 349.756L141.443 349.992ZM71.2044 357.931L71.2098 357.682L71.2044 357.931ZM0.75 349.992V364.106H1.25V349.992H0.75ZM0.925095 364.345C14.9974 368.764 38.7904 373.177 71.2044 373.177V372.677C38.8326 372.677 15.0911 368.27 1.07491 363.868L0.925095 364.345ZM71.2044 373.177C107.965 373.177 130.69 368.766 141.537 364.338L141.348 363.875C130.589 368.267 107.94 372.677 71.2044 372.677V373.177ZM141.693 364.106V349.992H141.193V364.106H141.693ZM141.362 349.756C133.241 352.517 105.216 358.42 71.2098 357.682L71.199 358.181C105.254 358.921 133.338 353.012 141.523 350.229L141.362 349.756ZM71.2098 357.682C37.1983 356.943 9.90429 351.902 1.0591 349.749L0.940895 350.235C9.81983 352.396 37.1499 357.442 71.199 358.181L71.2098 357.682Z" fill="#676767"/>
<path d="M1 323.154V309C9.96034 311.162 37.5752 316.22 71.9829 316.962C106.391 317.703 135.256 311.28 143.5 308.5V323C132.577 327.423 109.138 332 71.9829 332C39.2308 332 15.2 327.577 1 323.154Z" fill="white"/>
<path d="M1 309L1.05865 308.757C0.984162 308.739 0.905546 308.756 0.845343 308.804C0.78514 308.851 0.75 308.923 0.75 309H1ZM1 323.154H0.75V323.338L0.925652 323.393L1 323.154ZM143.5 323L143.594 323.232L143.75 323.168V323H143.5ZM143.5 308.5H143.75C143.75 308.419 143.711 308.344 143.646 308.297C143.58 308.25 143.496 308.237 143.42 308.263L143.5 308.5ZM71.9829 316.962L71.9883 316.712L71.9829 316.962ZM0.75 309V323.154H1.25V309H0.75ZM0.925652 323.393C15.1535 327.824 39.2098 332.25 71.9829 332.25V331.75C39.2517 331.75 15.2465 327.33 1.07435 322.915L0.925652 323.393ZM71.9829 332.25C109.151 332.25 132.627 327.672 143.594 323.232L143.406 322.768C132.527 327.174 109.126 331.75 71.9829 331.75V332.25ZM143.75 323V308.5H143.25V323H143.75ZM143.42 308.263C135.206 311.034 106.369 317.452 71.9883 316.712L71.9775 317.211C106.413 317.953 135.307 311.527 143.58 308.737L143.42 308.263ZM71.9883 316.712C37.5993 315.971 10.0022 310.915 1.05865 308.757L0.941351 309.243C9.91845 311.409 37.5512 316.47 71.9775 317.211L71.9883 316.712Z" fill="#676767"/>
<path d="M13.9641 341.736V326.5C22.5 328.5 44.3825 331.772 73.3679 332C102.353 332.228 127.5 328 132.8 326.31V341.736C122.859 344.98 104.462 348.229 73.3679 348.229C55.7359 347.883 26.3437 345.65 13.9641 341.736Z" stroke="#676767" stroke-width="0.5"/>
<path d="M1 349.626L13.9638 342.053C22.6065 343.229 43.3019 346.311 72.2873 346.464C101.273 346.616 125.778 343.685 132.71 341.704L141.623 349.626C135.141 354.037 104.476 357.931 73.3819 357.931C55.0163 357.931 11.8034 355.094 1 349.626Z" fill="white"/>
<path d="M13.9638 342.053L13.9976 341.805L13.9122 341.794L13.8377 341.837L13.9638 342.053ZM1 349.626L0.873895 349.41C0.794845 349.457 0.747359 349.542 0.750113 349.634C0.752867 349.725 0.80542 349.808 0.887105 349.849L1 349.626ZM141.623 349.626L141.763 349.833C141.827 349.79 141.867 349.719 141.872 349.642C141.877 349.566 141.846 349.491 141.789 349.44L141.623 349.626ZM132.71 341.704L132.876 341.517L132.773 341.426L132.641 341.464L132.71 341.704ZM72.2873 346.464L72.286 346.714L72.2873 346.464ZM13.8377 341.837L0.873895 349.41L1.1261 349.842L14.09 342.269L13.8377 341.837ZM0.887105 349.849C3.62435 351.235 8.384 352.442 14.2412 353.477C20.1074 354.513 27.1029 355.381 34.3311 356.078C48.7872 357.471 64.1899 358.181 73.3819 358.181V357.681C64.2082 357.681 48.8217 356.972 34.3791 355.58C27.158 354.884 20.1767 354.018 14.3282 352.985C8.47057 351.95 3.77733 350.752 1.1129 349.403L0.887105 349.849ZM73.3819 358.181C88.9385 358.181 104.389 357.207 116.763 355.681C122.949 354.918 128.371 354.016 132.654 353.028C136.926 352.043 140.1 350.965 141.763 349.833L141.482 349.42C139.904 350.493 136.815 351.556 132.542 352.541C128.281 353.524 122.878 354.423 116.701 355.185C104.349 356.708 88.9197 357.681 73.3819 357.681V358.181ZM141.789 349.44L132.876 341.517L132.544 341.891L141.457 349.813L141.789 349.44ZM132.641 341.464C129.2 342.447 121.361 343.673 110.746 344.635C100.138 345.595 86.7729 346.29 72.2886 346.214L72.286 346.714C86.787 346.79 100.168 346.095 110.791 345.133C121.408 344.171 129.288 342.942 132.779 341.944L132.641 341.464ZM72.2886 346.214C43.3206 346.062 22.639 342.981 13.9976 341.805L13.9301 342.301C22.574 343.477 43.2831 346.561 72.286 346.714L72.2886 346.214Z" fill="#676767"/>
<path d="M143.353 308.533C143.353 309.071 142.95 309.659 142.016 310.28C141.094 310.893 139.719 311.494 137.923 312.072C134.336 313.226 129.132 314.269 122.686 315.146C109.797 316.9 91.9834 317.986 72.3016 317.986C52.6199 317.986 34.8063 316.9 21.9175 315.146C15.4712 314.269 10.2672 313.226 6.67981 312.072C4.88439 311.494 3.50878 310.893 2.58704 310.28C1.65361 309.659 1.25 309.071 1.25 308.533C1.25 307.995 1.65361 307.406 2.58704 306.785C3.50878 306.172 4.88439 305.571 6.67981 304.994C10.2672 303.84 15.4712 302.796 21.9175 301.919C34.8063 300.165 52.6199 299.079 72.3016 299.079C91.9834 299.079 109.797 300.165 122.686 301.919C129.132 302.796 134.336 303.84 137.923 304.994C139.719 305.571 141.094 306.172 142.016 306.785C142.95 307.406 143.353 307.995 143.353 308.533Z" fill="#8CD600" stroke="#676767" stroke-width="0.5"/>
<path d="M126 157.062C126 157.491 125.701 157.965 124.994 158.471C124.295 158.972 123.248 159.465 121.875 159.941C119.133 160.891 115.152 161.75 110.215 162.474C100.346 163.92 86.7031 164.815 71.628 164.815C56.5529 164.815 42.9102 163.92 33.0409 162.474C28.1044 161.75 24.1227 160.891 21.3806 159.941C20.008 159.465 18.9608 158.972 18.2616 158.471C17.5545 157.965 17.2563 157.491 17.2563 157.062C17.2563 156.633 17.5545 156.158 18.2616 155.652C18.9608 155.152 20.008 154.658 21.3806 154.183C24.1227 153.233 28.1044 152.373 33.0409 151.65C42.9102 150.204 56.5529 149.309 71.628 149.309C86.7031 149.309 100.346 150.204 110.215 151.65C115.152 152.373 119.133 153.233 121.875 154.183C123.248 154.658 124.295 155.152 124.994 155.652C125.701 156.158 126 156.633 126 157.062Z" stroke="#676767" stroke-width="0.5"/>
<path d="M101.263 1H45.8059L27.0104 155.061C27.0104 155.061 49.0191 159.063 73.0286 159.063C97.0382 159.063 119.047 155.061 119.047 155.061L101.263 1Z" fill="white" stroke="#676767" stroke-width="0.5"/>
<path d="M17.1852 157L17 308.037C17 308.037 50.1581 312 71.5 312C92.8419 312 126 308.037 126 308.037L126 157.5C126 157.5 113.023 163.005 72.2408 163.005C24.0433 161.003 17.1852 157 17.1852 157Z" fill="white"/>
<path d="M17 308.037L16.75 308.037L16.7497 308.259L16.9703 308.285L17 308.037ZM17.1852 157L17.3112 156.784C17.2339 156.739 17.1385 156.739 17.0608 156.783C16.9832 156.828 16.9353 156.91 16.9352 157L17.1852 157ZM126 157.5L126.25 157.5C126.25 157.416 126.208 157.338 126.138 157.292C126.068 157.245 125.98 157.237 125.902 157.27L126 157.5ZM126 308.037L126.03 308.285L126.25 308.259L126.25 308.037L126 308.037ZM72.2408 163.005L72.2304 163.255H72.2408V163.005ZM17.25 308.037L17.4352 157L16.9352 157L16.75 308.037L17.25 308.037ZM125.75 157.5L125.75 308.037L126.25 308.037L126.25 157.5L125.75 157.5ZM126 308.037C125.97 307.789 125.97 307.789 125.97 307.789C125.97 307.789 125.969 307.789 125.969 307.789C125.968 307.789 125.966 307.789 125.964 307.79C125.96 307.79 125.954 307.791 125.946 307.792C125.93 307.794 125.907 307.796 125.875 307.8C125.812 307.808 125.717 307.819 125.593 307.833C125.346 307.862 124.979 307.905 124.505 307.959C123.557 308.067 122.179 308.222 120.459 308.408C117.018 308.779 112.208 309.274 106.731 309.77C95.7748 310.76 82.1591 311.75 71.5 311.75V312.25C82.1828 312.25 95.8171 311.258 106.776 310.268C112.256 309.772 117.069 309.276 120.512 308.905C122.234 308.719 123.613 308.564 124.562 308.456C125.036 308.402 125.403 308.359 125.651 308.33C125.776 308.315 125.87 308.304 125.934 308.297C125.965 308.293 125.989 308.29 126.005 308.288C126.013 308.287 126.02 308.287 126.024 308.286C126.026 308.286 126.027 308.286 126.028 308.285C126.029 308.285 126.029 308.285 126.029 308.285C126.03 308.285 126.03 308.285 126 308.037ZM71.5 311.75C60.8409 311.75 47.2252 310.76 36.2693 309.77C30.7924 309.274 25.9822 308.779 22.5413 308.408C20.8208 308.222 19.4427 308.067 18.4948 307.959C18.0209 307.905 17.6545 307.862 17.4066 307.833C17.2827 307.819 17.1884 307.808 17.1251 307.8C17.0935 307.796 17.0696 307.794 17.0536 307.792C17.0456 307.791 17.0396 307.79 17.0356 307.79C17.0336 307.789 17.0321 307.789 17.0311 307.789C17.0306 307.789 17.0303 307.789 17.03 307.789C17.0298 307.789 17.0297 307.789 17 308.037C16.9703 308.285 16.9705 308.285 16.9707 308.285C16.971 308.285 16.9714 308.285 16.9719 308.285C16.9729 308.286 16.9744 308.286 16.9765 308.286C16.9805 308.287 16.9866 308.287 16.9946 308.288C17.0107 308.29 17.0347 308.293 17.0664 308.297C17.1299 308.304 17.2244 308.315 17.3485 308.33C17.5968 308.359 17.9637 308.402 18.4381 308.456C19.3869 308.564 20.766 308.719 22.4876 308.905C25.9307 309.276 30.7439 309.772 36.2243 310.268C47.1829 311.258 60.8172 312.25 71.5 312.25V311.75ZM17.1852 157C17.0592 157.216 17.0595 157.216 17.0598 157.216C17.06 157.216 17.0604 157.217 17.0607 157.217C17.0613 157.217 17.062 157.218 17.0628 157.218C17.0644 157.219 17.0665 157.22 17.069 157.221C17.074 157.224 17.0808 157.228 17.0895 157.233C17.1069 157.242 17.1319 157.255 17.1656 157.271C17.233 157.303 17.3353 157.349 17.4807 157.408C17.7713 157.525 18.2355 157.692 18.94 157.897C20.3486 158.307 22.7225 158.872 26.599 159.499C34.3518 160.752 48.1265 162.254 72.2305 163.255L72.2512 162.755C48.1577 161.755 34.4046 160.254 26.6788 159.005C22.8161 158.381 20.4632 157.82 19.0798 157.417C18.3882 157.215 17.94 157.054 17.6674 156.944C17.5311 156.889 17.4389 156.847 17.3823 156.82C17.354 156.807 17.3347 156.797 17.3232 156.791C17.3174 156.787 17.3136 156.785 17.3117 156.784C17.3107 156.784 17.3102 156.783 17.3101 156.783C17.3101 156.783 17.3102 156.783 17.3103 156.784C17.3104 156.784 17.3107 156.784 17.3107 156.784C17.3109 156.784 17.3112 156.784 17.1852 157ZM72.2408 163.255C92.6428 163.255 106.096 161.878 114.454 160.499C118.633 159.81 121.539 159.12 123.402 158.601C124.334 158.342 125.005 158.125 125.445 157.973C125.664 157.897 125.826 157.837 125.934 157.795C125.988 157.775 126.028 157.759 126.055 157.748C126.069 157.742 126.079 157.738 126.086 157.735C126.09 157.734 126.092 157.732 126.094 157.732C126.095 157.731 126.096 157.731 126.097 157.731C126.097 157.73 126.097 157.73 126.097 157.73C126.097 157.73 126.098 157.73 126 157.5C125.902 157.27 125.902 157.27 125.902 157.27C125.902 157.27 125.902 157.27 125.902 157.27C125.902 157.27 125.902 157.27 125.901 157.27C125.9 157.271 125.898 157.272 125.895 157.273C125.889 157.275 125.88 157.279 125.868 157.284C125.843 157.294 125.806 157.309 125.755 157.328C125.652 157.368 125.496 157.426 125.281 157.5C124.852 157.649 124.19 157.863 123.268 158.119C121.424 158.633 118.536 159.319 114.373 160.006C106.047 161.379 92.6209 162.755 72.2408 162.755V163.255Z" fill="#676767"/>
</svg>
