<svg width="1068" height="824" viewBox="0 0 1068 824" fill="none" xmlns="http://www.w3.org/2000/svg">
<g filter="url(#filter0_d_84_2)">
<path d="M189.97 307H309.814L312.442 655.306H301.404V663.824H197.855V655.306H186.291L189.97 307Z" fill="#F8F8F8"/>
<path d="M301.404 655.306H312.442L309.814 307H189.97L186.291 655.306H197.855M301.404 655.306V646.789H291.417V630.203H285.109V622.134H214.675V630.203H208.367V646.789H197.855V655.306M301.404 655.306V663.824H197.855V655.306" stroke="black" stroke-width="3"/>
<rect x="42.7173" y="786.356" width="28.5378" height="27.4824" rx="8.5" stroke="black" stroke-width="3"/>
<rect x="427.478" y="786.356" width="28.5378" height="27.4824" rx="8.5" stroke="black" stroke-width="3"/>
<path d="M219.405 428.033H206.265V449.102H270.917V441.93H219.405V428.033Z" stroke="black" stroke-width="3"/>
<path d="M207.316 454.481L206.265 449.102H270.917L269.866 454.481H207.316Z" stroke="black" stroke-width="3"/>
<path d="M277.75 315.069H223.61L220.456 621.686H280.378L277.75 315.069Z" stroke="black" stroke-width="3"/>
<path d="M133.759 433.334C131.799 428.321 132.942 421.776 133.759 419.13C140.031 413.448 168.057 415.649 181.286 417.459H213.624V433.334H179.816C165.28 435.423 135.719 438.347 133.759 433.334Z" stroke="black" stroke-width="3"/>
<path d="M471.708 672.788L419.67 654.857H86.4215L27.551 672.788M471.708 672.788H249.629H27.551M471.708 672.788H27.551" stroke="black" stroke-width="3"/>
<path d="M284.583 622.135H214.675V629.755H208.367V646.79H197.854V663.824H301.403V646.79H291.416V629.755H284.583V622.135Z" stroke="black" stroke-width="3"/>
<path d="M201.534 394.276V426.24H297.199V396.495C286.16 381.845 216.252 383.621 201.534 394.276Z" stroke="black" stroke-width="3"/>
<path d="M201.534 426.542C204.148 410.94 291.448 412.673 297.199 426.542C280.993 442.144 206.762 436.076 201.534 426.542Z" stroke="black" stroke-width="3"/>
<path d="M264.739 426.174C264.782 426.196 264.822 426.218 264.86 426.239C264.822 426.26 264.782 426.282 264.739 426.304C264.083 426.645 263.036 426.997 261.617 427.31C258.802 427.929 254.842 428.325 250.417 428.325C245.993 428.325 242.032 427.929 239.218 427.31C237.798 426.997 236.751 426.645 236.096 426.304C236.053 426.282 236.012 426.26 235.975 426.239C236.012 426.218 236.053 426.196 236.096 426.174C236.751 425.833 237.798 425.481 239.218 425.168C242.032 424.549 245.993 424.153 250.417 424.153C254.842 424.153 258.802 424.549 261.617 425.168C263.036 425.481 264.083 425.833 264.739 426.174Z" fill="url(#paint0_linear_84_2)" stroke="black" stroke-width="3"/>
<path d="M28.1508 673.685H472.307L493.333 764.684C492.632 760.351 488.497 751.774 477.564 752.132C466.631 752.491 169.72 752.127 21.3177 751.978C17.8135 751.231 7.8615 752.785 6.59999 761.391C5.33848 769.998 20.4415 706.259 28.1508 673.685Z" stroke="black" stroke-width="3"/>
<path d="M20.192 751.685C8.8384 752.402 6 759.156 6 762.443C6 770.064 7.57689 785.305 10.7307 792.029C13.6742 797.408 19.3159 798.753 22.8201 798.305C176.129 798.305 472.759 797.857 480.117 797.857C483.797 796.96 488.002 790.684 488.002 790.684C490.104 786.65 493.784 776.25 493.784 765.133C491.681 754.733 483.797 751.834 480.117 751.685C331.54 751.386 31.5456 750.967 20.192 751.685Z" stroke="black" stroke-width="3"/>
<rect x="666.461" y="1.5" width="15.8268" height="283.746" stroke="black" stroke-width="3"/>
<rect x="647.927" y="274.674" width="54.4776" height="58.5831" fill="#FEFEFE" stroke="black" stroke-width="3"/>
<path d="M640.376 116.193V103.877C679.789 115.372 698.538 104.903 702.986 98.2317V68.4666L706.065 70.5193V84.3755C707.707 84.3755 710.513 86.4283 711.71 87.4547V116.193C711.71 120.71 707.947 121.839 706.065 121.839C687.59 122.523 650.64 121.839 645.508 121.839C641.086 121.839 640.376 117.391 640.376 116.193Z" stroke="black" stroke-width="3"/>
<path d="M640.341 29.8835V12.7217H711.304V29.8835C711.304 33.3461 707.56 34.2117 705.688 34.2117C687.309 34.7364 650.551 34.2117 645.446 34.2117C641.047 34.2117 640.341 30.8016 640.341 29.8835Z" stroke="black" stroke-width="3"/>
<path d="M657.72 121.715C652.664 118.975 647.889 120.573 646.134 121.715L648.767 333.089H657.72V121.715Z" fill="#F5F5F5" stroke="black" stroke-width="3"/>
<path d="M702.614 121.715C697.559 118.975 692.784 120.573 691.029 121.715L693.662 333.089H702.614V121.715Z" fill="#F5F5F5" stroke="black" stroke-width="3"/>
<path d="M703.069 32.4915C697.503 29.4543 695.913 29.4544 690.347 32.4915V68.3783H703.069V32.4915Z" fill="#F5F5F5" stroke="black" stroke-width="3"/>
<path d="M656.953 32.4915C652.083 29.4543 650.692 29.4544 645.822 32.4915V68.3783H656.953V32.4915Z" fill="#F5F5F5" stroke="black" stroke-width="3"/>
<path d="M889.739 299.347L896.924 254.699H992.378L998.536 299.347H889.739Z" stroke="black" stroke-width="3"/>
<path d="M897.95 295.755L904.05 257.778H985.096L990.325 295.755H897.95Z" fill="white" stroke="black" stroke-width="3"/>
<path d="M889.681 337.837L889.681 299.86H998.536V337.837H889.681Z" fill="#F0F0F0" stroke="black" stroke-width="3"/>
<path d="M631.652 65.7315V101.018H703.371V68.182C695.095 52.0089 642.685 53.9694 631.652 65.7315Z" stroke="black" stroke-width="3"/>
<path d="M631.652 101.352C633.611 84.1284 699.059 86.0421 703.37 101.352C691.221 118.575 635.571 111.877 631.652 101.352Z" stroke="black" stroke-width="3"/>
<path d="M679.02 100.97C679.02 100.97 679.02 100.972 679.019 100.975C679.02 100.972 679.02 100.97 679.02 100.97ZM678.643 100.668C678.865 100.838 678.959 100.957 678.997 101.018C678.959 101.079 678.865 101.198 678.643 101.368C678.212 101.698 677.495 102.06 676.475 102.39C674.45 103.046 671.559 103.477 668.299 103.477C665.039 103.477 662.148 103.046 660.124 102.39C659.103 102.06 658.386 101.698 657.956 101.368C657.733 101.198 657.639 101.079 657.602 101.018C657.639 100.957 657.733 100.838 657.956 100.668C658.386 100.338 659.103 99.9763 660.124 99.6456C662.148 98.9895 665.039 98.5591 668.299 98.5591C671.559 98.5591 674.45 98.9895 676.475 99.6456C677.495 99.9763 678.212 100.338 678.643 100.668ZM657.578 100.97C657.578 100.97 657.579 100.972 657.579 100.975C657.578 100.972 657.578 100.97 657.578 100.97ZM657.578 101.066C657.578 101.066 657.578 101.064 657.579 101.061C657.579 101.064 657.578 101.066 657.578 101.066ZM679.019 101.061C679.02 101.064 679.02 101.066 679.02 101.066C679.02 101.066 679.02 101.064 679.019 101.061Z" fill="url(#paint1_linear_84_2)" stroke="black" stroke-width="3"/>
<path d="M1062.11 414.302V337.836H552V414.302H565.816V778.156H552V811H626.392L637.55 804.329H963.279L979.22 811H1058.39V778.156H1050.95V414.302H1062.11Z" stroke="black" stroke-width="3"/>
<path d="M563.804 764.813L561.238 420.974H590.49H986.161C989.582 421.316 996.836 423.848 998.478 431.237V764.813C998.991 765.839 993.859 773.024 986.161 773.024C972.613 774.255 716.735 773.537 590.49 773.024C576.941 771.792 567.909 767.379 563.804 764.813Z" fill="white"/>
<path d="M590.49 773.024C576.941 771.792 567.909 767.379 563.804 764.813L561.238 420.974H590.49M590.49 773.024C590.49 748.801 590.49 528.402 590.49 420.974M590.49 773.024C716.735 773.537 972.613 774.255 986.161 773.024C993.859 773.024 998.991 765.839 998.478 764.813C998.478 658.411 998.478 442.733 998.478 431.237C996.836 423.848 989.582 421.316 986.161 420.974H590.49" stroke="black" stroke-width="3"/>
<path d="M1055.96 420.974H1021.57C1012.54 420.974 1009.25 431.58 1008.74 436.883V510.269L1021.57 530.284V659.608L1008.74 682.702V763.786C1028.45 780.619 1046.03 770.8 1052.36 763.786L1055.96 420.974Z" fill="white" stroke="black" stroke-width="3"/>
<path d="M640.782 330.652L612.557 337.836H733.67L702.879 330.652H671.831H640.782Z" stroke="black" stroke-width="3"/>
<path d="M851.705 406.091V352.206H1008.74V406.091H851.705Z" stroke="black" stroke-width="3"/>
<path d="M900.971 388.642V369.654H957.936V388.642H900.971Z" fill="white" stroke="black" stroke-width="3"/>
</g>
<defs>
<filter id="filter0_d_84_2" x="0.5" y="0" width="1067.11" height="823.339" filterUnits="userSpaceOnUse" color-interpolation-filters="sRGB">
<feFlood flood-opacity="0" result="BackgroundImageFix"/>
<feColorMatrix in="SourceAlpha" type="matrix" values="0 0 0 0 0 0 0 0 0 0 0 0 0 0 0 0 0 0 127 0" result="hardAlpha"/>
<feOffset dy="4"/>
<feGaussianBlur stdDeviation="2"/>
<feComposite in2="hardAlpha" operator="out"/>
<feColorMatrix type="matrix" values="0 0 0 0 0 0 0 0 0 0 0 0 0 0 0 0 0 0 0.25 0"/>
<feBlend mode="normal" in2="BackgroundImageFix" result="effect1_dropShadow_84_2"/>
<feBlend mode="normal" in="SourceGraphic" in2="effect1_dropShadow_84_2" result="shape"/>
</filter>
<linearGradient id="paint0_linear_84_2" x1="250.417" y1="422.653" x2="250.417" y2="429.825" gradientUnits="userSpaceOnUse">
<stop stop-color="#C4C4C4"/>
<stop offset="1" stop-color="#F5F5F5"/>
</linearGradient>
<linearGradient id="paint1_linear_84_2" x1="668.299" y1="97.0591" x2="668.299" y2="104.977" gradientUnits="userSpaceOnUse">
<stop stop-color="#C4C4C4"/>
<stop offset="1" stop-color="#F5F5F5"/>
</linearGradient>
</defs>
</svg>
