<svg width="491" height="491" viewBox="0 0 491 491" fill="none" xmlns="http://www.w3.org/2000/svg">
<rect width="491" height="491" fill="white"/>
<path d="M124.5 179.924V329.88C124.5 330.576 124.861 331.222 125.455 331.585L242.955 403.633C244.287 404.45 246 403.491 246 401.928V246.168C246 245.447 245.611 244.781 244.982 244.426L127.482 178.181C126.149 177.43 124.5 178.393 124.5 179.924Z" stroke="black" stroke-width="10"/>
<path d="M245.5 402.076V252.12C245.5 251.424 245.861 250.778 246.455 250.415L363.955 178.367C365.287 177.55 367 178.509 367 180.072V335.832C367 336.553 366.611 337.219 365.982 337.574L248.482 403.819C247.149 404.57 245.5 403.607 245.5 402.076Z" stroke="black" stroke-width="10"/>
<path d="M248.11 114.943L126.932 175.291C125.485 176.012 125.446 178.062 126.865 178.837L248.044 244.978C248.64 245.303 249.36 245.304 249.957 244.98L371.618 178.838C373.041 178.065 373.003 176.009 371.552 175.29L249.891 114.942C249.33 114.663 248.671 114.664 248.11 114.943Z" stroke="black" stroke-width="10"/>
<path d="M122.561 176.977L94.2503 191.35C92.8428 192.064 92.7791 194.052 94.138 194.855L213.467 265.39C214.103 265.765 214.894 265.76 215.525 265.376L246.038 246.803C247.354 246.002 247.309 244.077 245.957 243.339L124.424 177.005C123.846 176.689 123.149 176.678 122.561 176.977Z" fill="white" stroke="black" stroke-width="10"/>
<path d="M285.496 262.926L254.504 245.217C253.168 244.453 253.158 242.53 254.487 241.754L368.571 175.043C369.151 174.704 369.863 174.679 370.465 174.976L403.668 191.356C405.097 192.061 405.168 194.072 403.793 194.876L287.498 262.916C286.881 263.277 286.117 263.281 285.496 262.926Z" fill="white" stroke="black" stroke-width="10"/>
<path d="M126.539 174.873L94.4472 153.924C93.1478 153.076 93.2674 151.135 94.6612 150.453L209.094 94.4433C209.664 94.1645 210.332 94.1723 210.895 94.4645L246.016 112.692C247.466 113.444 247.45 115.525 245.989 116.256L128.527 174.987C127.891 175.305 127.134 175.261 126.539 174.873Z" fill="white" stroke="black" stroke-width="10"/>
<path d="M286.156 97.3994L253.701 112.75C252.196 113.462 252.169 115.594 253.655 116.343L365.009 172.5C365.625 172.811 366.359 172.782 366.949 172.423L399.79 152.452C401.159 151.62 401.043 149.597 399.589 148.927L287.848 97.3912C287.311 97.1433 286.691 97.1463 286.156 97.3994Z" fill="white" stroke="black" stroke-width="10"/>
</svg>
