<svg width="491" height="491" viewBox="0 0 491 491" fill="none" xmlns="http://www.w3.org/2000/svg">
<rect width="491" height="491" fill="white"/>
<path d="M129.5 314C129.5 251 112 93 243 93C392 93 359 278.5 359 314C347 368 300.5 399.5 237.701 399.5M185 302.5C207 327.5 268.1 334.9 300.5 302.5" stroke="black" stroke-width="10"/>
<path d="M97 242.5H130V309.5H97C88.7157 309.5 82 302.784 82 294.5V257.5C82 249.216 88.7157 242.5 97 242.5Z" stroke="black" stroke-width="10"/>
<mask id="path-4-inside-1_89_9" fill="white">
<path d="M414 294.5C414 305.546 405.046 314.5 394 314.5H356V243.5C356 240.186 358.686 237.5 362 237.5H394C405.046 237.5 414 246.454 414 257.5V294.5Z"/>
</mask>
<path d="M414 294.5C414 305.546 405.046 314.5 394 314.5H356V243.5C356 240.186 358.686 237.5 362 237.5H394C405.046 237.5 414 246.454 414 257.5V294.5Z" stroke="black" stroke-width="20" mask="url(#path-4-inside-1_89_9)"/>
</svg>
