<svg width="624" height="620" viewBox="0 0 624 620" fill="none" xmlns="http://www.w3.org/2000/svg">
<path d="M235.287 375.716L308.538 339.091L452.293 423.427L379.954 467.211L235.287 375.716Z" fill="#D0EF47" fill-opacity="0.5" stroke="black"/>
<path d="M235.287 350.632L308.538 314.007L452.293 398.343L379.954 442.127L235.287 350.632Z" fill="#D0EF47" fill-opacity="0.5" stroke="black"/>
<path d="M235.287 316.866L308.538 280.241L452.293 364.577L379.954 408.361L235.287 316.866Z" fill="#D0EF47" fill-opacity="0.5" stroke="black"/>
<path d="M235.287 285.994L308.538 249.369L452.293 333.705L379.954 377.489L235.287 285.994Z" fill="#D0EF47" fill-opacity="0.5" stroke="black"/>
<path d="M235.287 252.228L308.538 215.603L452.293 299.939L379.954 343.723L235.287 252.228Z" fill="#D0EF47" fill-opacity="0.5" stroke="black"/>
<path d="M235.287 221.356L308.538 184.731L452.293 269.067L379.954 312.851L235.287 221.356Z" fill="#D0EF47" fill-opacity="0.5" stroke="black"/>
<path d="M235.287 187.589L308.538 150.964L452.293 235.3L379.954 279.084L235.287 187.589Z" fill="#D0EF47" fill-opacity="0.5" stroke="black"/>
<path d="M341.2 69.8693L485.431 140.778L341.201 232.752L197.453 146.085L341.2 69.8693Z" fill="#AFAFAF" fill-opacity="0.3"/>
<path d="M485.431 140.778L485.431 418.626L341.201 505.293L341.201 232.752L485.431 140.778Z" fill="#535353" fill-opacity="0.3"/>
<path d="M341.201 232.752L341.201 505.293L197.452 418.626L197.453 146.085L341.201 232.752Z" fill="#D9D9D9" fill-opacity="0.2"/>
<path d="M341.2 342.411L485.431 418.626L341.201 505.293L197.452 418.626L341.2 342.411Z" fill="#D9D9D9" fill-opacity="0.3"/>
<path d="M196.97 382.419L341.201 468.763L262.732 518.505L118.983 423.767L196.97 382.419Z" fill="#D9D9D9" fill-opacity="0.3"/>
<path d="M341.201 468.763L341.201 505.293L262.732 552.445L262.732 518.505L341.201 468.763Z" fill="#B5B5B5" fill-opacity="0.5"/>
<path d="M262.732 518.505L262.732 552.445L190.858 505.076L118.983 457.708L118.983 423.767L262.732 518.505Z" fill="#D9D9D9" fill-opacity="0.2"/>
<path d="M197.452 418.626L341.201 505.293L262.732 552.445L190.858 505.076L118.983 457.708L197.452 418.626Z" fill="#D9D9D9" fill-opacity="0.3"/>
</svg>
