<svg width="163" height="182" viewBox="0 0 163 182" fill="none" xmlns="http://www.w3.org/2000/svg">
<path d="M29.8084 90.0811H14.6891L8.35533 136.46H1V159.139H6.92513V180.592H37.368V159.139H42.8845V136.46H35.3249L29.8084 90.0811Z" stroke="#323232" stroke-width="2"/>
<path d="M77.7852 1H71.0567L67.4286 60.965L61.6002 61.1355L57.3828 119.498L50.4442 119.668V135.417H57.3828L66.0402 178.754H81.3021L90.5761 135.417H97.4365V119.668L90.5761 119.498L87.1837 60.965H81.3021L77.7852 1Z" stroke="#323232" stroke-width="2"/>
<path d="M142.794 43.0889H131.148L128.288 69.8541L124.202 71.8972V97.6409H112.147V123.385L120.115 125.632L128.288 178.55H147.085L154.44 125.632L162 123.385V97.6409H149.945V71.8972L144.633 69.8541L142.794 43.0889Z" stroke="#323232" stroke-width="2"/>
</svg>
